<svg width="170" height="91" viewBox="0 0 170 91" fill="none" xmlns="http://www.w3.org/2000/svg">
<path d="M157.954 49.7678C155.987 46.6346 154.822 43.0655 154.561 39.3753C154.822 35.681 155.987 32.1075 157.954 28.9695C160.813 24.5481 165.221 21.6761 167.104 16.4666C167.585 15.1308 169.442 12.6596 165.768 7.59695C165.314 6.96913 159.089 5.47305 153.666 10.4823L152.223 9.25333C150.888 8.73237 149.271 8.1847 147.562 7.63702C146.993 7.42232 146.414 7.23948 145.825 7.08935C134.673 3.69666 123.039 2.15785 111.388 2.53432C96.1902 2.93488 81.2744 6.73229 67.7349 13.6481C61.9509 16.7204 53.7626 21.075 47.0836 26.4983C46.4179 26.2187 45.7236 26.0127 45.0131 25.8839V25.8171C44.5055 25.5499 43.9312 25.2561 43.29 24.9488L22.6254 11.7913C21.2896 11.2704 15.9464 9.30676 11.2712 11.8848C8.34578 13.5011 6.64933 16.4933 5.05975 19.2984C4.1475 20.8439 3.40409 22.483 2.84234 24.1874C0.878734 30.7061 2.25459 40.2169 7.95841 45.7203C11.3379 49.0197 15.1984 49.9548 15.1316 52.5328C15.1316 53.5347 14.4236 54.6167 12.7405 55.7922C12.7405 55.7922 -0.0563171 64.9957 6.5959 78.9814C6.5959 78.9814 15.2919 93.1274 25.0164 87.5038C32.3232 83.2693 41.0459 73.7585 44.9731 69.297C46.2554 67.841 47.0836 66.9326 47.0836 66.9326V66.4517C47.4844 66.1979 47.845 65.9441 48.1522 65.7171C50.3705 67.3907 52.6903 68.9254 55.0983 70.3122L55.2052 70.2053C55.4056 70.4324 55.6193 70.6461 55.8464 70.8598C53.6958 73.5314 54.3369 74.7737 54.4037 75.1611C55.2186 79.1684 63.7542 80.1436 64.1817 80.197C67.6678 80.1645 71.1314 79.6337 74.4673 78.6208C81.4786 80.8001 88.717 82.1671 96.0402 82.6949C121.741 84.3246 141.457 72.9837 149.405 67.7608L149.525 66.5319L149.231 66.1312C149.793 65.7758 150.337 65.3923 150.861 64.9824C156.551 73.852 165.154 71.875 165.688 71.1404C169.388 66.0777 167.532 63.6065 167.024 62.2707C165.167 57.0612 160.759 54.1892 157.954 49.7678Z" fill="#9F8B56" stroke="#281B0E" stroke-opacity="0.49" stroke-width="2.5" stroke-miterlimit="10"/>
<path d="M119.657 37.198C125.404 37.198 130.063 32.5392 130.063 26.7922C130.063 21.0452 125.404 16.3864 119.657 16.3864C113.91 16.3864 109.251 21.0452 109.251 26.7922C109.251 32.5392 113.91 37.198 119.657 37.198Z" stroke="#231F20" stroke-opacity="0.49" stroke-width="3" stroke-miterlimit="10"/>
<path d="M119.657 31.7346C122.386 31.7346 124.599 29.5218 124.599 26.7922C124.599 24.0626 122.386 21.8498 119.657 21.8498C116.927 21.8498 114.714 24.0626 114.714 26.7922C114.714 29.5218 116.927 31.7346 119.657 31.7346Z" fill="#231F20" fill-opacity="0.49"/>
<path d="M112.898 2.72131C112.898 2.72131 97.8968 20.0865 98.7517 41.4591C99.6066 62.8317 107.661 72.7433 113.606 80.9985L103.347 82.027C103.347 82.027 88.4929 63.4195 89.7084 43.9704C90.6322 29.1975 95.5238 14.9472 103.868 2.72131H112.898Z" stroke="#231F20" stroke-opacity="0.49" stroke-width="2.98" stroke-miterlimit="10"/>
<path d="M76.4712 8.90601C72.8915 9.82488 69.4504 11.2175 66.2391 13.0469C64.5869 13.9916 63.0834 15.1755 61.7776 16.5601C60.3355 18.0074 59.3986 19.8812 59.106 21.9032C59.0526 22.4183 59.0526 22.9376 59.106 23.4527V23.9336C59.0859 24.2004 59.0859 24.4683 59.106 24.7351C59.1508 25.7876 59.4242 26.8178 59.9075 27.754C60.4195 28.6666 61.1209 29.4591 61.9646 30.0782C62.3825 30.3772 62.8301 30.6324 63.3004 30.8396C63.7272 31.0608 64.1746 31.2397 64.6362 31.3739C66.4434 31.8958 68.3122 32.1743 70.193 32.2021L72.8646 32.3224C73.3188 32.3224 73.7596 32.3224 74.2004 32.3224H74.4141H74.5878H74.7481L74.9484 32.2155C74.9484 32.2155 74.9484 32.2155 75.1221 32.0418C75.2468 31.8676 75.3038 31.6539 75.2824 31.4407C75.2769 31.3343 75.2397 31.232 75.1755 31.1469C75.1779 31.0518 75.1643 30.957 75.1355 30.8664C75.0952 30.8218 75.0504 30.7815 75.0019 30.7461L74.8549 30.666H74.708H74.4943L73.7863 30.5324C73.7863 30.5324 73.6394 30.8396 74.0668 31.3339C74.1603 31.4541 74.3206 31.601 74.4408 31.748C74.4408 31.748 74.5477 31.561 74.5477 31.5476C74.5477 31.5342 74.5477 31.5476 74.5477 31.4541C74.5354 31.415 74.5354 31.373 74.5477 31.3339V31.227C74.5477 31.227 74.4676 31.227 74.4141 31.1602L73.8798 30.8664C73.0067 30.5758 72.1139 30.3481 71.2082 30.1851C70.006 29.9447 68.4031 29.7977 66.7066 29.4237C65.7222 29.3073 64.7777 28.966 63.9462 28.4264C63.1147 27.8867 62.4184 27.163 61.9112 26.3113C61.6648 25.7569 61.5114 25.1657 61.457 24.5614V23.9737C61.457 23.8802 61.457 23.8 61.457 23.6665V23.5329V23.2791C61.4007 22.9213 61.3783 22.5591 61.3902 22.1971C61.4809 20.4783 62.1226 18.8343 63.2202 17.5085C65.7315 14.4762 69.8992 11.8982 74.8549 9.68076" fill="#231F20" fill-opacity="0.49"/>
<path d="M91.3914 2C87.8062 2.9153 84.3602 4.30807 81.1459 6.14094C79.4968 7.09088 77.9903 8.26912 76.671 9.6407C75.2374 11.0941 74.302 12.9649 73.9994 14.9839C73.9462 15.4945 73.9462 16.0093 73.9994 16.52V17.0142C73.9794 17.281 73.9794 17.5489 73.9994 17.8157C74.0381 18.8692 74.3119 19.9007 74.8009 20.8346C75.3091 21.75 76.0112 22.5432 76.858 23.1589C77.276 23.4579 77.7236 23.713 78.1938 23.9203C78.6206 24.1414 79.068 24.3204 79.5296 24.4546C81.3226 24.9492 83.1731 25.2052 85.033 25.216L87.7046 25.3228C88.1588 25.3228 88.5996 25.3228 89.0404 25.3228H89.2541H89.4278C89.4808 25.3324 89.5351 25.3324 89.5881 25.3228L89.7884 25.216C89.7884 25.216 89.7884 25.216 89.9621 25.0423C90.0868 24.8681 90.1438 24.6544 90.1224 24.4412C90.11 24.3363 90.0735 24.2357 90.0155 24.1474C89.9786 24.084 89.9337 24.0256 89.882 23.9737C89.876 23.9086 89.8579 23.8451 89.8285 23.7867L89.6816 23.7199H89.5346H89.3209L88.6129 23.5863C88.6129 23.5863 88.466 23.8936 88.8801 24.3878C88.987 24.508 89.1473 24.655 89.2675 24.8019C89.2675 24.8019 89.3744 24.6149 89.3744 24.6015C89.3744 24.5882 89.3744 24.6015 89.3744 24.4947C89.3609 24.4603 89.3609 24.4222 89.3744 24.3878V24.2809C89.3744 24.2809 89.2942 24.2809 89.2408 24.2809L88.8267 24.1206C87.9531 23.8317 87.0604 23.6041 86.1551 23.4394C84.9529 23.1989 83.3499 23.0387 81.6401 22.678C80.6571 22.5572 79.7149 22.2126 78.8859 21.6707C78.0569 21.1288 77.3632 20.4041 76.858 19.5522C76.6039 19.0053 76.45 18.4171 76.4039 17.8157V17.2146C76.4039 17.1345 76.4039 17.0543 76.4039 16.9207V16.7872V16.5334C76.3766 16.1732 76.3766 15.8115 76.4039 15.4514C76.537 13.7324 77.221 12.1023 78.3541 10.8028C80.8654 7.7706 85.033 5.19253 89.9888 2.97512" fill="#231F20" fill-opacity="0.49"/>
<path d="M89.3212 23.1188C85.7583 24.0374 82.3349 25.4302 79.1425 27.2597C77.4859 28.1984 75.9778 29.3778 74.6676 30.7595C73.2256 32.2068 72.2887 34.0806 71.9961 36.1026C71.9427 36.6178 71.9427 37.137 71.9961 37.6521V38.133C71.9961 38.3868 71.9961 38.6807 71.9961 38.9345C72.0282 39.9889 72.3024 41.0218 72.7975 41.9534C73.3033 42.8474 73.9958 43.622 74.8279 44.2242C75.2478 44.5202 75.6951 44.7752 76.1637 44.9856C76.5894 45.2093 77.037 45.3884 77.4995 45.5199C79.2924 46.0154 81.1429 46.2715 83.003 46.2813L85.6745 46.4015H87.2908H87.4511H87.6248L87.8118 46.2947C87.8118 46.2947 87.8118 46.2947 87.9988 46.121C88.0619 46.0356 88.1074 45.9384 88.1326 45.8352C88.1578 45.732 88.1623 45.6249 88.1457 45.5199C88.1349 45.4166 88.1031 45.3166 88.0522 45.2261C88.011 45.1657 87.9664 45.1078 87.9187 45.0524L87.7717 44.9322L87.6248 44.8654H87.4778H87.2775L86.5562 44.7318C86.5562 44.7318 86.4092 45.039 86.8367 45.5333C86.9302 45.6669 87.1038 45.8004 87.224 45.9607C87.3443 46.121 87.224 45.9607 87.224 45.9607L87.3443 45.7604C87.4244 45.7604 87.3443 45.7604 87.3443 45.6669C87.338 45.627 87.338 45.5865 87.3443 45.5466V45.4398C87.3443 45.4398 87.3443 45.4398 87.224 45.4398L86.8099 45.2928C85.9389 44.9921 85.0456 44.7599 84.1384 44.5982C82.9362 44.3578 81.3199 44.2109 79.6234 43.8502C78.6407 43.7284 77.6989 43.3834 76.87 42.8416C76.0412 42.2999 75.3472 41.5757 74.8413 40.7244C74.5826 40.1736 74.4243 39.581 74.3738 38.9746V38.3868C74.3797 38.2845 74.3797 38.1819 74.3738 38.0796V37.9594V37.6922C74.3332 37.3327 74.3332 36.9697 74.3738 36.6102C74.5003 34.8937 75.1852 33.2657 76.324 31.975C78.8219 28.9294 83.003 26.3514 87.9587 24.134" fill="#231F20" fill-opacity="0.49"/>
<path d="M59.8807 19.4721C56.9805 20.1967 54.161 21.2126 51.4652 22.5043C48.6419 23.8001 46.1858 25.7787 44.3188 28.2616C43.3806 29.5902 42.7758 31.125 42.5555 32.7365C42.3413 34.3747 42.6203 36.0397 43.357 37.5186C44.1236 38.9254 45.236 40.1137 46.5892 40.9715C47.9424 41.8292 49.4918 42.328 51.0912 42.4209C51.0912 42.4209 51.2114 42.1137 50.8508 41.6328C50.0365 40.8611 49.1407 40.1803 48.1792 39.6024C47.3429 38.9433 46.613 38.1593 46.0152 37.2782C45.6139 36.6822 45.3159 36.0229 45.1336 35.3279C44.8777 34.4616 44.8139 33.5499 44.9466 32.6563C45.4026 30.0907 46.7627 27.7734 48.7803 26.1243C51.6975 23.6214 55.0051 21.6134 58.5716 20.1801" fill="#231F20" fill-opacity="0.49"/>
<path d="M68.8573 51.1302C65.5111 50.3946 62.2802 49.2083 59.253 47.6037C57.782 46.8342 56.4319 45.8531 55.2456 44.6917C54.1097 43.6253 53.3504 42.2191 53.0817 40.6844C53.0484 40.3111 53.0484 39.9356 53.0817 39.5623V39.028C53.0884 38.9257 53.0884 38.8231 53.0817 38.7208C53.0617 38.5432 53.0617 38.364 53.0817 38.1864C53.079 37.4555 53.2435 36.7336 53.5625 36.0759C54.3116 34.7306 55.5587 33.7329 57.0356 33.2975C58.6639 32.8122 60.3469 32.534 62.0448 32.4693L64.7164 32.2689H65.972H66.1056V32.0552C66.1056 31.7613 66.2258 31.5476 66.2659 31.5476C66.1426 31.4058 66.0555 31.2362 66.0121 31.0533L65.8919 30.8663H65.785C65.6114 30.8663 65.3843 30.9598 65.1839 30.9999C64.9835 31.04 65.1839 31.3472 65.6915 31.6544C65.8771 31.7548 66.0821 31.814 66.2926 31.8281H66.3594C66.3594 31.8281 66.3594 31.8281 66.5197 31.7212V31.6544C66.54 31.5756 66.54 31.4929 66.5197 31.414C66.3995 31.2003 66.3995 31.2671 66.3727 31.227L66.2392 31.1602L65.9987 31.0533C65.8423 30.9853 65.6817 30.9273 65.5178 30.8797C64.5976 30.6285 63.6523 30.4806 62.6993 30.4389C61.0403 30.3128 59.3722 30.3845 57.7302 30.6526C56.486 30.8893 55.2926 31.3414 54.2037 31.9884C52.7784 32.8342 51.6886 34.1458 51.1181 35.7019C50.8308 36.562 50.704 37.4675 50.744 38.3735V38.7475V38.9345V39.4688C50.7421 39.9573 50.7868 40.4448 50.8776 40.9248C51.3365 42.9401 52.467 44.7395 54.0835 46.0275C57.3562 48.6991 61.8979 50.1685 67.0674 50.9966" fill="#231F20" fill-opacity="0.49"/>
<path d="M95.3857 80.6244C90.8343 79.9096 86.4967 78.1992 82.6824 75.6152C82.5135 75.8028 82.3901 76.0268 82.3217 76.2698C82.2425 76.5798 82.2363 76.9041 82.3035 77.2169C82.3707 77.5298 82.5095 77.8229 82.7091 78.0731C83.6371 79.1602 84.878 79.9345 86.2623 80.2905C89.0224 81.0853 91.9258 81.2496 94.7579 80.7714" fill="#231F20" fill-opacity="0.49"/>
<path d="M57.6761 65.3297C54.3383 64.5797 51.1137 63.394 48.0851 61.8032C46.6147 61.0328 45.2646 60.0518 44.0778 58.8912C42.9521 57.8187 42.1986 56.4147 41.9272 54.8838C41.8869 54.5153 41.8869 54.1436 41.9272 53.7751V52.9335C41.9144 52.7557 41.9144 52.5771 41.9272 52.3992C41.929 51.663 42.098 50.9367 42.4214 50.2753C43.1675 48.9303 44.4164 47.936 45.8944 47.5103C47.5198 47.0122 49.2045 46.7337 50.9036 46.6821L53.5752 46.4817C54.016 46.4817 54.4568 46.4817 54.8442 46.4817H54.9778V46.268C54.999 46.0842 55.0581 45.9068 55.1515 45.747C55.1515 45.747 54.9778 45.5199 54.8843 45.2661L54.8041 45.0524H54.6973L54.0962 45.1726C54.0962 45.1726 54.0962 45.5333 54.6038 45.8405C54.7876 45.9452 54.9936 46.0047 55.2049 46.0142H55.2717C55.2717 46.0142 55.2717 46.0142 55.432 45.9207V45.8405C55.4489 45.8027 55.4577 45.7617 55.4577 45.7203C55.4577 45.6789 55.4489 45.6379 55.432 45.6001C55.3251 45.3997 55.3251 45.4665 55.2984 45.4264L55.1648 45.3463L54.9244 45.2394L54.4435 45.0791C53.5187 44.8281 52.5689 44.6803 51.6116 44.6383C49.9571 44.5122 48.2934 44.584 46.6558 44.852C45.4116 45.0888 44.2182 45.5408 43.1294 46.1878C41.7012 47.0302 40.6103 48.343 40.0437 49.9013C39.7513 50.7604 39.6199 51.6661 39.6563 52.5729V52.9335V53.1339V53.6682C39.655 54.1523 39.6997 54.6353 39.7899 55.1109C40.2541 57.155 41.4161 58.9735 43.0759 60.2537C46.3486 62.9252 50.8903 64.408 56.0598 65.2228" fill="#231F20" fill-opacity="0.49"/>
<path d="M78.087 44.2242C74.2497 45.1991 70.5769 46.7339 67.1869 48.7793C65.4405 49.8547 63.9131 51.2506 62.6853 52.8935C61.4131 54.6297 60.8322 56.7771 61.0557 58.9179C61.3235 58.9132 61.5821 58.8192 61.7904 58.6507C62.0459 58.4616 62.2634 58.226 62.4315 57.9561C62.6185 57.6489 62.8991 57.2482 63.1662 56.7406C64.0264 55.0749 65.1445 53.5556 66.479 52.239C69.6958 49.2596 73.3211 46.7543 77.2454 44.7986" fill="#231F20" fill-opacity="0.49"/>
<path d="M155.924 49.4071C153.985 46.2667 152.847 42.6979 152.611 39.0147C152.867 35.3214 154.028 31.7479 155.99 28.6089C158.862 24.2008 163.257 21.3155 165.154 16.1059C165.635 14.7701 167.478 12.3123 163.818 7.23627C163.284 6.50159 154.615 4.5647 148.938 13.4878C144.77 20.0732 142.259 23.4794 140.669 27.7406C139.437 31.1716 138.778 34.7819 138.719 38.4269V38.4269V39.5757C138.778 43.2207 139.437 46.831 140.669 50.262C142.245 54.5098 144.77 57.9294 148.938 64.5015C154.615 73.4913 163.284 71.4876 163.818 70.753C167.518 65.6903 165.675 63.2191 165.154 61.8967C163.19 56.7005 158.796 53.8285 155.924 49.4071Z" stroke="#231F20" stroke-opacity="0.49" stroke-width="3" stroke-miterlimit="10"/>
<path d="M70.4329 57.1413L86.4624 53.5614C86.4624 53.5614 93.7958 50.8898 92.607 57.1413C91.1327 63.8386 87.2004 69.7395 81.5867 73.6783C75.8767 77.692 69.0637 79.8386 62.0842 79.8229C61.6034 79.8229 53.1211 78.7944 52.3196 74.787C52.2261 74.3462 51.3979 72.7566 54.9111 69.2034C63.794 60.2537 61.256 59.1049 70.4329 57.1413Z" stroke="#231F20" stroke-opacity="0.49" stroke-width="3" stroke-miterlimit="10"/>
<path d="M82.0808 59.0648C81.3194 60.8815 80.4645 62.7249 79.5428 64.4881C78.6935 66.2392 77.6154 67.8697 76.3369 69.337C76.4867 69.5312 76.6727 69.6945 76.8846 69.8179C77.1482 69.9641 77.4447 70.0408 77.7462 70.0408C78.0476 70.0408 78.3441 69.9641 78.6077 69.8179C80.0771 69.0966 81.9873 66.3449 82.1877 59.6793" fill="#231F20" fill-opacity="0.49"/>
<path d="M75.3218 60.4273C74.2264 62.6581 73.0242 64.9022 71.7419 67.0395C71.1007 68.1214 70.4061 69.1634 69.7115 70.1652C69.0334 71.1355 68.2543 72.031 67.3872 72.8368C67.56 73.097 67.788 73.3159 68.0551 73.478C68.3754 73.6778 68.7425 73.7903 69.1197 73.8043C69.497 73.8184 69.8714 73.7335 70.2057 73.5581C72.1025 72.7566 74.694 69.4305 75.4019 61.1086" fill="#231F20" fill-opacity="0.49"/>
<path d="M68.2691 60.1602C66.9333 62.6581 65.3437 65.1694 63.714 67.5471C62.8858 68.7493 62.0309 69.9114 61.136 71.0067C60.2801 72.0934 59.3081 73.0833 58.2373 73.9588C58.4276 74.2751 58.677 74.5518 58.972 74.7737C59.3306 75.033 59.7497 75.1962 60.1894 75.2477C60.629 75.2991 61.0744 75.2371 61.4833 75.0675C63.7541 74.3195 67.0535 70.6461 68.3225 61.0151" fill="#231F20" fill-opacity="0.49"/>
<path d="M137.383 34.7134C137.677 32.994 138.124 31.3042 138.718 29.6641C140.308 25.5098 142.819 22.1971 146.987 15.7853C148.299 13.6926 150.101 11.9505 152.237 10.7093L150.113 8.89264C137.092 4.03517 123.248 1.76642 109.358 2.2137C94.1888 2.61786 79.3018 6.4058 65.7844 13.3007C54.2966 19.3919 33.3247 30.5324 33.2179 45.1593C33.1377 54.3628 41.3395 63.179 53.0276 69.9381C61.777 61.2555 59.3058 60.1735 68.4559 58.2767L84.4854 54.7903C84.4854 54.7903 91.8055 52.1187 90.6166 58.2767C89.1041 64.8219 85.166 70.5501 79.5964 74.3061C77.3158 75.8993 74.837 77.1881 72.2229 78.1399C79.3135 80.3587 86.6384 81.7439 94.0496 82.2674C119.764 83.9105 139.466 72.5563 147.481 67.3333L147.588 66.1044C147.428 65.864 147.241 65.6502 147.08 65.3964C142.913 58.998 140.401 55.6719 138.812 51.531C138.22 49.8903 137.773 48.2007 137.476 46.4817C137.14 44.7194 136.953 42.9321 136.915 41.1385V41.1385C136.915 40.9382 136.915 40.7645 136.915 40.5775C136.915 40.3905 136.915 40.2035 136.915 40.0165C136.923 38.2389 137.08 36.465 137.383 34.7134V34.7134Z" stroke="#231F20" stroke-opacity="0.49" stroke-width="2.96" stroke-miterlimit="10"/>
<path d="M47.2039 63.9137C46.0818 63.0232 45.0266 62.1015 44.0381 61.1486C41.9409 63.5931 35.7295 70.4992 30.6802 73.5314C24.4154 77.1514 18.8184 68.0413 18.8184 68.0413C14.5305 59.0381 22.8258 53.1072 22.8258 53.1072C23.9078 52.3458 24.3486 51.6512 24.3619 50.9967C24.3619 49.3536 21.9308 48.7525 19.7535 46.6286C18.0507 44.8052 16.8445 42.5753 16.2504 40.1522C15.6564 37.7291 15.6943 35.1941 16.3606 32.7899C16.7237 31.6785 17.2028 30.6085 17.7899 29.5973C18.6562 27.666 20.0439 26.0146 21.7972 24.8286C24.776 23.1722 28.2357 24.4279 29.104 24.7618L39.6567 31.4407C40.986 29.7106 42.4511 28.0891 44.0381 26.5918L43.8644 24.4946L23.0395 11.2703C21.7037 10.7494 16.3606 8.78578 11.6853 11.3639C8.71986 13.0202 7.01005 15.9723 5.47389 18.8443C4.55255 20.4038 3.80878 22.0616 3.25649 23.7867C1.27952 30.1851 2.66874 39.6558 8.34584 45.1993C11.7254 48.4987 15.5724 49.4338 15.5057 52.0119C15.5057 53.0137 14.7977 54.0957 13.1146 55.2712C13.1146 55.2712 0.331112 64.4748 6.98333 78.4604C6.98333 78.4604 15.6793 92.6064 25.3905 86.9828C35.1017 81.3591 47.4176 66.3983 47.4176 66.3983L47.2039 63.9137Z" stroke="#231F20" stroke-opacity="0.49" stroke-width="2" stroke-miterlimit="10"/>
</svg>
