<svg width="173" height="91" viewBox="0 0 173 91" fill="none" xmlns="http://www.w3.org/2000/svg">
<path d="M157.954 49.7678C155.987 46.6346 154.822 43.0655 154.561 39.3753C154.822 35.681 155.987 32.1075 157.954 28.9695C160.813 24.5481 165.221 21.6761 167.104 16.4666C167.585 15.1308 169.442 12.6596 165.768 7.59695C165.314 6.96913 159.089 5.47305 153.666 10.4823L152.223 9.25333C150.888 8.73237 149.271 8.1847 147.562 7.63702C146.993 7.42232 146.414 7.23948 145.825 7.08935C134.673 3.69666 123.039 2.15785 111.388 2.53432C96.1902 2.93488 81.2744 6.73229 67.7349 13.6481C61.9509 16.7204 53.7626 21.075 47.0836 26.4983C46.4179 26.2187 45.7236 26.0127 45.0131 25.8839V25.8171C44.5055 25.5499 43.9312 25.2561 43.29 24.9488L22.6254 11.7913C21.2896 11.2704 15.9464 9.30676 11.2712 11.8848C8.34578 13.5011 6.64933 16.4933 5.05975 19.2984C4.1475 20.8439 3.40409 22.483 2.84234 24.1874C0.878734 30.7061 2.25459 40.2169 7.95841 45.7203C11.3379 49.0197 15.1984 49.9548 15.1316 52.5328C15.1316 53.5347 14.4236 54.6167 12.7405 55.7922C12.7405 55.7922 -0.0563171 64.9957 6.5959 78.9814C6.5959 78.9814 15.2919 93.1274 25.0164 87.5038C32.3232 83.2693 41.0459 73.7585 44.9731 69.297C46.2554 67.841 47.0836 66.9326 47.0836 66.9326V66.4517C47.4844 66.1979 47.845 65.9441 48.1522 65.7171C50.3705 67.3907 52.6903 68.9254 55.0983 70.3122L55.2052 70.2053C55.4056 70.4324 55.6193 70.6461 55.8464 70.8598C53.6958 73.5314 54.3369 74.7737 54.4037 75.1611C55.2186 79.1684 63.7542 80.1436 64.1817 80.197C67.6678 80.1645 71.1314 79.6337 74.4673 78.6208C81.4786 80.8001 88.717 82.1671 96.0402 82.6949C121.741 84.3246 141.457 72.9837 149.405 67.7608L149.525 66.5319L149.231 66.1312C149.793 65.7758 150.337 65.3923 150.861 64.9824C156.551 73.852 165.154 71.875 165.688 71.1404C169.388 66.0777 167.532 63.6065 167.024 62.2707C165.167 57.0612 160.759 54.1892 157.954 49.7678Z" fill="#C15EB7" stroke="#281B0E" stroke-opacity="0.49" stroke-width="2.5" stroke-miterlimit="10"/>
<path d="M119.657 37.198C125.404 37.198 130.063 32.5392 130.063 26.7923C130.063 21.0453 125.404 16.3865 119.657 16.3865C113.91 16.3865 109.251 21.0453 109.251 26.7923C109.251 32.5392 113.91 37.198 119.657 37.198Z" stroke="#231F20" stroke-opacity="0.49" stroke-width="3" stroke-miterlimit="10"/>
<path d="M119.657 31.7347C122.386 31.7347 124.599 29.5219 124.599 26.7923C124.599 24.0626 122.386 21.8499 119.657 21.8499C116.927 21.8499 114.714 24.0626 114.714 26.7923C114.714 29.5219 116.927 31.7347 119.657 31.7347Z" fill="#231F20" fill-opacity="0.49"/>
<path d="M112.897 2.72144C112.897 2.72144 97.8966 20.0867 98.7515 41.4593C99.6064 62.8319 107.661 72.7434 113.605 80.9986L103.347 82.0271C103.347 82.0271 88.4926 63.4196 89.7082 43.9706C90.632 29.1976 95.5236 14.9473 103.868 2.72144H112.897Z" stroke="#231F20" stroke-opacity="0.49" stroke-width="2.98" stroke-miterlimit="10"/>
<path d="M76.471 8.90601C72.8912 9.82488 69.4501 11.2175 66.2389 13.0469C64.5866 13.9916 63.0832 15.1755 61.7773 16.5601C60.3353 18.0074 59.3984 19.8812 59.1058 21.9032C59.0523 22.4183 59.0523 22.9376 59.1058 23.4527V23.9336C59.0857 24.2004 59.0857 24.4683 59.1058 24.7351C59.1505 25.7876 59.424 26.8178 59.9072 27.754C60.4192 28.6666 61.1207 29.4591 61.9643 30.0782C62.3823 30.3772 62.8299 30.6324 63.3001 30.8396C63.7269 31.0608 64.1743 31.2397 64.6359 31.3739C66.4432 31.8958 68.3119 32.1743 70.1928 32.2021L72.8644 32.3224C73.3185 32.3224 73.7593 32.3224 74.2002 32.3224H74.4139H74.5875H74.7478L74.9482 32.2155C74.9482 32.2155 74.9482 32.2155 75.1219 32.0418C75.2466 31.8676 75.3035 31.6539 75.2821 31.4407C75.2766 31.3343 75.2394 31.232 75.1753 31.1469C75.1776 31.0518 75.1641 30.957 75.1352 30.8664C75.095 30.8218 75.0502 30.7815 75.0016 30.7461L74.8547 30.666H74.7078H74.494L73.7861 30.5324C73.7861 30.5324 73.6391 30.8396 74.0666 31.3339C74.1601 31.4541 74.3204 31.601 74.4406 31.748C74.4406 31.748 74.5475 31.561 74.5475 31.5476C74.5475 31.5342 74.5475 31.5476 74.5475 31.4541C74.5352 31.415 74.5352 31.373 74.5475 31.3339V31.227C74.5475 31.227 74.4673 31.227 74.4139 31.1602L73.8796 30.8664C73.0064 30.5758 72.1136 30.3481 71.208 30.1851C70.0058 29.9447 68.4028 29.7977 66.7064 29.4237C65.7219 29.3073 64.7775 28.966 63.9459 28.4264C63.1144 27.8867 62.4181 27.163 61.9109 26.3113C61.6646 25.7569 61.5111 25.1657 61.4567 24.5614V23.9737C61.4567 23.8802 61.4567 23.8 61.4567 23.6665V23.5329V23.2791C61.4004 22.9213 61.3781 22.5591 61.39 22.1971C61.4807 20.4783 62.1223 18.8343 63.22 17.5085C65.7313 14.4762 69.8989 11.8982 74.8547 9.68076" fill="#231F20" fill-opacity="0.49"/>
<path d="M91.3916 2C87.8064 2.9153 84.3605 4.30807 81.1461 6.14094C79.4971 7.09088 77.9906 8.26912 76.6713 9.6407C75.2377 11.0941 74.3023 12.9649 73.9997 14.9839C73.9464 15.4945 73.9464 16.0093 73.9997 16.52V17.0142C73.9796 17.281 73.9796 17.5489 73.9997 17.8157C74.0383 18.8692 74.3122 19.9007 74.8012 20.8346C75.3094 21.75 76.0114 22.5432 76.8583 23.1589C77.2762 23.4579 77.7238 23.713 78.1941 23.9203C78.6209 24.1414 79.0683 24.3204 79.5298 24.4546C81.3229 24.9492 83.1733 25.2052 85.0333 25.216L87.7049 25.3228C88.159 25.3228 88.5998 25.3228 89.0407 25.3228H89.2544H89.428C89.481 25.3324 89.5353 25.3324 89.5883 25.3228L89.7887 25.216C89.7887 25.216 89.7887 25.216 89.9623 25.0423C90.087 24.8681 90.144 24.6544 90.1226 24.4412C90.1103 24.3363 90.0737 24.2357 90.0158 24.1474C89.9789 24.084 89.934 24.0256 89.8822 23.9737C89.8763 23.9086 89.8582 23.8451 89.8288 23.7867L89.6818 23.7199H89.5349H89.3212L88.6132 23.5863C88.6132 23.5863 88.4663 23.8936 88.8804 24.3878C88.9872 24.508 89.1475 24.655 89.2677 24.8019C89.2677 24.8019 89.3746 24.6149 89.3746 24.6015C89.3746 24.5882 89.3746 24.6015 89.3746 24.4947C89.3612 24.4603 89.3612 24.4222 89.3746 24.3878V24.2809C89.3746 24.2809 89.2944 24.2809 89.241 24.2809L88.8269 24.1206C87.9533 23.8317 87.0606 23.6041 86.1553 23.4394C84.9531 23.1989 83.3502 23.0387 81.6404 22.678C80.6574 22.5572 79.7152 22.2126 78.8862 21.6707C78.0572 21.1288 77.3634 20.4041 76.8583 19.5522C76.6041 19.0053 76.4503 18.4171 76.4041 17.8157V17.2146C76.4041 17.1345 76.4041 17.0543 76.4041 16.9207V16.7872V16.5334C76.3768 16.1732 76.3768 15.8115 76.4041 15.4514C76.5373 13.7324 77.2212 12.1023 78.3543 10.8028C80.8656 7.7706 85.0333 5.19253 89.9891 2.97512" fill="#231F20" fill-opacity="0.49"/>
<path d="M89.3212 23.1189C85.7583 24.0375 82.3349 25.4303 79.1425 27.2598C77.4859 28.1985 75.9778 29.378 74.6676 30.7596C73.2256 32.2069 72.2887 34.0807 71.9961 36.1027C71.9427 36.6179 71.9427 37.1371 71.9961 37.6523V38.1331C71.9961 38.3869 71.9961 38.6808 71.9961 38.9346C72.0282 39.9891 72.3024 41.022 72.7975 41.9535C73.3033 42.8476 73.9958 43.6221 74.8279 44.2243C75.2478 44.5204 75.6951 44.7753 76.1637 44.9857C76.5894 45.2094 77.037 45.3885 77.4995 45.5201C79.2924 46.0156 81.1429 46.2716 83.003 46.2814L85.6745 46.4017H87.2908H87.4511H87.6248L87.8118 46.2948C87.8118 46.2948 87.8118 46.2948 87.9988 46.1212C88.0619 46.0357 88.1074 45.9385 88.1326 45.8354C88.1578 45.7322 88.1623 45.625 88.1457 45.5201C88.1349 45.4167 88.1031 45.3167 88.0522 45.2262C88.011 45.1658 87.9664 45.1079 87.9187 45.0525L87.7717 44.9323L87.6248 44.8655H87.4778H87.2775L86.5562 44.7319C86.5562 44.7319 86.4092 45.0392 86.8367 45.5334C86.9302 45.667 87.1038 45.8006 87.224 45.9609C87.3443 46.1212 87.224 45.9609 87.224 45.9609L87.3443 45.7605C87.4244 45.7605 87.3443 45.7605 87.3443 45.667C87.338 45.6272 87.338 45.5866 87.3443 45.5468V45.4399C87.3443 45.4399 87.3443 45.4399 87.224 45.4399L86.8099 45.293C85.9389 44.9922 85.0456 44.76 84.1384 44.5984C82.9362 44.3579 81.3199 44.211 79.6234 43.8503C78.6407 43.7285 77.6989 43.3835 76.87 42.8418C76.0412 42.3 75.3472 41.5758 74.8413 40.7246C74.5826 40.1737 74.4243 39.5811 74.3738 38.9747V38.3869C74.3797 38.2846 74.3797 38.182 74.3738 38.0797V37.9595V37.6923C74.3332 37.3328 74.3332 36.9699 74.3738 36.6103C74.5003 34.8938 75.1852 33.2658 76.324 31.9752C78.8219 28.9296 83.003 26.3515 87.9587 24.1341" fill="#231F20" fill-opacity="0.49"/>
<path d="M59.8804 19.4722C56.9803 20.1968 54.1608 21.2127 51.465 22.5044C48.6416 23.8001 46.1855 25.7788 44.3185 28.2616C43.3803 29.5903 42.7756 31.1251 42.5553 32.7365C42.341 34.3748 42.6201 36.0398 43.3567 37.5187C44.1233 38.9255 45.2357 40.1138 46.5889 40.9715C47.9421 41.8293 49.4915 42.3281 51.091 42.421C51.091 42.421 51.2112 42.1138 50.8505 41.6329C50.0363 40.8612 49.1405 40.1804 48.1789 39.6025C47.3427 38.9433 46.6128 38.1594 46.015 37.2782C45.6137 36.6822 45.3156 36.0229 45.1333 35.328C44.8775 34.4616 44.8137 33.5499 44.9463 32.6564C45.4024 30.0908 46.7624 27.7735 48.78 26.1244C51.6972 23.6214 55.0048 21.6134 58.5714 20.1801" fill="#231F20" fill-opacity="0.49"/>
<path d="M68.8571 51.1303C65.5108 50.3947 62.2799 49.2084 59.2528 47.6039C57.7818 46.8343 56.4316 45.8532 55.2454 44.6919C54.1095 43.6254 53.3501 42.2192 53.0814 40.6845C53.0481 40.3112 53.0481 39.9357 53.0814 39.5624V39.0281C53.0881 38.9258 53.0881 38.8232 53.0814 38.7209C53.0615 38.5433 53.0615 38.3641 53.0814 38.1866C53.0788 37.4556 53.2433 36.7337 53.5623 36.076C54.3113 34.7307 55.5584 33.733 57.0354 33.2976C58.6637 32.8123 60.3467 32.5341 62.0446 32.4694L64.7161 32.269H65.9718H66.1054V32.0553C66.1054 31.7614 66.2256 31.5477 66.2656 31.5477C66.1423 31.4059 66.0552 31.2363 66.0118 31.0535L65.8916 30.8665H65.7848C65.6111 30.8665 65.384 30.96 65.1837 31C64.9833 31.0401 65.1837 31.3473 65.6913 31.6546C65.8768 31.7549 66.0819 31.8142 66.2924 31.8282H66.3591C66.3591 31.8282 66.3591 31.8282 66.5194 31.7214V31.6546C66.5398 31.5757 66.5398 31.493 66.5194 31.4141C66.3992 31.2004 66.3992 31.2672 66.3725 31.2271L66.2389 31.1603L65.9985 31.0535C65.8421 30.9854 65.6814 30.9274 65.5176 30.8798C64.5974 30.6286 63.6521 30.4808 62.6991 30.439C61.0401 30.3129 59.372 30.3846 57.73 30.6527C56.4857 30.8895 55.2923 31.3415 54.2035 31.9885C52.7782 32.8343 51.6883 34.1459 51.1178 35.702C50.8305 36.5621 50.7037 37.4677 50.7438 38.3736V38.7476V38.9346V39.4689C50.7418 39.9574 50.7866 40.445 50.8774 40.9249C51.3362 42.9403 52.4667 44.7397 54.0833 46.0276C57.3559 48.6992 61.8976 50.1686 67.0671 50.9968" fill="#231F20" fill-opacity="0.49"/>
<path d="M95.386 80.6244C90.8345 79.9096 86.497 78.1992 82.6826 75.6152C82.5137 75.8028 82.3903 76.0268 82.322 76.2698C82.2428 76.5798 82.2365 76.9041 82.3037 77.2169C82.371 77.5298 82.5098 77.8229 82.7093 78.0731C83.6374 79.1602 84.8782 79.9345 86.2625 80.2905C89.0226 81.0853 91.926 81.2496 94.7581 80.7714" fill="#231F20" fill-opacity="0.49"/>
<path d="M57.6763 65.3298C54.3386 64.5798 51.1139 63.3942 48.0854 61.8033C46.6149 61.033 45.2649 60.0519 44.078 58.8913C42.9523 57.8189 42.1988 56.4148 41.9274 54.8839C41.8871 54.5154 41.8871 54.1437 41.9274 53.7752V52.9337C41.9147 52.7558 41.9147 52.5772 41.9274 52.3994C41.9292 51.6631 42.0982 50.9369 42.4216 50.2755C43.1677 48.9304 44.4167 47.9361 45.8947 47.5104C47.5201 47.0123 49.2047 46.7338 50.9039 46.6822L53.5755 46.4818C54.0163 46.4818 54.4571 46.4818 54.8445 46.4818H54.978V46.2681C54.9992 46.0843 55.0584 45.9069 55.1517 45.7471C55.1517 45.7471 54.978 45.52 54.8845 45.2663L54.8044 45.0525H54.6975L54.0964 45.1727C54.0964 45.1727 54.0964 45.5334 54.604 45.8406C54.7878 45.9453 54.9938 46.0048 55.2051 46.0143H55.2719C55.2719 46.0143 55.2719 46.0143 55.4322 45.9208V45.8406C55.4492 45.8028 55.4579 45.7619 55.4579 45.7204C55.4579 45.679 55.4492 45.638 55.4322 45.6002C55.3253 45.3998 55.3253 45.4666 55.2986 45.4265L55.1651 45.3464L54.9246 45.2395L54.4437 45.0792C53.5189 44.8283 52.5692 44.6804 51.6119 44.6384C49.9573 44.5124 48.2936 44.5841 46.6561 44.8522C45.4118 45.0889 44.2184 45.5409 43.1296 46.1879C41.7014 47.0303 40.6105 48.3431 40.0439 49.9014C39.7515 50.7605 39.6202 51.6662 39.6566 52.573V52.9337V53.134V53.6684C39.6552 54.1524 39.6999 54.6355 39.7901 55.111C40.2544 57.1551 41.4163 58.9736 43.0762 60.2538C46.3489 62.9254 50.8905 64.4081 56.06 65.2229" fill="#231F20" fill-opacity="0.49"/>
<path d="M78.087 44.2241C74.2497 45.199 70.5769 46.7338 67.1869 48.7792C65.4405 49.8546 63.9131 51.2505 62.6853 52.8934C61.4131 54.6296 60.8322 56.777 61.0557 58.9178C61.3235 58.9131 61.5821 58.819 61.7904 58.6506C62.0459 58.4615 62.2634 58.2259 62.4315 57.956C62.6185 57.6488 62.8991 57.248 63.1662 56.7404C64.0264 55.0748 65.1445 53.5555 66.479 52.2388C69.6958 49.2595 73.3211 46.7541 77.2454 44.7985" fill="#231F20" fill-opacity="0.49"/>
<path d="M155.923 49.4071C153.984 46.2667 152.847 42.6979 152.611 39.0147C152.867 35.3214 154.028 31.7479 155.99 28.6089C158.862 24.2008 163.257 21.3155 165.154 16.1059C165.635 14.7701 167.478 12.3123 163.818 7.23627C163.284 6.50159 154.614 4.5647 148.937 13.4878C144.77 20.0732 142.258 23.4794 140.669 27.7406C139.437 31.1716 138.778 34.7819 138.719 38.4269V38.4269V39.5757C138.778 43.2207 139.437 46.831 140.669 50.262C142.245 54.5098 144.77 57.9294 148.937 64.5015C154.614 73.4913 163.284 71.4876 163.818 70.753C167.518 65.6903 165.675 63.2191 165.154 61.8967C163.19 56.7005 158.795 53.8285 155.923 49.4071Z" stroke="#231F20" stroke-opacity="0.49" stroke-width="3" stroke-miterlimit="10"/>
<path d="M70.4329 57.1414L86.4624 53.5615C86.4624 53.5615 93.7958 50.8899 92.607 57.1414C91.1327 63.8387 87.2004 69.7396 81.5867 73.6784C75.8767 77.6921 69.0637 79.8387 62.0842 79.8231C61.6034 79.8231 53.1211 78.7945 52.3196 74.7871C52.2261 74.3463 51.3979 72.7568 54.9111 69.2036C63.794 60.2538 61.256 59.105 70.4329 57.1414Z" stroke="#231F20" stroke-opacity="0.49" stroke-width="3" stroke-miterlimit="10"/>
<path d="M82.081 59.0649C81.3196 60.8816 80.4647 62.725 79.543 64.4882C78.6937 66.2393 77.6157 67.8698 76.3372 69.3371C76.4869 69.5313 76.6729 69.6946 76.8848 69.818C77.1485 69.9642 77.445 70.0409 77.7464 70.0409C78.0479 70.0409 78.3444 69.9642 78.608 69.818C80.0774 69.0967 81.9875 66.345 82.1879 59.6794" fill="#231F20" fill-opacity="0.49"/>
<path d="M75.3215 60.4275C74.2262 62.6583 73.024 64.9024 71.7416 67.0396C71.1004 68.1216 70.4058 69.1635 69.7112 70.1654C69.0332 71.1356 68.2541 72.0312 67.387 72.837C67.5597 73.0972 67.7878 73.3161 68.0549 73.4781C68.3752 73.6779 68.7422 73.7905 69.1195 73.8045C69.4968 73.8186 69.8712 73.7337 70.2055 73.5583C72.1023 72.7568 74.6937 69.4307 75.4017 61.1087" fill="#231F20" fill-opacity="0.49"/>
<path d="M68.2693 60.1602C66.9335 62.6581 65.3439 65.1694 63.7143 67.5471C62.8861 68.7493 62.0312 69.9114 61.1362 71.0067C60.2804 72.0934 59.3084 73.0833 58.2375 73.9588C58.4278 74.2751 58.6773 74.5518 58.9722 74.7737C59.3309 75.033 59.75 75.1962 60.1896 75.2477C60.6292 75.2991 61.0747 75.2371 61.4835 75.0675C63.7544 74.3195 67.0537 70.6461 68.3227 61.0151" fill="#231F20" fill-opacity="0.49"/>
<path d="M137.383 34.7135C137.677 32.9941 138.124 31.3043 138.719 29.6642C140.308 25.5099 142.819 22.1971 146.987 15.7854C148.299 13.6926 150.101 11.9505 152.237 10.7094L150.113 8.8927C137.092 4.03523 123.248 1.76648 109.358 2.21376C94.1891 2.61792 79.302 6.40586 65.7846 13.3008C54.2968 19.392 33.325 30.5325 33.2181 45.1593C33.138 54.3629 41.3397 63.1791 53.0278 69.9382C61.7772 61.2556 59.306 60.1736 68.4562 58.2768L84.4856 54.7904C84.4856 54.7904 91.8057 52.1188 90.6169 58.2768C89.1043 64.822 85.1662 70.5502 79.5967 74.3062C77.316 75.8994 74.8372 77.1882 72.2231 78.1399C79.3137 80.3588 86.6387 81.744 94.0499 82.2675C119.764 83.9105 139.467 72.5563 147.481 67.3334L147.588 66.1045C147.428 65.864 147.241 65.6503 147.081 65.3965C142.913 58.9981 140.402 55.672 138.812 51.531C138.22 49.8903 137.773 48.2007 137.476 46.4818C137.141 44.7195 136.953 42.9322 136.915 41.1386V41.1386C136.915 40.9382 136.915 40.7646 136.915 40.5776C136.915 40.3906 136.915 40.2036 136.915 40.0165C136.923 38.2389 137.08 36.4651 137.383 34.7135V34.7135Z" stroke="#231F20" stroke-opacity="0.49" stroke-width="2.96" stroke-miterlimit="10"/>
<path d="M47.2039 63.9138C46.0818 63.0233 45.0266 62.1016 44.0381 61.1487C41.9409 63.5932 35.7295 70.4992 30.6802 73.5315C24.4154 77.1514 18.8184 68.0414 18.8184 68.0414C14.5305 59.0382 22.8258 53.1073 22.8258 53.1073C23.9078 52.3459 24.3486 51.6513 24.3619 50.9967C24.3619 49.3537 21.9308 48.7526 19.7535 46.6287C18.0507 44.8053 16.8445 42.5753 16.2504 40.1522C15.6564 37.7292 15.6943 35.1942 16.3606 32.7899C16.7237 31.6786 17.2028 30.6085 17.7899 29.5974C18.6562 27.6661 20.0439 26.0146 21.7972 24.8286C24.776 23.1723 28.2357 24.4279 29.104 24.7619L39.6567 31.4408C40.986 29.7106 42.4511 28.0892 44.0381 26.5919L43.8644 24.4947L23.0395 11.2704C21.7037 10.7494 16.3606 8.78584 11.6853 11.3639C8.71986 13.0203 7.01005 15.9724 5.47389 18.8443C4.55255 20.4038 3.80878 22.0616 3.25649 23.7867C1.27952 30.1852 2.66874 39.6559 8.34584 45.1994C11.7254 48.4988 15.5724 49.4339 15.5057 52.0119C15.5057 53.0138 14.7977 54.0957 13.1146 55.2712C13.1146 55.2712 0.331112 64.4748 6.98333 78.4605C6.98333 78.4605 15.6793 92.6065 25.3905 86.9828C35.1017 81.3592 47.4176 66.3983 47.4176 66.3983L47.2039 63.9138Z" stroke="#231F20" stroke-opacity="0.49" stroke-width="2" stroke-miterlimit="10"/>
</svg>
