<svg width="431" height="426" viewBox="0 0 431 426" fill="none" xmlns="http://www.w3.org/2000/svg">
<mask id="mask0" mask-type="alpha" maskUnits="userSpaceOnUse" x="0" y="0" width="431" height="426">
<ellipse cx="215.5" cy="213" rx="215.5" ry="213" fill="white"/>
</mask>
<g mask="url(#mask0)">
<rect width="116.345" height="538.527" transform="matrix(0.729778 -0.683684 0.692141 0.721762 -12.314 61.2865)" fill="#E75656"/>
<rect width="116.345" height="538.527" transform="matrix(-0.729778 -0.683684 -0.692141 0.721762 457.643 61.2865)" fill="#E75656"/>
<path fill-rule="evenodd" clip-rule="evenodd" d="M215.5 419.914C331.117 419.914 424.843 327.276 424.843 213C424.843 98.7244 331.117 6.08571 215.5 6.08571C99.8831 6.08571 6.15714 98.7244 6.15714 213C6.15714 327.276 99.8831 419.914 215.5 419.914ZM215.5 426C334.517 426 431 330.637 431 213C431 95.3633 334.517 0 215.5 0C96.4826 0 0 95.3633 0 213C0 330.637 96.4826 426 215.5 426Z" fill="#828282"/>
</g>
<path d="M324 209.957C324 267.464 276.827 314.129 218.579 314.129C160.33 314.129 113.157 267.464 113.157 209.957C113.157 152.45 160.33 105.786 218.579 105.786C276.827 105.786 324 152.45 324 209.957Z" fill="white" stroke="#828282" stroke-width="4.65714"/>
</svg>
