<svg width="70" height="70" viewBox="0 0 70 70" fill="none" xmlns="http://www.w3.org/2000/svg">
<mask id="mask0" mask-type="alpha" maskUnits="userSpaceOnUse" x="0" y="0" width="70" height="70">
<circle cx="35" cy="35" r="35" fill="white"/>
</mask>
<g mask="url(#mask0)">
<rect x="-2" y="10.0706" width="19" height="88" transform="rotate(-43.4659 -2 10.0706)" fill="#E75656"/>
<rect width="19" height="88" transform="matrix(-0.725784 -0.687923 -0.687923 0.725784 74.3271 10.0706)" fill="#E75656"/>
<path fill-rule="evenodd" clip-rule="evenodd" d="M35 69C53.7777 69 69 53.7777 69 35C69 16.2223 53.7777 1 35 1C16.2223 1 1 16.2223 1 35C1 53.7777 16.2223 69 35 69ZM35 70C54.33 70 70 54.33 70 35C70 15.67 54.33 0 35 0C15.67 0 0 15.67 0 35C0 54.33 15.67 70 35 70Z" fill="#828282"/>
</g>
<circle cx="35.5" cy="34.5" r="17" fill="white" stroke="#828282"/>
<path d="M16.7629 42H4.56558V24.5787H8.05226V38.5133H16.7629V42ZM30.4666 35.379C30.4666 36.3508 30.2925 37.258 29.9442 38.1003C29.596 38.9345 29.1222 39.6593 28.5228 40.2749C27.9235 40.8823 27.2189 41.3642 26.409 41.7206C25.6071 42.0688 24.7446 42.243 23.8213 42.243C22.9061 42.243 22.0435 42.0688 21.2336 41.7206C20.4318 41.3642 19.7272 40.8823 19.1197 40.2749C18.5204 39.6593 18.0466 38.9345 17.6983 38.1003C17.3501 37.258 17.1759 36.3508 17.1759 35.379C17.1759 34.3909 17.3501 33.4757 17.6983 32.6333C18.0466 31.791 18.5204 31.0662 19.1197 30.4587C19.7272 29.8432 20.4318 29.3613 21.2336 29.013C22.0435 28.6648 22.9061 28.4906 23.8213 28.4906C24.7446 28.4906 25.6071 28.6567 26.409 28.9887C27.2189 29.3127 27.9235 29.7784 28.5228 30.3858C29.1222 30.9852 29.596 31.71 29.9442 32.5605C30.2925 33.4028 30.4666 34.3423 30.4666 35.379ZM27.1257 35.379C27.1257 34.8444 27.0366 34.3625 26.8585 33.9333C26.6884 33.4959 26.4535 33.1233 26.1538 32.8156C25.8542 32.4997 25.5019 32.2608 25.0969 32.0988C24.7 31.9287 24.2748 31.8437 23.8213 31.8437C23.3677 31.8437 22.9385 31.9287 22.5335 32.0988C22.1367 32.2608 21.7884 32.4997 21.4887 32.8156C21.1972 33.1233 20.9663 33.4959 20.7963 33.9333C20.6262 34.3625 20.5411 34.8444 20.5411 35.379C20.5411 35.8811 20.6262 36.3468 20.7963 36.7761C20.9663 37.2053 21.1972 37.5779 21.4887 37.8937C21.7884 38.2096 22.1367 38.4607 22.5335 38.647C22.9385 38.8251 23.3677 38.9142 23.8213 38.9142C24.2748 38.9142 24.7 38.8292 25.0969 38.6591C25.5019 38.489 25.8542 38.2501 26.1538 37.9423C26.4535 37.6346 26.6884 37.262 26.8585 36.8246C27.0366 36.3873 27.1257 35.9054 27.1257 35.379ZM41.5584 35.379C41.5584 34.9254 41.4693 34.488 41.2911 34.0669C41.121 33.6376 40.8862 33.261 40.5865 32.9371C40.2868 32.605 39.9345 32.3418 39.5296 32.1474C39.1327 31.9449 38.7075 31.8437 38.254 31.8437C37.8004 31.8437 37.3711 31.9206 36.9662 32.0745C36.5693 32.2284 36.2211 32.4552 35.9214 32.7548C35.6298 33.0545 35.399 33.4271 35.2289 33.8725C35.0588 34.3099 34.9738 34.812 34.9738 35.379C34.9738 35.9216 35.0588 36.4116 35.2289 36.8489C35.399 37.2782 35.6298 37.6467 35.9214 37.9545C36.2211 38.2622 36.5693 38.5012 36.9662 38.6713C37.3711 38.8332 37.8004 38.9142 38.254 38.9142C38.7075 38.9142 39.1327 38.817 39.5296 38.6227C39.9345 38.4202 40.2868 38.157 40.5865 37.833C40.8862 37.5009 41.121 37.1243 41.2911 36.7032C41.4693 36.2739 41.5584 35.8325 41.5584 35.379ZM44.8993 40.3599C44.8993 41.2751 44.7252 42.1336 44.3769 42.9355C44.0286 43.7373 43.5508 44.4378 42.9434 45.0372C42.344 45.6365 41.6394 46.1103 40.8295 46.4586C40.0277 46.8068 39.1692 46.981 38.254 46.981L36.5896 46.9567V43.6401L38.2297 43.6644C38.748 43.6644 39.1894 43.5955 39.5539 43.4578C39.9183 43.3283 40.2261 43.146 40.4772 42.9112C40.7282 42.6844 40.9267 42.4212 41.0725 42.1215C41.2263 41.8218 41.3478 41.506 41.4369 41.1739C41.3073 41.3845 41.121 41.5586 40.8781 41.6963C40.6351 41.8259 40.3638 41.9312 40.0641 42.0121C39.7725 42.1012 39.4648 42.162 39.1408 42.1944C38.8249 42.2268 38.5293 42.243 38.254 42.243C37.3388 42.243 36.4762 42.085 35.6663 41.7692C34.8645 41.4533 34.1598 41.0038 33.5524 40.4207C32.9531 39.8294 32.4793 39.1086 32.131 38.2582C31.7827 37.4078 31.6086 36.448 31.6086 35.379C31.6086 34.399 31.7827 33.4878 32.131 32.6455C32.4793 31.8032 32.9531 31.0743 33.5524 30.4587C34.1598 29.8432 34.8645 29.3613 35.6663 29.013C36.4762 28.6648 37.3388 28.4906 38.254 28.4906C38.6751 28.4906 39.0922 28.5433 39.5053 28.6486C39.9183 28.7539 40.3192 28.8996 40.708 29.0859C41.0968 29.2722 41.4653 29.4909 41.8135 29.7419C42.1699 29.993 42.502 30.2643 42.8097 30.5559L44.0975 29.013H44.8993V40.3599ZM51.3503 25.4535C51.3503 25.7612 51.2895 26.0487 51.168 26.316C51.0546 26.5833 50.8967 26.8182 50.6942 27.0206C50.4918 27.215 50.2528 27.373 49.9775 27.4944C49.7102 27.6078 49.4227 27.6645 49.1149 27.6645C48.8071 27.6645 48.5156 27.6078 48.2402 27.4944C47.9729 27.373 47.738 27.215 47.5356 27.0206C47.3412 26.8182 47.1833 26.5833 47.0618 26.316C46.9484 26.0487 46.8917 25.7612 46.8917 25.4535C46.8917 25.1538 46.9484 24.8703 47.0618 24.603C47.1833 24.3277 47.3412 24.0928 47.5356 23.8984C47.738 23.6959 47.9729 23.538 48.2402 23.4246C48.5156 23.3031 48.8071 23.2424 49.1149 23.2424C49.4227 23.2424 49.7102 23.3031 49.9775 23.4246C50.2528 23.538 50.4918 23.6959 50.6942 23.8984C50.8967 24.0928 51.0546 24.3277 51.168 24.603C51.2895 24.8703 51.3503 25.1538 51.3503 25.4535ZM50.7793 42H47.4384V28.9887H50.7793V42ZM56.635 42H53.3184V28.9887H54.1202L55.2136 30.2522C55.7481 29.7662 56.3515 29.3937 57.0237 29.1345C57.704 28.8672 58.4127 28.7336 59.1497 28.7336C59.9434 28.7336 60.6926 28.8875 61.3972 29.1953C62.1019 29.4949 62.7174 29.912 63.2438 30.4466C63.7703 30.973 64.1833 31.5926 64.483 32.3053C64.7908 33.01 64.9447 33.7632 64.9447 34.565V42H61.6281V34.565C61.6281 34.2248 61.5633 33.9049 61.4337 33.6052C61.3041 33.2975 61.1259 33.0302 60.8991 32.8034C60.6724 32.5766 60.4092 32.3985 60.1095 32.2689C59.8098 32.1393 59.4899 32.0745 59.1497 32.0745C58.8015 32.0745 58.4735 32.1393 58.1657 32.2689C57.8579 32.3985 57.5906 32.5766 57.3639 32.8034C57.1371 33.0302 56.9589 33.2975 56.8293 33.6052C56.6997 33.9049 56.635 34.2248 56.635 34.565V42Z" fill="#88B8CD"/>
</svg>
