<svg width="1070" height="440" viewBox="0 0 1070 440" fill="none" xmlns="http://www.w3.org/2000/svg">
<path d="M1032.33 82.3917H183.613C173.859 82.3917 164.505 86.2665 157.608 93.1635C150.711 100.061 146.836 109.415 146.836 119.169V359.406C121.06 353.28 92.3382 343.408 94.0698 329.951C97.1848 305.85 75.3801 290.793 75.3801 290.793C77.2622 303.638 68.2467 307.102 63.4567 319.439C60.5886 326.634 60.1849 334.576 62.3085 342.025C45.4257 345.083 42.546 346.57 42.546 346.57C34.1704 350.937 34.8856 356.489 28.8628 359.519C23.988 361.976 15.556 362.343 0 352.311C0.809324 356.922 3.7643 370.135 14.7843 376.581C24.195 382.067 34.7821 380.628 47.5337 377.099C55.829 374.743 63.9615 371.848 71.8793 368.431L99.6974 405.237C106.577 414.337 114.162 420.397 124.382 426.42C132.089 430.956 148.21 438.748 172.621 438.316C176.172 439.415 179.868 439.974 183.585 439.972H1032.3C1042.05 439.977 1051.4 436.109 1058.3 429.219C1065.2 422.33 1069.08 412.982 1069.09 403.232V119.169C1069.09 109.418 1065.22 100.067 1058.32 93.1702C1051.43 86.2737 1042.08 82.3967 1032.33 82.3917Z" fill="#86A4B6"/>
<path d="M856.622 393.454C863.816 393.454 869.647 387.623 869.647 380.43C869.647 373.237 863.816 367.406 856.622 367.406C849.429 367.406 843.598 373.237 843.598 380.43C843.598 387.623 849.429 393.454 856.622 393.454Z" fill="#231F20" stroke="#658699" stroke-width="0.527002" stroke-miterlimit="10"/>
<path d="M1026.24 393.454C1033.43 393.454 1039.27 387.623 1039.27 380.43C1039.27 373.237 1033.43 367.406 1026.24 367.406C1019.05 367.406 1013.22 373.237 1013.22 380.43C1013.22 387.623 1019.05 393.454 1026.24 393.454Z" fill="#231F20" stroke="#658699" stroke-width="0.527002" stroke-miterlimit="10"/>
<path d="M894.04 105.175C904.788 105.175 913.501 103.401 913.501 101.213C913.501 99.0251 904.788 97.2513 894.04 97.2513C883.291 97.2513 874.578 99.0251 874.578 101.213C874.578 103.401 883.291 105.175 894.04 105.175Z" fill="#3D5561"/>
<path d="M992.307 440C1007.9 423.155 1000.31 402.592 1000.31 402.592C1000.31 402.592 995.243 379.207 950.89 377.532C906.537 375.856 888.779 399.807 868.527 412.05C858.401 418.167 824.08 429.846 792.3 440H992.307Z" fill="#C0CBD1"/>
<path d="M965.919 48.2307C951.906 34.7451 931.598 31.2914 915.938 39.1023C911.903 41.1414 908.254 43.8673 905.154 47.1579C905.031 45.4734 904.862 43.8171 904.636 42.1984C908.212 31.8466 912.597 27.8094 916.87 26.7272C924.615 24.7603 930.798 32.863 950.984 33.6911C956.988 33.9452 973.109 34.6322 975.734 27.6871C978.19 21.2125 967.424 11.7547 966.032 10.5501C957.038 4.57653 946.469 1.41518 935.673 1.46875C925.4 1.55899 915.4 4.79035 907.017 10.7289C903.289 13.511 900.116 16.9681 897.663 20.9208C895.083 16.3691 891.591 12.3995 887.405 9.26084C879.022 3.32228 869.022 0.0909123 858.749 0.00066949C847.952 -0.0528917 837.384 3.10845 828.39 9.08204C826.997 10.2866 816.231 19.7444 818.688 26.219C821.313 33.1359 837.434 32.4771 843.438 32.2231C863.624 31.3949 869.788 23.2923 877.552 25.2591C881.937 26.3696 886.464 30.6232 890.087 41.6244C889.861 43.0078 889.673 44.4476 889.513 45.8498C886.352 42.4827 882.617 39.7042 878.484 37.6436C862.852 29.8986 842.619 33.4182 828.503 46.7721C819.309 53.3596 815.083 62.1022 817.455 67.4757C820.673 74.7032 835.203 73.8374 837.152 73.7244C856.669 72.5105 862.993 57.5003 873.675 58.7802C879.208 59.4389 886.379 64.5301 893.437 84.3586C894.037 89.0583 895.328 93.6437 897.267 97.9665C897.324 97.7312 897.39 97.5148 897.456 97.2795C899.035 93.7332 900.188 90.0119 900.891 86.1937C907.977 66.0735 915.185 60.9258 920.747 60.2294C931.457 58.9213 937.762 73.9597 957.261 75.1266C959.218 75.2396 973.748 76.0677 976.967 68.8779C979.338 63.5608 975.104 54.8559 965.919 48.2307Z" fill="#A1B5BF"/>
<path d="M983.451 401.378C981.274 415.658 973.794 428.592 962.503 437.6C961.844 438.118 963.632 438.88 963.943 439.002C964.564 439.266 966.455 440.075 967.133 439.548C978.561 430.497 986.152 417.468 988.392 403.063C988.571 401.839 983.583 400.607 983.46 401.416L983.451 401.378Z" fill="#7C8C94"/>
<path d="M964.761 389.078C962.306 403.952 955.272 417.69 944.641 428.378C941.639 431.417 938.405 434.218 934.967 436.753C933.518 437.826 937.696 440.471 939.032 439.482C951.313 430.401 961.147 417.838 966.239 403.402C967.68 399.254 968.739 394.982 969.401 390.641C969.636 389.097 965.062 387.149 964.761 389.078Z" fill="#7C8C94"/>
<path d="M931.748 397.887C928.558 413.771 919.349 427.805 906.048 437.054C905.107 437.647 905.05 438.56 906.048 439.125C906.63 439.424 907.275 439.58 907.93 439.58C908.584 439.58 909.23 439.424 909.812 439.125C923.949 429.466 933.745 414.657 937.103 397.868C937.32 396.748 935.117 396.419 934.43 396.419C933.405 396.419 932.003 396.748 931.786 397.906L931.748 397.887Z" fill="#7C8C94"/>
<path d="M894.905 410.046C892.75 420.172 887.763 430.175 878.982 436.104C876.441 437.807 879.425 440.809 881.655 439.294C891.376 432.707 897.117 421.96 899.535 410.686C900.1 408.022 895.451 407.571 894.924 410.046H894.905Z" fill="#7C8C94"/>
</svg>
