<svg width="105" height="585" viewBox="0 0 105 585" fill="none" xmlns="http://www.w3.org/2000/svg">
<path d="M77.9707 495.742V25.3169C77.9862 22.6544 77.4751 20.0151 76.4669 17.5508C75.4587 15.0865 73.9733 12.8459 72.096 10.9577C70.2188 9.06958 67.9867 7.5712 65.5283 6.54874C63.0699 5.52629 60.4337 4.99996 57.7711 5H47.3048C41.9398 5 36.7945 7.13126 33.0008 10.9249C29.2072 14.7186 27.0759 19.8639 27.0759 25.2289V495.742C20.421 499.254 14.8492 504.513 10.9595 510.955C7.06986 517.396 5.00951 524.776 5 532.301V538.575C5 549.561 9.36444 560.098 17.1332 567.867C24.9019 575.635 35.4386 580 46.4253 580H58.4454C63.8928 580.011 69.2891 578.948 74.3252 576.872C79.3613 574.795 83.9384 571.746 87.7944 567.898C91.6504 564.05 94.7096 559.479 96.797 554.448C98.8843 549.416 99.9587 544.022 99.9587 538.575V532.33C99.9629 524.809 97.9183 517.429 94.0444 510.983C90.1705 504.537 84.6136 499.268 77.9707 495.742V495.742Z" stroke="#9FC4CE" stroke-width="8.67557" stroke-miterlimit="10"/>
<path d="M54.6048 165.365H51.1453C45.0735 165.365 40.1514 170.287 40.1514 176.359V518.58C40.1514 524.652 45.0735 529.574 51.1453 529.574H54.6048C60.6766 529.574 65.5988 524.652 65.5988 518.58V176.359C65.5988 170.287 60.6766 165.365 54.6048 165.365Z" fill="#CC685A"/>
<path d="M56.6277 504.097H49.1225C34.8739 504.097 23.3232 515.648 23.3232 529.897V533.766C23.3232 548.015 34.8739 559.566 49.1225 559.566H56.6277C70.8762 559.566 82.4269 548.015 82.4269 533.766V529.897C82.4269 515.648 70.8762 504.097 56.6277 504.097Z" fill="#CC685A"/>
<path d="M40.2827 540.869L37.5578 536.392L35.8844 537.975V540.428C35.8844 541.024 35.7261 541.484 35.4096 541.808C35.1005 542.124 34.7425 542.283 34.3354 542.283C33.8606 542.283 33.4874 542.124 33.2161 541.808C32.9447 541.491 32.809 541.024 32.809 540.406V527.245C32.809 526.559 32.941 526.039 33.2048 525.685C33.4686 525.323 33.8455 525.142 34.3354 525.142C34.8103 525.142 35.1872 525.304 35.4661 525.628C35.745 525.952 35.8844 526.431 35.8844 527.064V534.549L39.3555 530.908C39.7852 530.456 40.1131 530.147 40.3392 529.981C40.5653 529.815 40.8405 529.732 41.1646 529.732C41.549 529.732 41.8694 529.857 42.1257 530.106C42.3819 530.347 42.5101 530.652 42.5101 531.021C42.5101 531.474 42.0917 532.077 41.255 532.83L39.6156 534.334L42.7814 539.309C43.0151 539.678 43.1809 539.961 43.2789 540.157C43.3844 540.345 43.4372 540.526 43.4372 540.7C43.4372 541.19 43.3015 541.578 43.0302 541.864C42.7664 542.143 42.4159 542.283 41.9787 542.283C41.6018 542.283 41.3116 542.181 41.1081 541.977C40.9045 541.774 40.6294 541.405 40.2827 540.869ZM52.5164 535.544H49.441V540.236C49.441 540.907 49.2827 541.416 48.9661 541.763C48.6495 542.109 48.25 542.283 47.7676 542.283C47.2626 542.283 46.8556 542.113 46.5465 541.774C46.2375 541.427 46.0829 540.922 46.0829 540.259V527.482C46.0829 526.744 46.2525 526.216 46.5917 525.899C46.9309 525.583 47.4699 525.425 48.2086 525.425H52.5164C53.7902 525.425 54.7701 525.523 55.4561 525.719C56.1345 525.907 56.7186 526.22 57.2086 526.657C57.7061 527.094 58.083 527.629 58.3393 528.263C58.5955 528.896 58.7237 529.608 58.7237 530.399C58.7237 532.088 58.2036 533.369 57.1634 534.244C56.1232 535.111 54.5742 535.544 52.5164 535.544ZM51.7023 527.946H49.441V533.011H51.7023C52.4938 533.011 53.1533 532.928 53.681 532.763C54.2161 532.597 54.6232 532.325 54.9021 531.948C55.181 531.572 55.3204 531.078 55.3204 530.467C55.3204 529.736 55.1056 529.141 54.6759 528.681C54.1935 528.191 53.2023 527.946 51.7023 527.946ZM68.2325 540.541C67.4863 541.122 66.7626 541.559 66.0616 541.853C65.3682 542.139 64.588 542.283 63.7212 542.283C62.9297 542.283 62.2325 542.128 61.6295 541.819C61.034 541.503 60.5742 541.077 60.2501 540.541C59.9259 540.006 59.7639 539.426 59.7639 538.8C59.7639 537.956 60.0315 537.236 60.5666 536.641C61.1018 536.045 61.8367 535.646 62.7714 535.442C62.9674 535.397 63.4536 535.295 64.23 535.137C65.0064 534.979 65.6697 534.835 66.2199 534.707C66.7777 534.572 67.3807 534.41 68.029 534.221C67.9913 533.407 67.8255 532.812 67.5315 532.435C67.245 532.05 66.6458 531.858 65.7337 531.858C64.9498 531.858 64.3581 531.967 63.9586 532.186C63.5666 532.405 63.2275 532.732 62.941 533.17C62.6621 533.607 62.4624 533.897 62.3418 534.04C62.2287 534.176 61.98 534.244 61.5955 534.244C61.2488 534.244 60.9473 534.134 60.691 533.916C60.4423 533.69 60.3179 533.403 60.3179 533.057C60.3179 532.514 60.5101 531.986 60.8945 531.474C61.279 530.961 61.8782 530.539 62.6923 530.207C63.5063 529.876 64.5202 529.71 65.7337 529.71C67.0905 529.71 68.1571 529.872 68.9335 530.196C69.7099 530.513 70.2564 531.018 70.5729 531.711C70.8971 532.405 71.0591 533.324 71.0591 534.47C71.0591 535.193 71.0554 535.808 71.0478 536.313C71.0478 536.818 71.0441 537.379 71.0365 537.997C71.0365 538.578 71.1307 539.185 71.3192 539.818C71.5152 540.443 71.6131 540.847 71.6131 541.028C71.6131 541.344 71.4624 541.634 71.1609 541.898C70.8669 542.155 70.5315 542.283 70.1546 542.283C69.838 542.283 69.5252 542.136 69.2162 541.842C68.9071 541.54 68.5792 541.107 68.2325 540.541ZM68.029 536.075C67.5767 536.241 66.9172 536.418 66.0503 536.607C65.191 536.788 64.5955 536.923 64.2639 537.014C63.9322 537.097 63.6156 537.266 63.3141 537.523C63.0126 537.771 62.8619 538.122 62.8619 538.574C62.8619 539.041 63.039 539.441 63.3933 539.773C63.7476 540.097 64.2111 540.259 64.784 540.259C65.3945 540.259 65.9561 540.127 66.4687 539.863C66.9888 539.592 67.3694 539.245 67.6106 538.823C67.8895 538.356 68.029 537.587 68.029 536.516V536.075Z" fill="#9FC4CE"/>
<path d="M63.1656 467.011H32.7635C31.6139 467.011 30.682 467.943 30.682 469.092V471.584C30.682 472.734 31.6139 473.666 32.7635 473.666H63.1656C64.3152 473.666 65.2471 472.734 65.2471 471.584V469.092C65.2471 467.943 64.3152 467.011 63.1656 467.011Z" fill="#5E7275"/>
<path d="M49.8262 453.173H32.2945C31.4039 453.173 30.682 453.895 30.682 454.786V458.216C30.682 459.106 31.4039 459.828 32.2945 459.828H49.8262C50.7167 459.828 51.4386 459.106 51.4386 458.216V454.786C51.4386 453.895 50.7167 453.173 49.8262 453.173Z" fill="#5E7275"/>
<path d="M49.8262 439.336H32.2945C31.4039 439.336 30.682 440.058 30.682 440.948V444.378C30.682 445.269 31.4039 445.991 32.2945 445.991H49.8262C50.7167 445.991 51.4386 445.269 51.4386 444.378V440.948C51.4386 440.058 50.7167 439.336 49.8262 439.336Z" fill="#5E7275"/>
<path d="M49.8262 425.468H32.2945C31.4039 425.468 30.682 426.19 30.682 427.08V430.511C30.682 431.401 31.4039 432.123 32.2945 432.123H49.8262C50.7167 432.123 51.4386 431.401 51.4386 430.511V427.08C51.4386 426.19 50.7167 425.468 49.8262 425.468Z" fill="#5E7275"/>
<path d="M63.1656 411.63H32.7635C31.6139 411.63 30.682 412.562 30.682 413.712V416.204C30.682 417.353 31.6139 418.285 32.7635 418.285H63.1656C64.3152 418.285 65.2471 417.353 65.2471 416.204V413.712C65.2471 412.562 64.3152 411.63 63.1656 411.63Z" fill="#5E7275"/>
<path d="M63.1656 411.63H32.7635C31.6139 411.63 30.682 412.562 30.682 413.712V416.204C30.682 417.353 31.6139 418.285 32.7635 418.285H63.1656C64.3152 418.285 65.2471 417.353 65.2471 416.204V413.712C65.2471 412.562 64.3152 411.63 63.1656 411.63Z" fill="#5E7275"/>
<path d="M49.8262 397.793H32.2945C31.4039 397.793 30.682 398.515 30.682 399.405V402.836C30.682 403.726 31.4039 404.448 32.2945 404.448H49.8262C50.7167 404.448 51.4386 403.726 51.4386 402.836V399.405C51.4386 398.515 50.7167 397.793 49.8262 397.793Z" fill="#5E7275"/>
<path d="M49.8262 383.926H32.2945C31.4039 383.926 30.682 384.648 30.682 385.538V388.968C30.682 389.859 31.4039 390.581 32.2945 390.581H49.8262C50.7167 390.581 51.4386 389.859 51.4386 388.968V385.538C51.4386 384.648 50.7167 383.926 49.8262 383.926Z" fill="#5E7275"/>
<path d="M49.8262 370.088H32.2945C31.4039 370.088 30.682 370.81 30.682 371.701V375.131C30.682 376.021 31.4039 376.743 32.2945 376.743H49.8262C50.7167 376.743 51.4386 376.021 51.4386 375.131V371.701C51.4386 370.81 50.7167 370.088 49.8262 370.088Z" fill="#5E7275"/>
<path d="M63.1656 356.25H32.7635C31.6139 356.25 30.682 357.182 30.682 358.332V360.824C30.682 361.973 31.6139 362.905 32.7635 362.905H63.1656C64.3152 362.905 65.2471 361.973 65.2471 360.824V358.332C65.2471 357.182 64.3152 356.25 63.1656 356.25Z" fill="#5E7275"/>
<path d="M63.1656 356.25H32.7635C31.6139 356.25 30.682 357.182 30.682 358.332V360.824C30.682 361.973 31.6139 362.905 32.7635 362.905H63.1656C64.3152 362.905 65.2471 361.973 65.2471 360.824V358.332C65.2471 357.182 64.3152 356.25 63.1656 356.25Z" fill="#5E7275"/>
<path d="M49.8262 342.383H32.2945C31.4039 342.383 30.682 343.105 30.682 343.995V347.426C30.682 348.316 31.4039 349.038 32.2945 349.038H49.8262C50.7167 349.038 51.4386 348.316 51.4386 347.426V343.995C51.4386 343.105 50.7167 342.383 49.8262 342.383Z" fill="#5E7275"/>
<path d="M49.8262 328.545H32.2945C31.4039 328.545 30.682 329.267 30.682 330.158V333.588C30.682 334.479 31.4039 335.2 32.2945 335.2H49.8262C50.7167 335.2 51.4386 334.479 51.4386 333.588V330.158C51.4386 329.267 50.7167 328.545 49.8262 328.545Z" fill="#5E7275"/>
<path d="M49.8262 314.708H32.2945C31.4039 314.708 30.682 315.43 30.682 316.32V319.75C30.682 320.641 31.4039 321.363 32.2945 321.363H49.8262C50.7167 321.363 51.4386 320.641 51.4386 319.75V316.32C51.4386 315.43 50.7167 314.708 49.8262 314.708Z" fill="#5E7275"/>
<path d="M63.1656 300.841H32.7635C31.6139 300.841 30.682 301.773 30.682 302.922V305.414C30.682 306.564 31.6139 307.496 32.7635 307.496H63.1656C64.3152 307.496 65.2471 306.564 65.2471 305.414V302.922C65.2471 301.773 64.3152 300.841 63.1656 300.841Z" fill="#5E7275"/>
<path d="M63.1656 300.841H32.7635C31.6139 300.841 30.682 301.773 30.682 302.922V305.414C30.682 306.564 31.6139 307.496 32.7635 307.496H63.1656C64.3152 307.496 65.2471 306.564 65.2471 305.414V302.922C65.2471 301.773 64.3152 300.841 63.1656 300.841Z" fill="#5E7275"/>
<path d="M63.1656 300.841H32.7635C31.6139 300.841 30.682 301.773 30.682 302.922V305.414C30.682 306.564 31.6139 307.496 32.7635 307.496H63.1656C64.3152 307.496 65.2471 306.564 65.2471 305.414V302.922C65.2471 301.773 64.3152 300.841 63.1656 300.841Z" fill="#5E7275"/>
<path d="M49.8262 287.003H32.2945C31.4039 287.003 30.682 287.725 30.682 288.615V292.045C30.682 292.936 31.4039 293.658 32.2945 293.658H49.8262C50.7167 293.658 51.4386 292.936 51.4386 292.045V288.615C51.4386 287.725 50.7167 287.003 49.8262 287.003Z" fill="#5E7275"/>
<path d="M49.8262 273.165H32.2945C31.4039 273.165 30.682 273.887 30.682 274.777V278.208C30.682 279.098 31.4039 279.82 32.2945 279.82H49.8262C50.7167 279.82 51.4386 279.098 51.4386 278.208V274.777C51.4386 273.887 50.7167 273.165 49.8262 273.165Z" fill="#5E7275"/>
<path d="M49.8262 259.298H32.2945C31.4039 259.298 30.682 260.02 30.682 260.91V264.34C30.682 265.231 31.4039 265.953 32.2945 265.953H49.8262C50.7167 265.953 51.4386 265.231 51.4386 264.34V260.91C51.4386 260.02 50.7167 259.298 49.8262 259.298Z" fill="#5E7275"/>
<path d="M63.1656 245.46H32.7635C31.6139 245.46 30.682 246.392 30.682 247.542V250.034C30.682 251.184 31.6139 252.115 32.7635 252.115H63.1656C64.3152 252.115 65.2471 251.184 65.2471 250.034V247.542C65.2471 246.392 64.3152 245.46 63.1656 245.46Z" fill="#5E7275"/>
<path d="M63.1656 245.46H32.7635C31.6139 245.46 30.682 246.392 30.682 247.542V250.034C30.682 251.184 31.6139 252.115 32.7635 252.115H63.1656C64.3152 252.115 65.2471 251.184 65.2471 250.034V247.542C65.2471 246.392 64.3152 245.46 63.1656 245.46Z" fill="#5E7275"/>
<path d="M63.1656 245.46H32.7635C31.6139 245.46 30.682 246.392 30.682 247.542V250.034C30.682 251.184 31.6139 252.115 32.7635 252.115H63.1656C64.3152 252.115 65.2471 251.184 65.2471 250.034V247.542C65.2471 246.392 64.3152 245.46 63.1656 245.46Z" fill="#5E7275"/>
<path d="M49.8262 231.622H32.2945C31.4039 231.622 30.682 232.344 30.682 233.235V236.665C30.682 237.555 31.4039 238.277 32.2945 238.277H49.8262C50.7167 238.277 51.4386 237.555 51.4386 236.665V233.235C51.4386 232.344 50.7167 231.622 49.8262 231.622Z" fill="#5E7275"/>
<path d="M49.8262 217.755H32.2945C31.4039 217.755 30.682 218.477 30.682 219.368V222.798C30.682 223.688 31.4039 224.41 32.2945 224.41H49.8262C50.7167 224.41 51.4386 223.688 51.4386 222.798V219.368C51.4386 218.477 50.7167 217.755 49.8262 217.755Z" fill="#5E7275"/>
<path d="M49.8262 203.917H32.2945C31.4039 203.917 30.682 204.639 30.682 205.53V208.96C30.682 209.851 31.4039 210.573 32.2945 210.573H49.8262C50.7167 210.573 51.4386 209.851 51.4386 208.96V205.53C51.4386 204.639 50.7167 203.917 49.8262 203.917Z" fill="#5E7275"/>
<path d="M63.1656 190.08H32.7635C31.6139 190.08 30.682 191.012 30.682 192.162V194.654C30.682 195.803 31.6139 196.735 32.7635 196.735H63.1656C64.3152 196.735 65.2471 195.803 65.2471 194.654V192.162C65.2471 191.012 64.3152 190.08 63.1656 190.08Z" fill="#5E7275"/>
<path d="M63.1656 189.728H32.7635C31.6139 189.728 30.682 190.66 30.682 191.81V194.302C30.682 195.451 31.6139 196.383 32.7635 196.383H63.1656C64.3152 196.383 65.2471 195.451 65.2471 194.302V191.81C65.2471 190.66 64.3152 189.728 63.1656 189.728Z" fill="#5E7275"/>
<path d="M63.1656 189.728H32.7635C31.6139 189.728 30.682 190.66 30.682 191.81V194.302C30.682 195.451 31.6139 196.383 32.7635 196.383H63.1656C64.3152 196.383 65.2471 195.451 65.2471 194.302V191.81C65.2471 190.66 64.3152 189.728 63.1656 189.728Z" fill="#5E7275"/>
<path d="M49.8262 175.891H32.2945C31.4039 175.891 30.682 176.613 30.682 177.503V180.933C30.682 181.824 31.4039 182.546 32.2945 182.546H49.8262C50.7167 182.546 51.4386 181.824 51.4386 180.933V177.503C51.4386 176.613 50.7167 175.891 49.8262 175.891Z" fill="#5E7275"/>
<path d="M49.8262 162.052H32.2945C31.4039 162.052 30.682 162.774 30.682 163.665V167.095C30.682 167.986 31.4039 168.708 32.2945 168.708H49.8262C50.7167 168.708 51.4386 167.986 51.4386 167.095V163.665C51.4386 162.774 50.7167 162.052 49.8262 162.052Z" fill="#5E7275"/>
<path d="M49.8262 148.185H32.2945C31.4039 148.185 30.682 148.907 30.682 149.798V153.228C30.682 154.118 31.4039 154.84 32.2945 154.84H49.8262C50.7167 154.84 51.4386 154.118 51.4386 153.228V149.798C51.4386 148.907 50.7167 148.185 49.8262 148.185Z" fill="#5E7275"/>
<path d="M63.1656 134.348H32.7635C31.6139 134.348 30.682 135.28 30.682 136.429V138.921C30.682 140.071 31.6139 141.003 32.7635 141.003H63.1656C64.3152 141.003 65.2471 140.071 65.2471 138.921V136.429C65.2471 135.28 64.3152 134.348 63.1656 134.348Z" fill="#5E7275"/>
<path d="M63.1656 134.348H32.7635C31.6139 134.348 30.682 135.28 30.682 136.429V138.921C30.682 140.071 31.6139 141.003 32.7635 141.003H63.1656C64.3152 141.003 65.2471 140.071 65.2471 138.921V136.429C65.2471 135.28 64.3152 134.348 63.1656 134.348Z" fill="#5E7275"/>
<path d="M63.1656 134.348H32.7635C31.6139 134.348 30.682 135.28 30.682 136.429V138.921C30.682 140.071 31.6139 141.003 32.7635 141.003H63.1656C64.3152 141.003 65.2471 140.071 65.2471 138.921V136.429C65.2471 135.28 64.3152 134.348 63.1656 134.348Z" fill="#5E7275"/>
<path d="M49.8262 120.51H32.2945C31.4039 120.51 30.682 121.232 30.682 122.123V125.553C30.682 126.443 31.4039 127.165 32.2945 127.165H49.8262C50.7167 127.165 51.4386 126.443 51.4386 125.553V122.123C51.4386 121.232 50.7167 120.51 49.8262 120.51Z" fill="#5E7275"/>
<path d="M49.8262 106.643H32.2945C31.4039 106.643 30.682 107.365 30.682 108.255V111.685C30.682 112.576 31.4039 113.298 32.2945 113.298H49.8262C50.7167 113.298 51.4386 112.576 51.4386 111.685V108.255C51.4386 107.365 50.7167 106.643 49.8262 106.643Z" fill="#5E7275"/>
<path d="M49.8262 92.8049H32.2945C31.4039 92.8049 30.682 93.5268 30.682 94.4174V97.8475C30.682 98.738 31.4039 99.46 32.2945 99.46H49.8262C50.7167 99.46 51.4386 98.738 51.4386 97.8475V94.4174C51.4386 93.5268 50.7167 92.8049 49.8262 92.8049Z" fill="#5E7275"/>
<path d="M63.1656 78.9673H32.7635C31.6139 78.9673 30.682 79.8992 30.682 81.0488V83.5408C30.682 84.6904 31.6139 85.6223 32.7635 85.6223H63.1656C64.3152 85.6223 65.2471 84.6904 65.2471 83.5408V81.0488C65.2471 79.8992 64.3152 78.9673 63.1656 78.9673Z" fill="#5E7275"/>
</svg>
