<svg width="239" height="180" viewBox="0 0 239 180" fill="none" xmlns="http://www.w3.org/2000/svg">
<path d="M21.1771 162.8H40.8736C42.3075 162.8 43.4698 161.637 43.4698 160.204V154.18C43.4698 152.747 42.3075 151.584 40.8736 151.584H21.1771C19.7433 151.584 18.5809 152.747 18.5809 154.18V160.204C18.5809 161.637 19.7433 162.8 21.1771 162.8Z" fill="#5D63AD"/>
<path d="M163.934 9.48557C159.9 9.31654 155.873 9.9586 152.091 11.3737C148.31 12.7888 144.85 14.9483 141.918 17.7242C139.059 20.5106 136.779 23.8355 135.211 27.5071C133.642 31.1787 132.816 35.1245 132.78 39.1169V58.1211" stroke="#5D63AD" stroke-width="13.8464" stroke-miterlimit="10"/>
<path d="M192.907 82.4906H78.1206C52.9997 82.4906 32.6351 102.855 32.6351 127.976V134.068C32.6351 159.189 52.9997 179.554 78.1206 179.554H192.907C218.028 179.554 238.393 159.189 238.393 134.068V127.976C238.393 102.855 218.028 82.4906 192.907 82.4906Z" fill="#78CBC2"/>
<path d="M209.177 95.2987H171.653C159.991 95.2987 150.537 104.753 150.537 116.414V128.219C150.537 139.88 159.991 149.334 171.653 149.334H209.177C220.839 149.334 230.293 139.88 230.293 128.219V116.414C230.293 104.753 220.839 95.2987 209.177 95.2987Z" fill="#8EA2D3"/>
<path d="M176.43 47.5631H94.3901C87.0488 47.5631 81.0975 53.5144 81.0975 60.8557V76.1213C81.0975 83.4626 87.0488 89.4139 94.3901 89.4139H176.43C183.771 89.4139 189.723 83.4626 189.723 76.1213V60.8557C189.723 53.5144 183.771 47.5631 176.43 47.5631Z" fill="#78CBC2"/>
<path d="M187.888 73.3518H82.8977C79.8006 73.3518 77.2899 75.8625 77.2899 78.9596C77.2899 82.0567 79.8006 84.5674 82.8977 84.5674H187.888C190.985 84.5674 193.496 82.0567 193.496 78.9596C193.496 75.8625 190.985 73.3518 187.888 73.3518Z" fill="#5D63AD"/>
<path d="M162.619 1.73164V17.1358C162.619 17.8622 163.208 18.4512 163.934 18.4512H165.284C166.011 18.4512 166.599 17.8622 166.599 17.1358V1.73164C166.599 1.00516 166.011 0.416225 165.284 0.416225H163.934C163.208 0.416225 162.619 1.00516 162.619 1.73164Z" fill="#78CBC2"/>
<path d="M116.96 140.888C127.207 140.888 135.514 132.581 135.514 122.334C135.514 112.086 127.207 103.779 116.96 103.779C106.713 103.779 98.4055 112.086 98.4055 122.334C98.4055 132.581 106.713 140.888 116.96 140.888Z" fill="#8EA2D3"/>
<path d="M68.3588 140.888C78.6059 140.888 86.9129 132.581 86.9129 122.334C86.9129 112.086 78.6059 103.779 68.3588 103.779C58.1116 103.779 49.8046 112.086 49.8046 122.334C49.8046 132.581 58.1116 140.888 68.3588 140.888Z" fill="#8EA2D3"/>
<path d="M27.3735 166.261C27.5139 167.844 27.1054 169.427 26.2166 170.745C25.3279 172.062 24.013 173.033 22.4927 173.496C20.9159 173.75 19.2997 173.451 17.9181 172.65C16.5365 171.849 15.4744 170.595 14.9118 169.1C14.4618 167.75 14.9118 167.369 16.6426 160.619C17.5772 156.915 17.7849 155.6 18.6157 155.426C19.4465 155.253 20.1042 156.5 22.285 159.373C26.2658 164.461 27.2005 164.496 27.3735 166.261Z" fill="#96BCC9"/>
<path d="M3.45382 156.88C2.10468 156.097 1.05953 154.882 0.487779 153.43C-0.0839717 151.979 -0.148815 150.377 0.30376 148.884C0.978257 147.437 2.13249 146.267 3.57088 145.573C5.00927 144.879 6.64334 144.703 8.19621 145.076C9.58085 145.423 9.61547 146.08 14.2194 151.273C16.781 154.111 17.681 155.046 17.4387 155.807C17.1964 156.569 15.7079 156.43 12.1078 156.604C5.60001 156.95 5.04615 157.711 3.45382 156.88Z" fill="#96BCC9"/>
<path d="M23.0811 141.996C24.3879 141.147 25.9429 140.764 27.4946 140.908C29.0462 141.052 30.5037 141.716 31.6313 142.792C32.6496 144.031 33.2062 145.585 33.2062 147.188C33.2062 148.792 32.6496 150.346 31.6313 151.584C30.662 152.657 30.1082 152.38 23.3927 154.181C19.6888 155.15 18.408 155.634 17.8887 154.977C17.3695 154.319 18.0964 153.142 19.5503 149.854C22.0427 143.83 21.6273 143 23.0811 141.996Z" fill="#96BCC9"/>
<path d="M18.131 158.231C19.756 158.231 21.0733 156.913 21.0733 155.288C21.0733 153.663 19.756 152.346 18.131 152.346C16.5059 152.346 15.1886 153.663 15.1886 155.288C15.1886 156.913 16.5059 158.231 18.131 158.231Z" fill="#939598"/>
<path d="M143.926 146.807H70.8166C67.1651 146.807 64.205 149.768 64.205 153.419V163.804C64.205 167.455 67.1651 170.416 70.8166 170.416H143.926C147.577 170.416 150.537 167.455 150.537 163.804V153.419C150.537 149.768 147.577 146.807 143.926 146.807Z" fill="white"/>
<path d="M81.1234 160.322C81.1234 160.588 81.0424 160.873 80.8803 161.176C80.7234 161.48 80.4803 161.77 80.1509 162.047C79.8268 162.319 79.4163 162.538 78.9196 162.706C78.4229 162.873 77.8635 162.957 77.2413 162.957C75.9185 162.957 74.8859 162.572 74.1434 161.804C73.401 161.03 73.0298 159.995 73.0298 158.698C73.0298 157.82 73.1997 157.043 73.5395 156.369C73.8794 155.694 74.3709 155.174 75.014 154.808C75.6571 154.437 76.4256 154.251 77.3197 154.251C77.8739 154.251 78.3811 154.332 78.8412 154.494C79.3065 154.657 79.6987 154.866 80.0176 155.122C80.3418 155.378 80.5875 155.653 80.7548 155.945C80.9273 156.233 81.0136 156.502 81.0136 156.753C81.0136 157.009 80.9169 157.226 80.7234 157.404C80.5352 157.582 80.3052 157.671 80.0333 157.671C79.8555 157.671 79.7065 157.626 79.5862 157.537C79.4712 157.443 79.3405 157.294 79.1941 157.09C78.9327 156.693 78.6582 156.395 78.3706 156.196C78.0883 155.998 77.7275 155.898 77.2883 155.898C76.6557 155.898 76.1459 156.147 75.759 156.643C75.3721 157.135 75.1787 157.809 75.1787 158.667C75.1787 159.069 75.2283 159.441 75.3277 159.78C75.427 160.115 75.5708 160.403 75.759 160.643C75.9472 160.878 76.1747 161.059 76.4413 161.184C76.708 161.305 77.0008 161.365 77.3197 161.365C77.7484 161.365 78.1144 161.265 78.4177 161.067C78.7262 160.868 78.998 160.565 79.2333 160.157C79.364 159.916 79.5052 159.728 79.6568 159.592C79.8085 159.456 79.9941 159.388 80.2137 159.388C80.4751 159.388 80.6921 159.488 80.8646 159.686C81.0371 159.885 81.1234 160.097 81.1234 160.322ZM88.4093 161.765C87.8917 162.167 87.3897 162.471 86.9035 162.674C86.4225 162.873 85.8813 162.972 85.28 162.972C84.7311 162.972 84.2474 162.865 83.8291 162.651C83.4161 162.431 83.0972 162.136 82.8723 161.765C82.6475 161.393 82.5351 160.991 82.5351 160.557C82.5351 159.971 82.7207 159.472 83.0919 159.059C83.4632 158.646 83.9729 158.369 84.6213 158.228C84.7572 158.196 85.0944 158.126 85.633 158.016C86.1715 157.906 86.6316 157.807 87.0133 157.718C87.4002 157.624 87.8185 157.511 88.2681 157.381C88.242 156.816 88.1269 156.403 87.923 156.141C87.7243 155.875 87.3087 155.741 86.676 155.741C86.1323 155.741 85.7218 155.817 85.4447 155.969C85.1729 156.121 84.9376 156.348 84.7389 156.651C84.5454 156.954 84.4069 157.156 84.3232 157.255C84.2448 157.349 84.0723 157.396 83.8056 157.396C83.5651 157.396 83.356 157.32 83.1782 157.169C83.0057 157.012 82.9194 156.813 82.9194 156.573C82.9194 156.196 83.0527 155.83 83.3194 155.475C83.586 155.119 84.0017 154.826 84.5664 154.596C85.131 154.366 85.8343 154.251 86.676 154.251C87.6172 154.251 88.357 154.364 88.8955 154.589C89.4341 154.808 89.8131 155.158 90.0327 155.64C90.2575 156.121 90.37 156.758 90.37 157.553C90.37 158.055 90.3673 158.481 90.3621 158.831C90.3621 159.182 90.3595 159.571 90.3543 160C90.3543 160.403 90.4196 160.824 90.5503 161.263C90.6863 161.697 90.7542 161.976 90.7542 162.102C90.7542 162.321 90.6497 162.523 90.4405 162.706C90.2366 162.884 90.004 162.972 89.7425 162.972C89.5229 162.972 89.306 162.87 89.0916 162.667C88.8772 162.457 88.6498 162.157 88.4093 161.765ZM88.2681 158.667C87.9544 158.782 87.4969 158.905 86.8956 159.035C86.2996 159.161 85.8865 159.255 85.6565 159.318C85.4264 159.375 85.2068 159.493 84.9977 159.671C84.7886 159.843 84.684 160.086 84.684 160.4C84.684 160.724 84.8069 161.001 85.0526 161.231C85.2983 161.456 85.6199 161.569 86.0173 161.569C86.4408 161.569 86.8303 161.477 87.1858 161.294C87.5466 161.106 87.8106 160.865 87.9779 160.573C88.1714 160.248 88.2681 159.715 88.2681 158.973V158.667ZM92.5502 161.671V152.385C92.5502 151.956 92.6443 151.632 92.8326 151.412C93.026 151.193 93.2848 151.083 93.609 151.083C93.9331 151.083 94.1946 151.193 94.3933 151.412C94.5919 151.627 94.6913 151.951 94.6913 152.385V161.671C94.6913 162.105 94.5893 162.431 94.3854 162.651C94.1867 162.865 93.9279 162.972 93.609 162.972C93.2953 162.972 93.0391 162.86 92.8404 162.635C92.6469 162.41 92.5502 162.089 92.5502 161.671ZM102.887 159.145H98.6989C98.7041 159.631 98.8008 160.06 98.9891 160.431C99.1825 160.803 99.4361 161.082 99.7498 161.271C100.069 161.459 100.419 161.553 100.801 161.553C101.057 161.553 101.29 161.524 101.499 161.467C101.713 161.404 101.92 161.31 102.118 161.184C102.317 161.054 102.5 160.915 102.667 160.769C102.835 160.622 103.052 160.424 103.318 160.173C103.428 160.078 103.585 160.031 103.789 160.031C104.008 160.031 104.186 160.092 104.322 160.212C104.458 160.332 104.526 160.502 104.526 160.722C104.526 160.915 104.45 161.142 104.299 161.404C104.147 161.66 103.917 161.908 103.608 162.149C103.305 162.384 102.921 162.58 102.456 162.737C101.995 162.894 101.465 162.972 100.863 162.972C99.4884 162.972 98.4192 162.58 97.6558 161.796C96.8925 161.012 96.5108 159.948 96.5108 158.604C96.5108 157.971 96.6049 157.386 96.7931 156.847C96.9813 156.304 97.2558 155.838 97.6166 155.451C97.9774 155.064 98.4218 154.769 98.9499 154.565C99.4779 154.356 100.064 154.251 100.707 154.251C101.543 154.251 102.259 154.429 102.856 154.785C103.457 155.135 103.906 155.59 104.204 156.149C104.502 156.709 104.651 157.279 104.651 157.859C104.651 158.398 104.497 158.748 104.189 158.91C103.88 159.067 103.446 159.145 102.887 159.145ZM98.6989 157.93H102.581C102.529 157.198 102.33 156.651 101.985 156.29C101.645 155.924 101.195 155.741 100.636 155.741C100.103 155.741 99.6635 155.927 99.3185 156.298C98.9786 156.664 98.7721 157.208 98.6989 157.93ZM108.408 155.451V155.71C108.785 155.213 109.195 154.85 109.639 154.62C110.089 154.385 110.604 154.267 111.184 154.267C111.749 154.267 112.254 154.39 112.698 154.636C113.143 154.881 113.475 155.229 113.694 155.679C113.835 155.94 113.927 156.222 113.969 156.526C114.01 156.829 114.031 157.216 114.031 157.686V161.671C114.031 162.099 113.932 162.423 113.733 162.643C113.54 162.863 113.286 162.972 112.973 162.972C112.654 162.972 112.395 162.86 112.196 162.635C111.997 162.41 111.898 162.089 111.898 161.671V158.102C111.898 157.396 111.799 156.858 111.6 156.487C111.407 156.11 111.017 155.922 110.432 155.922C110.05 155.922 109.702 156.037 109.388 156.267C109.075 156.492 108.845 156.803 108.698 157.2C108.594 157.519 108.541 158.115 108.541 158.988V161.671C108.541 162.105 108.44 162.431 108.236 162.651C108.037 162.865 107.778 162.972 107.459 162.972C107.151 162.972 106.897 162.86 106.698 162.635C106.5 162.41 106.4 162.089 106.4 161.671V155.483C106.4 155.075 106.489 154.772 106.667 154.573C106.845 154.369 107.088 154.267 107.396 154.267C107.585 154.267 107.755 154.311 107.906 154.4C108.058 154.489 108.178 154.623 108.267 154.8C108.361 154.978 108.408 155.195 108.408 155.451ZM122.039 161.749V161.537C121.751 161.867 121.466 162.136 121.184 162.345C120.907 162.549 120.604 162.703 120.274 162.808C119.95 162.918 119.594 162.972 119.208 162.972C118.695 162.972 118.219 162.865 117.78 162.651C117.346 162.431 116.97 162.12 116.651 161.718C116.332 161.315 116.089 160.842 115.921 160.298C115.759 159.754 115.678 159.166 115.678 158.533C115.678 157.195 116.005 156.152 116.659 155.404C117.312 154.657 118.172 154.283 119.239 154.283C119.856 154.283 120.376 154.39 120.8 154.604C121.223 154.813 121.636 155.138 122.039 155.577V152.416C122.039 151.977 122.125 151.645 122.298 151.42C122.475 151.195 122.726 151.083 123.05 151.083C123.375 151.083 123.623 151.187 123.796 151.397C123.973 151.601 124.062 151.904 124.062 152.306V161.749C124.062 162.157 123.968 162.463 123.78 162.667C123.592 162.87 123.348 162.972 123.05 162.972C122.758 162.972 122.515 162.868 122.321 162.659C122.133 162.444 122.039 162.141 122.039 161.749ZM117.827 158.604C117.827 159.184 117.916 159.679 118.094 160.086C118.277 160.494 118.525 160.803 118.839 161.012C119.153 161.216 119.495 161.318 119.866 161.318C120.243 161.318 120.585 161.221 120.894 161.027C121.207 160.829 121.456 160.528 121.639 160.126C121.827 159.718 121.921 159.211 121.921 158.604C121.921 158.034 121.827 157.545 121.639 157.137C121.456 156.724 121.205 156.411 120.886 156.196C120.572 155.977 120.227 155.867 119.851 155.867C119.459 155.867 119.108 155.979 118.8 156.204C118.491 156.424 118.251 156.743 118.078 157.161C117.911 157.574 117.827 158.055 117.827 158.604ZM131.623 161.765C131.105 162.167 130.603 162.471 130.117 162.674C129.636 162.873 129.095 162.972 128.493 162.972C127.944 162.972 127.461 162.865 127.042 162.651C126.629 162.431 126.31 162.136 126.086 161.765C125.861 161.393 125.748 160.991 125.748 160.557C125.748 159.971 125.934 159.472 126.305 159.059C126.676 158.646 127.186 158.369 127.834 158.228C127.97 158.196 128.308 158.126 128.846 158.016C129.385 157.906 129.845 157.807 130.227 157.718C130.613 157.624 131.032 157.511 131.481 157.381C131.455 156.816 131.34 156.403 131.136 156.141C130.938 155.875 130.522 155.741 129.889 155.741C129.346 155.741 128.935 155.817 128.658 155.969C128.386 156.121 128.151 156.348 127.952 156.651C127.759 156.954 127.62 157.156 127.536 157.255C127.458 157.349 127.286 157.396 127.019 157.396C126.778 157.396 126.569 157.32 126.391 157.169C126.219 157.012 126.133 156.813 126.133 156.573C126.133 156.196 126.266 155.83 126.533 155.475C126.799 155.119 127.215 154.826 127.78 154.596C128.344 154.366 129.048 154.251 129.889 154.251C130.83 154.251 131.57 154.364 132.109 154.589C132.647 154.808 133.026 155.158 133.246 155.64C133.471 156.121 133.583 156.758 133.583 157.553C133.583 158.055 133.581 158.481 133.575 158.831C133.575 159.182 133.573 159.571 133.568 160C133.568 160.403 133.633 160.824 133.764 161.263C133.9 161.697 133.967 161.976 133.967 162.102C133.967 162.321 133.863 162.523 133.654 162.706C133.45 162.884 133.217 162.972 132.956 162.972C132.736 162.972 132.519 162.87 132.305 162.667C132.09 162.457 131.863 162.157 131.623 161.765ZM131.481 158.667C131.168 158.782 130.71 158.905 130.109 159.035C129.513 159.161 129.1 159.255 128.87 159.318C128.64 159.375 128.42 159.493 128.211 159.671C128.002 159.843 127.897 160.086 127.897 160.4C127.897 160.724 128.02 161.001 128.266 161.231C128.512 161.456 128.833 161.569 129.23 161.569C129.654 161.569 130.044 161.477 130.399 161.294C130.76 161.106 131.024 160.865 131.191 160.573C131.385 160.248 131.481 159.715 131.481 158.973V158.667ZM137.889 159.882V161.671C137.889 162.105 137.787 162.431 137.583 162.651C137.379 162.865 137.12 162.972 136.807 162.972C136.498 162.972 136.244 162.863 136.046 162.643C135.847 162.423 135.748 162.099 135.748 161.671V155.71C135.748 154.748 136.095 154.267 136.791 154.267C137.146 154.267 137.403 154.379 137.559 154.604C137.716 154.829 137.803 155.161 137.818 155.6C138.074 155.161 138.336 154.829 138.603 154.604C138.874 154.379 139.235 154.267 139.685 154.267C140.134 154.267 140.571 154.379 140.995 154.604C141.418 154.829 141.63 155.127 141.63 155.498C141.63 155.76 141.538 155.977 141.355 156.149C141.178 156.317 140.984 156.4 140.775 156.4C140.697 156.4 140.506 156.353 140.202 156.259C139.904 156.16 139.64 156.11 139.41 156.11C139.097 156.11 138.84 156.194 138.642 156.361C138.443 156.523 138.289 156.766 138.179 157.09C138.069 157.415 137.993 157.801 137.952 158.251C137.91 158.696 137.889 159.239 137.889 159.882Z" fill="#231F20"/>
</svg>
