<svg width="464" height="145" viewBox="0 0 464 145" fill="none" xmlns="http://www.w3.org/2000/svg">
<path d="M16.9003 131.626H32.6234C33.768 131.626 34.6959 130.698 34.6959 129.554V124.745C34.6959 123.601 33.768 122.673 32.6234 122.673H16.9003C15.7557 122.673 14.8278 123.601 14.8278 124.745V129.554C14.8278 130.698 15.7557 131.626 16.9003 131.626Z" fill="#5D63AD"/>
<path d="M130.859 9.23987C127.638 9.10495 124.424 9.61748 121.405 10.7471C118.386 11.8768 115.625 13.6006 113.284 15.8165C111.001 18.0408 109.182 20.6949 107.93 23.6259C106.677 26.5568 106.018 29.7066 105.989 32.8936V48.0641" stroke="#5D63AD" stroke-width="17.1918" stroke-miterlimit="10"/>
<path d="M153.987 67.5176H62.3564C42.3032 67.5176 26.0468 83.7739 26.0468 103.827V108.691C26.0468 128.744 42.3032 145 62.3564 145H153.987C174.04 145 190.297 128.744 190.297 108.691V103.827C190.297 83.7739 174.04 67.5176 153.987 67.5176Z" fill="#78CBC2"/>
<path d="M166.975 77.7417H137.021C127.711 77.7417 120.165 85.2884 120.165 94.5978V104.021C120.165 113.33 127.711 120.877 137.021 120.877H166.975C176.284 120.877 183.831 113.33 183.831 104.021V94.5978C183.831 85.2884 176.284 77.7417 166.975 77.7417Z" fill="#8EA2D3"/>
<path d="M140.834 39.6357H75.3439C69.4836 39.6357 64.7329 44.3865 64.7329 50.2468V62.4329C64.7329 68.2932 69.4836 73.0439 75.3439 73.0439H140.834C146.694 73.0439 151.445 68.2932 151.445 62.4329V50.2468C151.445 44.3865 146.694 39.6357 140.834 39.6357Z" fill="#78CBC2"/>
<path d="M149.98 60.2222H66.1698C63.6975 60.2222 61.6933 62.2264 61.6933 64.6987C61.6933 67.171 63.6975 69.1752 66.1698 69.1752H149.98C152.453 69.1752 154.457 67.171 154.457 64.6987C154.457 62.2264 152.453 60.2222 149.98 60.2222Z" fill="#5D63AD"/>
<path d="M129.809 3.05029V15.3469C129.809 15.9268 130.279 16.397 130.859 16.397H131.936C132.516 16.397 132.986 15.9268 132.986 15.3469V3.05029C132.986 2.47037 132.516 2.00024 131.936 2.00024H130.859C130.279 2.00024 129.809 2.47037 129.809 3.05029Z" fill="#78CBC2"/>
<path d="M93.3605 114.134C101.541 114.134 108.172 107.503 108.172 99.3229C108.172 91.1429 101.541 84.5117 93.3605 84.5117C85.1805 84.5117 78.5493 91.1429 78.5493 99.3229C78.5493 107.503 85.1805 114.134 93.3605 114.134Z" fill="#8EA2D3"/>
<path d="M54.5639 114.134C62.7439 114.134 69.3751 107.503 69.3751 99.3229C69.3751 91.1429 62.7439 84.5117 54.5639 84.5117C46.3839 84.5117 39.7527 91.1429 39.7527 99.3229C39.7527 107.503 46.3839 114.134 54.5639 114.134Z" fill="#8EA2D3"/>
<path d="M21.8467 134.389C21.9587 135.653 21.6326 136.916 20.9232 137.968C20.2137 139.02 19.1641 139.795 17.9505 140.165C16.6918 140.367 15.4016 140.129 14.2987 139.489C13.1958 138.85 12.348 137.848 11.8989 136.655C11.5396 135.577 11.8989 135.273 13.2805 129.885C14.0266 126.928 14.1924 125.878 14.8556 125.74C15.5188 125.602 16.0438 126.597 17.7847 128.89C20.9624 132.952 21.7085 132.98 21.8467 134.389Z" fill="#96BCC9"/>
<path d="M2.7523 126.9C1.67532 126.275 0.841015 125.305 0.384604 124.146C-0.0718067 122.988 -0.123569 121.709 0.237707 120.517C0.776137 119.362 1.69753 118.428 2.84575 117.874C3.99397 117.32 5.2984 117.18 6.538 117.478C7.64332 117.754 7.67095 118.279 11.3461 122.424C13.391 124.69 14.1094 125.436 13.916 126.044C13.7226 126.652 12.5343 126.541 9.66052 126.679C4.46554 126.956 4.02341 127.564 2.7523 126.9Z" fill="#96BCC9"/>
<path d="M18.4201 115.019C19.4633 114.341 20.7046 114.035 21.9432 114.15C23.1819 114.266 24.3453 114.795 25.2455 115.654C26.0583 116.643 26.5027 117.883 26.5027 119.163C26.5027 120.444 26.0583 121.684 25.2455 122.673C24.4717 123.529 24.0296 123.308 18.6688 124.745C15.7121 125.519 14.6897 125.906 14.2752 125.381C13.8607 124.856 14.441 123.916 15.6016 121.291C17.5912 116.483 17.2596 115.82 18.4201 115.019Z" fill="#96BCC9"/>
<path d="M14.4686 127.978C15.7658 127.978 16.8174 126.927 16.8174 125.63C16.8174 124.332 15.7658 123.281 14.4686 123.281C13.1714 123.281 12.1198 124.332 12.1198 125.63C12.1198 126.927 13.1714 127.978 14.4686 127.978Z" fill="#939598"/>
<path d="M445.74 82H250.644C240.899 82 233 89.8994 233 99.6437V127.356C233 137.101 240.899 145 250.644 145H445.74C455.485 145 463.384 137.101 463.384 127.356V99.6437C463.384 89.8994 455.485 82 445.74 82Z" fill="white"/>
<path d="M278.557 119.113C278.557 119.825 278.34 120.585 277.908 121.395C277.489 122.204 276.84 122.978 275.961 123.718C275.096 124.443 274.001 125.029 272.676 125.476C271.35 125.922 269.857 126.145 268.197 126.145C264.667 126.145 261.911 125.12 259.93 123.069C257.949 121.004 256.958 118.241 256.958 114.781C256.958 112.437 257.411 110.365 258.318 108.565C259.225 106.765 260.537 105.377 262.253 104.4C263.969 103.41 266.02 102.914 268.406 102.914C269.885 102.914 271.238 103.131 272.466 103.563C273.708 103.996 274.754 104.554 275.606 105.238C276.471 105.921 277.126 106.654 277.573 107.435C278.033 108.202 278.264 108.921 278.264 109.591C278.264 110.274 278.005 110.853 277.489 111.328C276.987 111.802 276.373 112.039 275.647 112.039C275.173 112.039 274.775 111.921 274.454 111.684C274.148 111.432 273.799 111.035 273.408 110.491C272.71 109.43 271.978 108.635 271.211 108.105C270.457 107.575 269.494 107.31 268.322 107.31C266.634 107.31 265.274 107.972 264.241 109.298C263.209 110.609 262.692 112.409 262.692 114.697C262.692 115.772 262.825 116.762 263.09 117.669C263.355 118.562 263.739 119.33 264.241 119.971C264.744 120.599 265.35 121.081 266.062 121.416C266.774 121.736 267.555 121.897 268.406 121.897C269.55 121.897 270.527 121.632 271.336 121.102C272.159 120.571 272.885 119.762 273.513 118.674C273.861 118.032 274.238 117.53 274.643 117.167C275.047 116.804 275.543 116.623 276.129 116.623C276.826 116.623 277.405 116.888 277.866 117.418C278.326 117.948 278.557 118.513 278.557 119.113ZM297.999 122.964C296.618 124.039 295.279 124.848 293.981 125.392C292.697 125.922 291.253 126.187 289.649 126.187C288.184 126.187 286.893 125.901 285.777 125.329C284.675 124.743 283.824 123.955 283.224 122.964C282.624 121.974 282.324 120.899 282.324 119.741C282.324 118.179 282.819 116.846 283.81 115.744C284.8 114.642 286.161 113.902 287.891 113.525C288.254 113.442 289.153 113.253 290.591 112.96C292.028 112.667 293.256 112.402 294.274 112.165C295.307 111.914 296.423 111.614 297.623 111.265C297.553 109.758 297.246 108.656 296.702 107.958C296.172 107.247 295.062 106.891 293.374 106.891C291.923 106.891 290.828 107.093 290.088 107.498C289.363 107.902 288.735 108.509 288.205 109.319C287.688 110.128 287.319 110.665 287.095 110.93C286.886 111.181 286.426 111.307 285.714 111.307C285.072 111.307 284.514 111.105 284.04 110.7C283.579 110.281 283.349 109.751 283.349 109.109C283.349 108.105 283.705 107.128 284.417 106.179C285.128 105.231 286.237 104.449 287.744 103.835C289.251 103.221 291.128 102.914 293.374 102.914C295.886 102.914 297.86 103.214 299.297 103.814C300.734 104.4 301.746 105.335 302.332 106.619C302.932 107.902 303.232 109.605 303.232 111.725C303.232 113.065 303.225 114.202 303.211 115.137C303.211 116.072 303.204 117.111 303.19 118.255C303.19 119.33 303.364 120.453 303.713 121.625C304.076 122.783 304.257 123.529 304.257 123.864C304.257 124.45 303.978 124.987 303.42 125.476C302.876 125.95 302.255 126.187 301.557 126.187C300.971 126.187 300.392 125.915 299.82 125.371C299.248 124.813 298.641 124.011 297.999 122.964ZM297.623 114.697C296.786 115.004 295.565 115.332 293.96 115.681C292.37 116.016 291.267 116.267 290.653 116.434C290.039 116.588 289.453 116.902 288.895 117.376C288.337 117.837 288.058 118.485 288.058 119.323C288.058 120.188 288.386 120.927 289.042 121.541C289.698 122.141 290.556 122.441 291.616 122.441C292.746 122.441 293.786 122.197 294.734 121.709C295.697 121.206 296.402 120.564 296.848 119.783C297.365 118.918 297.623 117.495 297.623 115.514V114.697ZM309.05 122.713V97.9334C309.05 96.7893 309.301 95.9242 309.803 95.3382C310.319 94.7522 311.01 94.4592 311.875 94.4592C312.74 94.4592 313.438 94.7522 313.968 95.3382C314.498 95.9103 314.763 96.7753 314.763 97.9334V122.713C314.763 123.871 314.491 124.743 313.947 125.329C313.417 125.901 312.726 126.187 311.875 126.187C311.038 126.187 310.354 125.887 309.824 125.287C309.308 124.687 309.05 123.829 309.05 122.713ZM336.634 115.974H325.458C325.472 117.272 325.73 118.416 326.232 119.406C326.749 120.397 327.425 121.143 328.262 121.646C329.114 122.148 330.048 122.399 331.067 122.399C331.751 122.399 332.371 122.322 332.93 122.169C333.502 122.002 334.053 121.75 334.583 121.416C335.113 121.067 335.601 120.697 336.048 120.306C336.494 119.916 337.073 119.385 337.785 118.716C338.078 118.465 338.497 118.339 339.041 118.339C339.627 118.339 340.101 118.499 340.464 118.82C340.827 119.141 341.008 119.595 341.008 120.181C341.008 120.697 340.806 121.304 340.401 122.002C339.996 122.685 339.383 123.348 338.559 123.99C337.75 124.618 336.725 125.141 335.483 125.559C334.255 125.978 332.839 126.187 331.234 126.187C327.565 126.187 324.711 125.141 322.674 123.048C320.637 120.955 319.619 118.116 319.619 114.53C319.619 112.842 319.87 111.279 320.372 109.842C320.875 108.391 321.607 107.149 322.57 106.117C323.533 105.084 324.718 104.296 326.128 103.752C327.537 103.194 329.1 102.914 330.816 102.914C333.048 102.914 334.96 103.389 336.55 104.338C338.155 105.272 339.355 106.486 340.15 107.979C340.945 109.472 341.343 110.993 341.343 112.542C341.343 113.979 340.931 114.914 340.108 115.346C339.285 115.765 338.127 115.974 336.634 115.974ZM325.458 112.73H335.818C335.678 110.777 335.148 109.319 334.227 108.356C333.32 107.379 332.12 106.891 330.627 106.891C329.204 106.891 328.032 107.386 327.111 108.377C326.204 109.354 325.653 110.805 325.458 112.73ZM351.368 106.117V106.807C352.372 105.482 353.468 104.512 354.654 103.898C355.854 103.27 357.228 102.956 358.777 102.956C360.283 102.956 361.63 103.284 362.816 103.94C364.002 104.596 364.888 105.524 365.474 106.724C365.851 107.421 366.095 108.175 366.206 108.984C366.318 109.793 366.374 110.826 366.374 112.081V122.713C366.374 123.857 366.109 124.722 365.578 125.308C365.062 125.894 364.386 126.187 363.548 126.187C362.697 126.187 362.007 125.887 361.476 125.287C360.946 124.687 360.681 123.829 360.681 122.713V113.191C360.681 111.307 360.416 109.87 359.886 108.879C359.37 107.875 358.33 107.372 356.767 107.372C355.749 107.372 354.821 107.679 353.984 108.293C353.147 108.893 352.533 109.723 352.142 110.784C351.863 111.635 351.724 113.225 351.724 115.555V122.713C351.724 123.871 351.452 124.743 350.907 125.329C350.377 125.901 349.687 126.187 348.835 126.187C348.012 126.187 347.336 125.887 346.805 125.287C346.275 124.687 346.01 123.829 346.01 122.713V106.2C346.01 105.112 346.247 104.303 346.722 103.773C347.196 103.228 347.845 102.956 348.668 102.956C349.17 102.956 349.624 103.075 350.028 103.312C350.433 103.549 350.754 103.905 350.991 104.379C351.242 104.854 351.368 105.433 351.368 106.117ZM387.742 122.922V122.357C386.975 123.236 386.214 123.955 385.461 124.513C384.721 125.057 383.912 125.469 383.033 125.748C382.168 126.041 381.219 126.187 380.187 126.187C378.819 126.187 377.55 125.901 376.378 125.329C375.22 124.743 374.215 123.913 373.364 122.839C372.513 121.764 371.864 120.502 371.418 119.051C370.985 117.6 370.769 116.03 370.769 114.342C370.769 110.77 371.641 107.986 373.385 105.991C375.129 103.996 377.424 102.998 380.27 102.998C381.917 102.998 383.305 103.284 384.435 103.856C385.565 104.414 386.668 105.279 387.742 106.451V98.0171C387.742 96.8451 387.972 95.9591 388.433 95.3592C388.907 94.7592 389.577 94.4592 390.442 94.4592C391.307 94.4592 391.97 94.7383 392.43 95.2964C392.904 95.8405 393.142 96.6498 393.142 97.7241V122.922C393.142 124.011 392.891 124.827 392.388 125.371C391.886 125.915 391.237 126.187 390.442 126.187C389.661 126.187 389.012 125.908 388.495 125.35C387.993 124.778 387.742 123.969 387.742 122.922ZM376.503 114.53C376.503 116.079 376.74 117.397 377.215 118.485C377.703 119.574 378.366 120.397 379.203 120.955C380.04 121.499 380.954 121.771 381.945 121.771C382.949 121.771 383.863 121.513 384.686 120.997C385.524 120.467 386.186 119.664 386.675 118.59C387.177 117.502 387.428 116.148 387.428 114.53C387.428 113.009 387.177 111.705 386.675 110.616C386.186 109.514 385.517 108.677 384.666 108.105C383.828 107.519 382.907 107.226 381.903 107.226C380.856 107.226 379.922 107.526 379.098 108.126C378.275 108.712 377.633 109.563 377.173 110.679C376.727 111.781 376.503 113.065 376.503 114.53ZM413.317 122.964C411.936 124.039 410.596 124.848 409.299 125.392C408.015 125.922 406.571 126.187 404.966 126.187C403.501 126.187 402.211 125.901 401.095 125.329C399.992 124.743 399.141 123.955 398.541 122.964C397.941 121.974 397.641 120.899 397.641 119.741C397.641 118.179 398.137 116.846 399.127 115.744C400.118 114.642 401.478 113.902 403.208 113.525C403.571 113.442 404.471 113.253 405.908 112.96C407.345 112.667 408.573 112.402 409.592 112.165C410.624 111.914 411.74 111.614 412.94 111.265C412.871 109.758 412.564 108.656 412.019 107.958C411.489 107.247 410.38 106.891 408.692 106.891C407.241 106.891 406.145 107.093 405.406 107.498C404.68 107.902 404.053 108.509 403.522 109.319C403.006 110.128 402.636 110.665 402.413 110.93C402.204 111.181 401.743 111.307 401.032 111.307C400.39 111.307 399.832 111.105 399.358 110.7C398.897 110.281 398.667 109.751 398.667 109.109C398.667 108.105 399.023 107.128 399.734 106.179C400.446 105.231 401.555 104.449 403.062 103.835C404.569 103.221 406.445 102.914 408.692 102.914C411.203 102.914 413.178 103.214 414.615 103.814C416.052 104.4 417.063 105.335 417.649 106.619C418.249 107.902 418.549 109.605 418.549 111.725C418.549 113.065 418.542 114.202 418.528 115.137C418.528 116.072 418.521 117.111 418.507 118.255C418.507 119.33 418.682 120.453 419.031 121.625C419.393 122.783 419.575 123.529 419.575 123.864C419.575 124.45 419.296 124.987 418.738 125.476C418.193 125.95 417.573 126.187 416.875 126.187C416.289 126.187 415.71 125.915 415.138 125.371C414.566 124.813 413.959 124.011 413.317 122.964ZM412.94 114.697C412.103 115.004 410.882 115.332 409.278 115.681C407.687 116.016 406.585 116.267 405.971 116.434C405.357 116.588 404.771 116.902 404.213 117.376C403.655 117.837 403.376 118.485 403.376 119.323C403.376 120.188 403.704 120.927 404.36 121.541C405.015 122.141 405.873 122.441 406.934 122.441C408.064 122.441 409.103 122.197 410.052 121.709C411.015 121.206 411.719 120.564 412.166 119.783C412.682 118.918 412.94 117.495 412.94 115.514V114.697ZM430.039 117.941V122.713C430.039 123.871 429.767 124.743 429.223 125.329C428.679 125.901 427.988 126.187 427.151 126.187C426.328 126.187 425.651 125.894 425.121 125.308C424.591 124.722 424.326 123.857 424.326 122.713V106.807C424.326 104.24 425.253 102.956 427.109 102.956C428.058 102.956 428.742 103.256 429.16 103.856C429.579 104.456 429.809 105.342 429.851 106.514C430.534 105.342 431.232 104.456 431.944 103.856C432.669 103.256 433.632 102.956 434.832 102.956C436.032 102.956 437.197 103.256 438.327 103.856C439.457 104.456 440.022 105.252 440.022 106.242C440.022 106.94 439.778 107.519 439.29 107.979C438.815 108.426 438.299 108.649 437.741 108.649C437.532 108.649 437.022 108.523 436.213 108.272C435.418 108.007 434.713 107.875 434.099 107.875C433.262 107.875 432.578 108.098 432.048 108.544C431.518 108.977 431.107 109.626 430.814 110.491C430.52 111.356 430.318 112.388 430.207 113.588C430.095 114.774 430.039 116.225 430.039 117.941Z" fill="#231F20"/>
</svg>
