<svg width="100" height="78" viewBox="0 0 100 78" fill="none" xmlns="http://www.w3.org/2000/svg">
<path d="M8.88105 70.1177H17.1435C17.745 70.1177 18.2325 69.6301 18.2325 69.0286V66.502C18.2325 65.9005 17.745 65.4129 17.1435 65.4129H8.88105C8.27957 65.4129 7.79198 65.9005 7.79198 66.502V69.0286C7.79198 69.6301 8.27957 70.1177 8.88105 70.1177Z" fill="#F7941D"/>
<path d="M68.7655 5.80456C67.0732 5.73365 65.3839 6.00299 63.7976 6.59661C62.2113 7.19024 60.7602 8.09609 59.5302 9.26054C58.3307 10.4294 57.3744 11.8241 56.7164 13.3643C56.0585 14.9045 55.7119 16.5597 55.6967 18.2345V26.2065" stroke="#F7941D" stroke-width="11.0531" stroke-miterlimit="10"/>
<path d="M80.9195 36.4292H32.768C22.2301 36.4292 13.6875 44.9718 13.6875 55.5097V58.0654C13.6875 68.6033 22.2301 77.1459 32.768 77.1459H80.9195C91.4574 77.1459 100 68.6033 100 58.0654V55.5097C100 44.9718 91.4574 36.4292 80.9195 36.4292Z" fill="#FFDE17"/>
<path d="M87.7444 41.8018H72.0037C67.1116 41.8018 63.1459 45.7675 63.1459 50.6595V55.6112C63.1459 60.5032 67.1116 64.469 72.0037 64.469H87.7444C92.6364 64.469 96.6021 60.5032 96.6021 55.6112V50.6595C96.6021 45.7675 92.6364 41.8018 87.7444 41.8018Z" fill="#96BCC9"/>
<path d="M74.0075 21.7776H39.5929C36.5133 21.7776 34.0168 24.2741 34.0168 27.3536V33.7574C34.0168 36.8369 36.5133 39.3334 39.5929 39.3334H74.0075C77.0871 39.3334 79.5836 36.8369 79.5836 33.7574V27.3536C79.5836 24.2741 77.0871 21.7776 74.0075 21.7776Z" fill="#FFDE17"/>
<path d="M78.814 32.5957H34.772C33.4728 32.5957 32.4196 33.6489 32.4196 34.9481C32.4196 36.2473 33.4728 37.3005 34.772 37.3005H78.814C80.1132 37.3005 81.1664 36.2473 81.1664 34.9481C81.1664 33.6489 80.1132 32.5957 78.814 32.5957Z" fill="#F7941D"/>
<path d="M68.2137 2.55181V9.01363C68.2137 9.31838 68.4608 9.56543 68.7655 9.56543H69.3319C69.6366 9.56543 69.8837 9.31838 69.8837 9.01363V2.55181C69.8837 2.24706 69.6366 2.00002 69.3319 2.00002H68.7655C68.4608 2.00002 68.2137 2.24706 68.2137 2.55181Z" fill="#FFDE17"/>
<path d="M49.0606 60.9261C53.3591 60.9261 56.8438 57.4414 56.8438 53.1428C56.8438 48.8443 53.3591 45.3596 49.0606 45.3596C44.762 45.3596 41.2773 48.8443 41.2773 53.1428C41.2773 57.4414 44.762 60.9261 49.0606 60.9261Z" fill="#96BCC9"/>
<path d="M28.673 60.9261C32.9716 60.9261 36.4562 57.4414 36.4562 53.1428C36.4562 48.8443 32.9716 45.3596 28.673 45.3596C24.3744 45.3596 20.8898 48.8443 20.8898 53.1428C20.8898 57.4414 24.3744 60.9261 28.673 60.9261Z" fill="#96BCC9"/>
<path d="M11.4803 71.5697C11.5392 72.2338 11.3678 72.8978 10.995 73.4504C10.6222 74.003 10.0706 74.4106 9.43289 74.6046C8.77145 74.7112 8.09349 74.5858 7.51392 74.2497C6.93435 73.9136 6.48881 73.3875 6.2528 72.7605C6.06403 72.1941 6.2528 72.0344 6.97885 69.2028C7.37091 67.6491 7.45804 67.0973 7.80654 67.0247C8.15504 66.9521 8.43094 67.4748 9.34576 68.6801C11.0157 70.8147 11.4077 70.8292 11.4803 71.5697Z" fill="#96BCC9"/>
<path d="M1.44632 67.6345C0.880375 67.306 0.44195 66.796 0.202108 66.1872C-0.0377341 65.5784 -0.064935 64.9064 0.124914 64.2802C0.407856 63.6729 0.892042 63.1822 1.49543 62.891C2.09881 62.5999 2.78428 62.5264 3.43569 62.6829C4.01653 62.8281 4.03105 63.104 5.96234 65.2821C7.03689 66.4728 7.41443 66.8649 7.31278 67.1844C7.21114 67.5038 6.58674 67.4457 5.07656 67.5183C2.34662 67.6636 2.11428 67.983 1.44632 67.6345Z" fill="#96BCC9"/>
<path d="M9.67972 61.3907C10.2279 61.0345 10.8802 60.8738 11.5311 60.9344C12.182 60.995 12.7934 61.2734 13.2664 61.7246C13.6935 62.2443 13.9271 62.8961 13.9271 63.5688C13.9271 64.2415 13.6935 64.8933 13.2664 65.413C12.8598 65.8631 12.6275 65.7469 9.81041 66.502C8.25666 66.9086 7.71939 67.1119 7.50157 66.836C7.28376 66.5601 7.5887 66.0664 8.19858 64.6869C9.24409 62.1603 9.06984 61.8118 9.67972 61.3907Z" fill="#96BCC9"/>
<path d="M7.60318 68.201C8.28485 68.201 8.83746 67.6484 8.83746 66.9667C8.83746 66.285 8.28485 65.7324 7.60318 65.7324C6.9215 65.7324 6.3689 66.285 6.3689 66.9667C6.3689 67.6484 6.9215 68.201 7.60318 68.201Z" fill="#939598"/>
</svg>
