<svg width="100" height="81" viewBox="0 0 100 81" fill="none" xmlns="http://www.w3.org/2000/svg">
<path d="M8.88105 73.1177H17.1435C17.745 73.1177 18.2325 72.6301 18.2325 72.0286V69.502C18.2325 68.9005 17.745 68.4129 17.1435 68.4129H8.88105C8.27957 68.4129 7.79198 68.9005 7.79198 69.502V72.0286C7.79198 72.6301 8.27957 73.1177 8.88105 73.1177Z" fill="#5D63AD"/>
<path d="M68.7655 8.80456C67.0732 8.73365 65.3839 9.00299 63.7976 9.59661C62.2113 10.1902 60.7602 11.0961 59.5302 12.2605C58.3307 13.4294 57.3744 14.8241 56.7164 16.3643C56.0585 17.9045 55.7119 19.5597 55.6967 21.2345V29.2065" stroke="#5D63AD" stroke-width="17.1918" stroke-miterlimit="10"/>
<path d="M80.9195 39.429H32.768C22.2301 39.429 13.6875 47.9716 13.6875 58.5095V61.0652C13.6875 71.6031 22.2301 80.1457 32.768 80.1457H80.9195C91.4574 80.1457 100 71.6031 100 61.0652V58.5095C100 47.9716 91.4574 39.429 80.9195 39.429Z" fill="#78CBC2"/>
<path d="M87.7444 44.802H72.0037C67.1116 44.802 63.1459 48.7678 63.1459 53.6598V58.6114C63.1459 63.5034 67.1116 67.4692 72.0037 67.4692H87.7444C92.6364 67.4692 96.6021 63.5034 96.6021 58.6114V53.6598C96.6021 48.7678 92.6364 44.802 87.7444 44.802Z" fill="#8EA2D3"/>
<path d="M74.0075 24.7776H39.5929C36.5133 24.7776 34.0168 27.2741 34.0168 30.3536V36.7574C34.0168 39.8369 36.5133 42.3334 39.5929 42.3334H74.0075C77.0871 42.3334 79.5836 39.8369 79.5836 36.7574V30.3536C79.5836 27.2741 77.0871 24.7776 74.0075 24.7776Z" fill="#78CBC2"/>
<path d="M78.814 35.5955H34.772C33.4728 35.5955 32.4196 36.6487 32.4196 37.9479C32.4196 39.247 33.4728 40.3002 34.772 40.3002H78.814C80.1132 40.3002 81.1664 39.247 81.1664 37.9479C81.1664 36.6487 80.1132 35.5955 78.814 35.5955Z" fill="#5D63AD"/>
<path d="M68.2137 5.55181V12.0136C68.2137 12.3184 68.4608 12.5654 68.7655 12.5654H69.3319C69.6366 12.5654 69.8837 12.3184 69.8837 12.0136V5.55181C69.8837 5.24707 69.6366 5.00002 69.3319 5.00002H68.7655C68.4608 5.00002 68.2137 5.24707 68.2137 5.55181Z" fill="#78CBC2"/>
<path d="M49.0606 63.9261C53.3591 63.9261 56.8438 60.4414 56.8438 56.1428C56.8438 51.8443 53.3591 48.3596 49.0606 48.3596C44.762 48.3596 41.2773 51.8443 41.2773 56.1428C41.2773 60.4414 44.762 63.9261 49.0606 63.9261Z" fill="#8EA2D3"/>
<path d="M28.6731 63.9261C32.9717 63.9261 36.4564 60.4414 36.4564 56.1428C36.4564 51.8443 32.9717 48.3596 28.6731 48.3596C24.3746 48.3596 20.8899 51.8443 20.8899 56.1428C20.8899 60.4414 24.3746 63.9261 28.6731 63.9261Z" fill="#8EA2D3"/>
<path d="M11.4803 74.5697C11.5392 75.2338 11.3678 75.8978 10.995 76.4504C10.6222 77.003 10.0706 77.4106 9.43289 77.6046C8.77145 77.7112 8.09349 77.5858 7.51392 77.2497C6.93435 76.9136 6.48881 76.3875 6.2528 75.7605C6.06403 75.1941 6.2528 75.0344 6.97885 72.2028C7.37091 70.6491 7.45804 70.0973 7.80654 70.0247C8.15504 69.9521 8.43094 70.4748 9.34576 71.6801C11.0157 73.8147 11.4077 73.8292 11.4803 74.5697Z" fill="#96BCC9"/>
<path d="M1.44632 70.6345C0.880375 70.306 0.441949 69.796 0.202108 69.1872C-0.0377341 68.5784 -0.064935 67.9064 0.124914 67.2802C0.407856 66.6729 0.892042 66.1822 1.49543 65.891C2.09881 65.5999 2.78428 65.5264 3.43569 65.6829C4.01653 65.8281 4.03105 66.104 5.96234 68.2821C7.03689 69.4728 7.41443 69.8649 7.31278 70.1844C7.21114 70.5038 6.58674 70.4457 5.07656 70.5183C2.34662 70.6636 2.11428 70.983 1.44632 70.6345Z" fill="#96BCC9"/>
<path d="M9.67972 64.3907C10.2279 64.0345 10.8802 63.8738 11.5311 63.9344C12.182 63.995 12.7934 64.2734 13.2664 64.7246C13.6935 65.2443 13.9271 65.8961 13.9271 66.5688C13.9271 67.2415 13.6935 67.8933 13.2664 68.413C12.8598 68.8631 12.6275 68.7469 9.8104 69.502C8.25666 69.9086 7.71939 70.1119 7.50157 69.836C7.28376 69.5601 7.5887 69.0664 8.19858 67.6869C9.24409 65.1603 9.06984 64.8118 9.67972 64.3907Z" fill="#96BCC9"/>
<path d="M7.60318 71.201C8.28485 71.201 8.83746 70.6484 8.83746 69.9667C8.83746 69.285 8.28485 68.7324 7.60318 68.7324C6.9215 68.7324 6.3689 69.285 6.3689 69.9667C6.3689 70.6484 6.9215 71.201 7.60318 71.201Z" fill="#939598"/>
</svg>
