<svg width="100" height="77" viewBox="0 0 100 77" fill="none" xmlns="http://www.w3.org/2000/svg">
<path d="M8.88105 69.1177H17.1435C17.745 69.1177 18.2325 68.6301 18.2325 68.0286V65.502C18.2325 64.9005 17.745 64.4129 17.1435 64.4129H8.88105C8.27957 64.4129 7.79198 64.9005 7.79198 65.502V68.0286C7.79198 68.6301 8.27957 69.1177 8.88105 69.1177Z" fill="#F7941D"/>
<path d="M68.7655 4.80456C67.0732 4.73365 65.3839 5.00299 63.7976 5.59661C62.2113 6.19024 60.7602 7.09609 59.5302 8.26054C58.3307 9.42941 57.3744 10.8241 56.7164 12.3643C56.0585 13.9045 55.7119 15.5597 55.6967 17.2345V25.2065" stroke="#F7941D" stroke-width="9.06475" stroke-miterlimit="10"/>
<path d="M80.9195 35.4292H32.768C22.2301 35.4292 13.6875 43.9718 13.6875 54.5097V57.0654C13.6875 67.6033 22.2301 76.1459 32.768 76.1459H80.9195C91.4574 76.1459 100 67.6033 100 57.0654V54.5097C100 43.9718 91.4574 35.4292 80.9195 35.4292Z" fill="#F16B51"/>
<path d="M87.7444 40.8018H72.0037C67.1116 40.8018 63.1459 44.7675 63.1459 49.6595V54.6112C63.1459 59.5032 67.1116 63.469 72.0037 63.469H87.7444C92.6364 63.469 96.6021 59.5032 96.6021 54.6112V49.6595C96.6021 44.7675 92.6364 40.8018 87.7444 40.8018Z" fill="#96BCC9"/>
<path d="M74.0075 20.7776H39.5929C36.5133 20.7776 34.0168 23.2741 34.0168 26.3536V32.7574C34.0168 35.8369 36.5133 38.3334 39.5929 38.3334H74.0075C77.0871 38.3334 79.5836 35.8369 79.5836 32.7574V26.3536C79.5836 23.2741 77.0871 20.7776 74.0075 20.7776Z" fill="#F16B51"/>
<path d="M78.814 31.5957H34.772C33.4728 31.5957 32.4196 32.6489 32.4196 33.9481C32.4196 35.2473 33.4728 36.3005 34.772 36.3005H78.814C80.1132 36.3005 81.1664 35.2473 81.1664 33.9481C81.1664 32.6489 80.1132 31.5957 78.814 31.5957Z" fill="#F7941D"/>
<path d="M68.2137 1.55181V8.01363C68.2137 8.31838 68.4608 8.56543 68.7655 8.56543H69.3319C69.6366 8.56543 69.8837 8.31838 69.8837 8.01363V1.55181C69.8837 1.24707 69.6366 1.00002 69.3319 1.00002H68.7655C68.4608 1.00002 68.2137 1.24707 68.2137 1.55181Z" fill="#F16B51"/>
<path d="M49.0606 59.9258C53.3591 59.9258 56.8438 56.4412 56.8438 52.1426C56.8438 47.844 53.3591 44.3594 49.0606 44.3594C44.762 44.3594 41.2773 47.844 41.2773 52.1426C41.2773 56.4412 44.762 59.9258 49.0606 59.9258Z" fill="#96BCC9"/>
<path d="M28.673 59.9258C32.9716 59.9258 36.4562 56.4412 36.4562 52.1426C36.4562 47.844 32.9716 44.3594 28.673 44.3594C24.3744 44.3594 20.8898 47.844 20.8898 52.1426C20.8898 56.4412 24.3744 59.9258 28.673 59.9258Z" fill="#96BCC9"/>
<path d="M11.4803 70.5697C11.5392 71.2338 11.3678 71.8978 10.995 72.4504C10.6222 73.003 10.0706 73.4106 9.43289 73.6046C8.77145 73.7112 8.09349 73.5858 7.51392 73.2497C6.93435 72.9136 6.48881 72.3875 6.2528 71.7605C6.06403 71.1941 6.2528 71.0344 6.97885 68.2028C7.37091 66.6491 7.45804 66.0973 7.80654 66.0247C8.15504 65.9521 8.43094 66.4748 9.34576 67.6801C11.0157 69.8147 11.4077 69.8292 11.4803 70.5697Z" fill="#96BCC9"/>
<path d="M1.44632 66.6348C0.880375 66.3063 0.441949 65.7963 0.202108 65.1875C-0.0377341 64.5786 -0.064935 63.9066 0.124914 63.2804C0.407856 62.6732 0.892042 62.1824 1.49543 61.8913C2.09881 61.6002 2.78428 61.5266 3.43569 61.6831C4.01653 61.8283 4.03105 62.1042 5.96234 64.2824C7.03689 65.4731 7.41443 65.8651 7.31278 66.1846C7.21114 66.5041 6.58674 66.446 5.07656 66.5186C2.34662 66.6638 2.11428 66.9833 1.44632 66.6348Z" fill="#96BCC9"/>
<path d="M9.67972 60.3907C10.2279 60.0345 10.8802 59.8738 11.5311 59.9344C12.182 59.995 12.7934 60.2734 13.2664 60.7246C13.6935 61.2443 13.9271 61.8961 13.9271 62.5688C13.9271 63.2415 13.6935 63.8933 13.2664 64.413C12.8598 64.8631 12.6275 64.7469 9.81041 65.502C8.25666 65.9086 7.71939 66.1119 7.50157 65.836C7.28376 65.5601 7.5887 65.0664 8.19858 63.6869C9.24409 61.1603 9.06984 60.8118 9.67972 60.3907Z" fill="#96BCC9"/>
<path d="M7.60318 67.201C8.28485 67.201 8.83746 66.6484 8.83746 65.9667C8.83746 65.285 8.28485 64.7324 7.60318 64.7324C6.9215 64.7324 6.3689 65.285 6.3689 65.9667C6.3689 66.6484 6.9215 67.201 7.60318 67.201Z" fill="#939598"/>
</svg>
