<svg width="450" height="450" viewBox="0 0 450 450" fill="none" xmlns="http://www.w3.org/2000/svg">
<path d="M400.875 224.757C400.875 266.53 386.027 306.943 358.982 338.779C331.938 370.616 294.458 391.803 253.234 398.557L224.757 224.757H400.875Z" fill="#A8ECC3"/>
<path d="M256.528 397.985C225.731 403.634 193.985 400.97 164.561 390.268C135.136 379.566 109.096 361.213 89.1231 337.1C69.1506 312.986 55.9676 283.984 50.9321 253.081C45.8966 222.178 49.1906 190.491 60.475 161.285L224.757 224.757L256.528 397.985Z" fill="#E9A453"/>
<path d="M400.875 224.824C400.89 184.428 387.018 145.253 361.583 113.869L224.757 224.757L400.875 224.824Z" fill="#C9E873"/>
<path d="M58.5955 166.383C69.0325 136.675 87.2433 110.308 111.332 90.0286C135.42 69.7493 164.504 56.2989 195.557 51.0781C226.609 45.8573 258.493 49.0571 287.888 60.3443C317.284 71.6314 343.115 90.5931 362.694 115.255L224.757 224.758L58.5955 166.383Z" fill="#EE8A7C"/>
</svg>
