<svg width="386" height="395" viewBox="0 0 386 395" fill="none" xmlns="http://www.w3.org/2000/svg">
<rect width="366.523" height="395" rx="41.3372" fill="#96BCC9"/>
<path d="M125.268 62.2146C125.907 62.2146 126.456 62.027 126.915 61.6516C127.381 61.2763 127.614 60.7376 127.614 60.0355C127.614 59.5003 127.429 59.0416 127.061 58.6593C126.693 58.27 126.196 58.0754 125.57 58.0754C125.146 58.0754 124.795 58.1345 124.517 58.2526C124.246 58.3708 124.031 58.5272 123.871 58.7218C123.711 58.9165 123.558 59.1667 123.412 59.4725C123.273 59.7784 123.144 60.0668 123.026 60.3379C122.957 60.4839 122.831 60.5986 122.651 60.682C122.47 60.7654 122.262 60.8071 122.025 60.8071C121.747 60.8071 121.49 60.6959 121.254 60.4734C121.024 60.2441 120.91 59.9417 120.91 59.5664C120.91 59.2049 121.017 58.8261 121.233 58.4299C121.455 58.0267 121.775 57.6444 122.192 57.283C122.616 56.9216 123.141 56.6331 123.766 56.4176C124.392 56.1952 125.091 56.084 125.862 56.084C126.536 56.084 127.151 56.1778 127.708 56.3655C128.264 56.5462 128.747 56.8103 129.157 57.1579C129.567 57.5054 129.876 57.9086 130.085 58.3673C130.293 58.8261 130.397 59.3196 130.397 59.8479C130.397 60.543 130.245 61.1407 129.939 61.6412C129.64 62.1347 129.209 62.6178 128.646 63.0904C129.188 63.3824 129.643 63.716 130.012 64.0914C130.387 64.4667 130.669 64.8838 130.856 65.3425C131.044 65.7943 131.138 66.2844 131.138 66.8126C131.138 67.4452 131.009 68.0568 130.752 68.6476C130.502 69.2385 130.13 69.7667 129.636 70.2324C129.143 70.6912 128.556 71.0526 127.874 71.3168C127.2 71.574 126.453 71.7026 125.633 71.7026C124.799 71.7026 124.051 71.5531 123.391 71.2542C122.731 70.9553 122.185 70.5835 121.754 70.1386C121.33 69.6868 121.007 69.2211 120.784 68.7415C120.569 68.2619 120.461 67.8657 120.461 67.5529C120.461 67.1497 120.59 66.8265 120.847 66.5832C121.111 66.333 121.438 66.2079 121.827 66.2079C122.022 66.2079 122.209 66.267 122.39 66.3851C122.571 66.4964 122.689 66.6319 122.745 66.7918C123.106 67.7579 123.492 68.4774 123.902 68.95C124.319 69.4157 124.903 69.6486 125.654 69.6486C126.084 69.6486 126.498 69.5443 126.894 69.3358C127.297 69.1203 127.628 68.804 127.885 68.387C128.149 67.9699 128.281 67.4869 128.281 66.9377C128.281 66.1245 128.059 65.4885 127.614 65.0297C127.169 64.564 126.55 64.3312 125.758 64.3312C125.619 64.3312 125.403 64.3451 125.111 64.3729C124.819 64.4007 124.632 64.4146 124.548 64.4146C124.166 64.4146 123.871 64.3207 123.662 64.1331C123.454 63.9384 123.349 63.6708 123.349 63.3302C123.349 62.9966 123.474 62.729 123.725 62.5274C123.975 62.3189 124.347 62.2146 124.84 62.2146H125.268ZM137.967 62.2146C138.606 62.2146 139.156 62.027 139.614 61.6516C140.08 61.2763 140.313 60.7376 140.313 60.0355C140.313 59.5003 140.129 59.0416 139.76 58.6593C139.392 58.27 138.895 58.0754 138.269 58.0754C137.845 58.0754 137.494 58.1345 137.216 58.2526C136.945 58.3708 136.73 58.5272 136.57 58.7218C136.41 58.9165 136.257 59.1667 136.111 59.4725C135.972 59.7784 135.843 60.0668 135.725 60.3379C135.656 60.4839 135.531 60.5986 135.35 60.682C135.169 60.7654 134.961 60.8071 134.724 60.8071C134.446 60.8071 134.189 60.6959 133.953 60.4734C133.723 60.2441 133.609 59.9417 133.609 59.5664C133.609 59.2049 133.717 58.8261 133.932 58.4299C134.154 58.0267 134.474 57.6444 134.891 57.283C135.315 56.9216 135.84 56.6331 136.466 56.4176C137.091 56.1952 137.79 56.084 138.561 56.084C139.236 56.084 139.851 56.1778 140.407 56.3655C140.963 56.5462 141.446 56.8103 141.856 57.1579C142.266 57.5054 142.575 57.9086 142.784 58.3673C142.992 58.8261 143.097 59.3196 143.097 59.8479C143.097 60.543 142.944 61.1407 142.638 61.6412C142.339 62.1347 141.908 62.6178 141.345 63.0904C141.887 63.3824 142.343 63.716 142.711 64.0914C143.086 64.4667 143.368 64.8838 143.555 65.3425C143.743 65.7943 143.837 66.2844 143.837 66.8126C143.837 67.4452 143.708 68.0568 143.451 68.6476C143.201 69.2385 142.829 69.7667 142.336 70.2324C141.842 70.6912 141.255 71.0526 140.574 71.3168C139.899 71.574 139.152 71.7026 138.332 71.7026C137.498 71.7026 136.751 71.5531 136.09 71.2542C135.43 70.9553 134.884 70.5835 134.453 70.1386C134.029 69.6868 133.706 69.2211 133.484 68.7415C133.268 68.2619 133.16 67.8657 133.16 67.5529C133.16 67.1497 133.289 66.8265 133.546 66.5832C133.81 66.333 134.137 66.2079 134.526 66.2079C134.721 66.2079 134.909 66.267 135.089 66.3851C135.27 66.4964 135.388 66.6319 135.444 66.7918C135.805 67.7579 136.191 68.4774 136.601 68.95C137.018 69.4157 137.602 69.6486 138.353 69.6486C138.784 69.6486 139.197 69.5443 139.593 69.3358C139.997 69.1203 140.327 68.804 140.584 68.387C140.848 67.9699 140.98 67.4869 140.98 66.9377C140.98 66.1245 140.758 65.4885 140.313 65.0297C139.868 64.564 139.249 64.3312 138.457 64.3312C138.318 64.3312 138.103 64.3451 137.811 64.3729C137.519 64.4007 137.331 64.4146 137.248 64.4146C136.865 64.4146 136.57 64.3207 136.361 64.1331C136.153 63.9384 136.049 63.6708 136.049 63.3302C136.049 62.9966 136.174 62.729 136.424 62.5274C136.674 62.3189 137.046 62.2146 137.539 62.2146H137.967ZM148.174 71.7026C147.743 71.7026 147.371 71.5635 147.059 71.2855C146.746 71.0075 146.59 70.6182 146.59 70.1178C146.59 69.6938 146.739 69.3288 147.038 69.023C147.337 68.7172 147.705 68.5642 148.143 68.5642C148.581 68.5642 148.953 68.7172 149.259 69.023C149.571 69.3219 149.728 69.6868 149.728 70.1178C149.728 70.6113 149.571 71.0005 149.259 71.2855C148.953 71.5635 148.591 71.7026 148.174 71.7026ZM154.837 56.3029H161.781C162.448 56.3029 162.931 56.4072 163.23 56.6157C163.529 56.8242 163.678 57.1683 163.678 57.6479C163.678 57.9399 163.501 58.3256 163.146 58.8052C162.799 59.2848 162.399 59.8166 161.947 60.4005C161.503 60.9774 161.04 61.6968 160.561 62.5587C160.088 63.4206 159.654 64.4737 159.257 65.7179C159.091 66.267 158.972 66.7223 158.903 67.0837C158.833 67.4452 158.757 67.9143 158.674 68.4913C158.59 69.0682 158.517 69.5096 158.455 69.8154C158.309 70.5244 158.1 71.0179 157.829 71.2959C157.565 71.567 157.21 71.7026 156.766 71.7026C156.342 71.7026 156.001 71.5566 155.744 71.2646C155.487 70.9658 155.358 70.5279 155.358 69.9509C155.358 69.5061 155.452 68.9014 155.64 68.1368C155.827 67.3722 156.133 66.4581 156.557 65.3946C156.981 64.3242 157.509 63.2295 158.142 62.1104C158.781 60.9843 159.539 59.8652 160.415 58.7531H154.837C154.253 58.7531 153.815 58.6488 153.523 58.4403C153.238 58.2248 153.096 57.8912 153.096 57.4394C153.096 56.9598 153.248 56.6505 153.554 56.5115C153.86 56.3724 154.288 56.3029 154.837 56.3029ZM174.094 58.7323H169.142L168.547 62.1104C169.534 61.5821 170.445 61.318 171.279 61.318C171.946 61.318 172.568 61.4431 173.145 61.6933C173.729 61.9435 174.24 62.2911 174.678 62.7359C175.116 63.1738 175.46 63.6952 175.71 64.2999C175.96 64.9046 176.085 65.5545 176.085 66.2496C176.085 67.2575 175.86 68.175 175.408 69.0021C174.956 69.8293 174.303 70.4862 173.448 70.9727C172.6 71.4593 171.62 71.7026 170.507 71.7026C169.263 71.7026 168.252 71.4732 167.473 71.0144C166.702 70.5557 166.153 70.0309 165.826 69.44C165.506 68.8423 165.346 68.321 165.346 67.8761C165.346 67.605 165.458 67.3478 165.68 67.1046C165.909 66.8613 166.194 66.7396 166.535 66.7396C167.119 66.7396 167.553 67.0768 167.838 67.751C168.116 68.3696 168.492 68.8527 168.964 69.2002C169.437 69.5408 169.965 69.7111 170.549 69.7111C171.084 69.7111 171.554 69.5721 171.957 69.2941C172.36 69.016 172.669 68.6337 172.885 68.1472C173.107 67.6606 173.218 67.108 173.218 66.4894C173.218 65.8221 173.1 65.2522 172.864 64.7795C172.627 64.3068 172.311 63.9558 171.915 63.7264C171.519 63.4901 171.077 63.3719 170.591 63.3719C169.993 63.3719 169.566 63.4449 169.308 63.5909C169.051 63.7369 168.679 63.9941 168.193 64.3624C167.713 64.7239 167.317 64.9046 167.004 64.9046C166.664 64.9046 166.361 64.783 166.097 64.5397C165.833 64.2895 165.701 64.008 165.701 63.6952C165.701 63.6604 165.739 63.4241 165.816 62.9862L166.691 57.992C166.789 57.3942 166.969 56.9598 167.234 56.6887C167.498 56.4176 167.929 56.2821 168.526 56.2821H174.031C175.116 56.2821 175.658 56.6957 175.658 57.5228C175.658 57.8842 175.526 58.1762 175.262 58.3986C174.998 58.621 174.608 58.7323 174.094 58.7323ZM183.957 60.0772C183.957 61.4049 183.665 62.3919 183.082 63.0383C182.498 63.6847 181.698 64.008 180.683 64.008C180.058 64.008 179.495 63.8724 178.994 63.6013C178.501 63.3233 178.115 62.8923 177.837 62.3085C177.559 61.7246 177.42 61.0121 177.42 60.1711C177.42 59.2675 177.528 58.5133 177.743 57.9086C177.959 57.3039 178.306 56.8451 178.786 56.5323C179.272 56.2195 179.891 56.0631 180.642 56.0631C181.184 56.0631 181.66 56.1465 182.07 56.3134C182.48 56.4802 182.828 56.7374 183.113 57.0849C183.398 57.4255 183.61 57.8425 183.749 58.3361C183.888 58.8296 183.957 59.41 183.957 60.0772ZM182.008 59.973C182.008 59.0624 181.91 58.4021 181.716 57.992C181.521 57.5749 181.177 57.3664 180.683 57.3664C180.35 57.3664 180.082 57.4672 179.881 57.6688C179.686 57.8634 179.55 58.1553 179.474 58.5446C179.405 58.9269 179.37 59.4169 179.37 60.0147C179.37 60.6333 179.405 61.1372 179.474 61.5265C179.55 61.9157 179.686 62.2112 179.881 62.4127C180.075 62.6074 180.343 62.7047 180.683 62.7047C181.198 62.7047 181.545 62.4857 181.726 62.0478C181.914 61.6099 182.008 60.9183 182.008 59.973ZM194.634 67.6154C194.634 68.9431 194.342 69.9301 193.758 70.5765C193.174 71.2229 192.375 71.5462 191.36 71.5462C190.727 71.5462 190.161 71.4071 189.66 71.1291C189.167 70.8511 188.778 70.4236 188.493 69.8467C188.215 69.2698 188.076 68.5573 188.076 67.7093C188.076 66.3539 188.333 65.3356 188.847 64.6544C189.369 63.9662 190.192 63.6222 191.318 63.6222C191.86 63.6222 192.333 63.7056 192.736 63.8724C193.146 64.0392 193.494 64.2895 193.779 64.6231C194.071 64.9567 194.286 65.3738 194.425 65.8743C194.564 66.3678 194.634 66.9482 194.634 67.6154ZM192.684 67.5112C192.684 66.6145 192.587 65.9611 192.392 65.551C192.198 65.134 191.853 64.9255 191.36 64.9255C191.012 64.9255 190.741 65.0228 190.547 65.2174C190.352 65.412 190.213 65.7005 190.13 66.0828C190.053 66.4581 190.015 66.9482 190.015 67.5529C190.015 68.4843 190.112 69.1655 190.307 69.5964C190.509 70.0274 190.86 70.2429 191.36 70.2429C191.867 70.2429 192.215 70.0239 192.403 69.586C192.59 69.1412 192.684 68.4496 192.684 67.5112ZM190.912 57.4394L182.227 71.4419C182.004 71.8242 181.754 72.0153 181.476 72.0153C181.316 72.0153 181.156 71.9528 180.996 71.8277C180.836 71.7095 180.756 71.5531 180.756 71.3585C180.756 71.2125 180.826 71.0353 180.965 70.8267L189.702 56.7096C189.855 56.4524 189.987 56.2612 190.098 56.1361C190.217 56.004 190.383 55.938 190.599 55.938C190.807 55.938 190.974 56.0006 191.099 56.1257C191.231 56.2438 191.297 56.4037 191.297 56.6053C191.297 56.7513 191.169 57.0293 190.912 57.4394ZM202.182 65.1236V57.773C202.182 57.1475 202.321 56.6783 202.6 56.3655C202.885 56.0527 203.256 55.8963 203.715 55.8963C204.195 55.8963 204.574 56.0527 204.852 56.3655C205.137 56.6783 205.279 57.1475 205.279 57.773V65.2904C205.279 66.1453 205.373 66.8613 205.561 67.4382C205.755 68.0082 206.096 68.453 206.582 68.7728C207.069 69.0856 207.75 69.2419 208.626 69.2419C209.835 69.2419 210.69 68.9222 211.191 68.2827C211.691 67.6363 211.941 66.6597 211.941 65.3529V57.773C211.941 57.1405 212.08 56.6713 212.359 56.3655C212.637 56.0527 213.008 55.8963 213.474 55.8963C213.94 55.8963 214.315 56.0527 214.6 56.3655C214.892 56.6713 215.038 57.1405 215.038 57.773V65.1236C215.038 66.3191 214.92 67.3166 214.684 68.1159C214.454 68.9153 214.016 69.6173 213.37 70.222C212.814 70.7364 212.167 71.1117 211.431 71.3481C210.694 71.5844 209.832 71.7026 208.845 71.7026C207.67 71.7026 206.659 71.5774 205.811 71.3272C204.963 71.07 204.271 70.6773 203.736 70.149C203.201 69.6138 202.808 68.9326 202.558 68.1055C202.308 67.2714 202.182 66.2774 202.182 65.1236ZM220.773 61.7037V62.0478C221.273 61.3875 221.819 60.9044 222.409 60.5986C223.007 60.2858 223.692 60.1294 224.463 60.1294C225.214 60.1294 225.885 60.2927 226.476 60.6194C227.067 60.9461 227.508 61.4083 227.8 62.0061C227.988 62.3536 228.109 62.729 228.165 63.1321C228.22 63.5353 228.248 64.0497 228.248 64.6752V69.9718C228.248 70.5418 228.116 70.9727 227.852 71.2646C227.595 71.5566 227.258 71.7026 226.841 71.7026C226.417 71.7026 226.073 71.5531 225.808 71.2542C225.544 70.9553 225.412 70.5279 225.412 69.9718V65.2278C225.412 64.2895 225.28 63.5735 225.016 63.08C224.759 62.5796 224.241 62.3293 223.463 62.3293C222.955 62.3293 222.493 62.4822 222.076 62.7881C221.659 63.087 221.353 63.5005 221.158 64.0288C221.019 64.4528 220.95 65.2452 220.95 66.406V69.9718C220.95 70.5487 220.814 70.9831 220.543 71.2751C220.279 71.5601 219.935 71.7026 219.511 71.7026C219.101 71.7026 218.764 71.5531 218.5 71.2542C218.235 70.9553 218.103 70.5279 218.103 69.9718V61.7454C218.103 61.2033 218.222 60.8001 218.458 60.536C218.694 60.2649 219.017 60.1294 219.428 60.1294C219.678 60.1294 219.904 60.1885 220.105 60.3066C220.307 60.4248 220.467 60.602 220.585 60.8384C220.71 61.0747 220.773 61.3632 220.773 61.7037ZM239.039 66.6145H233.472C233.479 67.261 233.607 67.8309 233.858 68.3244C234.115 68.8179 234.452 69.1898 234.869 69.44C235.293 69.6903 235.759 69.8154 236.266 69.8154C236.607 69.8154 236.916 69.7772 237.194 69.7007C237.479 69.6173 237.753 69.4922 238.018 69.3254C238.282 69.1516 238.525 68.9674 238.747 68.7728C238.97 68.5781 239.258 68.314 239.613 67.9804C239.759 67.8553 239.967 67.7927 240.238 67.7927C240.53 67.7927 240.767 67.8726 240.947 68.0325C241.128 68.1924 241.218 68.4183 241.218 68.7102C241.218 68.9674 241.118 69.2698 240.916 69.6173C240.715 69.9579 240.409 70.2881 239.999 70.6078C239.595 70.9206 239.085 71.1812 238.466 71.3898C237.854 71.5983 237.149 71.7026 236.349 71.7026C234.521 71.7026 233.1 71.1812 232.085 70.1386C231.07 69.096 230.563 67.6815 230.563 65.8951C230.563 65.0541 230.688 64.2756 230.938 63.5596C231.188 62.8367 231.553 62.2181 232.033 61.7037C232.513 61.1894 233.103 60.7967 233.805 60.5256C234.507 60.2475 235.286 60.1085 236.141 60.1085C237.253 60.1085 238.205 60.3449 238.998 60.8175C239.797 61.2832 240.395 61.8879 240.791 62.6317C241.187 63.3754 241.385 64.1331 241.385 64.9046C241.385 65.6206 241.18 66.0863 240.77 66.3017C240.36 66.5103 239.783 66.6145 239.039 66.6145ZM233.472 64.9984H238.633C238.563 64.0253 238.299 63.299 237.84 62.8194C237.389 62.3328 236.791 62.0895 236.047 62.0895C235.338 62.0895 234.754 62.3363 234.295 62.8298C233.844 63.3163 233.569 64.0392 233.472 64.9984ZM253.261 66.1245V69.9092C253.261 70.507 253.125 70.9553 252.854 71.2542C252.583 71.5531 252.225 71.7026 251.78 71.7026C251.349 71.7026 250.998 71.5531 250.727 71.2542C250.463 70.9553 250.331 70.507 250.331 69.9092V65.3738C250.331 64.6579 250.307 64.1018 250.258 63.7056C250.209 63.3094 250.077 62.9862 249.862 62.7359C249.646 62.4788 249.306 62.3502 248.84 62.3502C247.909 62.3502 247.294 62.6699 246.995 63.3094C246.703 63.9489 246.557 64.8664 246.557 66.0619V69.9092C246.557 70.5001 246.421 70.9484 246.15 71.2542C245.886 71.5531 245.535 71.7026 245.097 71.7026C244.666 71.7026 244.312 71.5531 244.034 71.2542C243.762 70.9484 243.627 70.5001 243.627 69.9092V61.7663C243.627 61.2311 243.749 60.8245 243.992 60.5464C244.242 60.2684 244.569 60.1294 244.972 60.1294C245.361 60.1294 245.684 60.2614 245.942 60.5256C246.206 60.7828 246.338 61.1407 246.338 61.5995V61.8706C246.831 61.2797 247.36 60.8453 247.923 60.5673C248.486 60.2892 249.111 60.1502 249.799 60.1502C250.515 60.1502 251.13 60.2927 251.645 60.5777C252.159 60.8627 252.583 61.2936 252.917 61.8706C253.396 61.2867 253.911 60.8557 254.46 60.5777C255.009 60.2927 255.617 60.1502 256.284 60.1502C257.063 60.1502 257.734 60.3031 258.297 60.609C258.86 60.9148 259.28 61.3527 259.558 61.9227C259.802 62.4371 259.923 63.2468 259.923 64.352V69.9092C259.923 70.507 259.788 70.9553 259.517 71.2542C259.246 71.5531 258.888 71.7026 258.443 71.7026C258.012 71.7026 257.657 71.5531 257.379 71.2542C257.108 70.9484 256.973 70.5001 256.973 69.9092V65.1236C256.973 64.5119 256.945 64.0219 256.889 63.6535C256.841 63.2851 256.702 62.9758 256.472 62.7255C256.243 62.4753 255.895 62.3502 255.43 62.3502C255.054 62.3502 254.696 62.4614 254.356 62.6838C254.022 62.9062 253.761 63.2051 253.574 63.5805C253.365 64.0601 253.261 64.9081 253.261 66.1245ZM265.314 61.7246V62.0687C265.849 61.4083 266.405 60.9252 266.982 60.6194C267.559 60.3066 268.212 60.1502 268.942 60.1502C269.818 60.1502 270.624 60.3761 271.361 60.8279C272.098 61.2797 272.678 61.9401 273.102 62.8089C273.533 63.6778 273.748 64.7065 273.748 65.8951C273.748 66.7709 273.623 67.5772 273.373 68.314C273.13 69.0438 272.793 69.659 272.362 70.1595C271.931 70.653 271.42 71.0353 270.829 71.3064C270.245 71.5705 269.616 71.7026 268.942 71.7026C268.129 71.7026 267.444 71.5392 266.888 71.2125C266.339 70.8858 265.814 70.4062 265.314 69.7737V74.0485C265.314 75.2996 264.858 75.9252 263.948 75.9252C263.413 75.9252 263.058 75.7619 262.884 75.4352C262.711 75.1154 262.624 74.6462 262.624 74.0276V61.7454C262.624 61.2033 262.742 60.8001 262.978 60.536C263.214 60.2649 263.538 60.1294 263.948 60.1294C264.351 60.1294 264.678 60.2684 264.928 60.5464C265.185 60.8175 265.314 61.2102 265.314 61.7246ZM270.892 65.8638C270.892 65.1131 270.777 64.4702 270.548 63.935C270.318 63.3928 269.999 62.9792 269.588 62.6942C269.185 62.4023 268.737 62.2563 268.243 62.2563C267.458 62.2563 266.794 62.5656 266.252 63.1843C265.717 63.8029 265.449 64.7135 265.449 65.916C265.449 67.049 265.717 67.9317 266.252 68.5642C266.787 69.1898 267.451 69.5026 268.243 69.5026C268.716 69.5026 269.154 69.3671 269.557 69.096C269.96 68.8179 270.283 68.4044 270.527 67.8553C270.77 67.3061 270.892 66.6423 270.892 65.8638ZM276.032 69.9718V57.6271C276.032 57.0571 276.157 56.6261 276.407 56.3342C276.664 56.0423 277.008 55.8963 277.439 55.8963C277.87 55.8963 278.218 56.0423 278.482 56.3342C278.746 56.6192 278.878 57.0501 278.878 57.6271V69.9718C278.878 70.5487 278.743 70.9831 278.472 71.2751C278.207 71.5601 277.863 71.7026 277.439 71.7026C277.022 71.7026 276.682 71.5531 276.418 71.2542C276.16 70.9553 276.032 70.5279 276.032 69.9718ZM292.485 65.916C292.485 66.764 292.352 67.5459 292.088 68.2619C291.824 68.9778 291.442 69.593 290.941 70.1073C290.441 70.6217 289.843 71.0179 289.148 71.2959C288.453 71.567 287.671 71.7026 286.802 71.7026C285.94 71.7026 285.165 71.5635 284.477 71.2855C283.789 71.0075 283.191 70.6113 282.684 70.0969C282.183 69.5756 281.801 68.9639 281.537 68.2619C281.28 67.5529 281.151 66.7709 281.151 65.916C281.151 65.0541 281.283 64.2651 281.547 63.5492C281.811 62.8333 282.19 62.2216 282.684 61.7142C283.177 61.2068 283.775 60.8175 284.477 60.5464C285.179 60.2684 285.954 60.1294 286.802 60.1294C287.664 60.1294 288.446 60.2684 289.148 60.5464C289.85 60.8245 290.451 61.2207 290.952 61.735C291.452 62.2494 291.831 62.8611 292.088 63.57C292.352 64.279 292.485 65.061 292.485 65.916ZM289.628 65.916C289.628 64.7552 289.371 63.8516 288.856 63.2051C288.349 62.5587 287.664 62.2355 286.802 62.2355C286.246 62.2355 285.756 62.3815 285.332 62.6734C284.908 62.9584 284.581 63.3824 284.352 63.9454C284.123 64.5084 284.008 65.1653 284.008 65.916C284.008 66.6597 284.119 67.3096 284.342 67.8657C284.571 68.4217 284.894 68.8492 285.311 69.1481C285.735 69.44 286.232 69.586 286.802 69.586C287.664 69.586 288.349 69.2628 288.856 68.6164C289.371 67.963 289.628 67.0629 289.628 65.916ZM297.072 72.057L297.333 71.421L293.83 62.6004C293.614 62.093 293.506 61.7246 293.506 61.4952C293.506 61.2519 293.569 61.026 293.694 60.8175C293.819 60.609 293.989 60.4422 294.205 60.317C294.427 60.1919 294.657 60.1294 294.893 60.1294C295.303 60.1294 295.612 60.2614 295.821 60.5256C296.029 60.7828 296.214 61.1546 296.374 61.6412L298.782 68.6476L301.065 62.1312C301.246 61.603 301.409 61.1894 301.555 60.8905C301.701 60.5916 301.854 60.39 302.014 60.2858C302.181 60.1815 302.414 60.1294 302.713 60.1294C302.928 60.1294 303.133 60.1885 303.328 60.3066C303.529 60.4178 303.682 60.5708 303.787 60.7654C303.898 60.96 303.953 61.1651 303.953 61.3805C303.926 61.5126 303.88 61.7003 303.818 61.9435C303.755 62.1868 303.679 62.4336 303.589 62.6838L299.877 72.4011C299.557 73.2561 299.244 73.9268 298.938 74.4134C298.633 74.8999 298.226 75.2718 297.719 75.529C297.218 75.7931 296.54 75.9252 295.685 75.9252C294.851 75.9252 294.226 75.8348 293.809 75.6541C293.392 75.4734 293.183 75.1432 293.183 74.6636C293.183 74.3369 293.28 74.0832 293.475 73.9025C293.677 73.7287 293.972 73.6418 294.361 73.6418C294.514 73.6418 294.664 73.6627 294.81 73.7044C294.99 73.7461 295.147 73.767 295.279 73.767C295.605 73.767 295.863 73.7183 296.05 73.621C296.238 73.5237 296.405 73.3534 296.551 73.1101C296.704 72.8738 296.877 72.5228 297.072 72.057ZM313.671 66.6145H308.103C308.11 67.261 308.239 67.8309 308.489 68.3244C308.746 68.8179 309.083 69.1898 309.5 69.44C309.924 69.6903 310.39 69.8154 310.897 69.8154C311.238 69.8154 311.547 69.7772 311.825 69.7007C312.11 69.6173 312.385 69.4922 312.649 69.3254C312.913 69.1516 313.156 68.9674 313.379 68.7728C313.601 68.5781 313.89 68.314 314.244 67.9804C314.39 67.8553 314.599 67.7927 314.87 67.7927C315.162 67.7927 315.398 67.8726 315.579 68.0325C315.759 68.1924 315.85 68.4183 315.85 68.7102C315.85 68.9674 315.749 69.2698 315.547 69.6173C315.346 69.9579 315.04 70.2881 314.63 70.6078C314.227 70.9206 313.716 71.1812 313.097 71.3898C312.486 71.5983 311.78 71.7026 310.981 71.7026C309.153 71.7026 307.731 71.1812 306.716 70.1386C305.702 69.096 305.194 67.6815 305.194 65.8951C305.194 65.0541 305.319 64.2756 305.57 63.5596C305.82 62.8367 306.185 62.2181 306.664 61.7037C307.144 61.1894 307.735 60.7967 308.437 60.5256C309.139 60.2475 309.917 60.1085 310.772 60.1085C311.884 60.1085 312.837 60.3449 313.629 60.8175C314.428 61.2832 315.026 61.8879 315.422 62.6317C315.819 63.3754 316.017 64.1331 316.017 64.9046C316.017 65.6206 315.812 66.0863 315.401 66.3017C314.991 66.5103 314.414 66.6145 313.671 66.6145ZM308.103 64.9984H313.264C313.195 64.0253 312.93 63.299 312.472 62.8194C312.02 62.3328 311.422 62.0895 310.678 62.0895C309.969 62.0895 309.386 62.3363 308.927 62.8298C308.475 63.3163 308.2 64.0392 308.103 64.9984ZM326.224 70.0761V69.7945C325.842 70.2324 325.463 70.5904 325.088 70.8684C324.719 71.1395 324.316 71.3446 323.878 71.4836C323.447 71.6296 322.974 71.7026 322.46 71.7026C321.779 71.7026 321.146 71.5601 320.563 71.2751C319.986 70.9831 319.485 70.5696 319.061 70.0343C318.637 69.4991 318.314 68.8701 318.091 68.1472C317.876 67.4243 317.768 66.6423 317.768 65.8013C317.768 64.0219 318.203 62.6352 319.072 61.6412C319.94 60.6472 321.084 60.1502 322.502 60.1502C323.322 60.1502 324.014 60.2927 324.577 60.5777C325.14 60.8557 325.689 61.2867 326.224 61.8706V57.6688C326.224 57.0849 326.339 56.6435 326.568 56.3446C326.804 56.0457 327.138 55.8963 327.569 55.8963C328 55.8963 328.33 56.0353 328.559 56.3134C328.796 56.5844 328.914 56.9876 328.914 57.5228V70.0761C328.914 70.6182 328.789 71.0248 328.539 71.2959C328.288 71.567 327.965 71.7026 327.569 71.7026C327.18 71.7026 326.857 71.5635 326.599 71.2855C326.349 71.0005 326.224 70.5974 326.224 70.0761ZM320.625 65.8951C320.625 66.6667 320.743 67.3235 320.98 67.8657C321.223 68.4078 321.553 68.8179 321.97 69.096C322.387 69.3671 322.842 69.5026 323.336 69.5026C323.836 69.5026 324.292 69.374 324.702 69.1168C325.119 68.8527 325.449 68.453 325.692 67.9178C325.942 67.3756 326.068 66.7014 326.068 65.8951C326.068 65.1375 325.942 64.4876 325.692 63.9454C325.449 63.3963 325.115 62.9792 324.691 62.6942C324.274 62.4023 323.816 62.2563 323.315 62.2563C322.794 62.2563 322.328 62.4058 321.918 62.7047C321.508 62.9966 321.188 63.4206 320.959 63.9767C320.736 64.5258 320.625 65.1653 320.625 65.8951Z" fill="black"/>
<path d="M125.381 237.215V227.827C123.635 229.168 122.458 229.838 121.853 229.838C121.564 229.838 121.307 229.725 121.08 229.498C120.859 229.264 120.749 228.996 120.749 228.693C120.749 228.343 120.859 228.085 121.08 227.92C121.3 227.754 121.688 227.541 122.245 227.28C123.077 226.888 123.741 226.475 124.236 226.042C124.738 225.609 125.182 225.124 125.567 224.587C125.952 224.051 126.203 223.721 126.32 223.597C126.437 223.473 126.657 223.411 126.981 223.411C127.345 223.411 127.637 223.552 127.857 223.834C128.077 224.116 128.188 224.505 128.188 225V236.812C128.188 238.195 127.716 238.886 126.774 238.886C126.355 238.886 126.018 238.745 125.763 238.463C125.509 238.181 125.381 237.765 125.381 237.215ZM143.538 231.21C143.538 232.338 143.469 233.308 143.332 234.12C143.194 234.931 142.94 235.667 142.569 236.327C142.101 237.139 141.496 237.765 140.753 238.205C140.01 238.645 139.185 238.865 138.277 238.865C137.232 238.865 136.293 238.569 135.461 237.978C134.635 237.387 134.013 236.568 133.593 235.523C133.38 234.952 133.222 234.323 133.119 233.635C133.022 232.94 132.974 232.191 132.974 231.386C132.974 230.347 133.029 229.412 133.139 228.58C133.249 227.748 133.421 227.032 133.655 226.434C134.061 225.444 134.649 224.691 135.419 224.175C136.196 223.652 137.121 223.391 138.194 223.391C138.903 223.391 139.546 223.508 140.124 223.741C140.701 223.968 141.207 224.305 141.64 224.752C142.08 225.193 142.452 225.739 142.754 226.393C143.277 227.528 143.538 229.133 143.538 231.21ZM140.712 231.004C140.712 229.746 140.636 228.717 140.485 227.92C140.333 227.115 140.079 226.51 139.721 226.104C139.364 225.691 138.868 225.485 138.236 225.485C137.328 225.485 136.695 225.942 136.337 226.857C135.987 227.772 135.811 229.182 135.811 231.087C135.811 232.38 135.887 233.439 136.038 234.264C136.19 235.089 136.444 235.715 136.802 236.142C137.159 236.561 137.644 236.771 138.256 236.771C138.889 236.771 139.384 236.551 139.742 236.111C140.099 235.671 140.351 235.041 140.495 234.223C140.639 233.404 140.712 232.332 140.712 231.004ZM147.871 238.886C147.445 238.886 147.077 238.748 146.767 238.473C146.458 238.198 146.303 237.813 146.303 237.318C146.303 236.898 146.451 236.537 146.747 236.235C147.042 235.932 147.407 235.781 147.84 235.781C148.273 235.781 148.641 235.932 148.944 236.235C149.254 236.53 149.408 236.891 149.408 237.318C149.408 237.806 149.254 238.191 148.944 238.473C148.641 238.748 148.284 238.886 147.871 238.886ZM152.586 227.342C152.586 226.654 152.771 226.008 153.143 225.402C153.521 224.79 154.071 224.302 154.793 223.937C155.522 223.573 156.372 223.391 157.342 223.391C158.16 223.391 158.879 223.497 159.498 223.71C160.117 223.924 160.632 224.219 161.045 224.598C161.458 224.969 161.764 225.392 161.963 225.867C162.163 226.334 162.262 226.833 162.262 227.362C162.262 228.036 162.087 228.638 161.736 229.168C161.392 229.697 160.877 230.131 160.189 230.468C160.773 230.695 161.258 230.994 161.643 231.365C162.029 231.73 162.317 232.156 162.51 232.644C162.709 233.126 162.809 233.662 162.809 234.254C162.809 235.12 162.599 235.908 162.18 236.616C161.76 237.318 161.145 237.868 160.333 238.267C159.522 238.666 158.566 238.865 157.465 238.865C156.324 238.865 155.347 238.666 154.536 238.267C153.724 237.868 153.112 237.321 152.699 236.627C152.287 235.925 152.08 235.141 152.08 234.274C152.08 232.424 152.954 231.155 154.701 230.468C153.291 229.807 152.586 228.765 152.586 227.342ZM159.983 234.171C159.983 233.635 159.872 233.167 159.652 232.768C159.432 232.369 159.123 232.063 158.724 231.85C158.325 231.637 157.878 231.53 157.383 231.53C156.681 231.53 156.093 231.764 155.619 232.232C155.144 232.699 154.907 233.353 154.907 234.192C154.907 234.728 155.017 235.203 155.237 235.616C155.464 236.021 155.77 236.338 156.155 236.565C156.54 236.785 156.97 236.895 157.445 236.895C157.926 236.895 158.359 236.781 158.745 236.554C159.13 236.327 159.432 236.008 159.652 235.595C159.872 235.182 159.983 234.708 159.983 234.171ZM157.403 225.361C156.757 225.361 156.234 225.564 155.835 225.97C155.443 226.369 155.247 226.884 155.247 227.517C155.247 228.102 155.45 228.59 155.856 228.982C156.262 229.367 156.784 229.56 157.424 229.56C157.747 229.56 158.04 229.508 158.301 229.405C158.569 229.302 158.796 229.161 158.982 228.982C159.174 228.796 159.322 228.58 159.425 228.332C159.529 228.078 159.58 227.799 159.58 227.497C159.58 227.091 159.487 226.726 159.302 226.403C159.123 226.08 158.868 225.825 158.538 225.64C158.208 225.454 157.83 225.361 157.403 225.361ZM173.518 226.052H168.617L168.029 229.395C169.006 228.872 169.907 228.611 170.732 228.611C171.392 228.611 172.008 228.735 172.579 228.982C173.157 229.23 173.662 229.574 174.095 230.014C174.529 230.447 174.869 230.963 175.117 231.561C175.364 232.16 175.488 232.803 175.488 233.49C175.488 234.488 175.265 235.395 174.817 236.214C174.37 237.032 173.724 237.682 172.878 238.164C172.039 238.645 171.069 238.886 169.969 238.886C168.738 238.886 167.737 238.659 166.967 238.205C166.203 237.751 165.66 237.232 165.337 236.647C165.02 236.056 164.862 235.54 164.862 235.1C164.862 234.832 164.972 234.577 165.192 234.336C165.419 234.096 165.701 233.975 166.038 233.975C166.616 233.975 167.046 234.309 167.328 234.976C167.603 235.588 167.974 236.066 168.442 236.41C168.91 236.747 169.432 236.915 170.01 236.915C170.54 236.915 171.004 236.778 171.403 236.503C171.802 236.228 172.108 235.849 172.321 235.368C172.541 234.887 172.651 234.34 172.651 233.728C172.651 233.067 172.534 232.503 172.3 232.036C172.066 231.568 171.754 231.221 171.361 230.994C170.969 230.76 170.533 230.643 170.051 230.643C169.46 230.643 169.037 230.715 168.782 230.86C168.528 231.004 168.16 231.259 167.679 231.623C167.204 231.981 166.812 232.16 166.502 232.16C166.165 232.16 165.866 232.039 165.605 231.798C165.344 231.551 165.213 231.272 165.213 230.963C165.213 230.928 165.251 230.695 165.326 230.261L166.193 225.32C166.289 224.728 166.468 224.299 166.729 224.03C166.991 223.762 167.417 223.628 168.009 223.628H173.456C174.529 223.628 175.065 224.037 175.065 224.856C175.065 225.213 174.934 225.502 174.673 225.722C174.412 225.942 174.027 226.052 173.518 226.052ZM183.277 227.383C183.277 228.697 182.988 229.673 182.41 230.313C181.833 230.953 181.042 231.272 180.038 231.272C179.419 231.272 178.861 231.138 178.366 230.87C177.878 230.595 177.496 230.169 177.221 229.591C176.946 229.013 176.809 228.308 176.809 227.476C176.809 226.582 176.915 225.836 177.128 225.237C177.342 224.639 177.685 224.185 178.16 223.876C178.641 223.566 179.254 223.411 179.996 223.411C180.533 223.411 181.004 223.494 181.41 223.659C181.815 223.824 182.159 224.078 182.441 224.422C182.723 224.759 182.933 225.172 183.071 225.66C183.208 226.149 183.277 226.723 183.277 227.383ZM181.348 227.28C181.348 226.379 181.251 225.726 181.059 225.32C180.866 224.907 180.526 224.701 180.038 224.701C179.707 224.701 179.443 224.801 179.243 225C179.051 225.193 178.917 225.481 178.841 225.867C178.772 226.245 178.738 226.73 178.738 227.321C178.738 227.933 178.772 228.432 178.841 228.817C178.917 229.202 179.051 229.495 179.243 229.694C179.436 229.887 179.701 229.983 180.038 229.983C180.546 229.983 180.89 229.766 181.069 229.333C181.255 228.9 181.348 228.215 181.348 227.28ZM193.841 234.842C193.841 236.155 193.552 237.132 192.974 237.772C192.397 238.411 191.606 238.731 190.602 238.731C189.976 238.731 189.415 238.594 188.92 238.318C188.432 238.043 188.046 237.62 187.765 237.05C187.489 236.479 187.352 235.774 187.352 234.935C187.352 233.594 187.606 232.586 188.115 231.912C188.631 231.231 189.446 230.891 190.56 230.891C191.097 230.891 191.564 230.973 191.963 231.138C192.369 231.303 192.713 231.551 192.995 231.881C193.284 232.211 193.497 232.624 193.635 233.119C193.772 233.607 193.841 234.182 193.841 234.842ZM191.912 234.739C191.912 233.851 191.815 233.205 191.623 232.799C191.43 232.387 191.09 232.18 190.602 232.18C190.258 232.18 189.989 232.276 189.797 232.469C189.604 232.662 189.467 232.947 189.384 233.325C189.309 233.697 189.271 234.182 189.271 234.78C189.271 235.702 189.367 236.376 189.56 236.802C189.759 237.228 190.106 237.442 190.602 237.442C191.104 237.442 191.447 237.225 191.633 236.792C191.819 236.351 191.912 235.667 191.912 234.739ZM190.158 224.773L181.564 238.628C181.344 239.006 181.097 239.195 180.822 239.195C180.663 239.195 180.505 239.133 180.347 239.01C180.189 238.893 180.11 238.738 180.11 238.545C180.11 238.401 180.179 238.226 180.316 238.019L188.961 224.051C189.113 223.796 189.243 223.607 189.353 223.484C189.47 223.353 189.635 223.288 189.848 223.288C190.055 223.288 190.22 223.349 190.344 223.473C190.474 223.59 190.54 223.748 190.54 223.948C190.54 224.092 190.412 224.367 190.158 224.773ZM211.11 226.032H207.768V237.019C207.768 237.651 207.627 238.122 207.345 238.432C207.063 238.735 206.698 238.886 206.251 238.886C205.798 238.886 205.426 238.731 205.137 238.422C204.855 238.112 204.714 237.644 204.714 237.019V226.032H201.372C200.849 226.032 200.461 225.918 200.206 225.691C199.952 225.457 199.824 225.151 199.824 224.773C199.824 224.381 199.955 224.072 200.216 223.845C200.485 223.618 200.87 223.504 201.372 223.504H211.11C211.64 223.504 212.032 223.621 212.286 223.855C212.548 224.089 212.679 224.395 212.679 224.773C212.679 225.151 212.548 225.457 212.286 225.691C212.025 225.918 211.633 226.032 211.11 226.032ZM220.818 233.851H215.309C215.316 234.491 215.443 235.055 215.691 235.543C215.945 236.032 216.279 236.4 216.692 236.647C217.111 236.895 217.572 237.019 218.074 237.019C218.411 237.019 218.717 236.981 218.992 236.905C219.274 236.823 219.546 236.699 219.807 236.534C220.068 236.362 220.309 236.18 220.529 235.987C220.749 235.794 221.035 235.533 221.386 235.203C221.53 235.079 221.736 235.017 222.005 235.017C222.293 235.017 222.527 235.096 222.706 235.254C222.885 235.413 222.974 235.636 222.974 235.925C222.974 236.18 222.875 236.479 222.675 236.823C222.476 237.16 222.173 237.486 221.767 237.803C221.368 238.112 220.863 238.37 220.251 238.576C219.645 238.783 218.947 238.886 218.157 238.886C216.348 238.886 214.941 238.37 213.937 237.338C212.933 236.307 212.431 234.907 212.431 233.14C212.431 232.307 212.555 231.537 212.802 230.829C213.05 230.113 213.411 229.501 213.886 228.992C214.36 228.484 214.945 228.095 215.639 227.827C216.334 227.552 217.104 227.414 217.95 227.414C219.051 227.414 219.993 227.648 220.777 228.116C221.568 228.576 222.159 229.175 222.551 229.911C222.943 230.647 223.139 231.396 223.139 232.16C223.139 232.868 222.936 233.329 222.531 233.542C222.125 233.748 221.554 233.851 220.818 233.851ZM215.309 232.252H220.416C220.347 231.29 220.086 230.571 219.632 230.096C219.185 229.615 218.593 229.374 217.857 229.374C217.156 229.374 216.578 229.618 216.124 230.107C215.677 230.588 215.405 231.303 215.309 232.252ZM232.641 237.297C231.96 237.827 231.3 238.226 230.66 238.494C230.027 238.755 229.315 238.886 228.524 238.886C227.802 238.886 227.166 238.745 226.616 238.463C226.073 238.174 225.653 237.785 225.357 237.297C225.062 236.809 224.914 236.279 224.914 235.708C224.914 234.938 225.158 234.281 225.646 233.738C226.134 233.195 226.805 232.83 227.658 232.644C227.837 232.603 228.28 232.51 228.989 232.366C229.697 232.221 230.302 232.091 230.804 231.974C231.313 231.85 231.864 231.702 232.455 231.53C232.421 230.787 232.269 230.244 232.001 229.9C231.74 229.55 231.193 229.374 230.361 229.374C229.645 229.374 229.106 229.474 228.741 229.673C228.383 229.873 228.074 230.172 227.813 230.571C227.558 230.97 227.376 231.235 227.266 231.365C227.163 231.489 226.936 231.551 226.585 231.551C226.269 231.551 225.993 231.451 225.76 231.252C225.533 231.045 225.419 230.784 225.419 230.468C225.419 229.973 225.595 229.491 225.945 229.023C226.296 228.556 226.843 228.171 227.586 227.868C228.328 227.565 229.253 227.414 230.361 227.414C231.599 227.414 232.572 227.562 233.28 227.858C233.989 228.147 234.487 228.607 234.776 229.24C235.072 229.873 235.22 230.712 235.22 231.757C235.22 232.417 235.216 232.978 235.209 233.439C235.209 233.9 235.206 234.412 235.199 234.976C235.199 235.506 235.285 236.059 235.457 236.637C235.636 237.208 235.725 237.576 235.725 237.741C235.725 238.03 235.588 238.294 235.313 238.535C235.044 238.769 234.738 238.886 234.394 238.886C234.106 238.886 233.82 238.752 233.538 238.484C233.256 238.208 232.957 237.813 232.641 237.297ZM232.455 233.222C232.042 233.373 231.441 233.535 230.65 233.707C229.866 233.872 229.322 233.996 229.02 234.078C228.717 234.154 228.428 234.309 228.153 234.543C227.878 234.77 227.74 235.089 227.74 235.502C227.74 235.928 227.902 236.293 228.225 236.596C228.549 236.891 228.971 237.039 229.494 237.039C230.051 237.039 230.564 236.919 231.031 236.678C231.506 236.431 231.853 236.114 232.073 235.729C232.328 235.303 232.455 234.601 232.455 233.624V233.222ZM248.187 235.399C248.187 235.75 248.081 236.124 247.868 236.523C247.661 236.922 247.341 237.304 246.908 237.669C246.482 238.026 245.942 238.315 245.289 238.535C244.635 238.755 243.899 238.865 243.081 238.865C241.341 238.865 239.982 238.36 239.006 237.349C238.029 236.331 237.541 234.969 237.541 233.263C237.541 232.108 237.764 231.087 238.212 230.199C238.659 229.312 239.305 228.628 240.151 228.147C240.997 227.658 242.008 227.414 243.184 227.414C243.913 227.414 244.58 227.521 245.185 227.734C245.797 227.947 246.313 228.222 246.733 228.559C247.159 228.896 247.482 229.257 247.703 229.642C247.93 230.021 248.043 230.375 248.043 230.705C248.043 231.042 247.916 231.327 247.661 231.561C247.414 231.795 247.111 231.912 246.753 231.912C246.52 231.912 246.324 231.854 246.165 231.737C246.014 231.613 245.842 231.417 245.65 231.149C245.306 230.626 244.945 230.234 244.566 229.973C244.195 229.711 243.72 229.58 243.143 229.58C242.311 229.58 241.64 229.907 241.131 230.561C240.622 231.207 240.368 232.094 240.368 233.222C240.368 233.752 240.433 234.24 240.564 234.687C240.694 235.127 240.883 235.506 241.131 235.822C241.379 236.131 241.678 236.369 242.029 236.534C242.379 236.692 242.764 236.771 243.184 236.771C243.748 236.771 244.229 236.64 244.628 236.379C245.034 236.118 245.392 235.719 245.701 235.182C245.873 234.866 246.059 234.618 246.258 234.439C246.458 234.261 246.702 234.171 246.991 234.171C247.335 234.171 247.62 234.302 247.847 234.563C248.074 234.825 248.187 235.103 248.187 235.399ZM252.871 224.959V229.137C253.229 228.724 253.576 228.398 253.913 228.157C254.257 227.916 254.635 227.737 255.048 227.62C255.46 227.497 255.904 227.435 256.379 227.435C257.094 227.435 257.727 227.586 258.277 227.889C258.834 228.191 259.271 228.631 259.587 229.209C259.786 229.546 259.921 229.924 259.989 230.344C260.058 230.757 260.092 231.235 260.092 231.778V237.173C260.092 237.737 259.962 238.164 259.7 238.453C259.446 238.741 259.106 238.886 258.679 238.886C257.751 238.886 257.286 238.315 257.286 237.173V232.417C257.286 231.517 257.152 230.825 256.884 230.344C256.616 229.856 256.107 229.611 255.357 229.611C254.855 229.611 254.401 229.756 253.996 230.045C253.597 230.327 253.297 230.715 253.098 231.21C252.947 231.63 252.871 232.376 252.871 233.449V237.173C252.871 237.73 252.744 238.157 252.489 238.453C252.242 238.741 251.894 238.886 251.447 238.886C250.519 238.886 250.055 238.315 250.055 237.173V224.959C250.055 224.388 250.175 223.962 250.416 223.68C250.663 223.391 251.007 223.246 251.447 223.246C251.894 223.246 252.242 223.391 252.489 223.68C252.744 223.968 252.871 224.395 252.871 224.959ZM270.749 233.851H265.24C265.247 234.491 265.374 235.055 265.622 235.543C265.877 236.032 266.21 236.4 266.623 236.647C267.042 236.895 267.503 237.019 268.005 237.019C268.342 237.019 268.648 236.981 268.923 236.905C269.205 236.823 269.477 236.699 269.738 236.534C270 236.362 270.24 236.18 270.46 235.987C270.681 235.794 270.966 235.533 271.317 235.203C271.461 235.079 271.667 235.017 271.936 235.017C272.225 235.017 272.458 235.096 272.637 235.254C272.816 235.413 272.905 235.636 272.905 235.925C272.905 236.18 272.806 236.479 272.606 236.823C272.407 237.16 272.104 237.486 271.698 237.803C271.3 238.112 270.794 238.37 270.182 238.576C269.577 238.783 268.879 238.886 268.088 238.886C266.279 238.886 264.872 238.37 263.868 237.338C262.864 236.307 262.362 234.907 262.362 233.14C262.362 232.307 262.486 231.537 262.734 230.829C262.981 230.113 263.342 229.501 263.817 228.992C264.291 228.484 264.876 228.095 265.571 227.827C266.265 227.552 267.035 227.414 267.881 227.414C268.982 227.414 269.924 227.648 270.708 228.116C271.499 228.576 272.09 229.175 272.482 229.911C272.874 230.647 273.07 231.396 273.07 232.16C273.07 232.868 272.868 233.329 272.462 233.542C272.056 233.748 271.485 233.851 270.749 233.851ZM265.24 232.252H270.347C270.278 231.29 270.017 230.571 269.563 230.096C269.116 229.615 268.524 229.374 267.789 229.374C267.087 229.374 266.509 229.618 266.055 230.107C265.608 230.588 265.337 231.303 265.24 232.252ZM278.249 234.821V237.173C278.249 237.744 278.115 238.174 277.847 238.463C277.579 238.745 277.238 238.886 276.826 238.886C276.42 238.886 276.086 238.741 275.825 238.453C275.564 238.164 275.433 237.737 275.433 237.173V229.333C275.433 228.067 275.89 227.435 276.805 227.435C277.273 227.435 277.61 227.583 277.816 227.878C278.022 228.174 278.136 228.611 278.156 229.188C278.493 228.611 278.837 228.174 279.188 227.878C279.546 227.583 280.02 227.435 280.612 227.435C281.203 227.435 281.777 227.583 282.335 227.878C282.892 228.174 283.17 228.566 283.17 229.054C283.17 229.398 283.05 229.684 282.809 229.911C282.575 230.131 282.321 230.241 282.046 230.241C281.943 230.241 281.692 230.179 281.293 230.055C280.901 229.924 280.553 229.859 280.251 229.859C279.838 229.859 279.501 229.969 279.24 230.189C278.978 230.402 278.775 230.722 278.631 231.149C278.487 231.575 278.387 232.084 278.332 232.675C278.277 233.26 278.249 233.975 278.249 234.821Z" fill="black"/>
<path d="M124.133 326.217H129.518C130.055 326.217 130.464 326.327 130.746 326.547C131.028 326.767 131.169 327.066 131.169 327.444C131.169 327.781 131.055 328.067 130.829 328.301C130.608 328.534 130.271 328.651 129.818 328.651H122.225C121.709 328.651 121.307 328.51 121.018 328.228C120.729 327.94 120.584 327.603 120.584 327.217C120.584 326.97 120.677 326.643 120.863 326.237C121.049 325.825 121.251 325.501 121.472 325.268C122.386 324.318 123.212 323.507 123.947 322.833C124.683 322.152 125.21 321.705 125.526 321.492C126.09 321.093 126.558 320.694 126.929 320.295C127.307 319.889 127.593 319.477 127.785 319.057C127.985 318.631 128.084 318.215 128.084 317.809C128.084 317.369 127.978 316.977 127.765 316.633C127.558 316.282 127.273 316.01 126.908 315.818C126.551 315.625 126.159 315.529 125.732 315.529C124.831 315.529 124.123 315.924 123.607 316.715C123.538 316.819 123.421 317.1 123.256 317.561C123.098 318.022 122.916 318.376 122.71 318.624C122.51 318.871 122.214 318.995 121.822 318.995C121.478 318.995 121.193 318.882 120.966 318.655C120.739 318.428 120.626 318.118 120.626 317.726C120.626 317.252 120.732 316.757 120.945 316.241C121.159 315.725 121.475 315.257 121.895 314.838C122.321 314.418 122.857 314.081 123.504 313.827C124.157 313.565 124.921 313.435 125.794 313.435C126.846 313.435 127.744 313.6 128.487 313.93C128.968 314.15 129.391 314.453 129.756 314.838C130.12 315.223 130.402 315.67 130.602 316.179C130.808 316.681 130.911 317.204 130.911 317.747C130.911 318.6 130.698 319.377 130.271 320.078C129.852 320.773 129.422 321.32 128.982 321.719C128.542 322.111 127.802 322.73 126.764 323.576C125.732 324.422 125.024 325.078 124.639 325.546C124.474 325.732 124.305 325.955 124.133 326.217ZM136.699 326.217H142.084C142.62 326.217 143.029 326.327 143.311 326.547C143.593 326.767 143.734 327.066 143.734 327.444C143.734 327.781 143.621 328.067 143.394 328.301C143.174 328.534 142.837 328.651 142.383 328.651H134.79C134.274 328.651 133.872 328.51 133.583 328.228C133.294 327.94 133.15 327.603 133.15 327.217C133.15 326.97 133.243 326.643 133.428 326.237C133.614 325.825 133.817 325.501 134.037 325.268C134.952 324.318 135.777 323.507 136.513 322.833C137.249 322.152 137.775 321.705 138.091 321.492C138.655 321.093 139.123 320.694 139.494 320.295C139.873 319.889 140.158 319.477 140.351 319.057C140.55 318.631 140.65 318.215 140.65 317.809C140.65 317.369 140.543 316.977 140.33 316.633C140.124 316.282 139.838 316.01 139.474 315.818C139.116 315.625 138.724 315.529 138.298 315.529C137.397 315.529 136.688 315.924 136.172 316.715C136.104 316.819 135.987 317.1 135.822 317.561C135.663 318.022 135.481 318.376 135.275 318.624C135.075 318.871 134.78 318.995 134.388 318.995C134.044 318.995 133.758 318.882 133.531 318.655C133.304 318.428 133.191 318.118 133.191 317.726C133.191 317.252 133.298 316.757 133.511 316.241C133.724 315.725 134.04 315.257 134.46 314.838C134.886 314.418 135.423 314.081 136.069 313.827C136.723 313.565 137.486 313.435 138.359 313.435C139.412 313.435 140.309 313.6 141.052 313.93C141.533 314.15 141.956 314.453 142.321 314.838C142.685 315.223 142.967 315.67 143.167 316.179C143.373 316.681 143.476 317.204 143.476 317.747C143.476 318.6 143.263 319.377 142.837 320.078C142.417 320.773 141.987 321.32 141.547 321.719C141.107 322.111 140.368 322.73 139.329 323.576C138.298 324.422 137.589 325.078 137.204 325.546C137.039 325.732 136.87 325.955 136.699 326.217ZM147.871 328.909C147.445 328.909 147.077 328.772 146.767 328.497C146.458 328.222 146.303 327.836 146.303 327.341C146.303 326.922 146.451 326.561 146.747 326.258C147.042 325.955 147.407 325.804 147.84 325.804C148.273 325.804 148.641 325.955 148.944 326.258C149.254 326.554 149.408 326.915 149.408 327.341C149.408 327.829 149.254 328.215 148.944 328.497C148.641 328.772 148.284 328.909 147.871 328.909ZM158.569 327.341V325.422H153.39C152.737 325.422 152.245 325.274 151.915 324.979C151.592 324.683 151.43 324.281 151.43 323.772C151.43 323.641 151.454 323.51 151.502 323.38C151.551 323.242 151.623 323.101 151.719 322.957C151.815 322.805 151.915 322.661 152.018 322.523C152.121 322.386 152.249 322.217 152.4 322.018L157.868 314.704C158.225 314.222 158.518 313.875 158.745 313.662C158.978 313.442 159.257 313.332 159.58 313.332C160.626 313.332 161.148 313.93 161.148 315.127V323.111H161.592C162.121 323.111 162.544 323.184 162.861 323.328C163.184 323.473 163.346 323.789 163.346 324.277C163.346 324.676 163.215 324.968 162.954 325.154C162.692 325.333 162.3 325.422 161.778 325.422H161.148V327.341C161.148 327.871 161.031 328.266 160.798 328.528C160.564 328.782 160.251 328.909 159.859 328.909C159.474 328.909 159.161 328.779 158.92 328.517C158.686 328.249 158.569 327.857 158.569 327.341ZM154.133 323.111H158.569V317.118L154.133 323.111ZM168.452 326.217H173.837C174.374 326.217 174.783 326.327 175.065 326.547C175.347 326.767 175.488 327.066 175.488 327.444C175.488 327.781 175.375 328.067 175.148 328.301C174.928 328.534 174.591 328.651 174.137 328.651H166.544C166.028 328.651 165.626 328.51 165.337 328.228C165.048 327.94 164.903 327.603 164.903 327.217C164.903 326.97 164.996 326.643 165.182 326.237C165.368 325.825 165.571 325.501 165.791 325.268C166.705 324.318 167.531 323.507 168.267 322.833C169.002 322.152 169.529 321.705 169.845 321.492C170.409 321.093 170.877 320.694 171.248 320.295C171.626 319.889 171.912 319.477 172.104 319.057C172.304 318.631 172.403 318.215 172.403 317.809C172.403 317.369 172.297 316.977 172.084 316.633C171.877 316.282 171.592 316.01 171.227 315.818C170.87 315.625 170.478 315.529 170.051 315.529C169.15 315.529 168.442 315.924 167.926 316.715C167.857 316.819 167.74 317.1 167.575 317.561C167.417 318.022 167.235 318.376 167.029 318.624C166.829 318.871 166.533 318.995 166.141 318.995C165.798 318.995 165.512 318.882 165.285 318.655C165.058 318.428 164.945 318.118 164.945 317.726C164.945 317.252 165.051 316.757 165.265 316.241C165.478 315.725 165.794 315.257 166.214 314.838C166.64 314.418 167.176 314.081 167.823 313.827C168.476 313.565 169.24 313.435 170.113 313.435C171.165 313.435 172.063 313.6 172.806 313.93C173.287 314.15 173.71 314.453 174.075 314.838C174.439 315.223 174.721 315.67 174.921 316.179C175.127 316.681 175.23 317.204 175.23 317.747C175.23 318.6 175.017 319.377 174.591 320.078C174.171 320.773 173.741 321.32 173.301 321.719C172.861 322.111 172.121 322.73 171.083 323.576C170.051 324.422 169.343 325.078 168.958 325.546C168.793 325.732 168.624 325.955 168.452 326.217ZM183.277 317.407C183.277 318.72 182.988 319.697 182.41 320.336C181.833 320.976 181.042 321.296 180.038 321.296C179.419 321.296 178.861 321.162 178.366 320.893C177.878 320.618 177.496 320.192 177.221 319.614C176.946 319.037 176.809 318.332 176.809 317.499C176.809 316.605 176.915 315.859 177.128 315.261C177.342 314.662 177.685 314.208 178.16 313.899C178.641 313.589 179.254 313.435 179.996 313.435C180.533 313.435 181.004 313.517 181.41 313.682C181.815 313.847 182.159 314.102 182.441 314.446C182.723 314.783 182.933 315.195 183.071 315.684C183.208 316.172 183.277 316.746 183.277 317.407ZM181.348 317.303C181.348 316.402 181.251 315.749 181.059 315.343C180.866 314.931 180.526 314.724 180.038 314.724C179.707 314.724 179.443 314.824 179.243 315.023C179.051 315.216 178.917 315.505 178.841 315.89C178.772 316.268 178.738 316.753 178.738 317.345C178.738 317.957 178.772 318.455 178.841 318.841C178.917 319.226 179.051 319.518 179.243 319.717C179.436 319.91 179.701 320.006 180.038 320.006C180.546 320.006 180.89 319.79 181.069 319.356C181.255 318.923 181.348 318.239 181.348 317.303ZM193.841 324.865C193.841 326.179 193.552 327.155 192.974 327.795C192.397 328.435 191.606 328.755 190.602 328.755C189.976 328.755 189.415 328.617 188.92 328.342C188.432 328.067 188.046 327.644 187.765 327.073C187.489 326.502 187.352 325.797 187.352 324.958C187.352 323.617 187.606 322.609 188.115 321.935C188.631 321.255 189.446 320.914 190.56 320.914C191.097 320.914 191.564 320.997 191.963 321.162C192.369 321.327 192.713 321.574 192.995 321.904C193.284 322.235 193.497 322.647 193.635 323.142C193.772 323.631 193.841 324.205 193.841 324.865ZM191.912 324.762C191.912 323.875 191.815 323.228 191.623 322.823C191.43 322.41 191.09 322.204 190.602 322.204C190.258 322.204 189.989 322.3 189.797 322.492C189.604 322.685 189.467 322.97 189.384 323.349C189.309 323.72 189.271 324.205 189.271 324.803C189.271 325.725 189.367 326.399 189.56 326.825C189.759 327.252 190.106 327.465 190.602 327.465C191.104 327.465 191.447 327.248 191.633 326.815C191.819 326.375 191.912 325.691 191.912 324.762ZM190.158 314.796L181.564 328.651C181.344 329.03 181.097 329.219 180.822 329.219C180.663 329.219 180.505 329.157 180.347 329.033C180.189 328.916 180.11 328.761 180.11 328.569C180.11 328.424 180.179 328.249 180.316 328.043L188.961 314.074C189.113 313.82 189.243 313.631 189.353 313.507C189.47 313.376 189.635 313.311 189.848 313.311C190.055 313.311 190.22 313.373 190.344 313.497C190.474 313.614 190.54 313.772 190.54 313.971C190.54 314.116 190.412 314.391 190.158 314.796ZM210.966 326.939L210.244 325.041H204.095L203.373 326.98C203.091 327.737 202.85 328.249 202.651 328.517C202.452 328.779 202.125 328.909 201.671 328.909C201.286 328.909 200.945 328.768 200.65 328.486C200.354 328.204 200.206 327.885 200.206 327.527C200.206 327.321 200.24 327.107 200.309 326.887C200.378 326.667 200.491 326.361 200.65 325.969L204.518 316.148C204.628 315.866 204.759 315.529 204.91 315.137C205.068 314.738 205.234 314.408 205.405 314.147C205.584 313.885 205.815 313.675 206.097 313.517C206.386 313.352 206.74 313.27 207.159 313.27C207.586 313.27 207.94 313.352 208.222 313.517C208.511 313.675 208.741 313.882 208.913 314.136C209.092 314.391 209.24 314.666 209.357 314.962C209.48 315.25 209.635 315.639 209.821 316.127L213.772 325.887C214.082 326.629 214.236 327.169 214.236 327.506C214.236 327.857 214.088 328.18 213.793 328.476C213.504 328.765 213.153 328.909 212.74 328.909C212.5 328.909 212.293 328.865 212.121 328.775C211.949 328.693 211.805 328.579 211.688 328.435C211.571 328.283 211.444 328.056 211.306 327.754C211.176 327.444 211.062 327.173 210.966 326.939ZM204.9 322.74H209.419L207.139 316.499L204.9 322.74ZM226.399 325.422C226.399 325.773 226.293 326.148 226.079 326.547C225.873 326.946 225.553 327.327 225.12 327.692C224.694 328.05 224.154 328.338 223.5 328.559C222.847 328.779 222.111 328.889 221.293 328.889C219.553 328.889 218.194 328.383 217.218 327.372C216.241 326.354 215.753 324.992 215.753 323.287C215.753 322.131 215.976 321.11 216.423 320.223C216.87 319.336 217.517 318.651 218.363 318.17C219.209 317.682 220.22 317.437 221.396 317.437C222.125 317.437 222.792 317.544 223.397 317.757C224.009 317.97 224.525 318.246 224.945 318.583C225.371 318.92 225.694 319.281 225.914 319.666C226.141 320.044 226.255 320.398 226.255 320.728C226.255 321.065 226.128 321.351 225.873 321.585C225.626 321.818 225.323 321.935 224.965 321.935C224.731 321.935 224.535 321.877 224.377 321.76C224.226 321.636 224.054 321.44 223.861 321.172C223.518 320.649 223.156 320.257 222.778 319.996C222.407 319.735 221.932 319.604 221.355 319.604C220.522 319.604 219.852 319.931 219.343 320.584C218.834 321.23 218.579 322.118 218.579 323.246C218.579 323.775 218.645 324.263 218.775 324.711C218.906 325.151 219.095 325.529 219.343 325.845C219.59 326.155 219.89 326.392 220.24 326.557C220.591 326.715 220.976 326.794 221.396 326.794C221.96 326.794 222.441 326.664 222.84 326.402C223.246 326.141 223.604 325.742 223.913 325.206C224.085 324.889 224.271 324.642 224.47 324.463C224.67 324.284 224.914 324.195 225.203 324.195C225.546 324.195 225.832 324.325 226.059 324.587C226.286 324.848 226.399 325.127 226.399 325.422ZM238.965 325.422C238.965 325.773 238.858 326.148 238.645 326.547C238.438 326.946 238.119 327.327 237.685 327.692C237.259 328.05 236.719 328.338 236.066 328.559C235.412 328.779 234.676 328.889 233.858 328.889C232.118 328.889 230.76 328.383 229.783 327.372C228.806 326.354 228.318 324.992 228.318 323.287C228.318 322.131 228.542 321.11 228.989 320.223C229.436 319.336 230.082 318.651 230.928 318.17C231.774 317.682 232.785 317.437 233.961 317.437C234.69 317.437 235.357 317.544 235.963 317.757C236.575 317.97 237.09 318.246 237.51 318.583C237.936 318.92 238.26 319.281 238.48 319.666C238.707 320.044 238.82 320.398 238.82 320.728C238.82 321.065 238.693 321.351 238.438 321.585C238.191 321.818 237.888 321.935 237.531 321.935C237.297 321.935 237.101 321.877 236.943 321.76C236.791 321.636 236.619 321.44 236.427 321.172C236.083 320.649 235.722 320.257 235.344 319.996C234.972 319.735 234.498 319.604 233.92 319.604C233.088 319.604 232.417 319.931 231.908 320.584C231.399 321.23 231.145 322.118 231.145 323.246C231.145 323.775 231.21 324.263 231.341 324.711C231.471 325.151 231.661 325.529 231.908 325.845C232.156 326.155 232.455 326.392 232.806 326.557C233.156 326.715 233.542 326.794 233.961 326.794C234.525 326.794 235.007 326.664 235.405 326.402C235.811 326.141 236.169 325.742 236.478 325.206C236.65 324.889 236.836 324.642 237.035 324.463C237.235 324.284 237.479 324.195 237.768 324.195C238.112 324.195 238.397 324.325 238.624 324.587C238.851 324.848 238.965 325.127 238.965 325.422ZM251.974 323.184C251.974 324.023 251.843 324.796 251.582 325.505C251.32 326.213 250.942 326.822 250.447 327.331C249.952 327.84 249.36 328.232 248.672 328.507C247.985 328.775 247.211 328.909 246.351 328.909C245.498 328.909 244.731 328.772 244.051 328.497C243.37 328.222 242.778 327.829 242.276 327.321C241.781 326.805 241.403 326.2 241.141 325.505C240.887 324.803 240.76 324.03 240.76 323.184C240.76 322.331 240.89 321.55 241.152 320.842C241.413 320.133 241.788 319.528 242.276 319.026C242.764 318.524 243.356 318.139 244.051 317.871C244.745 317.596 245.512 317.458 246.351 317.458C247.204 317.458 247.978 317.596 248.672 317.871C249.367 318.146 249.962 318.538 250.457 319.047C250.952 319.556 251.327 320.161 251.582 320.863C251.843 321.564 251.974 322.338 251.974 323.184ZM249.147 323.184C249.147 322.035 248.892 321.141 248.383 320.501C247.881 319.862 247.204 319.542 246.351 319.542C245.801 319.542 245.316 319.686 244.897 319.975C244.477 320.257 244.154 320.677 243.927 321.234C243.7 321.791 243.586 322.441 243.586 323.184C243.586 323.92 243.696 324.563 243.916 325.113C244.143 325.663 244.463 326.086 244.876 326.382C245.295 326.671 245.787 326.815 246.351 326.815C247.204 326.815 247.881 326.495 248.383 325.856C248.892 325.209 249.147 324.318 249.147 323.184ZM261.516 327.321V326.959C261.179 327.386 260.825 327.744 260.454 328.032C260.082 328.321 259.676 328.534 259.236 328.672C258.796 328.816 258.294 328.889 257.73 328.889C257.049 328.889 256.437 328.748 255.894 328.466C255.357 328.184 254.941 327.795 254.645 327.3C254.295 326.702 254.119 325.842 254.119 324.721V319.14C254.119 318.576 254.247 318.156 254.501 317.881C254.756 317.599 255.093 317.458 255.512 317.458C255.938 317.458 256.282 317.599 256.544 317.881C256.805 318.163 256.936 318.583 256.936 319.14V323.648C256.936 324.301 256.991 324.852 257.101 325.299C257.211 325.739 257.407 326.086 257.689 326.341C257.978 326.588 258.366 326.712 258.855 326.712C259.329 326.712 259.776 326.571 260.196 326.289C260.615 326.007 260.921 325.639 261.114 325.185C261.272 324.786 261.351 323.913 261.351 322.565V319.14C261.351 318.583 261.482 318.163 261.743 317.881C262.004 317.599 262.345 317.458 262.764 317.458C263.184 317.458 263.521 317.599 263.775 317.881C264.03 318.156 264.157 318.576 264.157 319.14V327.3C264.157 327.836 264.033 328.239 263.786 328.507C263.545 328.775 263.232 328.909 262.847 328.909C262.462 328.909 262.142 328.772 261.888 328.497C261.64 328.215 261.516 327.823 261.516 327.321ZM269.532 319.016V319.356C270.027 318.703 270.567 318.225 271.152 317.922C271.743 317.613 272.421 317.458 273.184 317.458C273.927 317.458 274.59 317.62 275.175 317.943C275.76 318.266 276.196 318.724 276.485 319.315C276.671 319.659 276.791 320.03 276.846 320.429C276.901 320.828 276.929 321.337 276.929 321.956V327.197C276.929 327.761 276.798 328.187 276.537 328.476C276.282 328.765 275.949 328.909 275.536 328.909C275.117 328.909 274.776 328.761 274.515 328.466C274.253 328.17 274.123 327.747 274.123 327.197V322.503C274.123 321.574 273.992 320.866 273.731 320.378C273.476 319.882 272.964 319.635 272.194 319.635C271.692 319.635 271.234 319.786 270.822 320.089C270.409 320.385 270.106 320.794 269.914 321.316C269.776 321.736 269.707 322.52 269.707 323.669V327.197C269.707 327.768 269.573 328.197 269.305 328.486C269.044 328.768 268.703 328.909 268.284 328.909C267.878 328.909 267.544 328.761 267.283 328.466C267.022 328.17 266.891 327.747 266.891 327.197V319.057C266.891 318.521 267.008 318.122 267.242 317.86C267.476 317.592 267.795 317.458 268.201 317.458C268.449 317.458 268.672 317.517 268.872 317.633C269.071 317.75 269.229 317.926 269.346 318.16C269.47 318.393 269.532 318.679 269.532 319.016ZM279.9 317.706H280.209V316.014C280.209 315.56 280.22 315.206 280.24 314.951C280.268 314.69 280.337 314.466 280.447 314.281C280.557 314.088 280.715 313.933 280.921 313.816C281.128 313.693 281.358 313.631 281.612 313.631C281.97 313.631 282.293 313.765 282.582 314.033C282.775 314.212 282.895 314.432 282.943 314.693C282.998 314.948 283.026 315.312 283.026 315.787V317.706H284.057C284.456 317.706 284.759 317.802 284.965 317.995C285.178 318.18 285.285 318.421 285.285 318.717C285.285 319.095 285.134 319.36 284.831 319.511C284.535 319.662 284.109 319.738 283.552 319.738H283.026V324.917C283.026 325.357 283.04 325.697 283.067 325.938C283.101 326.172 283.184 326.365 283.315 326.516C283.452 326.66 283.672 326.733 283.975 326.733C284.14 326.733 284.363 326.705 284.645 326.65C284.927 326.588 285.147 326.557 285.306 326.557C285.533 326.557 285.736 326.65 285.914 326.836C286.1 327.015 286.193 327.238 286.193 327.506C286.193 327.96 285.945 328.307 285.45 328.548C284.955 328.789 284.243 328.909 283.315 328.909C282.434 328.909 281.767 328.761 281.313 328.466C280.859 328.17 280.56 327.761 280.416 327.238C280.278 326.715 280.209 326.017 280.209 325.144V319.738H279.838C279.432 319.738 279.123 319.642 278.91 319.449C278.696 319.257 278.59 319.012 278.59 318.717C278.59 318.421 278.7 318.18 278.92 317.995C279.147 317.802 279.474 317.706 279.9 317.706ZM290.051 319.057V327.197C290.051 327.761 289.917 328.187 289.649 328.476C289.381 328.765 289.04 328.909 288.628 328.909C288.215 328.909 287.878 328.761 287.617 328.466C287.362 328.17 287.235 327.747 287.235 327.197V319.14C287.235 318.583 287.362 318.163 287.617 317.881C287.878 317.599 288.215 317.458 288.628 317.458C289.04 317.458 289.381 317.599 289.649 317.881C289.917 318.163 290.051 318.555 290.051 319.057ZM288.659 316.148C288.266 316.148 287.929 316.028 287.648 315.787C287.372 315.546 287.235 315.206 287.235 314.766C287.235 314.367 287.376 314.04 287.658 313.785C287.947 313.524 288.28 313.393 288.659 313.393C289.023 313.393 289.346 313.51 289.628 313.744C289.91 313.978 290.051 314.319 290.051 314.766C290.051 315.199 289.914 315.539 289.639 315.787C289.363 316.028 289.037 316.148 288.659 316.148ZM295.529 319.016V319.356C296.024 318.703 296.564 318.225 297.149 317.922C297.74 317.613 298.418 317.458 299.181 317.458C299.924 317.458 300.588 317.62 301.172 317.943C301.757 318.266 302.194 318.724 302.482 319.315C302.668 319.659 302.788 320.03 302.844 320.429C302.899 320.828 302.926 321.337 302.926 321.956V327.197C302.926 327.761 302.795 328.187 302.534 328.476C302.28 328.765 301.946 328.909 301.533 328.909C301.114 328.909 300.773 328.761 300.512 328.466C300.251 328.17 300.12 327.747 300.12 327.197V322.503C300.12 321.574 299.989 320.866 299.728 320.378C299.473 319.882 298.961 319.635 298.191 319.635C297.689 319.635 297.231 319.786 296.819 320.089C296.406 320.385 296.103 320.794 295.911 321.316C295.773 321.736 295.705 322.52 295.705 323.669V327.197C295.705 327.768 295.57 328.197 295.302 328.486C295.041 328.768 294.7 328.909 294.281 328.909C293.875 328.909 293.542 328.761 293.28 328.466C293.019 328.17 292.888 327.747 292.888 327.197V319.057C292.888 318.521 293.005 318.122 293.239 317.86C293.473 317.592 293.793 317.458 294.198 317.458C294.446 317.458 294.67 317.517 294.869 317.633C295.068 317.75 295.227 317.926 295.344 318.16C295.467 318.393 295.529 318.679 295.529 319.016ZM316.1 319.521V327.702C316.1 328.638 316 329.442 315.801 330.116C315.601 330.79 315.282 331.347 314.841 331.788C314.401 332.228 313.824 332.554 313.108 332.768C312.4 332.981 311.516 333.087 310.457 333.087C309.487 333.087 308.621 332.95 307.857 332.675C307.094 332.407 306.506 332.056 306.093 331.622C305.681 331.196 305.474 330.756 305.474 330.302C305.474 329.958 305.591 329.676 305.825 329.456C306.059 329.243 306.341 329.136 306.671 329.136C307.084 329.136 307.445 329.318 307.754 329.683C307.905 329.869 308.06 330.054 308.218 330.24C308.383 330.433 308.562 330.594 308.755 330.725C308.954 330.863 309.192 330.962 309.467 331.024C309.742 331.093 310.058 331.127 310.416 331.127C311.145 331.127 311.709 331.024 312.108 330.818C312.513 330.618 312.795 330.336 312.954 329.972C313.119 329.607 313.215 329.215 313.242 328.796C313.27 328.383 313.291 327.716 313.304 326.794C312.871 327.4 312.369 327.86 311.798 328.177C311.234 328.493 310.56 328.651 309.776 328.651C308.834 328.651 308.009 328.411 307.3 327.929C306.599 327.448 306.059 326.774 305.681 325.907C305.302 325.041 305.113 324.04 305.113 322.905C305.113 322.059 305.227 321.296 305.454 320.615C305.687 319.934 306.018 319.36 306.444 318.892C306.87 318.424 307.362 318.074 307.919 317.84C308.476 317.599 309.088 317.479 309.755 317.479C310.553 317.479 311.244 317.633 311.829 317.943C312.414 318.246 312.957 318.724 313.459 319.377V318.995C313.459 318.507 313.579 318.129 313.82 317.86C314.061 317.592 314.37 317.458 314.749 317.458C315.292 317.458 315.653 317.637 315.832 317.995C316.011 318.345 316.1 318.854 316.1 319.521ZM307.94 323.091C307.94 324.233 308.187 325.096 308.683 325.68C309.185 326.265 309.831 326.557 310.622 326.557C311.09 326.557 311.53 326.433 311.943 326.186C312.362 325.931 312.703 325.553 312.964 325.051C313.225 324.542 313.356 323.926 313.356 323.204C313.356 322.056 313.101 321.162 312.592 320.522C312.09 319.882 311.427 319.563 310.601 319.563C309.797 319.563 309.15 319.869 308.662 320.481C308.181 321.093 307.94 321.963 307.94 323.091Z" fill="black"/>
<path d="M125.206 141.312C125.839 141.312 126.382 141.126 126.836 140.755C127.297 140.383 127.527 139.85 127.527 139.156C127.527 138.626 127.345 138.172 126.981 137.794C126.616 137.409 126.124 137.216 125.505 137.216C125.086 137.216 124.738 137.275 124.463 137.392C124.195 137.509 123.982 137.663 123.824 137.856C123.666 138.049 123.514 138.296 123.37 138.599C123.232 138.901 123.105 139.187 122.988 139.455C122.919 139.599 122.795 139.713 122.617 139.795C122.438 139.878 122.232 139.919 121.998 139.919C121.723 139.919 121.468 139.809 121.234 139.589C121.007 139.362 120.894 139.063 120.894 138.692C120.894 138.334 121 137.959 121.214 137.567C121.434 137.168 121.75 136.79 122.163 136.432C122.582 136.075 123.102 135.789 123.721 135.576C124.34 135.356 125.031 135.246 125.794 135.246C126.461 135.246 127.07 135.339 127.62 135.524C128.17 135.703 128.648 135.965 129.054 136.308C129.46 136.652 129.766 137.051 129.972 137.505C130.179 137.959 130.282 138.447 130.282 138.97C130.282 139.658 130.13 140.249 129.828 140.745C129.532 141.233 129.106 141.711 128.549 142.178C129.085 142.467 129.536 142.797 129.9 143.169C130.271 143.54 130.55 143.953 130.736 144.407C130.921 144.854 131.014 145.339 131.014 145.861C131.014 146.487 130.887 147.093 130.632 147.677C130.385 148.262 130.017 148.784 129.529 149.245C129.04 149.699 128.459 150.057 127.785 150.318C127.118 150.573 126.379 150.7 125.567 150.7C124.742 150.7 124.003 150.552 123.349 150.256C122.696 149.96 122.156 149.593 121.729 149.152C121.31 148.705 120.99 148.245 120.77 147.77C120.557 147.295 120.45 146.903 120.45 146.594C120.45 146.195 120.577 145.875 120.832 145.634C121.093 145.387 121.417 145.263 121.802 145.263C121.994 145.263 122.18 145.322 122.359 145.438C122.538 145.549 122.655 145.683 122.71 145.841C123.067 146.797 123.449 147.509 123.855 147.976C124.267 148.437 124.845 148.667 125.588 148.667C126.014 148.667 126.423 148.564 126.815 148.358C127.214 148.145 127.541 147.832 127.795 147.419C128.057 147.007 128.188 146.529 128.188 145.985C128.188 145.181 127.967 144.551 127.527 144.097C127.087 143.637 126.475 143.406 125.691 143.406C125.553 143.406 125.34 143.42 125.051 143.447C124.762 143.475 124.577 143.489 124.494 143.489C124.116 143.489 123.824 143.396 123.617 143.21C123.411 143.018 123.308 142.753 123.308 142.416C123.308 142.086 123.432 141.821 123.679 141.621C123.927 141.415 124.295 141.312 124.783 141.312H125.206ZM137.771 141.312C138.404 141.312 138.947 141.126 139.401 140.755C139.862 140.383 140.093 139.85 140.093 139.156C140.093 138.626 139.91 138.172 139.546 137.794C139.181 137.409 138.69 137.216 138.071 137.216C137.651 137.216 137.304 137.275 137.029 137.392C136.76 137.509 136.547 137.663 136.389 137.856C136.231 138.049 136.08 138.296 135.935 138.599C135.798 138.901 135.67 139.187 135.553 139.455C135.485 139.599 135.361 139.713 135.182 139.795C135.003 139.878 134.797 139.919 134.563 139.919C134.288 139.919 134.033 139.809 133.8 139.589C133.573 139.362 133.459 139.063 133.459 138.692C133.459 138.334 133.566 137.959 133.779 137.567C133.999 137.168 134.315 136.79 134.728 136.432C135.148 136.075 135.667 135.789 136.286 135.576C136.905 135.356 137.596 135.246 138.359 135.246C139.027 135.246 139.635 135.339 140.185 135.524C140.736 135.703 141.214 135.965 141.619 136.308C142.025 136.652 142.331 137.051 142.538 137.505C142.744 137.959 142.847 138.447 142.847 138.97C142.847 139.658 142.696 140.249 142.393 140.745C142.097 141.233 141.671 141.711 141.114 142.178C141.65 142.467 142.101 142.797 142.465 143.169C142.837 143.54 143.115 143.953 143.301 144.407C143.487 144.854 143.58 145.339 143.58 145.861C143.58 146.487 143.452 147.093 143.198 147.677C142.95 148.262 142.582 148.784 142.094 149.245C141.606 149.699 141.025 150.057 140.351 150.318C139.683 150.573 138.944 150.7 138.132 150.7C137.307 150.7 136.568 150.552 135.914 150.256C135.261 149.96 134.721 149.593 134.295 149.152C133.875 148.705 133.555 148.245 133.335 147.77C133.122 147.295 133.016 146.903 133.016 146.594C133.016 146.195 133.143 145.875 133.397 145.634C133.659 145.387 133.982 145.263 134.367 145.263C134.56 145.263 134.745 145.322 134.924 145.438C135.103 145.549 135.22 145.683 135.275 145.841C135.632 146.797 136.014 147.509 136.42 147.976C136.833 148.437 137.41 148.667 138.153 148.667C138.58 148.667 138.989 148.564 139.381 148.358C139.78 148.145 140.106 147.832 140.361 147.419C140.622 147.007 140.753 146.529 140.753 145.985C140.753 145.181 140.533 144.551 140.093 144.097C139.652 143.637 139.04 143.406 138.256 143.406C138.119 143.406 137.906 143.42 137.617 143.447C137.328 143.475 137.142 143.489 137.06 143.489C136.681 143.489 136.389 143.396 136.183 143.21C135.976 143.018 135.873 142.753 135.873 142.416C135.873 142.086 135.997 141.821 136.245 141.621C136.492 141.415 136.86 141.312 137.348 141.312H137.771ZM147.871 150.7C147.445 150.7 147.077 150.562 146.767 150.287C146.458 150.012 146.303 149.627 146.303 149.132C146.303 148.712 146.451 148.351 146.747 148.048C147.042 147.746 147.407 147.595 147.84 147.595C148.273 147.595 148.641 147.746 148.944 148.048C149.254 148.344 149.408 148.705 149.408 149.132C149.408 149.62 149.254 150.005 148.944 150.287C148.641 150.562 148.284 150.7 147.871 150.7ZM156.96 141.312C157.593 141.312 158.136 141.126 158.59 140.755C159.051 140.383 159.281 139.85 159.281 139.156C159.281 138.626 159.099 138.172 158.734 137.794C158.37 137.409 157.878 137.216 157.259 137.216C156.839 137.216 156.492 137.275 156.217 137.392C155.949 137.509 155.736 137.663 155.577 137.856C155.419 138.049 155.268 138.296 155.124 138.599C154.986 138.901 154.859 139.187 154.742 139.455C154.673 139.599 154.549 139.713 154.37 139.795C154.192 139.878 153.985 139.919 153.751 139.919C153.476 139.919 153.222 139.809 152.988 139.589C152.761 139.362 152.648 139.063 152.648 138.692C152.648 138.334 152.754 137.959 152.967 137.567C153.187 137.168 153.504 136.79 153.917 136.432C154.336 136.075 154.855 135.789 155.474 135.576C156.093 135.356 156.784 135.246 157.548 135.246C158.215 135.246 158.824 135.339 159.374 135.524C159.924 135.703 160.402 135.965 160.808 136.308C161.214 136.652 161.52 137.051 161.726 137.505C161.932 137.959 162.035 138.447 162.035 138.97C162.035 139.658 161.884 140.249 161.582 140.745C161.286 141.233 160.859 141.711 160.302 142.178C160.839 142.467 161.289 142.797 161.654 143.169C162.025 143.54 162.304 143.953 162.489 144.407C162.675 144.854 162.768 145.339 162.768 145.861C162.768 146.487 162.641 147.093 162.386 147.677C162.139 148.262 161.771 148.784 161.282 149.245C160.794 149.699 160.213 150.057 159.539 150.318C158.872 150.573 158.132 150.7 157.321 150.7C156.496 150.7 155.756 150.552 155.103 150.256C154.45 149.96 153.91 149.593 153.483 149.152C153.064 148.705 152.744 148.245 152.524 147.77C152.311 147.295 152.204 146.903 152.204 146.594C152.204 146.195 152.331 145.875 152.586 145.634C152.847 145.387 153.17 145.263 153.555 145.263C153.748 145.263 153.934 145.322 154.113 145.438C154.291 145.549 154.408 145.683 154.463 145.841C154.821 146.797 155.203 147.509 155.608 147.976C156.021 148.437 156.599 148.667 157.342 148.667C157.768 148.667 158.177 148.564 158.569 148.358C158.968 148.145 159.295 147.832 159.549 147.419C159.811 147.007 159.941 146.529 159.941 145.985C159.941 145.181 159.721 144.551 159.281 144.097C158.841 143.637 158.229 143.406 157.445 143.406C157.307 143.406 157.094 143.42 156.805 143.447C156.516 143.475 156.331 143.489 156.248 143.489C155.87 143.489 155.577 143.396 155.371 143.21C155.165 143.018 155.062 142.753 155.062 142.416C155.062 142.086 155.185 141.821 155.433 141.621C155.681 141.415 156.049 141.312 156.537 141.312H156.96ZM171.135 149.132V147.213H165.956C165.302 147.213 164.811 147.065 164.48 146.769C164.157 146.474 163.996 146.071 163.996 145.562C163.996 145.432 164.02 145.301 164.068 145.17C164.116 145.033 164.188 144.892 164.284 144.747C164.381 144.596 164.48 144.452 164.584 144.314C164.687 144.176 164.814 144.008 164.965 143.808L170.433 136.494C170.791 136.013 171.083 135.665 171.31 135.452C171.544 135.232 171.822 135.122 172.146 135.122C173.191 135.122 173.714 135.72 173.714 136.917V144.902H174.157C174.687 144.902 175.11 144.974 175.426 145.119C175.749 145.263 175.911 145.579 175.911 146.068C175.911 146.467 175.78 146.759 175.519 146.945C175.258 147.123 174.866 147.213 174.343 147.213H173.714V149.132C173.714 149.661 173.597 150.057 173.363 150.318C173.129 150.573 172.816 150.7 172.424 150.7C172.039 150.7 171.726 150.569 171.485 150.308C171.251 150.04 171.135 149.648 171.135 149.132ZM166.698 144.902H171.135V138.908L166.698 144.902ZM183.277 139.197C183.277 140.511 182.988 141.487 182.41 142.127C181.833 142.767 181.042 143.086 180.038 143.086C179.419 143.086 178.861 142.952 178.366 142.684C177.878 142.409 177.496 141.982 177.221 141.405C176.946 140.827 176.809 140.122 176.809 139.29C176.809 138.396 176.915 137.65 177.128 137.051C177.342 136.453 177.685 135.999 178.16 135.689C178.641 135.38 179.254 135.225 179.996 135.225C180.533 135.225 181.004 135.308 181.41 135.473C181.815 135.638 182.159 135.892 182.441 136.236C182.723 136.573 182.933 136.986 183.071 137.474C183.208 137.963 183.277 138.537 183.277 139.197ZM181.348 139.094C181.348 138.193 181.251 137.54 181.059 137.134C180.866 136.721 180.526 136.515 180.038 136.515C179.707 136.515 179.443 136.615 179.243 136.814C179.051 137.007 178.917 137.295 178.841 137.681C178.772 138.059 178.738 138.544 178.738 139.135C178.738 139.747 178.772 140.246 178.841 140.631C178.917 141.016 179.051 141.308 179.243 141.508C179.436 141.7 179.701 141.797 180.038 141.797C180.546 141.797 180.89 141.58 181.069 141.147C181.255 140.714 181.348 140.029 181.348 139.094ZM193.841 146.656C193.841 147.969 193.552 148.946 192.974 149.586C192.397 150.225 191.606 150.545 190.602 150.545C189.976 150.545 189.415 150.408 188.92 150.132C188.432 149.857 188.046 149.434 187.765 148.863C187.489 148.293 187.352 147.588 187.352 146.749C187.352 145.408 187.606 144.4 188.115 143.726C188.631 143.045 189.446 142.705 190.56 142.705C191.097 142.705 191.564 142.787 191.963 142.952C192.369 143.117 192.713 143.365 192.995 143.695C193.284 144.025 193.497 144.438 193.635 144.933C193.772 145.421 193.841 145.996 193.841 146.656ZM191.912 146.553C191.912 145.665 191.815 145.019 191.623 144.613C191.43 144.2 191.09 143.994 190.602 143.994C190.258 143.994 189.989 144.09 189.797 144.283C189.604 144.476 189.467 144.761 189.384 145.139C189.309 145.511 189.271 145.996 189.271 146.594C189.271 147.515 189.367 148.189 189.56 148.616C189.759 149.042 190.106 149.256 190.602 149.256C191.104 149.256 191.447 149.039 191.633 148.606C191.819 148.165 191.912 147.481 191.912 146.553ZM190.158 136.587L181.564 150.442C181.344 150.82 181.097 151.009 180.822 151.009C180.663 151.009 180.505 150.947 180.347 150.824C180.189 150.707 180.11 150.552 180.11 150.359C180.11 150.215 180.179 150.04 180.316 149.833L188.961 135.865C189.113 135.61 189.243 135.421 189.353 135.297C189.47 135.167 189.635 135.101 189.848 135.101C190.055 135.101 190.22 135.163 190.344 135.287C190.474 135.404 190.54 135.562 190.54 135.762C190.54 135.906 190.412 136.181 190.158 136.587ZM212.782 145.903C212.782 146.817 212.544 147.639 212.07 148.368C211.602 149.097 210.914 149.668 210.007 150.081C209.099 150.493 208.022 150.7 206.778 150.7C205.285 150.7 204.054 150.418 203.084 149.854C202.397 149.448 201.836 148.908 201.403 148.234C200.976 147.553 200.763 146.893 200.763 146.253C200.763 145.882 200.89 145.566 201.145 145.304C201.406 145.036 201.736 144.902 202.135 144.902C202.458 144.902 202.73 145.005 202.95 145.211C203.177 145.418 203.37 145.724 203.528 146.13C203.72 146.611 203.927 147.013 204.147 147.337C204.374 147.66 204.69 147.928 205.096 148.141C205.502 148.348 206.035 148.451 206.695 148.451C207.603 148.451 208.339 148.241 208.903 147.822C209.474 147.395 209.759 146.866 209.759 146.233C209.759 145.731 209.604 145.325 209.295 145.015C208.992 144.699 208.597 144.458 208.108 144.293C207.627 144.128 206.98 143.953 206.169 143.767C205.082 143.513 204.171 143.217 203.435 142.88C202.706 142.536 202.125 142.072 201.692 141.487C201.265 140.896 201.052 140.163 201.052 139.29C201.052 138.458 201.279 137.718 201.733 137.072C202.187 136.425 202.844 135.93 203.703 135.586C204.563 135.236 205.574 135.06 206.736 135.06C207.665 135.06 208.466 135.177 209.14 135.411C209.821 135.638 210.385 135.944 210.832 136.329C211.279 136.707 211.606 137.106 211.812 137.526C212.018 137.945 212.121 138.355 212.121 138.753C212.121 139.118 211.991 139.448 211.729 139.744C211.475 140.033 211.155 140.177 210.77 140.177C210.419 140.177 210.151 140.091 209.965 139.919C209.786 139.74 209.59 139.452 209.377 139.053C209.102 138.482 208.772 138.038 208.387 137.722C208.002 137.399 207.383 137.237 206.53 137.237C205.739 137.237 205.099 137.412 204.611 137.763C204.13 138.107 203.889 138.523 203.889 139.011C203.889 139.314 203.972 139.575 204.137 139.795C204.302 140.015 204.529 140.205 204.817 140.363C205.106 140.521 205.399 140.645 205.694 140.734C205.99 140.824 206.478 140.954 207.159 141.126C208.012 141.326 208.782 141.546 209.47 141.786C210.165 142.027 210.753 142.319 211.234 142.663C211.723 143.007 212.101 143.444 212.369 143.974C212.644 144.496 212.782 145.139 212.782 145.903ZM225.729 144.974C225.729 145.813 225.598 146.587 225.337 147.295C225.075 148.004 224.697 148.612 224.202 149.121C223.707 149.63 223.115 150.022 222.427 150.297C221.74 150.566 220.966 150.7 220.106 150.7C219.253 150.7 218.487 150.562 217.806 150.287C217.125 150.012 216.533 149.62 216.031 149.111C215.536 148.595 215.158 147.99 214.897 147.295C214.642 146.594 214.515 145.82 214.515 144.974C214.515 144.121 214.645 143.341 214.907 142.632C215.168 141.924 215.543 141.319 216.031 140.817C216.52 140.315 217.111 139.93 217.806 139.661C218.5 139.386 219.267 139.249 220.106 139.249C220.959 139.249 221.733 139.386 222.427 139.661C223.122 139.936 223.717 140.328 224.212 140.837C224.707 141.346 225.082 141.952 225.337 142.653C225.598 143.355 225.729 144.128 225.729 144.974ZM222.902 144.974C222.902 143.826 222.648 142.932 222.139 142.292C221.637 141.652 220.959 141.333 220.106 141.333C219.556 141.333 219.071 141.477 218.652 141.766C218.232 142.048 217.909 142.467 217.682 143.024C217.455 143.582 217.342 144.231 217.342 144.974C217.342 145.71 217.452 146.353 217.672 146.903C217.899 147.454 218.218 147.877 218.631 148.172C219.051 148.461 219.542 148.606 220.106 148.606C220.959 148.606 221.637 148.286 222.139 147.646C222.648 147 222.902 146.109 222.902 144.974ZM227.73 139.496H228.401V138.65C228.401 137.77 228.511 137.072 228.731 136.556C228.958 136.033 229.336 135.655 229.866 135.421C230.402 135.181 231.134 135.06 232.063 135.06C233.707 135.06 234.529 135.463 234.529 136.267C234.529 136.529 234.443 136.752 234.271 136.938C234.099 137.123 233.896 137.216 233.662 137.216C233.552 137.216 233.363 137.196 233.095 137.154C232.826 137.113 232.599 137.093 232.414 137.093C231.905 137.093 231.578 137.244 231.434 137.546C231.289 137.842 231.217 138.269 231.217 138.826V139.496H231.908C232.981 139.496 233.518 139.819 233.518 140.466C233.518 140.927 233.373 141.219 233.084 141.343C232.802 141.467 232.41 141.529 231.908 141.529H231.217V148.987C231.217 149.544 231.083 149.971 230.815 150.267C230.553 150.555 230.213 150.7 229.793 150.7C229.394 150.7 229.061 150.555 228.793 150.267C228.531 149.971 228.401 149.544 228.401 148.987V141.529H227.627C227.207 141.529 226.884 141.436 226.657 141.25C226.43 141.057 226.317 140.81 226.317 140.507C226.317 139.833 226.788 139.496 227.73 139.496ZM235.148 139.496H235.457V137.804C235.457 137.35 235.467 136.996 235.488 136.742C235.515 136.48 235.584 136.257 235.694 136.071C235.804 135.879 235.963 135.724 236.169 135.607C236.375 135.483 236.606 135.421 236.86 135.421C237.218 135.421 237.541 135.555 237.83 135.824C238.022 136.002 238.143 136.223 238.191 136.484C238.246 136.738 238.273 137.103 238.273 137.577V139.496H239.305C239.704 139.496 240.007 139.593 240.213 139.785C240.426 139.971 240.533 140.212 240.533 140.507C240.533 140.886 240.381 141.15 240.079 141.302C239.783 141.453 239.357 141.529 238.8 141.529H238.273V146.707C238.273 147.148 238.287 147.488 238.315 147.729C238.349 147.963 238.432 148.155 238.562 148.306C238.7 148.451 238.92 148.523 239.223 148.523C239.388 148.523 239.611 148.496 239.893 148.441C240.175 148.379 240.395 148.348 240.553 148.348C240.78 148.348 240.983 148.441 241.162 148.626C241.348 148.805 241.441 149.029 241.441 149.297C241.441 149.751 241.193 150.098 240.698 150.339C240.203 150.579 239.491 150.7 238.562 150.7C237.682 150.7 237.015 150.552 236.561 150.256C236.107 149.96 235.808 149.551 235.663 149.029C235.526 148.506 235.457 147.808 235.457 146.934V141.529H235.086C234.68 141.529 234.37 141.432 234.157 141.24C233.944 141.047 233.837 140.803 233.837 140.507C233.837 140.212 233.947 139.971 234.167 139.785C234.394 139.593 234.721 139.496 235.148 139.496ZM244.236 141.002L246.073 147.295L247.744 141.446C247.923 140.834 248.053 140.418 248.136 140.198C248.225 139.971 248.387 139.758 248.621 139.558C248.861 139.352 249.188 139.249 249.601 139.249C250.02 139.249 250.347 139.352 250.581 139.558C250.822 139.758 250.99 139.978 251.086 140.218C251.183 140.452 251.317 140.861 251.489 141.446L253.16 147.295L255.017 141.002C255.141 140.549 255.24 140.222 255.316 140.022C255.392 139.816 255.519 139.637 255.698 139.486C255.877 139.328 256.134 139.249 256.471 139.249C256.808 139.249 257.101 139.366 257.348 139.599C257.596 139.833 257.72 140.108 257.72 140.425C257.72 140.714 257.613 141.15 257.4 141.735L255.099 148.482C254.9 149.053 254.745 149.465 254.635 149.72C254.525 149.974 254.35 150.201 254.109 150.401C253.875 150.6 253.552 150.7 253.139 150.7C252.713 150.7 252.376 150.593 252.128 150.38C251.888 150.167 251.709 149.905 251.592 149.596C251.475 149.286 251.348 148.884 251.21 148.389L249.601 142.901L248.043 148.389C247.837 149.152 247.613 149.73 247.372 150.122C247.132 150.507 246.709 150.7 246.104 150.7C245.794 150.7 245.529 150.638 245.309 150.514C245.096 150.397 244.917 150.229 244.773 150.009C244.628 149.782 244.501 149.517 244.391 149.214C244.281 148.905 244.195 148.661 244.133 148.482L241.853 141.735C241.626 141.102 241.513 140.665 241.513 140.425C241.513 140.122 241.633 139.85 241.874 139.61C242.115 139.369 242.41 139.249 242.761 139.249C243.229 139.249 243.545 139.383 243.71 139.651C243.875 139.912 244.051 140.363 244.236 141.002ZM266.499 149.111C265.818 149.641 265.158 150.04 264.518 150.308C263.885 150.569 263.174 150.7 262.383 150.7C261.661 150.7 261.024 150.559 260.474 150.277C259.931 149.988 259.511 149.599 259.216 149.111C258.92 148.623 258.772 148.093 258.772 147.522C258.772 146.752 259.016 146.095 259.504 145.552C259.993 145.009 260.663 144.644 261.516 144.458C261.695 144.417 262.139 144.324 262.847 144.18C263.555 144.035 264.161 143.905 264.663 143.788C265.172 143.664 265.722 143.516 266.313 143.344C266.279 142.601 266.128 142.058 265.859 141.714C265.598 141.363 265.051 141.188 264.219 141.188C263.504 141.188 262.964 141.288 262.599 141.487C262.242 141.687 261.932 141.986 261.671 142.385C261.416 142.784 261.234 143.049 261.124 143.179C261.021 143.303 260.794 143.365 260.443 143.365C260.127 143.365 259.852 143.265 259.618 143.066C259.391 142.859 259.278 142.598 259.278 142.282C259.278 141.786 259.453 141.305 259.804 140.837C260.154 140.37 260.701 139.985 261.444 139.682C262.187 139.379 263.112 139.228 264.219 139.228C265.457 139.228 266.43 139.376 267.139 139.672C267.847 139.96 268.346 140.421 268.634 141.054C268.93 141.687 269.078 142.526 269.078 143.571C269.078 144.231 269.075 144.792 269.068 145.253C269.068 145.714 269.064 146.226 269.057 146.79C269.057 147.319 269.143 147.873 269.315 148.451C269.494 149.022 269.584 149.39 269.584 149.555C269.584 149.844 269.446 150.108 269.171 150.349C268.903 150.583 268.597 150.7 268.253 150.7C267.964 150.7 267.678 150.566 267.396 150.297C267.115 150.022 266.815 149.627 266.499 149.111ZM266.313 145.036C265.901 145.187 265.299 145.349 264.508 145.521C263.724 145.686 263.181 145.81 262.878 145.892C262.575 145.968 262.286 146.123 262.011 146.357C261.736 146.584 261.599 146.903 261.599 147.316C261.599 147.742 261.76 148.107 262.084 148.41C262.407 148.705 262.83 148.853 263.352 148.853C263.91 148.853 264.422 148.733 264.89 148.492C265.364 148.245 265.711 147.928 265.932 147.543C266.186 147.117 266.313 146.415 266.313 145.438V145.036ZM274.742 146.635V148.987C274.742 149.558 274.608 149.988 274.339 150.277C274.071 150.559 273.731 150.7 273.318 150.7C272.912 150.7 272.579 150.555 272.317 150.267C272.056 149.978 271.925 149.551 271.925 148.987V141.147C271.925 139.881 272.383 139.249 273.297 139.249C273.765 139.249 274.102 139.397 274.308 139.692C274.515 139.988 274.628 140.425 274.649 141.002C274.986 140.425 275.33 139.988 275.681 139.692C276.038 139.397 276.513 139.249 277.104 139.249C277.696 139.249 278.27 139.397 278.827 139.692C279.384 139.988 279.663 140.38 279.663 140.868C279.663 141.212 279.542 141.498 279.302 141.725C279.068 141.945 278.813 142.055 278.538 142.055C278.435 142.055 278.184 141.993 277.785 141.869C277.393 141.738 277.046 141.673 276.743 141.673C276.33 141.673 275.993 141.783 275.732 142.003C275.471 142.216 275.268 142.536 275.123 142.963C274.979 143.389 274.879 143.898 274.824 144.489C274.769 145.074 274.742 145.789 274.742 146.635ZM288.535 145.665H283.026C283.033 146.305 283.16 146.869 283.407 147.357C283.662 147.846 283.996 148.214 284.408 148.461C284.828 148.709 285.288 148.833 285.791 148.833C286.128 148.833 286.434 148.795 286.709 148.719C286.991 148.637 287.262 148.513 287.524 148.348C287.785 148.176 288.026 147.993 288.246 147.801C288.466 147.608 288.751 147.347 289.102 147.017C289.247 146.893 289.453 146.831 289.721 146.831C290.01 146.831 290.244 146.91 290.423 147.068C290.601 147.227 290.691 147.45 290.691 147.739C290.691 147.993 290.591 148.293 290.392 148.637C290.192 148.974 289.89 149.3 289.484 149.617C289.085 149.926 288.579 150.184 287.967 150.39C287.362 150.597 286.664 150.7 285.873 150.7C284.064 150.7 282.658 150.184 281.654 149.152C280.65 148.121 280.148 146.721 280.148 144.954C280.148 144.121 280.271 143.351 280.519 142.643C280.766 141.927 281.128 141.315 281.602 140.806C282.077 140.297 282.661 139.909 283.356 139.641C284.051 139.366 284.821 139.228 285.667 139.228C286.767 139.228 287.709 139.462 288.493 139.93C289.284 140.39 289.876 140.989 290.268 141.725C290.66 142.46 290.856 143.21 290.856 143.974C290.856 144.682 290.653 145.143 290.247 145.356C289.841 145.562 289.271 145.665 288.535 145.665ZM283.026 144.066H288.132C288.064 143.104 287.802 142.385 287.348 141.91C286.901 141.429 286.31 141.188 285.574 141.188C284.872 141.188 284.295 141.432 283.841 141.921C283.394 142.402 283.122 143.117 283.026 144.066ZM131.035 161.681H124.133V165.394H130.488C130.956 165.394 131.303 165.501 131.53 165.714C131.764 165.921 131.881 166.196 131.881 166.54C131.881 166.883 131.767 167.165 131.54 167.386C131.313 167.599 130.963 167.705 130.488 167.705H124.133V172.007H131.272C131.754 172.007 132.115 172.121 132.355 172.348C132.603 172.568 132.727 172.863 132.727 173.235C132.727 173.593 132.603 173.885 132.355 174.112C132.115 174.332 131.754 174.442 131.272 174.442H122.947C122.28 174.442 121.798 174.294 121.503 173.998C121.214 173.703 121.069 173.225 121.069 172.564V161.196C121.069 160.756 121.135 160.398 121.265 160.123C121.396 159.841 121.599 159.638 121.874 159.514C122.156 159.383 122.514 159.318 122.947 159.318H131.035C131.523 159.318 131.884 159.428 132.118 159.648C132.359 159.861 132.479 160.143 132.479 160.494C132.479 160.852 132.359 161.141 132.118 161.361C131.884 161.574 131.523 161.681 131.035 161.681ZM137.524 164.806V165.147C138.019 164.493 138.559 164.015 139.143 163.713C139.735 163.403 140.412 163.249 141.176 163.249C141.919 163.249 142.582 163.41 143.167 163.734C143.751 164.057 144.188 164.514 144.477 165.106C144.663 165.449 144.783 165.821 144.838 166.22C144.893 166.619 144.921 167.128 144.921 167.747V172.987C144.921 173.551 144.79 173.978 144.529 174.267C144.274 174.555 143.941 174.7 143.528 174.7C143.108 174.7 142.768 174.552 142.507 174.256C142.245 173.96 142.115 173.537 142.115 172.987V168.293C142.115 167.365 141.984 166.656 141.723 166.168C141.468 165.673 140.956 165.425 140.185 165.425C139.683 165.425 139.226 165.577 138.813 165.879C138.401 166.175 138.098 166.584 137.906 167.107C137.768 167.526 137.699 168.311 137.699 169.459V172.987C137.699 173.558 137.565 173.988 137.297 174.277C137.036 174.559 136.695 174.7 136.276 174.7C135.87 174.7 135.536 174.552 135.275 174.256C135.014 173.96 134.883 173.537 134.883 172.987V164.848C134.883 164.311 135 163.912 135.234 163.651C135.467 163.383 135.787 163.249 136.193 163.249C136.441 163.249 136.664 163.307 136.864 163.424C137.063 163.541 137.221 163.716 137.338 163.95C137.462 164.184 137.524 164.469 137.524 164.806ZM158.095 165.312V173.493C158.095 174.428 157.995 175.233 157.795 175.907C157.596 176.581 157.276 177.138 156.836 177.578C156.396 178.018 155.818 178.345 155.103 178.558C154.395 178.771 153.511 178.878 152.452 178.878C151.482 178.878 150.615 178.74 149.852 178.465C149.088 178.197 148.5 177.846 148.088 177.413C147.675 176.987 147.469 176.546 147.469 176.093C147.469 175.749 147.586 175.467 147.82 175.247C148.053 175.033 148.335 174.927 148.665 174.927C149.078 174.927 149.439 175.109 149.749 175.474C149.9 175.659 150.055 175.845 150.213 176.031C150.378 176.223 150.557 176.385 150.749 176.515C150.949 176.653 151.186 176.753 151.461 176.815C151.736 176.883 152.053 176.918 152.41 176.918C153.139 176.918 153.703 176.815 154.102 176.608C154.508 176.409 154.79 176.127 154.948 175.762C155.113 175.398 155.21 175.006 155.237 174.586C155.265 174.174 155.285 173.507 155.299 172.585C154.866 173.19 154.364 173.651 153.793 173.967C153.229 174.284 152.555 174.442 151.771 174.442C150.828 174.442 150.003 174.201 149.295 173.72C148.593 173.238 148.053 172.564 147.675 171.698C147.297 170.831 147.108 169.83 147.108 168.696C147.108 167.85 147.221 167.086 147.448 166.405C147.682 165.725 148.012 165.15 148.439 164.683C148.865 164.215 149.357 163.864 149.914 163.63C150.471 163.39 151.083 163.269 151.75 163.269C152.548 163.269 153.239 163.424 153.824 163.734C154.408 164.036 154.952 164.514 155.454 165.167V164.786C155.454 164.297 155.574 163.919 155.815 163.651C156.055 163.383 156.365 163.249 156.743 163.249C157.287 163.249 157.648 163.427 157.826 163.785C158.005 164.136 158.095 164.645 158.095 165.312ZM149.934 168.881C149.934 170.023 150.182 170.886 150.677 171.471C151.179 172.055 151.826 172.348 152.617 172.348C153.084 172.348 153.524 172.224 153.937 171.976C154.357 171.722 154.697 171.344 154.958 170.841C155.22 170.333 155.35 169.717 155.35 168.995C155.35 167.846 155.096 166.952 154.587 166.313C154.085 165.673 153.421 165.353 152.596 165.353C151.791 165.353 151.145 165.659 150.657 166.271C150.175 166.883 149.934 167.753 149.934 168.881ZM163.758 164.848V172.987C163.758 173.551 163.624 173.978 163.356 174.267C163.088 174.555 162.747 174.7 162.335 174.7C161.922 174.7 161.585 174.552 161.324 174.256C161.069 173.96 160.942 173.537 160.942 172.987V164.93C160.942 164.373 161.069 163.954 161.324 163.672C161.585 163.39 161.922 163.249 162.335 163.249C162.747 163.249 163.088 163.39 163.356 163.672C163.624 163.954 163.758 164.346 163.758 164.848ZM162.366 161.938C161.974 161.938 161.637 161.818 161.355 161.577C161.08 161.337 160.942 160.996 160.942 160.556C160.942 160.157 161.083 159.83 161.365 159.576C161.654 159.315 161.987 159.184 162.366 159.184C162.73 159.184 163.053 159.301 163.335 159.535C163.617 159.769 163.758 160.109 163.758 160.556C163.758 160.989 163.621 161.33 163.346 161.577C163.071 161.818 162.744 161.938 162.366 161.938ZM169.236 164.806V165.147C169.732 164.493 170.271 164.015 170.856 163.713C171.447 163.403 172.125 163.249 172.888 163.249C173.631 163.249 174.295 163.41 174.879 163.734C175.464 164.057 175.901 164.514 176.19 165.106C176.375 165.449 176.496 165.821 176.551 166.22C176.606 166.619 176.633 167.128 176.633 167.747V172.987C176.633 173.551 176.502 173.978 176.241 174.267C175.987 174.555 175.653 174.7 175.24 174.7C174.821 174.7 174.48 174.552 174.219 174.256C173.958 173.96 173.827 173.537 173.827 172.987V168.293C173.827 167.365 173.696 166.656 173.435 166.168C173.181 165.673 172.668 165.425 171.898 165.425C171.396 165.425 170.939 165.577 170.526 165.879C170.113 166.175 169.811 166.584 169.618 167.107C169.48 167.526 169.412 168.311 169.412 169.459V172.987C169.412 173.558 169.278 173.988 169.009 174.277C168.748 174.559 168.408 174.7 167.988 174.7C167.582 174.7 167.249 174.552 166.987 174.256C166.726 173.96 166.595 173.537 166.595 172.987V164.848C166.595 164.311 166.712 163.912 166.946 163.651C167.18 163.383 167.5 163.249 167.906 163.249C168.153 163.249 168.377 163.307 168.576 163.424C168.776 163.541 168.934 163.716 169.051 163.95C169.174 164.184 169.236 164.469 169.236 164.806ZM187.311 169.665H181.802C181.809 170.305 181.936 170.869 182.183 171.357C182.438 171.846 182.771 172.214 183.184 172.461C183.604 172.709 184.064 172.833 184.566 172.833C184.903 172.833 185.209 172.795 185.485 172.719C185.767 172.637 186.038 172.513 186.3 172.348C186.561 172.176 186.802 171.993 187.022 171.801C187.242 171.608 187.527 171.347 187.878 171.017C188.022 170.893 188.229 170.831 188.497 170.831C188.786 170.831 189.02 170.91 189.198 171.068C189.377 171.227 189.467 171.45 189.467 171.739C189.467 171.993 189.367 172.293 189.168 172.637C188.968 172.974 188.665 173.3 188.26 173.617C187.861 173.926 187.355 174.184 186.743 174.39C186.138 174.597 185.44 174.7 184.649 174.7C182.84 174.7 181.434 174.184 180.43 173.152C179.425 172.121 178.923 170.721 178.923 168.954C178.923 168.121 179.047 167.351 179.295 166.643C179.542 165.927 179.903 165.315 180.378 164.806C180.853 164.297 181.437 163.909 182.132 163.641C182.826 163.366 183.597 163.228 184.443 163.228C185.543 163.228 186.485 163.462 187.269 163.93C188.06 164.39 188.652 164.989 189.044 165.725C189.436 166.46 189.632 167.21 189.632 167.974C189.632 168.682 189.429 169.143 189.023 169.356C188.617 169.562 188.046 169.665 187.311 169.665ZM181.802 168.066H186.908C186.839 167.104 186.578 166.385 186.124 165.91C185.677 165.429 185.086 165.188 184.35 165.188C183.648 165.188 183.071 165.432 182.617 165.921C182.17 166.402 181.898 167.117 181.802 168.066ZM199.876 169.665H194.367C194.374 170.305 194.501 170.869 194.749 171.357C195.003 171.846 195.337 172.214 195.749 172.461C196.169 172.709 196.63 172.833 197.132 172.833C197.469 172.833 197.775 172.795 198.05 172.719C198.332 172.637 198.604 172.513 198.865 172.348C199.126 172.176 199.367 171.993 199.587 171.801C199.807 171.608 200.093 171.347 200.443 171.017C200.588 170.893 200.794 170.831 201.062 170.831C201.351 170.831 201.585 170.91 201.764 171.068C201.943 171.227 202.032 171.45 202.032 171.739C202.032 171.993 201.932 172.293 201.733 172.637C201.533 172.974 201.231 173.3 200.825 173.617C200.426 173.926 199.921 174.184 199.309 174.39C198.703 174.597 198.005 174.7 197.214 174.7C195.405 174.7 193.999 174.184 192.995 173.152C191.991 172.121 191.489 170.721 191.489 168.954C191.489 168.121 191.613 167.351 191.86 166.643C192.108 165.927 192.469 165.315 192.943 164.806C193.418 164.297 194.002 163.909 194.697 163.641C195.392 163.366 196.162 163.228 197.008 163.228C198.108 163.228 199.051 163.462 199.835 163.93C200.626 164.39 201.217 164.989 201.609 165.725C202.001 166.46 202.197 167.21 202.197 167.974C202.197 168.682 201.994 169.143 201.588 169.356C201.183 169.562 200.612 169.665 199.876 169.665ZM194.367 168.066H199.474C199.405 167.104 199.143 166.385 198.69 165.91C198.242 165.429 197.651 165.188 196.915 165.188C196.214 165.188 195.636 165.432 195.182 165.921C194.735 166.402 194.463 167.117 194.367 168.066ZM207.376 170.635V172.987C207.376 173.558 207.242 173.988 206.974 174.277C206.705 174.559 206.365 174.7 205.952 174.7C205.546 174.7 205.213 174.555 204.952 174.267C204.69 173.978 204.56 173.551 204.56 172.987V165.147C204.56 163.881 205.017 163.249 205.932 163.249C206.399 163.249 206.736 163.397 206.943 163.692C207.149 163.988 207.262 164.425 207.283 165.002C207.62 164.425 207.964 163.988 208.315 163.692C208.672 163.397 209.147 163.249 209.738 163.249C210.33 163.249 210.904 163.397 211.461 163.692C212.018 163.988 212.297 164.38 212.297 164.868C212.297 165.212 212.176 165.498 211.936 165.725C211.702 165.945 211.447 166.055 211.172 166.055C211.069 166.055 210.818 165.993 210.419 165.869C210.027 165.738 209.68 165.673 209.377 165.673C208.965 165.673 208.628 165.783 208.366 166.003C208.105 166.216 207.902 166.536 207.758 166.963C207.613 167.389 207.513 167.898 207.458 168.489C207.403 169.074 207.376 169.789 207.376 170.635Z" fill="black"/>
<rect x="45.9302" y="51.4419" width="55.1163" height="30.314" rx="9.18605" fill="#E9A453"/>
<rect x="45.9302" y="133.198" width="55.1163" height="30.314" rx="9.18605" fill="#EE8A7C"/>
<rect x="45.9302" y="214.954" width="55.1163" height="30.314" rx="9.18605" fill="#C9E873"/>
<rect x="45.9302" y="307.732" width="55.1163" height="30.314" rx="9.18605" fill="#A8ECC3"/>
</svg>
