<svg width="240" height="181" viewBox="0 0 240 181" fill="none" xmlns="http://www.w3.org/2000/svg">
<path d="M22.0331 163.543H41.7962C43.2348 163.543 44.4011 162.377 44.4011 160.938V154.894C44.4011 153.456 43.2348 152.289 41.7962 152.289H22.0331C20.5944 152.289 19.4281 153.456 19.4281 154.894V160.938C19.4281 162.377 20.5944 163.543 22.0331 163.543Z" fill="#F7941D"/>
<path d="M165.272 9.71051C161.224 9.54092 157.184 10.1851 153.389 11.605C149.595 13.0249 146.124 15.1917 143.182 17.977C140.313 20.7728 138.025 24.1089 136.452 27.7929C134.878 31.4769 134.049 35.436 134.012 39.4419V58.5103" stroke="#F7941D" stroke-width="13.8932" stroke-miterlimit="10"/>
<path d="M194.343 82.9624H79.1689C53.9631 82.9624 33.5298 103.396 33.5298 128.602V134.715C33.5298 159.92 53.9631 180.354 79.1689 180.354H194.343C219.549 180.354 239.983 159.92 239.983 134.715V128.602C239.983 103.396 219.549 82.9624 194.343 82.9624Z" fill="#F16B51"/>
<path d="M210.668 95.8134H173.017C161.316 95.8134 151.83 105.299 151.83 117V128.844C151.83 140.546 161.316 150.032 173.017 150.032H210.668C222.369 150.032 231.855 140.546 231.855 128.844V117C231.855 105.299 222.369 95.8134 210.668 95.8134Z" fill="#96BCC9"/>
<path d="M177.811 47.9167H95.4935C88.1274 47.9167 82.156 53.8881 82.156 61.2542V76.5715C82.156 83.9375 88.1274 89.9089 95.4935 89.9089H177.811C185.177 89.9089 191.148 83.9375 191.148 76.5715V61.2542C191.148 53.8881 185.177 47.9167 177.811 47.9167Z" fill="#F16B51"/>
<path d="M189.307 73.793H83.9622C80.8546 73.793 78.3354 76.3121 78.3354 79.4197C78.3354 82.5273 80.8546 85.0465 83.9622 85.0465H189.307C192.415 85.0465 194.934 82.5273 194.934 79.4197C194.934 76.3121 192.415 73.793 189.307 73.793Z" fill="#F7941D"/>
<path d="M163.952 1.9304V17.3866C163.952 18.1155 164.543 18.7064 165.272 18.7064H166.627C167.356 18.7064 167.946 18.1155 167.946 17.3866V1.9304C167.946 1.20147 167.356 0.610546 166.627 0.610546H165.272C164.543 0.610546 163.952 1.20147 163.952 1.9304Z" fill="#F16B51"/>
<path d="M118.139 141.557C128.421 141.557 136.756 133.222 136.756 122.94C136.756 112.658 128.421 104.323 118.139 104.323C107.858 104.323 99.5225 112.658 99.5225 122.94C99.5225 133.222 107.858 141.557 118.139 141.557Z" fill="#96BCC9"/>
<path d="M69.3741 141.557C79.6559 141.557 87.9909 133.222 87.9909 122.94C87.9909 112.658 79.6559 104.323 69.3741 104.323C59.0923 104.323 50.7572 112.658 50.7572 122.94C50.7572 133.222 59.0923 141.557 69.3741 141.557Z" fill="#96BCC9"/>
<path d="M28.2505 167.016C28.3913 168.604 27.9815 170.193 27.0897 171.515C26.198 172.836 24.8786 173.811 23.3532 174.275C21.7711 174.53 20.1495 174.23 18.7632 173.426C17.3769 172.623 16.3112 171.364 15.7467 169.864C15.2951 168.51 15.7467 168.128 17.4833 161.355C18.4211 157.638 18.6295 156.318 19.4631 156.145C20.2967 155.971 20.9566 157.221 23.1448 160.104C27.1391 165.21 28.0769 165.245 28.2505 167.016Z" fill="#96BCC9"/>
<path d="M4.24989 157.603C2.89619 156.818 1.84751 155.598 1.27383 154.142C0.700148 152.685 0.635086 151.078 1.08919 149.58C1.76597 148.128 2.9241 146.954 4.36735 146.257C5.8106 145.561 7.45019 145.385 9.00831 145.76C10.3976 146.107 10.4324 146.767 15.0518 151.977C17.6221 154.825 18.5251 155.763 18.282 156.527C18.0389 157.291 16.5454 157.152 12.9331 157.326C6.40333 157.673 5.84761 158.437 4.24989 157.603Z" fill="#96BCC9"/>
<path d="M23.9434 142.668C25.2546 141.816 26.8148 141.432 28.3717 141.577C29.9286 141.722 31.391 142.388 32.5224 143.467C33.5441 144.71 34.1027 146.269 34.1027 147.878C34.1027 149.487 33.5441 151.046 32.5224 152.289C31.5499 153.366 30.9941 153.088 24.256 154.894C20.5395 155.867 19.2544 156.353 18.7334 155.693C18.2124 155.033 18.9418 153.852 20.4006 150.553C22.9014 144.509 22.4846 143.675 23.9434 142.668Z" fill="#96BCC9"/>
<path d="M18.9765 158.958C20.607 158.958 21.9288 157.636 21.9288 156.006C21.9288 154.375 20.607 153.053 18.9765 153.053C17.346 153.053 16.0242 154.375 16.0242 156.006C16.0242 157.636 17.346 158.958 18.9765 158.958Z" fill="#939598"/>
<path d="M141.932 146.524H68.5755C64.9117 146.524 61.9415 149.494 61.9415 153.158V163.578C61.9415 167.241 64.9117 170.212 68.5755 170.212H141.932C145.595 170.212 148.566 167.241 148.566 163.578V153.158C148.566 149.494 145.595 146.524 141.932 146.524Z" fill="white"/>
<path d="M78.269 162.35C78.269 162.942 78.1247 163.451 77.8362 163.876C77.5477 164.296 77.1201 164.616 76.5535 164.836C75.9922 165.051 75.3076 165.159 74.4997 165.159C73.7285 165.159 73.0675 165.041 72.5166 164.805C71.9658 164.569 71.5592 164.275 71.2969 163.923C71.0346 163.567 70.9034 163.21 70.9034 162.853C70.9034 162.617 70.9874 162.415 71.1553 162.247C71.3231 162.079 71.5356 161.995 71.7927 161.995C72.0182 161.995 72.1914 162.051 72.312 162.161C72.4327 162.271 72.5481 162.426 72.6583 162.625C72.8786 163.008 73.1409 163.294 73.4452 163.483C73.7547 163.672 74.1744 163.766 74.7043 163.766C75.1344 163.766 75.4859 163.672 75.7587 163.483C76.0368 163.289 76.1758 163.068 76.1758 162.822C76.1758 162.444 76.0315 162.169 75.743 161.995C75.4597 161.822 74.9902 161.657 74.3344 161.5C73.5947 161.316 72.9914 161.125 72.5245 160.925C72.0628 160.721 71.693 160.453 71.4149 160.123C71.1369 159.792 70.9979 159.386 70.9979 158.903C70.9979 158.473 71.1264 158.066 71.3835 157.683C71.6405 157.3 72.0182 156.996 72.5166 156.77C73.0203 156.54 73.6262 156.424 74.3344 156.424C74.8905 156.424 75.3889 156.482 75.8296 156.597C76.2755 156.713 76.6453 156.867 76.9391 157.061C77.2381 157.256 77.4637 157.471 77.6159 157.707C77.7732 157.943 77.8519 158.174 77.8519 158.399C77.8519 158.646 77.768 158.848 77.6001 159.005C77.4375 159.163 77.204 159.241 76.8998 159.241C76.6794 159.241 76.4906 159.178 76.3332 159.052C76.181 158.926 76.0053 158.738 75.8059 158.486C75.6433 158.276 75.4518 158.108 75.2315 157.982C75.0112 157.856 74.7121 157.793 74.3344 157.793C73.9462 157.793 73.6236 157.877 73.3665 158.045C73.1094 158.208 72.9809 158.412 72.9809 158.659C72.9809 158.885 73.0753 159.071 73.2642 159.218C73.4531 159.359 73.7075 159.477 74.0275 159.572C74.3475 159.666 74.7882 159.782 75.3495 159.918C76.0158 160.081 76.5588 160.275 76.9785 160.5C77.4034 160.726 77.7234 160.993 77.9385 161.303C78.1588 161.607 78.269 161.956 78.269 162.35ZM80.2048 156.613H80.4409V155.322C80.4409 154.976 80.4488 154.706 80.4645 154.512C80.4855 154.313 80.538 154.142 80.6219 154C80.7058 153.853 80.8265 153.735 80.9839 153.646C81.1413 153.552 81.317 153.505 81.5111 153.505C81.7839 153.505 82.0305 153.607 82.2508 153.812C82.3977 153.948 82.4895 154.116 82.5262 154.315C82.5682 154.509 82.5892 154.787 82.5892 155.149V156.613H83.3761C83.6804 156.613 83.9112 156.686 84.0686 156.833C84.2312 156.975 84.3125 157.159 84.3125 157.384C84.3125 157.673 84.1971 157.875 83.9663 157.99C83.7407 158.105 83.4155 158.163 82.9905 158.163H82.5892V162.114C82.5892 162.449 82.5997 162.709 82.6207 162.893C82.6469 163.071 82.7098 163.218 82.8095 163.333C82.9144 163.443 83.0823 163.498 83.3132 163.498C83.4391 163.498 83.6096 163.478 83.8246 163.436C84.0397 163.388 84.2076 163.365 84.3283 163.365C84.5014 163.365 84.6562 163.436 84.7926 163.577C84.9342 163.714 85.005 163.884 85.005 164.089C85.005 164.435 84.8162 164.7 84.4384 164.883C84.0607 165.067 83.5178 165.159 82.8095 165.159C82.138 165.159 81.6291 165.046 81.2829 164.821C80.9367 164.595 80.7085 164.283 80.5983 163.884C80.4934 163.485 80.4409 162.953 80.4409 162.287V158.163H80.1576C79.8481 158.163 79.612 158.09 79.4494 157.943C79.2868 157.796 79.2054 157.61 79.2054 157.384C79.2054 157.159 79.2894 156.975 79.4573 156.833C79.6304 156.686 79.8796 156.613 80.2048 156.613ZM91.2296 163.947C90.7102 164.351 90.2066 164.655 89.7187 164.86C89.236 165.059 88.6931 165.159 88.0897 165.159C87.5389 165.159 87.0536 165.051 86.6339 164.836C86.2195 164.616 85.8995 164.32 85.6739 163.947C85.4483 163.575 85.3355 163.171 85.3355 162.735C85.3355 162.148 85.5218 161.647 85.8942 161.232C86.2667 160.818 86.7782 160.54 87.4287 160.398C87.5651 160.367 87.9035 160.296 88.4439 160.186C88.9842 160.075 89.4459 159.976 89.8288 159.887C90.2171 159.792 90.6367 159.679 91.0879 159.548C91.0617 158.982 90.9463 158.567 90.7417 158.305C90.5423 158.037 90.1252 157.903 89.4905 157.903C88.9449 157.903 88.533 157.98 88.255 158.132C87.9822 158.284 87.7461 158.512 87.5468 158.816C87.3527 159.121 87.2136 159.323 87.1297 159.422C87.051 159.517 86.8779 159.564 86.6103 159.564C86.369 159.564 86.1592 159.488 85.9808 159.336C85.8077 159.178 85.7211 158.979 85.7211 158.738C85.7211 158.36 85.8549 157.993 86.1225 157.636C86.39 157.279 86.8071 156.985 87.3737 156.755C87.9402 156.524 88.6458 156.408 89.4905 156.408C90.4348 156.408 91.1771 156.521 91.7174 156.747C92.2578 156.967 92.6381 157.319 92.8585 157.801C93.0841 158.284 93.1969 158.924 93.1969 159.721C93.1969 160.225 93.1942 160.652 93.189 161.004C93.189 161.355 93.1864 161.746 93.1811 162.176C93.1811 162.58 93.2467 163.003 93.3778 163.443C93.5142 163.879 93.5824 164.16 93.5824 164.285C93.5824 164.506 93.4775 164.708 93.2677 164.891C93.0631 165.07 92.8296 165.159 92.5673 165.159C92.347 165.159 92.1293 165.057 91.9142 164.852C91.6991 164.642 91.4709 164.34 91.2296 163.947ZM91.0879 160.839C90.7731 160.954 90.3141 161.077 89.7108 161.209C89.1127 161.334 88.6983 161.429 88.4675 161.492C88.2366 161.55 88.0163 161.668 87.8065 161.846C87.5966 162.019 87.4917 162.263 87.4917 162.578C87.4917 162.903 87.615 163.181 87.8615 163.412C88.1081 163.638 88.4307 163.75 88.8295 163.75C89.2544 163.75 89.6452 163.658 90.002 163.475C90.3639 163.286 90.6289 163.045 90.7967 162.751C90.9909 162.426 91.0879 161.891 91.0879 161.146V160.839ZM95.0933 156.613H95.3294V155.322C95.3294 154.976 95.3373 154.706 95.353 154.512C95.374 154.313 95.4265 154.142 95.5104 154C95.5943 153.853 95.715 153.735 95.8724 153.646C96.0298 153.552 96.2055 153.505 96.3996 153.505C96.6724 153.505 96.919 153.607 97.1393 153.812C97.2862 153.948 97.378 154.116 97.4147 154.315C97.4567 154.509 97.4777 154.787 97.4777 155.149V156.613H98.2646C98.5689 156.613 98.7997 156.686 98.9571 156.833C99.1197 156.975 99.201 157.159 99.201 157.384C99.201 157.673 99.0856 157.875 98.8548 157.99C98.6292 158.105 98.304 158.163 97.879 158.163H97.4777V162.114C97.4777 162.449 97.4882 162.709 97.5092 162.893C97.5354 163.071 97.5984 163.218 97.698 163.333C97.803 163.443 97.9708 163.498 98.2017 163.498C98.3276 163.498 98.4981 163.478 98.7132 163.436C98.9282 163.388 99.0961 163.365 99.2168 163.365C99.3899 163.365 99.5447 163.436 99.6811 163.577C99.8227 163.714 99.8935 163.884 99.8935 164.089C99.8935 164.435 99.7047 164.7 99.327 164.883C98.9492 165.067 98.4063 165.159 97.698 165.159C97.0265 165.159 96.5177 165.046 96.1714 164.821C95.8252 164.595 95.597 164.283 95.4868 163.884C95.3819 163.485 95.3294 162.953 95.3294 162.287V158.163H95.0461C94.7366 158.163 94.5005 158.09 94.3379 157.943C94.1753 157.796 94.0939 157.61 94.0939 157.384C94.0939 157.159 94.1779 156.975 94.3458 156.833C94.5189 156.686 94.7681 156.613 95.0933 156.613ZM102.837 157.644V163.853C102.837 164.283 102.734 164.608 102.53 164.828C102.325 165.049 102.065 165.159 101.751 165.159C101.436 165.159 101.179 165.046 100.979 164.821C100.785 164.595 100.688 164.272 100.688 163.853V157.707C100.688 157.282 100.785 156.962 100.979 156.747C101.179 156.532 101.436 156.424 101.751 156.424C102.065 156.424 102.325 156.532 102.53 156.747C102.734 156.962 102.837 157.261 102.837 157.644ZM101.774 155.425C101.475 155.425 101.218 155.333 101.003 155.149C100.793 154.966 100.688 154.706 100.688 154.37C100.688 154.066 100.796 153.817 101.011 153.623C101.231 153.423 101.486 153.324 101.774 153.324C102.052 153.324 102.299 153.413 102.514 153.591C102.729 153.77 102.837 154.029 102.837 154.37C102.837 154.701 102.732 154.96 102.522 155.149C102.312 155.333 102.063 155.425 101.774 155.425ZM111.981 162.35C111.981 162.942 111.836 163.451 111.548 163.876C111.259 164.296 110.832 164.616 110.265 164.836C109.704 165.051 109.019 165.159 108.211 165.159C107.44 165.159 106.779 165.041 106.228 164.805C105.677 164.569 105.271 164.275 105.009 163.923C104.746 163.567 104.615 163.21 104.615 162.853C104.615 162.617 104.699 162.415 104.867 162.247C105.035 162.079 105.247 161.995 105.504 161.995C105.73 161.995 105.903 162.051 106.024 162.161C106.144 162.271 106.26 162.426 106.37 162.625C106.59 163.008 106.853 163.294 107.157 163.483C107.466 163.672 107.886 163.766 108.416 163.766C108.846 163.766 109.198 163.672 109.47 163.483C109.748 163.289 109.887 163.068 109.887 162.822C109.887 162.444 109.743 162.169 109.455 161.995C109.171 161.822 108.702 161.657 108.046 161.5C107.306 161.316 106.703 161.125 106.236 160.925C105.774 160.721 105.405 160.453 105.127 160.123C104.848 159.792 104.709 159.386 104.709 158.903C104.709 158.473 104.838 158.066 105.095 157.683C105.352 157.3 105.73 156.996 106.228 156.77C106.732 156.54 107.338 156.424 108.046 156.424C108.602 156.424 109.1 156.482 109.541 156.597C109.987 156.713 110.357 156.867 110.651 157.061C110.95 157.256 111.175 157.471 111.327 157.707C111.485 157.943 111.564 158.174 111.564 158.399C111.564 158.646 111.48 158.848 111.312 159.005C111.149 159.163 110.916 159.241 110.611 159.241C110.391 159.241 110.202 159.178 110.045 159.052C109.893 158.926 109.717 158.738 109.518 158.486C109.355 158.276 109.163 158.108 108.943 157.982C108.723 157.856 108.424 157.793 108.046 157.793C107.658 157.793 107.335 157.877 107.078 158.045C106.821 158.208 106.693 158.412 106.693 158.659C106.693 158.885 106.787 159.071 106.976 159.218C107.165 159.359 107.419 159.477 107.739 159.572C108.059 159.666 108.5 159.782 109.061 159.918C109.727 160.081 110.27 160.275 110.69 160.5C111.115 160.726 111.435 160.993 111.65 161.303C111.87 161.607 111.981 161.956 111.981 162.35ZM113.916 156.613H114.153V155.322C114.153 154.976 114.16 154.706 114.176 154.512C114.197 154.313 114.25 154.142 114.333 154C114.417 153.853 114.538 153.735 114.695 153.646C114.853 153.552 115.029 153.505 115.223 153.505C115.496 153.505 115.742 153.607 115.962 153.812C116.109 153.948 116.201 154.116 116.238 154.315C116.28 154.509 116.301 154.787 116.301 155.149V156.613H117.088C117.392 156.613 117.623 156.686 117.78 156.833C117.943 156.975 118.024 157.159 118.024 157.384C118.024 157.673 117.909 157.875 117.678 157.99C117.452 158.105 117.127 158.163 116.702 158.163H116.301V162.114C116.301 162.449 116.311 162.709 116.332 162.893C116.358 163.071 116.421 163.218 116.521 163.333C116.626 163.443 116.794 163.498 117.025 163.498C117.151 163.498 117.321 163.478 117.536 163.436C117.751 163.388 117.919 163.365 118.04 163.365C118.213 163.365 118.368 163.436 118.504 163.577C118.646 163.714 118.717 163.884 118.717 164.089C118.717 164.435 118.528 164.7 118.15 164.883C117.772 165.067 117.229 165.159 116.521 165.159C115.85 165.159 115.341 165.046 114.995 164.821C114.648 164.595 114.42 164.283 114.31 163.884C114.205 163.485 114.153 162.953 114.153 162.287V158.163H113.869C113.56 158.163 113.324 158.09 113.161 157.943C112.998 157.796 112.917 157.61 112.917 157.384C112.917 157.159 113.001 156.975 113.169 156.833C113.342 156.686 113.591 156.613 113.916 156.613ZM121.66 157.644V163.853C121.66 164.283 121.557 164.608 121.353 164.828C121.148 165.049 120.889 165.159 120.574 165.159C120.259 165.159 120.002 165.046 119.803 164.821C119.608 164.595 119.511 164.272 119.511 163.853V157.707C119.511 157.282 119.608 156.962 119.803 156.747C120.002 156.532 120.259 156.424 120.574 156.424C120.889 156.424 121.148 156.532 121.353 156.747C121.557 156.962 121.66 157.261 121.66 157.644ZM120.597 155.425C120.298 155.425 120.041 155.333 119.826 155.149C119.616 154.966 119.511 154.706 119.511 154.37C119.511 154.066 119.619 153.817 119.834 153.623C120.054 153.423 120.309 153.324 120.597 153.324C120.875 153.324 121.122 153.413 121.337 153.591C121.552 153.77 121.66 154.029 121.66 154.37C121.66 154.701 121.555 154.96 121.345 155.149C121.135 155.333 120.886 155.425 120.597 155.425ZM131.591 162.499C131.591 162.767 131.509 163.053 131.347 163.357C131.189 163.661 130.945 163.952 130.615 164.23C130.29 164.503 129.878 164.723 129.379 164.891C128.881 165.059 128.32 165.143 127.695 165.143C126.368 165.143 125.332 164.758 124.587 163.986C123.842 163.21 123.47 162.171 123.47 160.87C123.47 159.989 123.64 159.21 123.981 158.533C124.322 157.856 124.815 157.334 125.461 156.967C126.106 156.595 126.877 156.408 127.774 156.408C128.33 156.408 128.839 156.49 129.301 156.652C129.768 156.815 130.161 157.025 130.481 157.282C130.806 157.539 131.053 157.814 131.221 158.108C131.394 158.397 131.48 158.667 131.48 158.919C131.48 159.176 131.383 159.393 131.189 159.572C131 159.75 130.77 159.839 130.497 159.839C130.318 159.839 130.169 159.795 130.048 159.706C129.933 159.611 129.802 159.462 129.655 159.257C129.392 158.858 129.117 158.559 128.829 158.36C128.545 158.161 128.183 158.061 127.743 158.061C127.108 158.061 126.596 158.31 126.208 158.808C125.82 159.302 125.626 159.978 125.626 160.839C125.626 161.243 125.676 161.615 125.775 161.956C125.875 162.292 126.019 162.58 126.208 162.822C126.397 163.058 126.625 163.239 126.893 163.365C127.16 163.485 127.454 163.546 127.774 163.546C128.204 163.546 128.571 163.446 128.876 163.247C129.185 163.047 129.458 162.743 129.694 162.334C129.825 162.093 129.967 161.904 130.119 161.767C130.271 161.631 130.457 161.563 130.678 161.563C130.94 161.563 131.158 161.662 131.331 161.862C131.504 162.061 131.591 162.274 131.591 162.499ZM140.388 162.35C140.388 162.942 140.244 163.451 139.956 163.876C139.667 164.296 139.239 164.616 138.673 164.836C138.112 165.051 137.427 165.159 136.619 165.159C135.848 165.159 135.187 165.041 134.636 164.805C134.085 164.569 133.679 164.275 133.416 163.923C133.154 163.567 133.023 163.21 133.023 162.853C133.023 162.617 133.107 162.415 133.275 162.247C133.443 162.079 133.655 161.995 133.912 161.995C134.138 161.995 134.311 162.051 134.431 162.161C134.552 162.271 134.667 162.426 134.778 162.625C134.998 163.008 135.26 163.294 135.565 163.483C135.874 163.672 136.294 163.766 136.824 163.766C137.254 163.766 137.605 163.672 137.878 163.483C138.156 163.289 138.295 163.068 138.295 162.822C138.295 162.444 138.151 162.169 137.862 161.995C137.579 161.822 137.11 161.657 136.454 161.5C135.714 161.316 135.111 161.125 134.644 160.925C134.182 160.721 133.812 160.453 133.534 160.123C133.256 159.792 133.117 159.386 133.117 158.903C133.117 158.473 133.246 158.066 133.503 157.683C133.76 157.3 134.138 156.996 134.636 156.77C135.14 156.54 135.746 156.424 136.454 156.424C137.01 156.424 137.508 156.482 137.949 156.597C138.395 156.713 138.765 156.867 139.058 157.061C139.358 157.256 139.583 157.471 139.735 157.707C139.893 157.943 139.971 158.174 139.971 158.399C139.971 158.646 139.887 158.848 139.719 159.005C139.557 159.163 139.323 159.241 139.019 159.241C138.799 159.241 138.61 159.178 138.453 159.052C138.3 158.926 138.125 158.738 137.925 158.486C137.763 158.276 137.571 158.108 137.351 157.982C137.131 157.856 136.831 157.793 136.454 157.793C136.066 157.793 135.743 157.877 135.486 158.045C135.229 158.208 135.1 158.412 135.1 158.659C135.1 158.885 135.195 159.071 135.384 159.218C135.572 159.359 135.827 159.477 136.147 159.572C136.467 159.666 136.908 159.782 137.469 159.918C138.135 160.081 138.678 160.275 139.098 160.5C139.523 160.726 139.843 160.993 140.058 161.303C140.278 161.607 140.388 161.956 140.388 162.35Z" fill="#231F20"/>
</svg>
