<svg width="453" height="145" viewBox="0 0 453 145" fill="none" xmlns="http://www.w3.org/2000/svg">
<path d="M16.9002 131.625H32.6233C33.7679 131.625 34.6958 130.698 34.6958 129.553V124.745C34.6958 123.6 33.7679 122.672 32.6233 122.672H16.9002C15.7557 122.672 14.8278 123.6 14.8278 124.745V129.553C14.8278 130.698 15.7557 131.625 16.9002 131.625Z" fill="#F7941D"/>
<path d="M130.858 9.23987C127.638 9.10495 124.423 9.61748 121.405 10.7471C118.386 11.8768 115.624 13.6006 113.284 15.8165C111.001 18.0408 109.181 20.6949 107.929 23.6259C106.677 26.5568 106.018 29.7066 105.989 32.8936V48.064" stroke="#F7941D" stroke-width="17.2499" stroke-miterlimit="10"/>
<path d="M153.987 67.5176H62.3563C42.3031 67.5176 26.0468 83.7739 26.0468 103.827V108.691C26.0468 128.744 42.3031 145 62.3563 145H153.987C174.04 145 190.296 128.744 190.296 108.691V103.827C190.296 83.7739 174.04 67.5176 153.987 67.5176Z" fill="#F16B51"/>
<path d="M166.974 77.7412H137.02C127.711 77.7412 120.164 85.2879 120.164 94.5972V104.02C120.164 113.329 127.711 120.876 137.02 120.876H166.974C176.284 120.876 183.831 113.329 183.831 104.02V94.5972C183.831 85.2879 176.284 77.7412 166.974 77.7412Z" fill="#96BCC9"/>
<path d="M140.834 39.6357H75.3439C69.4836 39.6357 64.7328 44.3865 64.7328 50.2468V62.4328C64.7328 68.2931 69.4836 73.0439 75.3439 73.0439H140.834C146.694 73.0439 151.445 68.2931 151.445 62.4328V50.2468C151.445 44.3865 146.694 39.6357 140.834 39.6357Z" fill="#F16B51"/>
<path d="M149.98 60.2222H66.1698C63.6974 60.2222 61.6932 62.2264 61.6932 64.6987C61.6932 67.171 63.6974 69.1752 66.1698 69.1752H149.98C152.453 69.1752 154.457 67.171 154.457 64.6987C154.457 62.2264 152.453 60.2222 149.98 60.2222Z" fill="#F7941D"/>
<path d="M129.808 3.04982V15.3464C129.808 15.9264 130.278 16.3965 130.858 16.3965H131.936C132.516 16.3965 132.986 15.9264 132.986 15.3464V3.04982C132.986 2.4699 132.516 1.99977 131.936 1.99977H130.858C130.278 1.99977 129.808 2.4699 129.808 3.04982Z" fill="#F16B51"/>
<path d="M93.3604 114.134C101.54 114.134 108.172 107.502 108.172 99.3224C108.172 91.1424 101.54 84.5112 93.3604 84.5112C85.1804 84.5112 78.5492 91.1424 78.5492 99.3224C78.5492 107.502 85.1804 114.134 93.3604 114.134Z" fill="#96BCC9"/>
<path d="M54.5638 114.134C62.7438 114.134 69.375 107.502 69.375 99.3224C69.375 91.1424 62.7438 84.5112 54.5638 84.5112C46.3838 84.5112 39.7526 91.1424 39.7526 99.3224C39.7526 107.502 46.3838 114.134 54.5638 114.134Z" fill="#96BCC9"/>
<path d="M21.8467 134.389C21.9588 135.652 21.6327 136.916 20.9232 137.968C20.2138 139.019 19.1641 139.795 17.9505 140.164C16.6918 140.367 15.4017 140.128 14.2988 139.489C13.1959 138.849 12.348 137.848 11.8989 136.655C11.5397 135.577 11.8989 135.273 13.2806 129.885C14.0266 126.928 14.1924 125.878 14.8556 125.74C15.5188 125.601 16.0438 126.596 17.7847 128.89C20.9625 132.952 21.7086 132.979 21.8467 134.389Z" fill="#96BCC9"/>
<path d="M2.7523 126.9C1.67532 126.275 0.841014 125.305 0.384604 124.146C-0.0718066 122.988 -0.123569 121.709 0.237707 120.517C0.776136 119.362 1.69752 118.428 2.84574 117.874C3.99396 117.32 5.29839 117.18 6.538 117.478C7.64331 117.754 7.67094 118.279 11.3461 122.424C13.3909 124.69 14.1094 125.436 13.916 126.044C13.7225 126.652 12.5343 126.541 9.66051 126.679C4.46553 126.956 4.02341 127.564 2.7523 126.9Z" fill="#96BCC9"/>
<path d="M18.4201 115.018C19.4633 114.34 20.7046 114.034 21.9432 114.15C23.1818 114.265 24.3453 114.795 25.2454 115.654C26.0582 116.642 26.5026 117.883 26.5026 119.163C26.5026 120.443 26.0582 121.683 25.2454 122.672C24.4717 123.529 24.0295 123.308 18.6688 124.745C15.7121 125.519 14.6896 125.905 14.2751 125.38C13.8607 124.855 14.4409 123.916 15.6015 121.291C17.5911 116.483 17.2595 115.819 18.4201 115.018Z" fill="#96BCC9"/>
<path d="M14.4685 127.978C15.7657 127.978 16.8173 126.926 16.8173 125.629C16.8173 124.332 15.7657 123.28 14.4685 123.28C13.1713 123.28 12.1198 124.332 12.1198 125.629C12.1198 126.926 13.1713 127.978 14.4685 127.978Z" fill="#939598"/>
<path d="M435.364 83H243.364C233.774 83 226 90.774 226 100.364V127.636C226 137.226 233.774 145 243.364 145H435.364C444.953 145 452.727 137.226 452.727 127.636V100.364C452.727 90.774 444.953 83 435.364 83Z" fill="white"/>
<path d="M268.735 125.162C268.735 126.714 268.357 128.045 267.602 129.158C266.847 130.256 265.728 131.094 264.245 131.67C262.775 132.233 260.983 132.515 258.869 132.515C256.85 132.515 255.12 132.206 253.679 131.588C252.237 130.97 251.173 130.201 250.486 129.281C249.8 128.348 249.456 127.414 249.456 126.48C249.456 125.862 249.676 125.334 250.115 124.894C250.555 124.455 251.111 124.235 251.784 124.235C252.374 124.235 252.827 124.379 253.143 124.668C253.459 124.956 253.761 125.361 254.049 125.883C254.626 126.885 255.313 127.634 256.109 128.128C256.919 128.622 258.018 128.869 259.404 128.869C260.53 128.869 261.45 128.622 262.164 128.128C262.892 127.62 263.256 127.043 263.256 126.398C263.256 125.409 262.878 124.688 262.123 124.235C261.382 123.782 260.153 123.349 258.436 122.938C256.5 122.457 254.921 121.956 253.699 121.434C252.491 120.898 251.523 120.198 250.795 119.333C250.067 118.468 249.703 117.404 249.703 116.141C249.703 115.015 250.04 113.951 250.713 112.948C251.385 111.946 252.374 111.149 253.679 110.559C254.997 109.955 256.583 109.653 258.436 109.653C259.892 109.653 261.196 109.804 262.35 110.106C263.517 110.408 264.485 110.813 265.254 111.321C266.036 111.829 266.627 112.392 267.025 113.01C267.437 113.628 267.643 114.232 267.643 114.822C267.643 115.468 267.423 115.996 266.984 116.408C266.558 116.82 265.947 117.026 265.151 117.026C264.574 117.026 264.08 116.862 263.668 116.532C263.27 116.202 262.81 115.708 262.288 115.049C261.862 114.5 261.361 114.06 260.784 113.731C260.208 113.401 259.425 113.237 258.436 113.237C257.42 113.237 256.576 113.456 255.903 113.896C255.23 114.321 254.894 114.857 254.894 115.502C254.894 116.093 255.141 116.58 255.635 116.964C256.13 117.335 256.795 117.644 257.633 117.891C258.471 118.139 259.624 118.441 261.093 118.798C262.837 119.223 264.258 119.731 265.357 120.322C266.469 120.912 267.307 121.612 267.87 122.423C268.446 123.219 268.735 124.132 268.735 125.162ZM273.801 110.147H274.419V106.769C274.419 105.863 274.44 105.156 274.481 104.648C274.536 104.126 274.673 103.68 274.893 103.309C275.113 102.924 275.429 102.616 275.84 102.382C276.252 102.135 276.712 102.011 277.22 102.011C277.934 102.011 278.58 102.279 279.157 102.815C279.541 103.172 279.781 103.611 279.877 104.133C279.987 104.641 280.042 105.369 280.042 106.316V110.147H282.102C282.898 110.147 283.502 110.339 283.914 110.724C284.34 111.094 284.553 111.575 284.553 112.165C284.553 112.921 284.251 113.449 283.647 113.751C283.056 114.054 282.205 114.205 281.093 114.205H280.042V124.544C280.042 125.423 280.07 126.103 280.125 126.583C280.193 127.05 280.358 127.434 280.619 127.737C280.893 128.025 281.333 128.169 281.937 128.169C282.267 128.169 282.713 128.114 283.276 128.004C283.839 127.881 284.278 127.819 284.594 127.819C285.047 127.819 285.452 128.004 285.809 128.375C286.18 128.732 286.365 129.178 286.365 129.714C286.365 130.62 285.871 131.313 284.882 131.794C283.894 132.275 282.473 132.515 280.619 132.515C278.861 132.515 277.529 132.22 276.623 131.629C275.717 131.039 275.12 130.222 274.831 129.178C274.557 128.135 274.419 126.741 274.419 124.997V114.205H273.678C272.868 114.205 272.25 114.012 271.824 113.628C271.398 113.243 271.186 112.756 271.186 112.165C271.186 111.575 271.405 111.094 271.845 110.724C272.298 110.339 272.95 110.147 273.801 110.147ZM302.657 129.343C301.298 130.4 299.98 131.197 298.703 131.732C297.439 132.254 296.018 132.515 294.439 132.515C292.997 132.515 291.727 132.233 290.629 131.67C289.544 131.094 288.706 130.318 288.116 129.343C287.526 128.368 287.23 127.311 287.23 126.171C287.23 124.633 287.718 123.322 288.693 122.237C289.668 121.152 291.006 120.425 292.709 120.054C293.066 119.972 293.952 119.786 295.366 119.498C296.78 119.21 297.989 118.949 298.991 118.715C300.007 118.468 301.106 118.173 302.286 117.83C302.218 116.347 301.916 115.262 301.38 114.575C300.858 113.875 299.767 113.525 298.105 113.525C296.677 113.525 295.599 113.724 294.872 114.122C294.158 114.52 293.54 115.118 293.018 115.914C292.51 116.71 292.146 117.239 291.926 117.5C291.72 117.747 291.267 117.871 290.567 117.871C289.935 117.871 289.386 117.672 288.919 117.273C288.466 116.862 288.24 116.34 288.24 115.708C288.24 114.719 288.59 113.758 289.29 112.825C289.99 111.891 291.082 111.122 292.565 110.518C294.048 109.914 295.895 109.612 298.105 109.612C300.577 109.612 302.52 109.907 303.934 110.497C305.348 111.074 306.344 111.994 306.921 113.257C307.511 114.52 307.806 116.196 307.806 118.283C307.806 119.601 307.799 120.72 307.786 121.64C307.786 122.56 307.779 123.583 307.765 124.709C307.765 125.766 307.937 126.871 308.28 128.025C308.637 129.165 308.816 129.899 308.816 130.229C308.816 130.805 308.541 131.334 307.992 131.815C307.456 132.281 306.845 132.515 306.159 132.515C305.582 132.515 305.012 132.247 304.449 131.712C303.886 131.162 303.289 130.373 302.657 129.343ZM302.286 121.207C301.463 121.509 300.261 121.832 298.682 122.175C297.117 122.505 296.032 122.752 295.428 122.917C294.824 123.068 294.247 123.377 293.698 123.844C293.148 124.297 292.874 124.935 292.874 125.759C292.874 126.611 293.197 127.338 293.842 127.942C294.487 128.533 295.332 128.828 296.375 128.828C297.487 128.828 298.51 128.588 299.444 128.107C300.392 127.613 301.085 126.981 301.524 126.212C302.032 125.361 302.286 123.96 302.286 122.011V121.207ZM312.77 110.147H313.388V106.769C313.388 105.863 313.409 105.156 313.45 104.648C313.505 104.126 313.642 103.68 313.862 103.309C314.081 102.924 314.397 102.616 314.809 102.382C315.221 102.135 315.681 102.011 316.189 102.011C316.903 102.011 317.549 102.279 318.125 102.815C318.51 103.172 318.75 103.611 318.846 104.133C318.956 104.641 319.011 105.369 319.011 106.316V110.147H321.071C321.867 110.147 322.471 110.339 322.883 110.724C323.309 111.094 323.522 111.575 323.522 112.165C323.522 112.921 323.219 113.449 322.615 113.751C322.025 114.054 321.174 114.205 320.061 114.205H319.011V124.544C319.011 125.423 319.038 126.103 319.093 126.583C319.162 127.05 319.327 127.434 319.588 127.737C319.862 128.025 320.302 128.169 320.906 128.169C321.235 128.169 321.682 128.114 322.245 128.004C322.808 127.881 323.247 127.819 323.563 127.819C324.016 127.819 324.421 128.004 324.778 128.375C325.149 128.732 325.334 129.178 325.334 129.714C325.334 130.62 324.84 131.313 323.851 131.794C322.862 132.275 321.441 132.515 319.588 132.515C317.83 132.515 316.498 132.22 315.592 131.629C314.686 131.039 314.088 130.222 313.8 129.178C313.525 128.135 313.388 126.741 313.388 124.997V114.205H312.647C311.836 114.205 311.219 114.012 310.793 113.628C310.367 113.243 310.154 112.756 310.154 112.165C310.154 111.575 310.374 111.094 310.813 110.724C311.267 110.339 311.919 110.147 312.77 110.147ZM333.037 112.845V129.096C333.037 130.222 332.769 131.073 332.234 131.65C331.698 132.227 331.019 132.515 330.195 132.515C329.371 132.515 328.698 132.22 328.176 131.629C327.668 131.039 327.414 130.194 327.414 129.096V113.01C327.414 111.898 327.668 111.06 328.176 110.497C328.698 109.934 329.371 109.653 330.195 109.653C331.019 109.653 331.698 109.934 332.234 110.497C332.769 111.06 333.037 111.843 333.037 112.845ZM330.257 107.037C329.474 107.037 328.801 106.797 328.238 106.316C327.689 105.835 327.414 105.156 327.414 104.277C327.414 103.481 327.696 102.828 328.259 102.32C328.835 101.799 329.501 101.538 330.257 101.538C330.984 101.538 331.63 101.771 332.193 102.238C332.756 102.705 333.037 103.384 333.037 104.277C333.037 105.142 332.763 105.822 332.213 106.316C331.664 106.797 331.012 107.037 330.257 107.037ZM356.97 125.162C356.97 126.714 356.593 128.045 355.838 129.158C355.082 130.256 353.963 131.094 352.48 131.67C351.011 132.233 349.219 132.515 347.105 132.515C345.086 132.515 343.356 132.206 341.914 131.588C340.473 130.97 339.408 130.201 338.722 129.281C338.035 128.348 337.692 127.414 337.692 126.48C337.692 125.862 337.912 125.334 338.351 124.894C338.79 124.455 339.347 124.235 340.019 124.235C340.61 124.235 341.063 124.379 341.379 124.668C341.695 124.956 341.997 125.361 342.285 125.883C342.862 126.885 343.548 127.634 344.345 128.128C345.155 128.622 346.253 128.869 347.64 128.869C348.766 128.869 349.686 128.622 350.4 128.128C351.128 127.62 351.492 127.043 351.492 126.398C351.492 125.409 351.114 124.688 350.359 124.235C349.617 123.782 348.388 123.349 346.672 122.938C344.736 122.457 343.157 121.956 341.935 121.434C340.727 120.898 339.759 120.198 339.031 119.333C338.303 118.468 337.939 117.404 337.939 116.141C337.939 115.015 338.276 113.951 338.948 112.948C339.621 111.946 340.61 111.149 341.914 110.559C343.232 109.955 344.818 109.653 346.672 109.653C348.128 109.653 349.432 109.804 350.585 110.106C351.753 110.408 352.721 110.813 353.49 111.321C354.272 111.829 354.863 112.392 355.261 113.01C355.673 113.628 355.879 114.232 355.879 114.822C355.879 115.468 355.659 115.996 355.22 116.408C354.794 116.82 354.183 117.026 353.387 117.026C352.81 117.026 352.316 116.862 351.904 116.532C351.505 116.202 351.045 115.708 350.524 115.049C350.098 114.5 349.597 114.06 349.02 113.731C348.443 113.401 347.661 113.237 346.672 113.237C345.656 113.237 344.812 113.456 344.139 113.896C343.466 114.321 343.129 114.857 343.129 115.502C343.129 116.093 343.377 116.58 343.871 116.964C344.365 117.335 345.031 117.644 345.869 117.891C346.706 118.139 347.86 118.441 349.329 118.798C351.073 119.223 352.494 119.731 353.593 120.322C354.705 120.912 355.542 121.612 356.105 122.423C356.682 123.219 356.97 124.132 356.97 125.162ZM362.037 110.147H362.655V106.769C362.655 105.863 362.676 105.156 362.717 104.648C362.772 104.126 362.909 103.68 363.129 103.309C363.348 102.924 363.664 102.616 364.076 102.382C364.488 102.135 364.948 102.011 365.456 102.011C366.17 102.011 366.816 102.279 367.392 102.815C367.777 103.172 368.017 103.611 368.113 104.133C368.223 104.641 368.278 105.369 368.278 106.316V110.147H370.338C371.134 110.147 371.738 110.339 372.15 110.724C372.576 111.094 372.789 111.575 372.789 112.165C372.789 112.921 372.486 113.449 371.882 113.751C371.292 114.054 370.441 114.205 369.328 114.205H368.278V124.544C368.278 125.423 368.305 126.103 368.36 126.583C368.429 127.05 368.594 127.434 368.855 127.737C369.129 128.025 369.569 128.169 370.173 128.169C370.502 128.169 370.949 128.114 371.512 128.004C372.075 127.881 372.514 127.819 372.83 127.819C373.283 127.819 373.688 128.004 374.045 128.375C374.416 128.732 374.601 129.178 374.601 129.714C374.601 130.62 374.107 131.313 373.118 131.794C372.129 132.275 370.708 132.515 368.855 132.515C367.097 132.515 365.765 132.22 364.859 131.629C363.953 131.039 363.355 130.222 363.067 129.178C362.792 128.135 362.655 126.741 362.655 124.997V114.205H361.914C361.103 114.205 360.486 114.012 360.06 113.628C359.634 113.243 359.421 112.756 359.421 112.165C359.421 111.575 359.641 111.094 360.08 110.724C360.534 110.339 361.186 110.147 362.037 110.147ZM382.304 112.845V129.096C382.304 130.222 382.036 131.073 381.501 131.65C380.965 132.227 380.286 132.515 379.462 132.515C378.638 132.515 377.965 132.22 377.443 131.629C376.935 131.039 376.681 130.194 376.681 129.096V113.01C376.681 111.898 376.935 111.06 377.443 110.497C377.965 109.934 378.638 109.653 379.462 109.653C380.286 109.653 380.965 109.934 381.501 110.497C382.036 111.06 382.304 111.843 382.304 112.845ZM379.524 107.037C378.741 107.037 378.068 106.797 377.505 106.316C376.956 105.835 376.681 105.156 376.681 104.277C376.681 103.481 376.963 102.828 377.526 102.32C378.102 101.799 378.768 101.538 379.524 101.538C380.251 101.538 380.897 101.771 381.46 102.238C382.023 102.705 382.304 103.384 382.304 104.277C382.304 105.142 382.03 105.822 381.48 106.316C380.931 106.797 380.279 107.037 379.524 107.037ZM408.297 125.553C408.297 126.254 408.084 127.002 407.659 127.798C407.247 128.595 406.608 129.357 405.743 130.085C404.892 130.799 403.814 131.375 402.509 131.815C401.205 132.254 399.736 132.474 398.102 132.474C394.628 132.474 391.916 131.464 389.966 129.446C388.016 127.414 387.041 124.695 387.041 121.29C387.041 118.983 387.488 116.944 388.38 115.173C389.273 113.401 390.563 112.035 392.252 111.074C393.941 110.099 395.96 109.612 398.308 109.612C399.763 109.612 401.095 109.824 402.303 110.25C403.526 110.676 404.555 111.225 405.393 111.898C406.244 112.571 406.89 113.291 407.329 114.06C407.782 114.816 408.009 115.523 408.009 116.182C408.009 116.855 407.755 117.424 407.247 117.891C406.752 118.358 406.148 118.592 405.434 118.592C404.967 118.592 404.576 118.475 404.26 118.241C403.958 117.994 403.615 117.603 403.23 117.067C402.544 116.024 401.823 115.241 401.068 114.719C400.326 114.198 399.379 113.937 398.225 113.937C396.564 113.937 395.225 114.589 394.209 115.893C393.193 117.184 392.685 118.956 392.685 121.207C392.685 122.265 392.815 123.24 393.076 124.132C393.337 125.011 393.715 125.766 394.209 126.398C394.703 127.016 395.301 127.489 396.001 127.819C396.701 128.135 397.47 128.293 398.308 128.293C399.434 128.293 400.395 128.032 401.191 127.51C402.001 126.988 402.715 126.192 403.333 125.121C403.677 124.489 404.047 123.995 404.445 123.638C404.844 123.281 405.331 123.102 405.908 123.102C406.594 123.102 407.164 123.363 407.617 123.885C408.07 124.407 408.297 124.963 408.297 125.553ZM431.324 125.162C431.324 126.714 430.946 128.045 430.191 129.158C429.436 130.256 428.317 131.094 426.834 131.67C425.365 132.233 423.573 132.515 421.458 132.515C419.44 132.515 417.71 132.206 416.268 131.588C414.826 130.97 413.762 130.201 413.075 129.281C412.389 128.348 412.046 127.414 412.046 126.48C412.046 125.862 412.265 125.334 412.705 124.894C413.144 124.455 413.7 124.235 414.373 124.235C414.963 124.235 415.417 124.379 415.732 124.668C416.048 124.956 416.35 125.361 416.639 125.883C417.215 126.885 417.902 127.634 418.698 128.128C419.508 128.622 420.607 128.869 421.994 128.869C423.12 128.869 424.04 128.622 424.754 128.128C425.481 127.62 425.845 127.043 425.845 126.398C425.845 125.409 425.468 124.688 424.713 124.235C423.971 123.782 422.742 123.349 421.026 122.938C419.09 122.457 417.511 121.956 416.289 121.434C415.08 120.898 414.112 120.198 413.384 119.333C412.657 118.468 412.293 117.404 412.293 116.141C412.293 115.015 412.629 113.951 413.302 112.948C413.975 111.946 414.963 111.149 416.268 110.559C417.586 109.955 419.172 109.653 421.026 109.653C422.481 109.653 423.786 109.804 424.939 110.106C426.106 110.408 427.074 110.813 427.843 111.321C428.626 111.829 429.216 112.392 429.614 113.01C430.026 113.628 430.232 114.232 430.232 114.822C430.232 115.468 430.013 115.996 429.573 116.408C429.148 116.82 428.537 117.026 427.74 117.026C427.164 117.026 426.669 116.862 426.257 116.532C425.859 116.202 425.399 115.708 424.877 115.049C424.452 114.5 423.95 114.06 423.374 113.731C422.797 113.401 422.014 113.237 421.026 113.237C420.01 113.237 419.165 113.456 418.492 113.896C417.82 114.321 417.483 114.857 417.483 115.502C417.483 116.093 417.73 116.58 418.225 116.964C418.719 117.335 419.385 117.644 420.222 117.891C421.06 118.139 422.213 118.441 423.683 118.798C425.427 119.223 426.848 119.731 427.946 120.322C429.058 120.912 429.896 121.612 430.459 122.423C431.036 123.219 431.324 124.132 431.324 125.162Z" fill="#231F20"/>
</svg>
