<svg width="242" height="182" viewBox="0 0 242 182" fill="none" xmlns="http://www.w3.org/2000/svg">
<path d="M21.417 164.268H41.3421C42.7925 164.268 43.9684 163.092 43.9684 161.642V155.549C43.9684 154.098 42.7925 152.922 41.3421 152.922H21.417C19.9665 152.922 18.7906 154.098 18.7906 155.549V161.642C18.7906 163.092 19.9665 164.268 21.417 164.268Z" fill="#F7941D"/>
<path d="M165.83 9.17459C161.749 9.00361 157.675 9.65312 153.85 11.0847C150.024 12.5162 146.525 14.7007 143.559 17.5088C140.666 20.3276 138.36 23.691 136.773 27.4052C135.187 31.1195 134.351 35.111 134.314 39.1498V58.3745" stroke="#F7941D" stroke-width="14.0071" stroke-miterlimit="10"/>
<path d="M195.14 83.027H79.0211C53.6087 83.027 33.0078 103.628 33.0078 129.04V135.203C33.0078 160.616 53.6087 181.217 79.0211 181.217H195.14C220.552 181.217 241.153 160.616 241.153 135.203V129.04C241.153 103.628 220.552 83.027 195.14 83.027Z" fill="#FFDE17"/>
<path d="M211.598 95.9834H173.639C161.842 95.9834 152.278 105.547 152.278 117.344V129.285C152.278 141.082 161.842 150.646 173.639 150.646H211.598C223.396 150.646 232.959 141.082 232.959 129.285V117.344C232.959 105.547 223.396 95.9834 211.598 95.9834Z" fill="#96BCC9"/>
<path d="M178.471 47.694H95.4794C88.0529 47.694 82.0326 53.7143 82.0326 61.1408V76.5836C82.0326 84.01 88.0529 90.0304 95.4794 90.0304H178.471C185.898 90.0304 191.918 84.01 191.918 76.5836V61.1408C191.918 53.7143 185.898 47.694 178.471 47.694Z" fill="#FFDE17"/>
<path d="M190.062 73.7822H83.8537C80.7206 73.7822 78.1808 76.3221 78.1808 79.4551C78.1808 82.5881 80.7206 85.128 83.8537 85.128H190.062C193.195 85.128 195.735 82.5881 195.735 79.4551C195.735 76.3221 193.195 73.7822 190.062 73.7822Z" fill="#F7941D"/>
<path d="M164.499 1.33072V16.9136C164.499 17.6485 165.095 18.2443 165.83 18.2443H167.196C167.931 18.2443 168.526 17.6485 168.526 16.9136V1.33072C168.526 0.595804 167.931 3.8147e-05 167.196 3.8147e-05H165.83C165.095 3.8147e-05 164.499 0.595804 164.499 1.33072Z" fill="#FFDE17"/>
<path d="M118.311 142.102C128.677 142.102 137.08 133.698 137.08 123.332C137.08 112.966 128.677 104.563 118.311 104.563C107.945 104.563 99.5415 112.966 99.5415 123.332C99.5415 133.698 107.945 142.102 118.311 142.102Z" fill="#96BCC9"/>
<path d="M69.1458 142.102C79.5119 142.102 87.9153 133.698 87.9153 123.332C87.9153 112.966 79.5119 104.563 69.1458 104.563C58.7797 104.563 50.3763 112.966 50.3763 123.332C50.3763 133.698 58.7797 142.102 69.1458 142.102Z" fill="#96BCC9"/>
<path d="M27.6852 167.77C27.8272 169.371 27.4139 170.972 26.5149 172.305C25.6158 173.638 24.2856 174.62 22.7477 175.088C21.1526 175.345 19.5177 175.043 18.1201 174.232C16.7224 173.422 15.648 172.153 15.0788 170.641C14.6236 169.275 15.0788 168.89 16.8297 162.062C17.7752 158.315 17.9853 156.984 18.8257 156.809C19.6661 156.634 20.3315 157.895 22.5376 160.801C26.5646 165.949 27.5101 165.984 27.6852 167.77Z" fill="#96BCC9"/>
<path d="M3.48785 158.28C2.12305 157.488 1.06577 156.258 0.487389 154.79C-0.0909969 153.321 -0.156593 151.701 0.301234 150.191C0.983557 148.726 2.15119 147.543 3.60627 146.841C5.06134 146.139 6.71438 145.961 8.28527 146.339C9.68598 146.689 9.721 147.354 14.3784 152.607C16.9697 155.478 17.8801 156.424 17.635 157.194C17.3899 157.965 15.8841 157.825 12.2423 158C5.65894 158.35 5.09866 159.12 3.48785 158.28Z" fill="#96BCC9"/>
<path d="M23.3428 143.222C24.6648 142.363 26.2378 141.976 27.8074 142.122C29.3771 142.268 30.8515 142.94 31.9922 144.028C33.0223 145.281 33.5854 146.853 33.5854 148.475C33.5854 150.097 33.0223 151.669 31.9922 152.922C31.0117 154.008 30.4514 153.728 23.6579 155.548C19.9111 156.529 18.6154 157.019 18.0901 156.354C17.5649 155.689 18.3002 154.498 19.771 151.171C22.2923 145.078 21.872 144.238 23.3428 143.222Z" fill="#96BCC9"/>
<path d="M18.3351 159.646C19.979 159.646 21.3117 158.313 21.3117 156.669C21.3117 155.025 19.979 153.693 18.3351 153.693C16.6913 153.693 15.3586 155.025 15.3586 156.669C15.3586 158.313 16.6913 159.646 18.3351 159.646Z" fill="#939598"/>
<path d="M143.663 147.074H69.7061C66.0122 147.074 63.0177 150.069 63.0177 153.763V164.268C63.0177 167.962 66.0122 170.956 69.7061 170.956H143.663C147.357 170.956 150.352 167.962 150.352 164.268V153.763C150.352 150.069 147.357 147.074 143.663 147.074Z" fill="white"/>
<path d="M81.7643 157.158H82.0023V155.857C82.0023 155.508 82.0102 155.236 82.0261 155.04C82.0472 154.839 82.1001 154.667 82.1848 154.524C82.2694 154.376 82.391 154.257 82.5497 154.167C82.7084 154.072 82.8856 154.025 83.0813 154.025C83.3563 154.025 83.6049 154.128 83.827 154.334C83.9751 154.472 84.0677 154.641 84.1047 154.842C84.147 155.037 84.1682 155.318 84.1682 155.683V157.158H84.9615C85.2683 157.158 85.501 157.232 85.6597 157.381C85.8237 157.523 85.9057 157.708 85.9057 157.936C85.9057 158.227 85.7893 158.43 85.5566 158.547C85.3291 158.663 85.0012 158.721 84.5728 158.721H84.1682V162.704C84.1682 163.043 84.1788 163.304 84.1999 163.489C84.2264 163.669 84.2898 163.817 84.3903 163.934C84.4961 164.045 84.6654 164.1 84.8981 164.1C85.025 164.1 85.1969 164.079 85.4138 164.037C85.6306 163.989 85.7999 163.966 85.9215 163.966C86.0961 163.966 86.2521 164.037 86.3896 164.18C86.5324 164.317 86.6038 164.489 86.6038 164.695C86.6038 165.044 86.4134 165.312 86.0326 165.497C85.6518 165.682 85.1044 165.774 84.3903 165.774C83.7133 165.774 83.2003 165.661 82.8512 165.433C82.5021 165.206 82.272 164.891 82.161 164.489C82.0552 164.087 82.0023 163.55 82.0023 162.879V158.721H81.7167C81.4046 158.721 81.1666 158.647 81.0026 158.499C80.8387 158.351 80.7567 158.163 80.7567 157.936C80.7567 157.708 80.8413 157.523 81.0106 157.381C81.1851 157.232 81.4363 157.158 81.7643 157.158ZM89.5552 162.649V164.457C89.5552 164.896 89.452 165.227 89.2457 165.449C89.0395 165.666 88.7777 165.774 88.4603 165.774C88.1483 165.774 87.8917 165.663 87.6907 165.441C87.4898 165.219 87.3893 164.891 87.3893 164.457V158.428C87.3893 157.455 87.741 156.968 88.4444 156.968C88.8041 156.968 89.0633 157.082 89.2219 157.309C89.3806 157.537 89.4679 157.872 89.4838 158.317C89.7429 157.872 90.0074 157.537 90.2771 157.309C90.5522 157.082 90.9171 156.968 91.372 156.968C91.8268 156.968 92.2685 157.082 92.6969 157.309C93.1253 157.537 93.3395 157.838 93.3395 158.214C93.3395 158.478 93.247 158.698 93.0619 158.872C92.882 159.041 92.6863 159.126 92.4748 159.126C92.3954 159.126 92.2024 159.078 91.8956 158.983C91.5941 158.883 91.327 158.832 91.0943 158.832C90.777 158.832 90.5178 158.917 90.3168 159.086C90.1158 159.25 89.9598 159.496 89.8487 159.824C89.7376 160.152 89.6609 160.543 89.6186 160.998C89.5763 161.448 89.5552 161.998 89.5552 162.649ZM99.5913 164.553C99.0677 164.96 98.5599 165.267 98.068 165.473C97.5814 165.674 97.034 165.774 96.4257 165.774C95.8704 165.774 95.3811 165.666 94.958 165.449C94.5402 165.227 94.2175 164.928 93.9901 164.553C93.7627 164.177 93.649 163.77 93.649 163.331C93.649 162.738 93.8367 162.233 94.2122 161.815C94.5878 161.398 95.1035 161.117 95.7593 160.975C95.8968 160.943 96.238 160.871 96.7828 160.76C97.3275 160.649 97.793 160.549 98.1791 160.459C98.5705 160.364 98.9936 160.25 99.4485 160.118C99.422 159.546 99.3057 159.129 99.0994 158.864C98.8984 158.594 98.4779 158.46 97.8379 158.46C97.2879 158.46 96.8727 158.536 96.5924 158.69C96.3173 158.843 96.0793 159.073 95.8783 159.38C95.6826 159.687 95.5425 159.89 95.4578 159.991C95.3785 160.086 95.204 160.134 94.9342 160.134C94.6909 160.134 94.4793 160.057 94.2995 159.903C94.125 159.745 94.0377 159.544 94.0377 159.3C94.0377 158.92 94.1726 158.549 94.4423 158.19C94.7121 157.83 95.1326 157.534 95.7038 157.301C96.275 157.068 96.9864 156.952 97.8379 156.952C98.79 156.952 99.5384 157.066 100.083 157.293C100.628 157.515 101.011 157.87 101.234 158.356C101.461 158.843 101.575 159.488 101.575 160.292C101.575 160.8 101.572 161.231 101.567 161.585C101.567 161.94 101.564 162.334 101.559 162.768C101.559 163.175 101.625 163.601 101.757 164.045C101.895 164.484 101.963 164.767 101.963 164.894C101.963 165.116 101.858 165.32 101.646 165.505C101.44 165.684 101.204 165.774 100.94 165.774C100.718 165.774 100.498 165.671 100.282 165.465C100.065 165.253 99.8346 164.949 99.5913 164.553ZM99.4485 161.419C99.1311 161.535 98.6683 161.659 98.0601 161.792C97.4571 161.919 97.0393 162.014 96.8066 162.077C96.5738 162.135 96.3517 162.254 96.1401 162.434C95.9286 162.609 95.8228 162.855 95.8228 163.172C95.8228 163.5 95.9471 163.78 96.1957 164.013C96.4443 164.241 96.7695 164.354 97.1715 164.354C97.5999 164.354 97.994 164.262 98.3536 164.077C98.7186 163.886 98.9857 163.643 99.1549 163.347C99.3506 163.019 99.4485 162.479 99.4485 161.728V161.419ZM111.547 163.093C111.547 163.363 111.465 163.651 111.301 163.958C111.143 164.264 110.897 164.558 110.564 164.838C110.236 165.113 109.82 165.335 109.318 165.505C108.816 165.674 108.25 165.759 107.62 165.759C106.282 165.759 105.237 165.37 104.486 164.592C103.735 163.809 103.36 162.762 103.36 161.451C103.36 160.562 103.532 159.777 103.875 159.094C104.219 158.412 104.716 157.886 105.367 157.515C106.018 157.14 106.795 156.952 107.7 156.952C108.26 156.952 108.773 157.034 109.239 157.198C109.709 157.362 110.106 157.574 110.429 157.833C110.757 158.092 111.005 158.37 111.174 158.666C111.349 158.957 111.436 159.229 111.436 159.483C111.436 159.742 111.338 159.962 111.143 160.141C110.952 160.321 110.72 160.411 110.445 160.411C110.265 160.411 110.114 160.366 109.992 160.276C109.876 160.181 109.744 160.03 109.596 159.824C109.331 159.422 109.054 159.121 108.763 158.92C108.477 158.719 108.112 158.618 107.668 158.618C107.028 158.618 106.512 158.869 106.121 159.372C105.729 159.869 105.534 160.551 105.534 161.419C105.534 161.826 105.584 162.202 105.684 162.545C105.785 162.884 105.93 163.175 106.121 163.418C106.311 163.656 106.541 163.839 106.811 163.966C107.081 164.087 107.377 164.148 107.7 164.148C108.133 164.148 108.503 164.047 108.81 163.847C109.122 163.646 109.397 163.339 109.635 162.926C109.768 162.683 109.91 162.492 110.064 162.355C110.217 162.217 110.405 162.149 110.627 162.149C110.892 162.149 111.111 162.249 111.286 162.45C111.46 162.651 111.547 162.865 111.547 163.093ZM118.22 164.783L116.308 161.641L115.133 162.752V164.473C115.133 164.891 115.022 165.214 114.8 165.441C114.583 165.663 114.332 165.774 114.046 165.774C113.713 165.774 113.451 165.663 113.261 165.441C113.071 165.219 112.975 164.891 112.975 164.457V155.223C112.975 154.741 113.068 154.376 113.253 154.128C113.438 153.874 113.703 153.747 114.046 153.747C114.38 153.747 114.644 153.861 114.84 154.088C115.036 154.315 115.133 154.651 115.133 155.096V160.348L117.569 157.793C117.871 157.476 118.101 157.259 118.259 157.143C118.418 157.026 118.611 156.968 118.838 156.968C119.108 156.968 119.333 157.055 119.513 157.23C119.693 157.399 119.783 157.613 119.783 157.872C119.783 158.19 119.489 158.613 118.902 159.142L117.752 160.197L119.973 163.688C120.137 163.947 120.253 164.145 120.322 164.283C120.396 164.415 120.433 164.542 120.433 164.664C120.433 165.007 120.338 165.28 120.148 165.481C119.962 165.677 119.716 165.774 119.41 165.774C119.145 165.774 118.942 165.703 118.799 165.56C118.656 165.417 118.463 165.158 118.22 164.783ZM128.7 162.942C128.7 163.54 128.555 164.053 128.264 164.481C127.973 164.904 127.542 165.227 126.97 165.449C126.405 165.666 125.714 165.774 124.9 165.774C124.122 165.774 123.456 165.655 122.901 165.417C122.345 165.179 121.935 164.883 121.671 164.529C121.406 164.169 121.274 163.809 121.274 163.45C121.274 163.212 121.359 163.008 121.528 162.839C121.697 162.67 121.911 162.585 122.171 162.585C122.398 162.585 122.573 162.641 122.694 162.752C122.816 162.863 122.932 163.019 123.043 163.22C123.265 163.606 123.53 163.894 123.837 164.085C124.149 164.275 124.572 164.37 125.106 164.37C125.54 164.37 125.894 164.275 126.169 164.085C126.45 163.889 126.59 163.667 126.59 163.418C126.59 163.037 126.444 162.76 126.153 162.585C125.868 162.411 125.394 162.244 124.733 162.085C123.987 161.9 123.379 161.707 122.908 161.506C122.443 161.3 122.07 161.03 121.79 160.697C121.509 160.364 121.369 159.954 121.369 159.467C121.369 159.033 121.499 158.623 121.758 158.237C122.017 157.851 122.398 157.545 122.901 157.317C123.408 157.084 124.019 156.968 124.733 156.968C125.294 156.968 125.796 157.026 126.241 157.143C126.69 157.259 127.063 157.415 127.359 157.611C127.661 157.806 127.888 158.023 128.042 158.261C128.2 158.499 128.28 158.732 128.28 158.959C128.28 159.208 128.195 159.412 128.026 159.57C127.862 159.729 127.626 159.808 127.32 159.808C127.097 159.808 126.907 159.745 126.748 159.618C126.595 159.491 126.418 159.3 126.217 159.047C126.053 158.835 125.86 158.666 125.638 158.539C125.415 158.412 125.114 158.348 124.733 158.348C124.342 158.348 124.017 158.433 123.757 158.602C123.498 158.766 123.369 158.973 123.369 159.221C123.369 159.449 123.464 159.636 123.654 159.784C123.845 159.927 124.101 160.046 124.424 160.141C124.746 160.237 125.191 160.353 125.757 160.491C126.428 160.655 126.976 160.85 127.399 161.078C127.827 161.305 128.15 161.575 128.367 161.887C128.589 162.194 128.7 162.545 128.7 162.942Z" fill="#231F20"/>
</svg>
