<svg width="318" height="89" viewBox="0 0 318 89" fill="none" xmlns="http://www.w3.org/2000/svg">
<rect width="318" height="89" rx="18" fill="white"/>
<rect x="7" y="5" width="76" height="78" rx="38" fill="#C4C4C4"/>
<path d="M110.046 54.13C109.089 54.8742 108.162 55.4347 107.263 55.8116C106.374 56.1788 105.374 56.3624 104.262 56.3624C103.248 56.3624 102.354 56.1643 101.58 55.7681C100.817 55.3622 100.228 54.8162 99.812 54.13C99.3964 53.4439 99.1887 52.6998 99.1887 51.8977C99.1887 50.8153 99.5317 49.8924 100.218 49.129C100.904 48.3655 101.846 47.8533 103.045 47.5924C103.296 47.5344 103.919 47.4039 104.915 47.201C105.91 46.9981 106.76 46.8144 107.466 46.6502C108.181 46.4762 108.954 46.2684 109.785 46.0268C109.737 44.9831 109.524 44.2197 109.147 43.7365C108.78 43.2436 108.012 42.9972 106.842 42.9972C105.837 42.9972 105.079 43.1373 104.567 43.4176C104.064 43.6978 103.629 44.1182 103.262 44.6787C102.904 45.2392 102.648 45.6113 102.494 45.7949C102.349 45.9689 102.03 46.0558 101.537 46.0558C101.092 46.0558 100.706 45.9157 100.377 45.6355C100.058 45.3455 99.899 44.9783 99.899 44.5338C99.899 43.838 100.145 43.1615 100.638 42.5043C101.131 41.8472 101.899 41.306 102.943 40.8808C103.987 40.4556 105.287 40.243 106.842 40.243C108.582 40.243 109.949 40.4508 110.945 40.8663C111.94 41.2722 112.641 41.9197 113.047 42.8088C113.462 43.6978 113.67 44.8768 113.67 46.3457C113.67 47.2735 113.665 48.0611 113.656 48.7086C113.656 49.3561 113.651 50.076 113.641 50.8685C113.641 51.6126 113.762 52.3905 114.003 53.2023C114.255 54.0044 114.38 54.5214 114.38 54.7534C114.38 55.1592 114.187 55.5313 113.801 55.8695C113.424 56.1981 112.994 56.3624 112.51 56.3624C112.104 56.3624 111.703 56.174 111.307 55.7971C110.911 55.4105 110.491 54.8548 110.046 54.13ZM109.785 48.4042C109.205 48.6168 108.36 48.8439 107.248 49.0855C106.147 49.3174 105.383 49.4914 104.958 49.6073C104.533 49.7136 104.127 49.9311 103.74 50.2596C103.354 50.5785 103.161 51.0279 103.161 51.6078C103.161 52.2069 103.388 52.7191 103.842 53.1443C104.296 53.5599 104.89 53.7676 105.625 53.7676C106.408 53.7676 107.128 53.5985 107.785 53.2603C108.452 52.9124 108.94 52.4678 109.249 51.9267C109.606 51.3275 109.785 50.3418 109.785 48.9695V48.4042ZM128.543 54.101V53.7097C128.011 54.3185 127.485 54.8162 126.963 55.2027C126.451 55.5796 125.89 55.8647 125.281 56.058C124.682 56.2609 124.025 56.3624 123.31 56.3624C122.363 56.3624 121.483 56.1643 120.672 55.7681C119.869 55.3622 119.174 54.7872 118.584 54.0431C117.995 53.2989 117.545 52.4244 117.236 51.4193C116.936 50.4143 116.787 49.3271 116.787 48.1577C116.787 45.6838 117.391 43.7558 118.599 42.3739C119.807 40.9919 121.396 40.301 123.368 40.301C124.508 40.301 125.47 40.4991 126.252 40.8953C127.035 41.2819 127.799 41.881 128.543 42.6928V36.851C128.543 36.0392 128.702 35.4255 129.021 35.01C129.35 34.5944 129.814 34.3867 130.413 34.3867C131.012 34.3867 131.471 34.5799 131.79 34.9665C132.118 35.3434 132.283 35.9039 132.283 36.648V54.101C132.283 54.8548 132.109 55.4202 131.761 55.7971C131.413 56.174 130.964 56.3624 130.413 56.3624C129.872 56.3624 129.422 56.1691 129.065 55.7826C128.717 55.3863 128.543 54.8258 128.543 54.101ZM120.759 48.2882C120.759 49.3609 120.923 50.2741 121.251 51.0279C121.59 51.7817 122.049 52.3519 122.628 52.7384C123.208 53.1153 123.841 53.3038 124.527 53.3038C125.223 53.3038 125.856 53.125 126.426 52.7674C127.006 52.4002 127.465 51.8445 127.804 51.1004C128.151 50.3466 128.325 49.4092 128.325 48.2882C128.325 47.2348 128.151 46.3313 127.804 45.5775C127.465 44.814 127.001 44.2342 126.412 43.838C125.832 43.4321 125.194 43.2291 124.498 43.2291C123.774 43.2291 123.126 43.4369 122.556 43.8525C121.986 44.2583 121.541 44.8478 121.222 45.621C120.913 46.3844 120.759 47.2735 120.759 48.2882ZM147.098 54.101V53.7097C146.566 54.3185 146.039 54.8162 145.517 55.2027C145.005 55.5796 144.445 55.8647 143.836 56.058C143.237 56.2609 142.58 56.3624 141.865 56.3624C140.917 56.3624 140.038 56.1643 139.226 55.7681C138.424 55.3622 137.728 54.7872 137.139 54.0431C136.549 53.2989 136.1 52.4244 135.791 51.4193C135.491 50.4143 135.341 49.3271 135.341 48.1577C135.341 45.6838 135.945 43.7558 137.153 42.3739C138.361 40.9919 139.951 40.301 141.922 40.301C143.063 40.301 144.024 40.4991 144.807 40.8953C145.59 41.2819 146.353 41.881 147.098 42.6928V36.851C147.098 36.0392 147.257 35.4255 147.576 35.01C147.904 34.5944 148.368 34.3867 148.967 34.3867C149.567 34.3867 150.026 34.5799 150.345 34.9665C150.673 35.3434 150.837 35.9039 150.837 36.648V54.101C150.837 54.8548 150.664 55.4202 150.316 55.7971C149.968 56.174 149.518 56.3624 148.967 56.3624C148.426 56.3624 147.977 56.1691 147.619 55.7826C147.271 55.3863 147.098 54.8258 147.098 54.101ZM139.313 48.2882C139.313 49.3609 139.478 50.2741 139.806 51.0279C140.144 51.7817 140.603 52.3519 141.183 52.7384C141.763 53.1153 142.396 53.3038 143.082 53.3038C143.778 53.3038 144.411 53.125 144.981 52.7674C145.561 52.4002 146.02 51.8445 146.358 51.1004C146.706 50.3466 146.88 49.4092 146.88 48.2882C146.88 47.2348 146.706 46.3313 146.358 45.5775C146.02 44.814 145.556 44.2342 144.967 43.838C144.387 43.4321 143.749 43.2291 143.053 43.2291C142.328 43.2291 141.681 43.4369 141.111 43.8525C140.541 44.2583 140.096 44.8478 139.777 45.621C139.468 46.3844 139.313 47.2735 139.313 48.2882ZM165.826 42.4609V42.9392C166.522 42.0211 167.281 41.3495 168.102 40.9243C168.933 40.4894 169.885 40.272 170.958 40.272C172.001 40.272 172.934 40.4991 173.755 40.9533C174.577 41.4075 175.191 42.0501 175.596 42.8812C175.857 43.3644 176.026 43.8863 176.104 44.4468C176.181 45.0073 176.22 45.7224 176.22 46.5922V53.9561C176.22 54.7485 176.036 55.3477 175.669 55.7536C175.311 56.1595 174.843 56.3624 174.263 56.3624C173.673 56.3624 173.195 56.1546 172.828 55.7391C172.46 55.3235 172.277 54.7292 172.277 53.9561V47.3605C172.277 46.0558 172.093 45.0604 171.726 44.3743C171.368 43.6785 170.648 43.3306 169.566 43.3306C168.861 43.3306 168.218 43.5432 167.638 43.9684C167.058 44.384 166.633 44.959 166.363 45.6934C166.169 46.2829 166.073 47.3846 166.073 48.9985V53.9561C166.073 54.7582 165.884 55.3622 165.507 55.7681C165.14 56.1643 164.662 56.3624 164.072 56.3624C163.502 56.3624 163.033 56.1546 162.666 55.7391C162.299 55.3235 162.115 54.7292 162.115 53.9561V42.5188C162.115 41.7651 162.28 41.2045 162.608 40.8373C162.937 40.4604 163.386 40.272 163.956 40.272C164.304 40.272 164.618 40.3541 164.898 40.5184C165.179 40.6827 165.401 40.9291 165.565 41.2577C165.739 41.5863 165.826 41.9873 165.826 42.4609ZM191.223 49.2884H183.482C183.492 50.1872 183.671 50.9796 184.019 51.6657C184.376 52.3519 184.845 52.8689 185.425 53.2168C186.014 53.5647 186.662 53.7386 187.367 53.7386C187.841 53.7386 188.271 53.6855 188.657 53.5792C189.053 53.4632 189.435 53.2893 189.802 53.0573C190.17 52.8157 190.508 52.5596 190.817 52.2891C191.126 52.0185 191.527 51.6512 192.02 51.1874C192.223 51.0134 192.513 50.9264 192.89 50.9264C193.296 50.9264 193.624 51.0376 193.876 51.2598C194.127 51.4821 194.253 51.7962 194.253 52.2021C194.253 52.5596 194.112 52.98 193.832 53.4632C193.552 53.9368 193.127 54.3958 192.557 54.8403C191.996 55.2752 191.286 55.6376 190.426 55.9275C189.575 56.2174 188.594 56.3624 187.483 56.3624C184.941 56.3624 182.965 55.6376 181.554 54.188C180.143 52.7384 179.438 50.7718 179.438 48.2882C179.438 47.1189 179.612 46.0365 179.96 45.0411C180.308 44.0361 180.815 43.176 181.482 42.4609C182.149 41.7457 182.97 41.1997 183.946 40.8228C184.922 40.4363 186.004 40.243 187.193 40.243C188.739 40.243 190.063 40.5716 191.165 41.2287C192.276 41.8762 193.107 42.7169 193.658 43.751C194.209 44.785 194.485 45.8384 194.485 46.9111C194.485 47.9065 194.199 48.554 193.629 48.8535C193.059 49.1435 192.257 49.2884 191.223 49.2884ZM183.482 47.0416H190.658C190.561 45.6886 190.194 44.6787 189.556 44.0119C188.928 43.3354 188.097 42.9972 187.063 42.9972C186.077 42.9972 185.265 43.3403 184.627 44.0264C183.999 44.7029 183.617 45.7079 183.482 47.0416ZM199.891 42.7363L202.472 51.5788L204.82 43.3596C205.071 42.4995 205.255 41.9148 205.371 41.6056C205.497 41.2867 205.724 40.9871 206.052 40.7069C206.39 40.4169 206.85 40.272 207.429 40.272C208.019 40.272 208.478 40.4169 208.806 40.7069C209.145 40.9871 209.381 41.2964 209.517 41.6346C209.652 41.9632 209.84 42.5382 210.082 43.3596L212.43 51.5788L215.04 42.7363C215.214 42.0985 215.354 41.6394 215.46 41.3592C215.566 41.0693 215.745 40.818 215.996 40.6054C216.248 40.3831 216.61 40.272 217.084 40.272C217.557 40.272 217.968 40.4363 218.316 40.7648C218.664 41.0934 218.838 41.48 218.838 41.9245C218.838 42.3304 218.688 42.9441 218.388 43.7655L215.156 53.2458C214.875 54.0479 214.658 54.6277 214.503 54.9853C214.349 55.3429 214.102 55.6618 213.764 55.942C213.435 56.2223 212.981 56.3624 212.401 56.3624C211.802 56.3624 211.329 56.2126 210.981 55.913C210.643 55.6134 210.391 55.2462 210.227 54.8113C210.063 54.3765 209.884 53.8111 209.691 53.1153L207.429 45.4035L205.24 53.1153C204.951 54.188 204.636 54.9998 204.298 55.5506C203.96 56.0918 203.366 56.3624 202.515 56.3624C202.08 56.3624 201.708 56.2754 201.399 56.1015C201.099 55.9372 200.848 55.7004 200.645 55.3912C200.442 55.0723 200.264 54.7002 200.109 54.275C199.954 53.8401 199.834 53.497 199.747 53.2458L196.543 43.7655C196.224 42.8764 196.065 42.2627 196.065 41.9245C196.065 41.4993 196.234 41.1176 196.572 40.7793C196.91 40.4411 197.326 40.272 197.819 40.272C198.476 40.272 198.92 40.4604 199.152 40.8373C199.384 41.2045 199.631 41.8375 199.891 42.7363ZM229.217 40.6199H229.652V38.2426C229.652 37.6047 229.666 37.107 229.695 36.7495C229.734 36.3823 229.83 36.0682 229.985 35.8073C230.14 35.5367 230.362 35.3192 230.652 35.1549C230.942 34.981 231.265 34.894 231.623 34.894C232.125 34.894 232.58 35.0825 232.986 35.4593C233.256 35.7106 233.425 36.0199 233.493 36.3871C233.57 36.7447 233.609 37.2568 233.609 37.9236V40.6199H235.058C235.619 40.6199 236.044 40.7552 236.334 41.0258C236.634 41.2867 236.783 41.6249 236.783 42.0405C236.783 42.572 236.571 42.9441 236.146 43.1567C235.73 43.3693 235.131 43.4756 234.348 43.4756H233.609V50.7525C233.609 51.371 233.628 51.8493 233.667 52.1876C233.715 52.5162 233.831 52.7867 234.015 52.9994C234.208 53.2023 234.517 53.3038 234.943 53.3038C235.174 53.3038 235.489 53.2651 235.885 53.1878C236.281 53.1008 236.59 53.0573 236.812 53.0573C237.131 53.0573 237.416 53.1878 237.668 53.4487C237.929 53.7 238.059 54.0141 238.059 54.391C238.059 55.0288 237.711 55.5168 237.015 55.855C236.32 56.1933 235.319 56.3624 234.015 56.3624C232.778 56.3624 231.84 56.1546 231.203 55.7391C230.565 55.3235 230.144 54.7485 229.941 54.0141C229.748 53.2796 229.652 52.2987 229.652 51.0714V43.4756H229.13C228.559 43.4756 228.125 43.3403 227.825 43.0697C227.525 42.7991 227.376 42.456 227.376 42.0405C227.376 41.6249 227.53 41.2867 227.84 41.0258C228.158 40.7552 228.617 40.6199 229.217 40.6199ZM243.452 50.651V53.9561C243.452 54.7582 243.263 55.3622 242.886 55.7681C242.509 56.1643 242.031 56.3624 241.451 56.3624C240.881 56.3624 240.412 56.1595 240.045 55.7536C239.678 55.3477 239.494 54.7485 239.494 53.9561V42.9392C239.494 41.1611 240.137 40.272 241.422 40.272C242.079 40.272 242.553 40.4798 242.843 40.8953C243.133 41.3108 243.292 41.9245 243.321 42.7363C243.795 41.9245 244.278 41.3108 244.771 40.8953C245.273 40.4798 245.94 40.272 246.771 40.272C247.602 40.272 248.409 40.4798 249.192 40.8953C249.975 41.3108 250.366 41.8617 250.366 42.5478C250.366 43.031 250.197 43.4321 249.859 43.751C249.53 44.0602 249.173 44.2149 248.786 44.2149C248.641 44.2149 248.288 44.1279 247.728 43.9539C247.177 43.7703 246.689 43.6785 246.264 43.6785C245.684 43.6785 245.21 43.8331 244.843 44.1424C244.476 44.442 244.191 44.8913 243.988 45.4905C243.785 46.0897 243.645 46.8048 243.568 47.6359C243.49 48.4573 243.452 49.4624 243.452 50.651ZM261.789 54.13C260.832 54.8742 259.904 55.4347 259.006 55.8116C258.117 56.1788 257.116 56.3624 256.005 56.3624C254.99 56.3624 254.096 56.1643 253.323 55.7681C252.56 55.3622 251.97 54.8162 251.555 54.13C251.139 53.4439 250.931 52.6998 250.931 51.8977C250.931 50.8153 251.275 49.8924 251.961 49.129C252.647 48.3655 253.589 47.8533 254.787 47.5924C255.039 47.5344 255.662 47.4039 256.657 47.201C257.653 46.9981 258.503 46.8144 259.209 46.6502C259.924 46.4762 260.697 46.2684 261.528 46.0268C261.48 44.9831 261.267 44.2197 260.89 43.7365C260.523 43.2436 259.755 42.9972 258.585 42.9972C257.58 42.9972 256.822 43.1373 256.309 43.4176C255.807 43.6978 255.372 44.1182 255.005 44.6787C254.647 45.2392 254.391 45.6113 254.237 45.7949C254.092 45.9689 253.773 46.0558 253.28 46.0558C252.835 46.0558 252.449 45.9157 252.12 45.6355C251.801 45.3455 251.642 44.9783 251.642 44.5338C251.642 43.838 251.888 43.1615 252.381 42.5043C252.874 41.8472 253.642 41.306 254.686 40.8808C255.73 40.4556 257.029 40.243 258.585 40.243C260.325 40.243 261.692 40.4508 262.688 40.8663C263.683 41.2722 264.384 41.9197 264.789 42.8088C265.205 43.6978 265.413 44.8768 265.413 46.3457C265.413 47.2735 265.408 48.0611 265.398 48.7086C265.398 49.3561 265.393 50.076 265.384 50.8685C265.384 51.6126 265.505 52.3905 265.746 53.2023C265.997 54.0044 266.123 54.5214 266.123 54.7534C266.123 55.1592 265.93 55.5313 265.543 55.8695C265.166 56.1981 264.736 56.3624 264.253 56.3624C263.847 56.3624 263.446 56.174 263.05 55.7971C262.654 55.4105 262.233 54.8548 261.789 54.13ZM261.528 48.4042C260.948 48.6168 260.102 48.8439 258.991 49.0855C257.889 49.3174 257.126 49.4914 256.701 49.6073C256.276 49.7136 255.87 49.9311 255.483 50.2596C255.097 50.5785 254.903 51.0279 254.903 51.6078C254.903 52.2069 255.13 52.7191 255.585 53.1443C256.039 53.5599 256.633 53.7676 257.368 53.7676C258.15 53.7676 258.87 53.5985 259.527 53.2603C260.194 52.9124 260.682 52.4678 260.992 51.9267C261.349 51.3275 261.528 50.3418 261.528 48.9695V48.4042ZM283.634 51.4628C283.634 51.9557 283.484 52.4823 283.185 53.0428C282.895 53.6033 282.445 54.1397 281.837 54.6519C281.237 55.1544 280.479 55.5603 279.561 55.8695C278.643 56.1788 277.609 56.3334 276.459 56.3334C274.014 56.3334 272.105 55.6231 270.733 54.2025C269.361 52.7723 268.674 50.8588 268.674 48.4621C268.674 46.8386 268.988 45.4035 269.617 44.1569C270.245 42.9102 271.153 41.9487 272.342 41.2722C273.531 40.5861 274.951 40.243 276.604 40.243C277.628 40.243 278.565 40.3928 279.416 40.6924C280.276 40.9919 281.001 41.3785 281.59 41.852C282.189 42.3256 282.644 42.8329 282.953 43.3741C283.272 43.9056 283.431 44.4033 283.431 44.8672C283.431 45.3407 283.252 45.7418 282.895 46.0703C282.547 46.3989 282.122 46.5632 281.619 46.5632C281.291 46.5632 281.015 46.481 280.793 46.3168C280.58 46.1428 280.339 45.8674 280.068 45.4905C279.585 44.756 279.078 44.2052 278.546 43.838C278.024 43.4707 277.357 43.2871 276.546 43.2871C275.376 43.2871 274.434 43.7462 273.719 44.6642C273.004 45.5726 272.646 46.8193 272.646 48.4042C272.646 49.1483 272.738 49.8344 272.922 50.4626C273.105 51.0811 273.371 51.6126 273.719 52.0571C274.067 52.492 274.487 52.8254 274.98 53.0573C275.473 53.2796 276.014 53.3907 276.604 53.3907C277.396 53.3907 278.073 53.2071 278.633 52.8399C279.203 52.4727 279.706 51.9122 280.141 51.1584C280.382 50.7138 280.643 50.3659 280.923 50.1147C281.204 49.8634 281.547 49.7378 281.953 49.7378C282.436 49.7378 282.837 49.9214 283.156 50.2886C283.475 50.6559 283.634 51.0472 283.634 51.4628ZM295.825 54.5504L292.332 48.81L290.186 50.8395V53.9851C290.186 54.7485 289.983 55.338 289.577 55.7536C289.181 56.1595 288.722 56.3624 288.2 56.3624C287.592 56.3624 287.113 56.1595 286.765 55.7536C286.417 55.3477 286.243 54.7485 286.243 53.9561V37.0829C286.243 36.2035 286.413 35.5367 286.751 35.0825C287.089 34.6186 287.572 34.3867 288.2 34.3867C288.809 34.3867 289.292 34.5944 289.65 35.01C290.007 35.4255 290.186 36.0392 290.186 36.851V46.4472L294.637 41.7795C295.187 41.1997 295.608 40.8035 295.898 40.5909C296.188 40.3783 296.54 40.272 296.956 40.272C297.449 40.272 297.859 40.4314 298.188 40.7503C298.517 41.0596 298.681 41.451 298.681 41.9245C298.681 42.5043 298.145 43.2775 297.072 44.2438L294.97 46.1718L299.029 52.55C299.328 53.0235 299.541 53.3859 299.667 53.6372C299.802 53.8788 299.87 54.1107 299.87 54.333C299.87 54.9611 299.696 55.4588 299.348 55.826C299.009 56.1836 298.56 56.3624 298 56.3624C297.516 56.3624 297.144 56.2319 296.883 55.971C296.622 55.7101 296.27 55.2366 295.825 54.5504Z" fill="black"/>
<path fill-rule="evenodd" clip-rule="evenodd" d="M44.9077 19C40.4044 19 36.7538 22.6506 36.7538 27.1538V37.7538H26.1538C21.6506 37.7538 18 41.4044 18 45.9077C18 50.4109 21.6506 54.0615 26.1538 54.0615H36.7538V63.8462C36.7538 68.3494 40.4044 72 44.9077 72C49.4109 72 53.0615 68.3494 53.0615 63.8462V54.0615H62.8462C67.3494 54.0615 71 50.4109 71 45.9077C71 41.4044 67.3494 37.7538 62.8462 37.7538H53.0615V27.1538C53.0615 22.6506 49.4109 19 44.9077 19Z" fill="#E6E6E6"/>
</svg>
