<svg width="70" height="70" viewBox="0 0 70 70" fill="none" xmlns="http://www.w3.org/2000/svg">
<path fill-rule="evenodd" clip-rule="evenodd" d="M35 70C54.33 70 70 54.33 70 35C70 15.67 54.33 0 35 0C15.67 0 0 15.67 0 35C0 54.33 15.67 70 35 70ZM46.4319 20.6142C48.8304 21.3369 51.0339 21.7793 52.9812 21.9288C53.3845 21.9598 53.6864 22.3118 53.6554 22.7151C53.6259 23.0994 53.305 23.3915 52.9259 23.3915C52.9072 23.3915 52.8881 23.3909 52.8691 23.3893C50.8167 23.2317 48.5087 22.77 46.0092 22.0167C43.4668 21.2504 41.0063 21.3654 38.6966 22.3583C38.3245 22.5182 37.8942 22.3461 37.7344 21.9746C37.5748 21.6029 37.7464 21.1722 38.1181 21.0124C40.7533 19.8797 43.5503 19.7456 46.4319 20.6142ZM52.9811 25.0416C51.0343 24.8922 48.8309 24.4499 46.4319 23.727C43.5503 22.8584 40.7533 22.9925 38.1181 24.1252C37.7464 24.285 37.5748 24.7157 37.7344 25.0874C37.8942 25.459 38.3245 25.631 38.6966 25.4711C41.0063 24.4782 43.4668 24.3632 46.0092 25.1295C48.5093 25.8829 50.8172 26.3447 52.8692 26.5022C52.8882 26.5037 52.9072 26.5043 52.9259 26.5043C53.305 26.5043 53.6259 26.2122 53.6554 25.8278C53.6864 25.4245 53.3845 25.0726 52.9811 25.0416ZM46.4319 39.2911C48.8303 40.0139 51.0338 40.4563 52.9812 40.6058C53.3845 40.6368 53.6864 40.9888 53.6554 41.3922C53.6259 41.7764 53.305 42.0685 52.9259 42.0685C52.9072 42.0685 52.8881 42.0679 52.8691 42.0664C50.8166 41.9088 48.5086 41.4469 46.0092 40.6936C43.4668 39.9276 41.0064 40.0424 38.6966 41.0353C38.3245 41.1952 37.8942 41.0231 37.7344 40.6516C37.5748 40.2799 37.7464 39.8492 38.1181 39.6894C40.7536 38.5567 43.5505 38.4225 46.4319 39.2911ZM52.9812 43.7187C51.0339 43.5692 48.8304 43.1268 46.4319 42.404C43.5503 41.5356 40.7533 41.6696 38.1181 42.8023C37.7464 42.962 37.5748 43.3928 37.7344 43.7645C37.8942 44.1361 38.3245 44.308 38.6966 44.1482C41.0063 43.1553 43.4668 43.0403 46.0092 43.8066C48.5087 44.5599 50.8167 45.0216 52.8691 45.1792C52.8881 45.1808 52.9072 45.1814 52.9259 45.1814C53.305 45.1814 53.6259 44.8893 53.6554 44.505C53.6864 44.1017 53.3845 43.7496 52.9812 43.7187ZM46.4319 26.8398C48.8303 27.5627 51.0338 28.005 52.9812 28.1546C53.3845 28.1855 53.6864 28.5376 53.6554 28.9409C53.6259 29.3252 53.305 29.6172 52.9259 29.6172C52.9182 29.6172 52.9103 29.6171 52.9025 29.6169L52.883 29.6161L52.8691 29.6151C50.8166 29.4575 48.5086 28.9957 46.0092 28.2423C43.4668 27.4762 41.0064 27.5912 38.6966 28.584C38.3245 28.7438 37.8942 28.5718 37.7344 28.2004C37.5748 27.8287 37.7464 27.3979 38.1181 27.2381C40.7536 26.1053 43.5505 25.9714 46.4319 26.8398ZM52.9811 34.38C51.0343 34.2307 48.8309 33.7884 46.4319 33.0655C43.5505 32.1969 40.7534 32.331 38.1181 33.4637C37.7464 33.6235 37.5748 34.0543 37.7344 34.4259C37.8942 34.7975 38.3245 34.9695 38.6966 34.8096C41.0062 33.8169 43.4668 33.7018 46.0092 34.468C48.5093 35.2214 50.8172 35.6833 52.8692 35.8408C52.8882 35.8422 52.9072 35.8428 52.9259 35.8428C53.305 35.8428 53.6259 35.5507 53.6554 35.1664C53.6864 34.763 53.3845 34.4111 52.9811 34.38ZM46.4319 29.9527C48.8304 30.6754 51.0339 31.1178 52.9812 31.2673C53.3845 31.2983 53.6864 31.6503 53.6554 32.0536C53.6259 32.4379 53.305 32.73 52.9259 32.73C52.9072 32.73 52.8881 32.7294 52.8691 32.7279C50.8167 32.5702 48.5087 32.1085 46.0092 31.3552C43.4668 30.589 41.0066 30.7039 38.6966 31.6968C38.3245 31.8567 37.8942 31.6846 37.7344 31.3131C37.5748 30.9414 37.7464 30.5107 38.1181 30.3509C40.7534 29.2182 43.5506 29.0841 46.4319 29.9527ZM52.9811 37.4929C51.034 37.3436 48.8305 36.9012 46.4319 36.1783C43.5505 35.3099 40.7536 35.4439 38.1181 36.5767C37.7464 36.7364 37.5748 37.1672 37.7344 37.5389C37.8942 37.9104 38.3245 38.0823 38.6966 37.9226C41.0064 36.9297 43.4668 36.8148 46.0092 37.5809C48.5089 38.3343 50.8168 38.7961 52.8692 38.9536L52.8845 38.9546L52.9032 38.9554L52.9131 38.9556L52.9259 38.9557C53.305 38.9557 53.6259 38.6636 53.6554 38.2792C53.6864 37.8759 53.3845 37.5239 52.9811 37.4929ZM17.1313 23.3893C17.1122 23.3908 17.0932 23.3915 17.0744 23.3915C16.6954 23.3915 16.3744 23.0994 16.345 22.7151C16.314 22.3118 16.6158 21.9597 17.0192 21.9288C18.9664 21.7793 21.1698 21.3369 23.5685 20.6141C26.4499 19.7457 29.2471 19.8796 31.8822 21.0124C32.2539 21.1722 32.4257 21.6029 32.2659 21.9746C32.1061 22.3462 31.6753 22.5181 31.3037 22.3583C28.9939 21.3653 26.5336 21.2505 23.9911 22.0167C21.4916 22.77 19.1837 23.2318 17.1313 23.3893ZM17.0744 26.5043C17.0932 26.5043 17.1122 26.5036 17.1312 26.5021C19.1831 26.3448 21.4911 25.8829 23.9911 25.1295C26.5336 24.3632 28.9939 24.478 31.3037 25.4711C31.6753 25.6307 32.1061 25.459 32.2659 25.0874C32.4257 24.7157 32.2539 24.2849 31.8822 24.1252C29.2471 22.9924 26.4499 22.8586 23.5685 23.7269C21.1694 24.4499 18.9659 24.8922 17.0193 25.0416C16.6158 25.0724 16.314 25.4245 16.345 25.8278C16.3744 26.2122 16.6954 26.5043 17.0744 26.5043ZM17.1313 42.0664C17.1122 42.0679 17.0932 42.0685 17.0744 42.0685C16.6954 42.0685 16.3744 41.7764 16.345 41.3922C16.314 40.9888 16.6158 40.6367 17.0192 40.6058C18.9665 40.4563 21.1699 40.0139 23.5685 39.2911C26.4499 38.4227 29.2471 38.5566 31.8822 39.6894C32.2539 39.8492 32.4257 40.28 32.2659 40.6516C32.1061 41.0232 31.6753 41.195 31.3037 41.0353C28.9939 40.0425 26.5337 39.9272 23.9911 40.6936C21.4917 41.447 19.1838 41.9089 17.1313 42.0664ZM17.0744 45.1813C17.0932 45.1813 17.1122 45.1806 17.1313 45.1791C19.1837 45.0216 21.4916 44.5598 23.9911 43.8065C26.5336 43.0402 28.9939 43.155 31.3037 44.1481C31.6753 44.3076 32.1061 44.136 32.2659 43.7644C32.4257 43.3927 32.2539 42.9619 31.8822 42.8022C29.2471 41.6694 26.4499 41.5355 23.5685 42.4039C21.1698 43.1267 18.9664 43.5691 17.0192 43.7186C16.6158 43.7494 16.314 44.1016 16.345 44.5049C16.3744 44.8892 16.6954 45.1813 17.0744 45.1813ZM17.1313 29.6149C17.1122 29.6164 17.0932 29.6171 17.0744 29.6171C16.6954 29.6171 16.3744 29.325 16.345 28.9407C16.314 28.5374 16.6158 28.1852 17.0192 28.1544C18.9665 28.0049 21.1699 27.5625 23.5685 26.8396C26.4499 25.9713 29.2471 26.1052 31.8822 27.238C32.2539 27.3977 32.4257 27.8285 32.2659 28.2002C32.1061 28.5718 31.6753 28.7435 31.3037 28.5839C28.9939 27.591 26.5337 27.4759 23.9911 28.2422C21.4917 28.9955 19.1838 29.4574 17.1313 29.6149ZM17.0744 35.8428C17.0932 35.8428 17.1122 35.8421 17.1312 35.8407C19.1831 35.6833 21.4911 35.2214 23.9911 34.468C26.5336 33.7018 28.9939 33.8165 31.3037 34.8096C31.6753 34.9693 32.1061 34.7975 32.2659 34.4259C32.4257 34.0542 32.2539 33.6235 31.8822 33.4637C29.2472 32.331 26.4501 32.197 23.5685 33.0654C21.1694 33.7884 18.9659 34.2307 17.0193 34.38C16.6158 34.411 16.314 34.763 16.345 35.1663C16.3744 35.5507 16.6954 35.8428 17.0744 35.8428ZM17.1313 32.7279C17.1122 32.7293 17.0932 32.73 17.0744 32.73C16.6954 32.73 16.3744 32.4379 16.345 32.0536C16.314 31.6503 16.6158 31.2982 17.0192 31.2673C18.9664 31.1178 21.1698 30.6754 23.5685 29.9527C26.4499 29.084 29.2469 29.2181 31.8822 30.3509C32.2539 30.5107 32.4257 30.9414 32.2659 31.3131C32.1061 31.6847 31.6753 31.8564 31.3037 31.6968C28.9938 30.7037 26.5335 30.5891 23.9911 31.3552C21.4916 32.1085 19.1837 32.5703 17.1313 32.7279ZM17.0744 38.9557C17.0932 38.9557 17.1122 38.955 17.1312 38.9536C19.1835 38.7962 21.4914 38.3343 23.9911 37.5809C26.5337 36.8145 28.9939 36.9297 31.3037 37.9226C31.6753 38.0823 32.1061 37.9104 32.2659 37.5389C32.4257 37.1672 32.2539 36.7364 31.8822 36.5767C29.2471 35.4439 26.4499 35.3099 23.5685 36.1783C21.1698 36.9012 18.9662 37.3436 17.0193 37.4929C16.6158 37.5238 16.314 37.8759 16.345 38.2792C16.3744 38.6636 16.6954 38.9557 17.0744 38.9557ZM57.0645 19.1647H58.2111C59.1975 19.1647 59.9999 19.967 60 20.9535V33.3469C60 33.7515 59.6722 34.0793 59.2676 34.0793C58.863 34.0793 58.5352 33.7515 58.5352 33.3469V20.9535C58.5352 20.7748 58.3898 20.6295 58.2112 20.6295H57.0646V48.6779C57.0646 49.0102 56.8409 49.3009 56.5196 49.3859C56.3804 49.4227 53.026 50.2652 46.0091 48.1506C41.5999 46.8221 38.3081 48.4809 36.7381 49.5881C35.6667 50.3438 34.2674 50.2969 33.2622 49.5882C30.6625 47.7549 27.3859 47.1276 23.9911 48.1506C16.9745 50.2653 13.6198 49.4228 13.4806 49.3859C13.1593 49.3009 12.9356 49.0102 12.9356 48.6779V20.6295H11.7888C11.6102 20.6295 11.4648 20.7748 11.4648 20.9535V50.6549C11.4648 50.8336 11.6102 50.9789 11.7889 50.9789H30.7661C31.6142 50.9789 32.392 51.4653 32.7477 52.2179C33.6463 54.1194 36.357 54.1119 37.2524 52.2178C37.6081 51.4651 38.3859 50.9789 39.2339 50.9789H58.211C58.3896 50.9789 58.5349 50.8336 58.5349 50.6549V36.7649C58.5349 36.3603 58.8627 36.0324 59.2673 36.0324C59.6719 36.0324 59.9997 36.3603 59.9997 36.7649V50.655C59.9997 51.6414 59.1974 52.4438 58.211 52.4438H39.2338C38.9494 52.4438 38.6915 52.601 38.5766 52.8439C37.1499 55.8624 32.8447 55.8514 31.4232 52.8439C31.3084 52.6008 31.0505 52.4438 30.7661 52.4438H11.7889C10.8025 52.4438 10 51.6415 10 50.655V20.9535C10 19.967 10.8024 19.1647 11.7888 19.1647H12.9356V18.4964C12.9356 17.5617 13.7331 16.8185 14.67 16.8937C15.9901 16.9991 18.902 16.9673 23.5683 15.5611C27.916 14.2505 32.0842 15.3731 34.9981 17.9002C36.2691 16.7913 39.7089 14.3564 44.6938 15.1595C45.0932 15.2239 45.3648 15.5997 45.3004 15.999C45.2361 16.3985 44.86 16.6705 44.4609 16.6057C39.7135 15.8418 36.5237 18.4709 35.7323 19.2132V48.4897C35.817 48.4438 35.9345 48.3693 36.0839 48.2747C37.3761 47.4557 41.0514 45.1266 46.4316 46.7481C49.1189 47.5579 52.8252 48.3521 55.5996 48.0528V18.4964C55.5996 18.4125 55.5304 18.3478 55.4471 18.3536C54.0168 18.4686 51.5316 18.4074 47.8154 17.4651C47.4233 17.3658 47.186 16.9673 47.2855 16.5751C47.3847 16.1831 47.7832 15.9455 48.1754 16.0452C51.8827 16.9853 54.2492 16.98 55.33 16.8936C56.2656 16.8191 57.0645 17.5599 57.0645 18.4964V19.1647ZM14.5529 18.3536C14.4675 18.3477 14.4004 18.4143 14.4004 18.4964L14.4003 48.0532C16.8271 48.3145 19.9644 47.7312 22.3228 47.1021L22.3374 47.0982C22.7391 46.9909 23.1733 46.8672 23.5683 46.7482C29.1839 45.0555 33.1026 47.7066 34.0703 48.3613C34.1643 48.4248 34.2304 48.4696 34.2676 48.4897V19.2138C31.7451 16.8519 27.9566 15.7688 23.9911 16.9635C19.0945 18.4392 15.9758 18.4681 14.5529 18.3536Z" fill="#8ACD84"/>
</svg>
