<svg width="70" height="70" viewBox="0 0 70 70" fill="none" xmlns="http://www.w3.org/2000/svg">
<path fill-rule="evenodd" clip-rule="evenodd" d="M35 70C54.33 70 70 54.33 70 35C70 15.67 54.33 0 35 0C15.67 0 0 15.67 0 35C0 54.33 15.67 70 35 70ZM17.3242 14.1966C17.5928 14.1966 17.8125 14.1523 17.8125 14.0983C17.8125 14.0331 23.6067 14 35 14C46.3933 14 52.1875 14.0331 52.1875 14.0983C52.1875 14.1523 52.4072 14.1966 52.6758 14.1966C52.9443 14.1966 53.1641 14.2408 53.1641 14.2949C53.1641 14.3489 53.3398 14.3931 53.5547 14.3931C53.7695 14.3931 53.9453 14.4374 53.9453 14.4914C53.9453 14.5455 54.0332 14.5897 54.1406 14.5897C54.248 14.5897 54.3359 14.6339 54.3359 14.688C54.3359 14.742 54.4238 14.7863 54.5312 14.7863C54.6387 14.7863 54.7266 14.8305 54.7266 14.8846C54.7266 14.9386 54.8145 14.9828 54.9219 14.9828C55.0293 14.9828 55.1172 15.0271 55.1172 15.0811C55.1172 15.1352 55.2051 15.1794 55.3125 15.1794C55.4199 15.1794 55.5078 15.2236 55.5078 15.2777C55.5078 15.3317 55.586 15.376 55.6815 15.376C55.7771 15.376 55.9187 15.4644 55.9961 15.5725C56.0735 15.6806 56.1937 15.7691 56.2631 15.7691C56.4276 15.7691 58.2422 17.5953 58.2422 17.7609C58.2422 17.8308 58.3301 17.9517 58.4375 18.0296C58.5449 18.1076 58.6328 18.25 58.6328 18.3462C58.6328 18.4423 58.6768 18.521 58.7305 18.521C58.7842 18.521 58.8281 18.6095 58.8281 18.7176C58.8281 18.8257 58.8721 18.9142 58.9258 18.9142C58.9795 18.9142 59.0234 19.0026 59.0234 19.1107C59.0234 19.2189 59.0674 19.3073 59.1211 19.3073C59.1748 19.3073 59.2188 19.3958 59.2188 19.5039C59.2188 19.612 59.2627 19.7004 59.3164 19.7004C59.3701 19.7004 59.4141 19.8331 59.4141 19.9953C59.4141 20.1575 59.458 20.2901 59.5117 20.2901C59.5654 20.2901 59.6094 20.4228 59.6094 20.585C59.6094 20.7472 59.6533 20.8798 59.707 20.8798C59.7607 20.8798 59.8047 21.101 59.8047 21.3713C59.8047 21.6415 59.8486 21.8627 59.9023 21.8627C59.967 21.8627 60 27.1044 60 37.3915C60 47.6785 59.967 52.9203 59.9023 52.9203C59.8486 52.9203 59.8047 53.0972 59.8047 53.3134C59.8047 53.5296 59.7607 53.7065 59.707 53.7065C59.6533 53.7065 59.6094 53.795 59.6094 53.9031C59.6094 54.0112 59.5654 54.0997 59.5117 54.0997C59.458 54.0997 59.4141 54.1668 59.4141 54.249C59.4141 54.4433 58.193 55.6722 57.9999 55.6722C57.9183 55.6722 57.8516 55.7164 57.8516 55.7705C57.8516 55.8245 57.7637 55.8688 57.6562 55.8688C57.5488 55.8688 57.4609 55.913 57.4609 55.9671C57.4609 56.0211 57.2852 56.0653 57.0703 56.0653C56.8555 56.0653 56.6797 56.1096 56.6797 56.1636C56.6797 56.2289 49.388 56.2619 35 56.2619C20.612 56.2619 13.3203 56.2289 13.3203 56.1636C13.3203 56.1096 13.1445 56.0653 12.9297 56.0653C12.7148 56.0653 12.5391 56.0211 12.5391 55.9671C12.5391 55.913 12.4512 55.8688 12.3438 55.8688C12.2363 55.8688 12.1484 55.8245 12.1484 55.7705C12.1484 55.7164 12.0817 55.6722 12.0001 55.6722C11.807 55.6722 10.5859 54.4433 10.5859 54.249C10.5859 54.1668 10.542 54.0997 10.4883 54.0997C10.4346 54.0997 10.3906 54.0112 10.3906 53.9031C10.3906 53.795 10.3467 53.7065 10.293 53.7065C10.2393 53.7065 10.1953 53.5739 10.1953 53.4117C10.1953 53.2495 10.1514 53.1168 10.0977 53.1168C10.033 53.1168 10 47.8423 10 37.4898C10 27.1373 10.033 21.8627 10.0977 21.8627C10.1514 21.8627 10.1953 21.6415 10.1953 21.3713C10.1953 21.101 10.2393 20.8798 10.293 20.8798C10.3467 20.8798 10.3906 20.7029 10.3906 20.4867C10.3906 20.2705 10.4346 20.0936 10.4883 20.0936C10.542 20.0936 10.5859 20.0051 10.5859 19.897C10.5859 19.7889 10.6299 19.7004 10.6836 19.7004C10.7373 19.7004 10.7812 19.5678 10.7812 19.4056C10.7812 19.2434 10.8252 19.1107 10.8789 19.1107C10.9326 19.1107 10.9766 19.032 10.9766 18.9359C10.9766 18.8397 11.0645 18.6973 11.1719 18.6193C11.2793 18.5414 11.3672 18.4087 11.3672 18.3245C11.3672 18.2402 11.4551 18.1076 11.5625 18.0296C11.6699 17.9517 11.7578 17.8308 11.7578 17.7609C11.7578 17.5953 13.5724 15.7691 13.7369 15.7691C13.8063 15.7691 13.9265 15.6806 14.0039 15.5725C14.0813 15.4644 14.2132 15.376 14.2969 15.376C14.3806 15.376 14.5124 15.2875 14.5898 15.1794C14.6673 15.0713 14.8088 14.9828 14.9044 14.9828C14.9999 14.9828 15.0781 14.9386 15.0781 14.8846C15.0781 14.8305 15.21 14.7863 15.3711 14.7863C15.5322 14.7863 15.6641 14.742 15.6641 14.688C15.6641 14.6339 15.752 14.5897 15.8594 14.5897C15.9668 14.5897 16.0547 14.5455 16.0547 14.4914C16.0547 14.4374 16.2305 14.3931 16.4453 14.3931C16.6602 14.3931 16.8359 14.3489 16.8359 14.2949C16.8359 14.2408 17.0557 14.1966 17.3242 14.1966ZM17.5195 16.5554C17.6807 16.4039 17.8125 16.2092 17.8125 16.1228C17.8125 16.0363 17.7686 15.9657 17.7148 15.9657C17.6611 15.9657 17.6172 16.0099 17.6172 16.064C17.6172 16.118 17.4414 16.1622 17.2266 16.1622C17.0117 16.1622 16.8359 16.2065 16.8359 16.2605C16.8359 16.3146 16.7041 16.3588 16.543 16.3588C16.3818 16.3588 16.25 16.403 16.25 16.4571C16.25 16.5111 16.1621 16.5554 16.0547 16.5554C15.9473 16.5554 15.8594 16.5996 15.8594 16.6537C15.8594 16.7077 15.7812 16.7519 15.6856 16.7519C15.59 16.7519 15.4485 16.8404 15.3711 16.9485C15.2937 17.0566 15.1697 17.1451 15.0957 17.1451C15.0218 17.1451 14.838 17.2778 14.6875 17.4399C14.537 17.6021 14.3636 17.7348 14.3021 17.7348C14.1571 17.7348 13.7109 18.1838 13.7109 18.3297C13.7109 18.3916 13.5791 18.5662 13.418 18.7176C13.2568 18.8691 13.125 19.0638 13.125 19.1502C13.125 19.2366 13.0811 19.3073 13.0273 19.3073C12.9736 19.3073 12.9297 19.386 12.9297 19.4822C12.9297 19.5784 12.8418 19.7208 12.7344 19.7987C12.6197 19.882 12.5391 20.0532 12.5391 20.2136C12.5391 20.3638 12.4951 20.4867 12.4414 20.4867C12.3877 20.4867 12.3438 20.6194 12.3438 20.7816C12.3438 20.9437 12.2998 21.0764 12.2461 21.0764C12.1924 21.0764 12.1484 21.2533 12.1484 21.4695C12.1484 21.6858 12.1045 21.8627 12.0508 21.8627C11.9916 21.8627 11.9531 22.2885 11.9531 22.9438V24.0249H14.0039H16.0547V21.8627C16.0547 20.4867 16.0902 19.7004 16.1523 19.7004C16.2061 19.7004 16.25 19.5235 16.25 19.3073C16.25 19.0911 16.2939 18.9142 16.3477 18.9142C16.4014 18.9142 16.4453 18.7815 16.4453 18.6193C16.4453 18.4572 16.4893 18.3245 16.543 18.3245C16.5967 18.3245 16.6406 18.2015 16.6406 18.0513C16.6406 17.8909 16.7213 17.7197 16.8359 17.6365C16.9434 17.5585 17.0312 17.4161 17.0312 17.3199C17.0312 17.2238 17.0752 17.1451 17.1289 17.1451C17.1826 17.1451 17.2266 17.0744 17.2266 16.9879C17.2266 16.9015 17.3584 16.7068 17.5195 16.5554ZM48.2812 16.1622C48.0664 16.1622 47.8906 16.118 47.8906 16.064C47.8906 15.9989 43.4961 15.9657 34.9023 15.9657C26.3086 15.9657 21.9141 15.9989 21.9141 16.064C21.9141 16.118 21.7822 16.1622 21.6211 16.1622C21.46 16.1622 21.3281 16.2065 21.3281 16.2605C21.3281 16.3146 21.1963 16.3588 21.0352 16.3588C20.874 16.3588 20.7422 16.403 20.7422 16.4571C20.7422 16.5111 20.664 16.5554 20.5685 16.5554C20.4729 16.5554 20.3313 16.6438 20.2539 16.7519C20.1765 16.8601 20.0558 16.9485 19.9856 16.9485C19.9155 16.9485 19.6615 17.1463 19.4213 17.3882C19.181 17.63 18.9844 17.8856 18.9844 17.9562C18.9844 18.0268 18.8965 18.1483 18.7891 18.2262C18.6816 18.3041 18.5938 18.4465 18.5938 18.5428C18.5938 18.6389 18.5498 18.7176 18.4961 18.7176C18.4424 18.7176 18.3984 18.8061 18.3984 18.9142C18.3984 19.0223 18.3545 19.1107 18.3008 19.1107C18.2471 19.1107 18.2031 19.2877 18.2031 19.5039C18.2031 19.7201 18.1592 19.897 18.1055 19.897C18.0435 19.897 18.0078 20.6505 18.0078 21.961V24.0249H35H51.9922V21.961C51.9922 20.6505 51.9565 19.897 51.8945 19.897C51.8408 19.897 51.7969 19.7643 51.7969 19.6022C51.7969 19.44 51.7529 19.3073 51.6992 19.3073C51.6455 19.3073 51.6016 19.1844 51.6016 19.0342C51.6016 18.8738 51.5209 18.7026 51.4062 18.6193C51.2988 18.5414 51.2109 18.4204 51.2109 18.3503C51.2109 18.1715 49.7812 16.7519 49.6012 16.7519C49.5197 16.7519 49.4531 16.7077 49.4531 16.6537C49.4531 16.5996 49.3652 16.5554 49.2578 16.5554C49.1504 16.5554 49.0625 16.5111 49.0625 16.4571C49.0625 16.403 48.9746 16.3588 48.8672 16.3588C48.7598 16.3588 48.6719 16.3146 48.6719 16.2605C48.6719 16.2065 48.4961 16.1622 48.2812 16.1622ZM53.0664 16.3588C52.9053 16.3588 52.7734 16.3146 52.7734 16.2605C52.7734 16.2065 52.6416 16.1622 52.4805 16.1622C52.3193 16.1622 52.1875 16.2065 52.1875 16.2605C52.1875 16.3146 52.2314 16.3588 52.2852 16.3588C52.3389 16.3588 52.3828 16.4295 52.3828 16.516C52.3828 16.6024 52.5146 16.7971 52.6758 16.9485C52.8369 17.1 52.9688 17.2947 52.9688 17.3811C52.9688 17.4675 53.0127 17.5382 53.0664 17.5382C53.1201 17.5382 53.1641 17.6267 53.1641 17.7348C53.1641 17.8429 53.208 17.9313 53.2617 17.9313C53.3154 17.9313 53.3594 18.0198 53.3594 18.1279C53.3594 18.236 53.4033 18.3245 53.457 18.3245C53.5107 18.3245 53.5547 18.4572 53.5547 18.6193C53.5547 18.7815 53.5986 18.9142 53.6523 18.9142C53.7061 18.9142 53.75 19.0911 53.75 19.3073C53.75 19.5235 53.7939 19.7004 53.8477 19.7004C53.9098 19.7004 53.9453 20.4867 53.9453 21.8627V24.0249H55.9961H58.0469V23.0421C58.0469 22.4524 58.0078 22.0592 57.9492 22.0592C57.8955 22.0592 57.8516 21.8381 57.8516 21.5678C57.8516 21.2976 57.8076 21.0764 57.7539 21.0764C57.7002 21.0764 57.6562 20.9437 57.6562 20.7816C57.6562 20.6194 57.6123 20.4867 57.5586 20.4867C57.5049 20.4867 57.4609 20.3983 57.4609 20.2901C57.4609 20.182 57.417 20.0936 57.3633 20.0936C57.3096 20.0936 57.2656 20.0051 57.2656 19.897C57.2656 19.7889 57.2217 19.7004 57.168 19.7004C57.1143 19.7004 57.0703 19.6217 57.0703 19.5256C57.0703 19.4294 56.9824 19.287 56.875 19.209C56.7676 19.1311 56.6797 19.0101 56.6797 18.94C56.6797 18.774 55.2564 17.3416 55.0915 17.3416C55.0219 17.3416 54.9017 17.2532 54.8242 17.1451C54.7468 17.037 54.6053 16.9485 54.5097 16.9485C54.4142 16.9485 54.3359 16.9043 54.3359 16.8502C54.3359 16.7962 54.248 16.7519 54.1406 16.7519C54.0332 16.7519 53.9453 16.7077 53.9453 16.6537C53.9453 16.5996 53.8135 16.5554 53.6523 16.5554C53.4912 16.5554 53.3594 16.5111 53.3594 16.4571C53.3594 16.403 53.2275 16.3588 53.0664 16.3588ZM27.9688 28.1528V27.0717V25.9906H19.9609H11.9531V39.3571C11.9531 48.2027 11.9861 52.7237 12.0508 52.7237C12.1045 52.7237 12.1484 52.8354 12.1484 52.972C12.1484 53.3106 12.9325 54.0997 13.2689 54.0997C13.4046 54.0997 13.5156 54.1439 13.5156 54.198C13.5156 54.2632 20.7422 54.2962 35 54.2962C49.2578 54.2962 56.4844 54.2632 56.4844 54.198C56.4844 54.1439 56.5954 54.0997 56.7311 54.0997C56.8931 54.0997 57.1278 53.9486 57.4146 53.6599C57.7015 53.3713 57.8516 53.135 57.8516 52.972C57.8516 52.8354 57.8955 52.7237 57.9492 52.7237C58.0139 52.7237 58.0469 48.2027 58.0469 39.3571V25.9906H50.0391H42.0312V27.0717V28.1528H48.7251H55.419L55.6587 28.3941L55.8984 28.6353V40.1434V51.6515L55.6587 51.8927L55.419 52.134H35H14.581L14.3413 51.8927L14.1016 51.6515V40.1434V28.6353L14.3413 28.3941L14.581 28.1528H21.2749H27.9688ZM40.0781 31.4383C40.0781 27.0914 40.056 26.2491 39.9386 26.131C39.7311 25.9221 30.227 25.9284 30.0439 26.1376C29.8876 26.3164 29.8636 36.4086 30.0195 36.4086C30.0732 36.4086 30.1172 36.5413 30.1172 36.7035C30.1172 36.8657 30.1611 36.9983 30.2148 36.9983C30.2686 36.9983 30.3125 37.0662 30.3125 37.149C30.3125 37.3967 30.9619 37.9812 31.237 37.9812C31.373 37.9812 31.4844 38.0254 31.4844 38.0795C31.4844 38.1431 32.7214 38.1777 35 38.1777C37.2786 38.1777 38.5156 38.1431 38.5156 38.0795C38.5156 38.0254 38.627 37.9812 38.763 37.9812C39.0381 37.9812 39.6875 37.3967 39.6875 37.149C39.6875 37.0662 39.7314 36.9983 39.7852 36.9983C39.8389 36.9983 39.8828 36.9099 39.8828 36.8018C39.8828 36.6937 39.9268 36.6052 39.9805 36.6052C40.0443 36.6052 40.0781 34.8174 40.0781 31.4383ZM34.0234 28.3494C34.1309 28.3494 34.2188 28.3052 34.2188 28.2511C34.2188 28.1938 34.5442 28.1528 35 28.1528C35.4558 28.1528 35.7812 28.1938 35.7812 28.2511C35.7812 28.3052 35.8691 28.3494 35.9766 28.3494C36.084 28.3494 36.1719 28.3936 36.1719 28.4477C36.1719 28.5017 36.2397 28.546 36.3228 28.546C36.5182 28.546 36.9531 28.9837 36.9531 29.1804C36.9531 29.2639 36.9971 29.3322 37.0508 29.3322C37.1045 29.3322 37.1484 29.4207 37.1484 29.5288C37.1484 29.6369 37.1924 29.7254 37.2461 29.7254C37.303 29.7254 37.3438 30.0529 37.3438 30.5116C37.3438 30.9703 37.303 31.2979 37.2461 31.2979C37.1924 31.2979 37.1484 31.3864 37.1484 31.4945C37.1484 31.6026 37.1045 31.691 37.0508 31.691C36.9971 31.691 36.9531 31.7593 36.9531 31.8429C36.9531 32.0178 36.5269 32.4773 36.3646 32.4773C36.0269 32.4773 35.9766 32.7376 35.9766 34.4851V36.2121H35.6917C35.5351 36.2121 35.3813 36.1568 35.3499 36.0892C35.3044 35.9909 35.2815 35.9909 35.236 36.0892C35.1687 36.2344 34.4141 36.257 34.4141 36.1138C34.4141 36.0597 34.3262 36.0155 34.2188 36.0155C34.0312 36.0155 34.0234 35.9499 34.0234 34.3868C34.0234 32.7417 33.9697 32.4773 33.6354 32.4773C33.4731 32.4773 33.0469 32.0178 33.0469 31.8429C33.0469 31.7593 33.0029 31.691 32.9492 31.691C32.8955 31.691 32.8516 31.6026 32.8516 31.4945C32.8516 31.3864 32.8076 31.2979 32.7539 31.2979C32.697 31.2979 32.6562 30.9703 32.6562 30.5116C32.6562 30.0529 32.697 29.7254 32.7539 29.7254C32.8076 29.7254 32.8516 29.6369 32.8516 29.5288C32.8516 29.4207 32.8955 29.3322 32.9492 29.3322C33.0029 29.3322 33.0469 29.2639 33.0469 29.1804C33.0469 29.0968 33.1548 28.9199 33.2866 28.7872C33.4185 28.6546 33.5942 28.546 33.6772 28.546C33.7603 28.546 33.8281 28.5017 33.8281 28.4477C33.8281 28.3936 33.916 28.3494 34.0234 28.3494ZM28.0664 36.8018C28.0032 36.8018 27.9688 35.6224 27.9688 33.4601V30.1185H22.0117H16.0547V40.1434V50.1683H35H53.9453V40.1434V30.1185H47.9883H42.0312V33.4601C42.0312 35.6224 41.9968 36.8018 41.9336 36.8018C41.8799 36.8018 41.8359 36.9787 41.8359 37.1949C41.8359 37.4111 41.792 37.588 41.7383 37.588C41.6846 37.588 41.6406 37.6765 41.6406 37.7846C41.6406 37.8927 41.5967 37.9812 41.543 37.9812C41.4893 37.9812 41.4453 38.0483 41.4453 38.1305C41.4453 38.3248 40.2242 39.5537 40.0312 39.5537C39.9495 39.5537 39.8828 39.5979 39.8828 39.652C39.8828 39.7061 39.7949 39.7503 39.6875 39.7503C39.5801 39.7503 39.4922 39.7945 39.4922 39.8486C39.4922 39.9026 39.3604 39.9468 39.1992 39.9468C39.0381 39.9468 38.9062 39.9911 38.9062 40.0451C38.9062 40.109 37.5391 40.1434 35 40.1434C32.4609 40.1434 31.0938 40.109 31.0938 40.0451C31.0938 39.9911 30.9619 39.9468 30.8008 39.9468C30.6396 39.9468 30.5078 39.9026 30.5078 39.8486C30.5078 39.7945 30.4199 39.7503 30.3125 39.7503C30.2051 39.7503 30.1172 39.7061 30.1172 39.652C30.1172 39.5979 30.0505 39.5537 29.9688 39.5537C29.7758 39.5537 28.5547 38.3248 28.5547 38.1305C28.5547 38.0483 28.5107 37.9812 28.457 37.9812C28.4033 37.9812 28.3594 37.8927 28.3594 37.7846C28.3594 37.6765 28.3154 37.588 28.2617 37.588C28.208 37.588 28.1641 37.4111 28.1641 37.1949C28.1641 36.9787 28.1201 36.8018 28.0664 36.8018Z" fill="#B56951"/>
</svg>
