<svg width="894" height="369" viewBox="0 0 894 369" fill="none" xmlns="http://www.w3.org/2000/svg">
<line x1="144" y1="40" x2="401" y2="40" stroke="#7A8F9B" stroke-width="12"/>
<line x1="155" y1="174" x2="412" y2="174" stroke="#7A8F9B" stroke-width="12"/>
<line x1="471" y1="40" x2="728" y2="40" stroke="#7A8F9B" stroke-width="12"/>
<line x1="482" y1="174" x2="739" y2="174" stroke="#7A8F9B" stroke-width="12"/>
<line x1="471" y1="304" x2="728" y2="304" stroke="#7A8F9B" stroke-width="12"/>
<line x1="147" y1="304" x2="404" y2="304" stroke="#7A8F9B" stroke-width="12"/>
<mask id="mask0" mask-type="alpha" maskUnits="userSpaceOnUse" x="727" y="27" width="159" height="158">
<circle cx="806.844" cy="105.844" r="70" transform="rotate(176.982 806.844 105.844)" stroke="black" stroke-width="10"/>
</mask>
<g mask="url(#mask0)">
<rect x="897.623" y="213.214" width="92" height="229" transform="rotate(176.982 897.623 213.214)" fill="#7A8F9B"/>
</g>
<mask id="mask1" mask-type="alpha" maskUnits="userSpaceOnUse" x="0" y="166" width="151" height="146">
<path d="M142.033 242.361C143.889 207.149 115.726 176.724 78.7113 174.773C41.6968 172.821 10.4904 200.116 8.63405 235.328C6.77774 270.54 34.9413 300.965 71.9558 302.916C108.97 304.868 140.177 277.573 142.033 242.361Z" stroke="#7A8F9B" stroke-width="10"/>
</mask>
<g mask="url(#mask1)">
<rect width="88.0651" height="211.171" transform="matrix(0.998613 0.0526452 0.0526452 -0.998613 -11.3555 337.698)" fill="#7A8F9B"/>
</g>
<path fill-rule="evenodd" clip-rule="evenodd" d="M109 76C128.33 76 144 60.33 144 41C144 21.67 128.33 6 109 6C89.67 6 74 21.67 74 41C74 60.33 89.67 76 109 76ZM120.432 26.6141C122.83 27.3369 125.034 27.7793 126.981 27.9288C127.385 27.9598 127.686 28.3118 127.655 28.7151C127.626 29.0994 127.305 29.3915 126.926 29.3915C126.907 29.3915 126.888 29.3909 126.869 29.3893C124.817 29.2318 122.509 28.77 120.009 28.0167C117.467 27.2504 115.006 27.3654 112.697 28.3583C112.324 28.5182 111.894 28.3461 111.734 27.9746C111.575 27.6029 111.746 27.1722 112.118 27.0124C114.753 25.8797 117.55 25.7456 120.432 26.6141ZM126.981 31.0416C125.034 30.8922 122.831 30.45 120.432 29.727C117.55 28.8584 114.753 28.9925 112.118 30.1252C111.746 30.285 111.575 30.7158 111.734 31.0874C111.894 31.459 112.324 31.631 112.697 31.4711C115.006 30.4783 117.467 30.3632 120.009 31.1295C122.509 31.8829 124.817 32.3447 126.869 32.5021C126.888 32.5037 126.907 32.5043 126.926 32.5043C127.305 32.5043 127.626 32.2122 127.655 31.8278C127.686 31.4245 127.385 31.0726 126.981 31.0416ZM120.432 45.2911C122.83 46.0139 125.034 46.4563 126.981 46.6058C127.385 46.6368 127.686 46.9888 127.655 47.3922C127.626 47.7764 127.305 48.0685 126.926 48.0685C126.907 48.0685 126.888 48.0679 126.869 48.0663C124.817 47.9088 122.509 47.447 120.009 46.6936C117.467 45.9276 115.006 46.0424 112.697 47.0353C112.324 47.1952 111.894 47.0231 111.734 46.6516C111.575 46.28 111.746 45.8492 112.118 45.6894C114.754 44.5567 117.551 44.4225 120.432 45.2911ZM126.981 49.7187C125.034 49.5692 122.83 49.1268 120.432 48.4041C117.55 47.5356 114.753 47.6696 112.118 48.8022C111.746 48.962 111.575 49.3928 111.734 49.7645C111.894 50.136 112.324 50.308 112.697 50.1482C115.006 49.1553 117.467 49.0403 120.009 49.8066C122.509 50.5599 124.817 51.0216 126.869 51.1792C126.888 51.1808 126.907 51.1814 126.926 51.1814C127.305 51.1814 127.626 50.8893 127.655 50.505C127.686 50.1017 127.385 49.7496 126.981 49.7187ZM120.432 32.8398C122.83 33.5627 125.034 34.0051 126.981 34.1545C127.385 34.1855 127.686 34.5375 127.655 34.9409C127.626 35.3251 127.305 35.6172 126.926 35.6172C126.907 35.6172 126.888 35.6166 126.869 35.6151C124.817 35.4575 122.509 34.9957 120.009 34.2424C117.467 33.4763 115.006 33.5912 112.697 34.584C112.324 34.7438 111.894 34.5718 111.734 34.2004C111.575 33.8287 111.746 33.3979 112.118 33.2382C114.754 32.1053 117.551 31.9714 120.432 32.8398ZM126.981 40.3801C125.034 40.2307 122.831 39.7885 120.432 39.0655C117.551 38.197 114.753 38.331 112.118 39.4637C111.746 39.6235 111.575 40.0543 111.734 40.426C111.894 40.7975 112.324 40.9695 112.697 40.8096C115.006 39.8168 117.467 39.7018 120.009 40.468C122.509 41.2214 124.817 41.6832 126.869 41.8408C126.88 41.8416 126.891 41.8422 126.902 41.8425C126.91 41.8427 126.918 41.8428 126.926 41.8428C127.305 41.8428 127.626 41.5507 127.655 41.1664C127.686 40.7631 127.385 40.4111 126.981 40.3801ZM120.432 35.9527C122.83 36.6754 125.034 37.1178 126.981 37.2673C127.385 37.2983 127.686 37.6503 127.655 38.0536C127.626 38.4379 127.305 38.73 126.926 38.73C126.907 38.73 126.888 38.7294 126.869 38.7278C124.817 38.5703 122.509 38.1085 120.009 37.3552C117.467 36.589 115.007 36.7039 112.697 37.6968C112.324 37.8567 111.894 37.6846 111.734 37.3131C111.575 36.9415 111.746 36.5107 112.118 36.3509C114.753 35.2182 117.551 35.0841 120.432 35.9527ZM126.981 43.4929C125.034 43.3436 122.831 42.9012 120.432 42.1783C117.551 41.3099 114.754 41.4438 112.118 42.5767C111.746 42.7365 111.575 43.1672 111.734 43.5389C111.894 43.9103 112.324 44.0823 112.697 43.9225C115.006 42.9297 117.467 42.8148 120.009 43.5809C122.509 44.3343 124.817 44.7961 126.869 44.9536C126.888 44.9551 126.907 44.9557 126.926 44.9557C127.305 44.9557 127.626 44.6636 127.655 44.2792C127.686 43.8759 127.385 43.5239 126.981 43.4929ZM91.1001 29.3911C91.0915 29.3914 91.0829 29.3915 91.0744 29.3915C90.6954 29.3915 90.3744 29.0994 90.345 28.7151C90.314 28.3118 90.6158 27.9597 91.0192 27.9288C92.9664 27.7793 95.1698 27.3369 97.5685 26.6141C100.45 25.7457 103.247 25.8796 105.882 27.0124C106.254 27.1722 106.426 27.6029 106.266 27.9746C106.106 28.3462 105.675 28.5181 105.304 28.3583C102.994 27.3653 100.534 27.2505 97.9911 28.0167C95.4916 28.77 93.1837 29.2318 91.1313 29.3893C91.1208 29.3901 91.1104 29.3907 91.1001 29.3911ZM91.1018 32.5038C91.1116 32.5034 91.1214 32.5029 91.1312 32.5021C93.1831 32.3448 95.4911 31.8829 97.9911 31.1295C100.534 30.3632 102.994 30.478 105.304 31.4711C105.675 31.6307 106.106 31.4589 106.266 31.0873C106.426 30.7157 106.254 30.2849 105.882 30.1252C103.247 28.9924 100.45 28.8586 97.5685 29.7269C95.1694 30.4499 92.9659 30.8922 91.0193 31.0416C90.6158 31.0724 90.314 31.4245 90.345 31.8278C90.3744 32.2122 90.6954 32.5043 91.0744 32.5043C91.0835 32.5043 91.0927 32.5042 91.1018 32.5038ZM91.0986 48.0682L91.0919 48.0684L91.0744 48.0685C90.6954 48.0685 90.3744 47.7764 90.345 47.3922C90.314 46.9888 90.6158 46.6367 91.0192 46.6058C92.9665 46.4564 95.1699 46.014 97.5685 45.2911C100.45 44.4227 103.247 44.5566 105.882 45.6895C106.254 45.8492 106.426 46.28 106.266 46.6517C106.106 47.0233 105.675 47.195 105.304 47.0353C102.994 46.0425 100.534 45.9272 97.9911 46.6937C95.4917 47.447 93.1838 47.9089 91.1313 48.0664C91.1204 48.0673 91.1095 48.0678 91.0986 48.0682ZM91.0744 51.1813C91.0932 51.1813 91.1122 51.1806 91.1313 51.1791C93.1837 51.0216 95.4916 50.5598 97.9911 49.8065C100.534 49.0402 102.994 49.155 105.304 50.1481C105.675 50.3076 106.106 50.1359 106.266 49.7643C106.426 49.3927 106.254 48.9619 105.882 48.8022C103.247 47.6694 100.45 47.5355 97.5685 48.4039C95.1698 49.1266 92.9664 49.569 91.0192 49.7186C90.6158 49.7495 90.314 50.1016 90.345 50.5049C90.3744 50.8892 90.6954 51.1813 91.0744 51.1813ZM91.1313 35.6149C91.1122 35.6164 91.0932 35.6171 91.0744 35.6171C90.6954 35.6171 90.3744 35.325 90.345 34.9407C90.314 34.5374 90.6158 34.1852 91.0192 34.1544C92.9665 34.0049 95.1699 33.5625 97.5685 32.8396C100.45 31.9713 103.247 32.1052 105.882 33.238C106.254 33.3977 106.426 33.8285 106.266 34.2002C106.106 34.5718 105.675 34.7435 105.304 34.5839C102.994 33.591 100.534 33.4758 97.9911 34.2422C95.4917 34.9955 93.1838 35.4574 91.1313 35.6149ZM91.0744 41.8428C91.0825 41.8428 91.0905 41.8427 91.0986 41.8424L91.115 41.8417L91.1312 41.8408C93.1831 41.6833 95.4911 41.2214 97.9911 40.468C100.534 39.7018 102.994 39.8165 105.304 40.8096C105.675 40.9692 106.106 40.7975 106.266 40.4259C106.426 40.0542 106.254 39.6235 105.882 39.4637C103.247 38.331 100.45 38.197 97.5685 39.0654C95.1694 39.7884 92.9659 40.2307 91.0193 40.38C90.6158 40.4109 90.314 40.763 90.345 41.1663C90.3744 41.5507 90.6954 41.8428 91.0744 41.8428ZM91.1313 38.7278C91.1122 38.7293 91.0932 38.73 91.0744 38.73C90.6954 38.73 90.3744 38.4379 90.345 38.0536C90.314 37.6503 90.6158 37.2982 91.0192 37.2673C92.9664 37.1178 95.1698 36.6754 97.5685 35.9527C100.45 35.084 103.247 35.2181 105.882 36.3509C106.254 36.5107 106.426 36.9415 106.266 37.3131C106.106 37.6847 105.675 37.8564 105.304 37.6968C102.994 36.7037 100.533 36.5891 97.9911 37.3552C95.4916 38.1085 93.1837 38.5704 91.1313 38.7278ZM91.1084 44.955C91.116 44.9546 91.1236 44.9542 91.1312 44.9536C93.1835 44.7962 95.4914 44.3343 97.9911 43.5809C100.534 42.8145 102.994 42.9297 105.304 43.9225C105.675 44.0823 106.106 43.9105 106.266 43.5389C106.426 43.1672 106.254 42.7365 105.882 42.5767C103.247 41.4438 100.45 41.3099 97.5685 42.1783C95.1698 42.9012 92.9662 43.3436 91.0193 43.4929C90.6158 43.5238 90.314 43.8759 90.345 44.2792C90.3744 44.6636 90.6954 44.9557 91.0744 44.9557C91.0857 44.9557 91.097 44.9554 91.1084 44.955ZM131.065 25.1647H132.211C133.197 25.1647 134 25.967 134 26.9535V39.3469C134 39.7515 133.672 40.0793 133.268 40.0793C132.863 40.0793 132.535 39.7515 132.535 39.3469V26.9535C132.535 26.7748 132.39 26.6295 132.211 26.6295H131.065V54.6779C131.065 55.0102 130.841 55.301 130.52 55.3859C130.38 55.4227 127.026 56.2652 120.009 54.1506C115.6 52.8221 112.308 54.4809 110.738 55.5881C109.667 56.3438 108.267 56.2969 107.262 55.5883C104.662 53.7549 101.386 53.1276 97.9911 54.1506C90.9745 56.2653 87.6198 55.4228 87.4806 55.3859C87.1593 55.301 86.9356 55.0102 86.9356 54.6779V26.6295H85.7888C85.6102 26.6295 85.4648 26.7748 85.4648 26.9535V56.655C85.4648 56.8336 85.6102 56.9789 85.7889 56.9789H104.766C105.614 56.9789 106.392 57.4653 106.748 58.218C107.646 60.1194 110.357 60.1119 111.252 58.2178C111.608 57.4651 112.386 56.9789 113.234 56.9789H132.211C132.39 56.9789 132.535 56.8336 132.535 56.655V42.7648C132.535 42.3603 132.863 42.0324 133.267 42.0324C133.672 42.0324 134 42.3603 134 42.7648V56.655C134 57.6414 133.197 58.4438 132.211 58.4438H113.234C112.949 58.4438 112.692 58.601 112.577 58.8439C111.15 61.8624 106.845 61.8514 105.423 58.8439C105.308 58.6008 105.05 58.4438 104.766 58.4438H85.7889C84.8025 58.4438 84 57.6415 84 56.655V26.9535C84 25.967 84.8024 25.1647 85.7888 25.1647H86.9356V24.4964C86.9356 23.5616 87.7331 22.8185 88.67 22.8937C89.9901 22.999 92.902 22.9673 97.5683 21.561C101.916 20.2505 106.084 21.373 108.998 23.9002C110.269 22.7913 113.709 20.3564 118.694 21.1595C119.093 21.2239 119.365 21.5997 119.3 21.999C119.236 22.3984 118.86 22.6705 118.461 22.6057C113.714 21.8418 110.524 24.4709 109.732 25.2132V54.4897C109.817 54.4438 109.935 54.3693 110.084 54.2747C111.376 53.4557 115.051 51.1266 120.432 52.7481C123.119 53.5579 126.825 54.3521 129.6 54.0528V24.4964C129.6 24.4125 129.53 24.3478 129.447 24.3536C128.017 24.4686 125.532 24.4073 121.815 23.4651C121.423 23.3658 121.186 22.9673 121.286 22.5751C121.385 22.1831 121.783 21.9456 122.175 22.0452C125.883 22.9853 128.249 22.98 129.33 22.8936C130.266 22.8191 131.065 23.5599 131.065 24.4964V25.1647ZM88.5529 24.3536C88.4675 24.3477 88.4004 24.4143 88.4004 24.4964L88.4003 54.0532C90.8271 54.3145 93.9644 53.7312 96.3228 53.1021L96.3374 53.0982C96.7391 52.9908 97.1733 52.8672 97.5683 52.7482C103.184 51.0555 107.102 53.7065 108.07 54.3613C108.164 54.4248 108.23 54.4695 108.268 54.4897V25.2138C105.745 22.8519 101.957 21.7688 97.9911 22.9635C93.0945 24.4392 89.9758 24.4681 88.5529 24.3536Z" fill="#8ACD84"/>
<path fill-rule="evenodd" clip-rule="evenodd" d="M775 206C794.33 206 810 190.33 810 171C810 151.67 794.33 136 775 136C755.67 136 740 151.67 740 171C740 190.33 755.67 206 775 206ZM786.432 156.614C788.83 157.337 791.034 157.779 792.981 157.929C793.385 157.96 793.686 158.312 793.655 158.715C793.626 159.099 793.305 159.391 792.926 159.391C792.907 159.391 792.888 159.391 792.869 159.389C790.817 159.232 788.509 158.77 786.009 158.017C783.467 157.25 781.006 157.365 778.697 158.358C778.324 158.518 777.894 158.346 777.734 157.975C777.575 157.603 777.746 157.172 778.118 157.012C780.753 155.88 783.55 155.746 786.432 156.614ZM792.981 161.042C791.034 160.892 788.831 160.45 786.432 159.727C783.55 158.858 780.753 158.993 778.118 160.125C777.746 160.285 777.575 160.716 777.734 161.087C777.894 161.459 778.324 161.631 778.697 161.471C781.006 160.478 783.467 160.363 786.009 161.13C788.509 161.883 790.817 162.345 792.869 162.502C792.888 162.504 792.907 162.504 792.926 162.504C793.305 162.504 793.626 162.212 793.655 161.828C793.686 161.425 793.385 161.073 792.981 161.042ZM786.432 175.291C788.83 176.014 791.034 176.456 792.981 176.606C793.385 176.637 793.686 176.989 793.655 177.392C793.626 177.776 793.305 178.069 792.926 178.069C792.907 178.069 792.888 178.068 792.869 178.066C790.817 177.909 788.509 177.447 786.009 176.694C783.467 175.928 781.006 176.042 778.697 177.035C778.324 177.195 777.894 177.023 777.734 176.652C777.575 176.28 777.746 175.849 778.118 175.689C780.754 174.557 783.551 174.423 786.432 175.291ZM792.981 179.719C791.034 179.569 788.83 179.127 786.432 178.404C783.55 177.536 780.753 177.67 778.118 178.802C777.746 178.962 777.575 179.393 777.734 179.764C777.894 180.136 778.324 180.308 778.697 180.148C781.006 179.155 783.467 179.04 786.009 179.807C788.509 180.56 790.817 181.022 792.869 181.179C792.888 181.181 792.907 181.181 792.926 181.181C793.305 181.181 793.626 180.889 793.655 180.505C793.686 180.102 793.385 179.75 792.981 179.719ZM786.432 162.84C788.83 163.563 791.034 164.005 792.981 164.155C793.385 164.186 793.686 164.538 793.655 164.941C793.626 165.325 793.305 165.617 792.926 165.617C792.918 165.617 792.91 165.617 792.903 165.617L792.883 165.616L792.869 165.615C790.817 165.457 788.509 164.996 786.009 164.242C783.467 163.476 781.006 163.591 778.697 164.584C778.324 164.744 777.894 164.572 777.734 164.2C777.575 163.829 777.746 163.398 778.118 163.238C780.754 162.105 783.551 161.971 786.432 162.84ZM792.981 170.38C791.034 170.231 788.831 169.788 786.432 169.065C783.551 168.197 780.753 168.331 778.118 169.464C777.746 169.623 777.575 170.054 777.734 170.426C777.894 170.798 778.324 170.969 778.697 170.81C781.006 169.817 783.467 169.702 786.009 170.468C788.509 171.221 790.817 171.683 792.869 171.841C792.888 171.842 792.907 171.843 792.926 171.843C793.305 171.843 793.626 171.551 793.655 171.166C793.686 170.763 793.385 170.411 792.981 170.38ZM786.432 165.953C788.83 166.675 791.034 167.118 792.981 167.267C793.385 167.298 793.686 167.65 793.655 168.054C793.626 168.438 793.305 168.73 792.926 168.73C792.907 168.73 792.888 168.729 792.869 168.728C790.817 168.57 788.509 168.109 786.009 167.355C783.467 166.589 781.007 166.704 778.697 167.697C778.324 167.857 777.894 167.685 777.734 167.313C777.575 166.941 777.746 166.511 778.118 166.351C780.753 165.218 783.551 165.084 786.432 165.953ZM792.981 173.493C791.034 173.344 788.831 172.901 786.432 172.178C783.551 171.31 780.754 171.444 778.118 172.577C777.746 172.736 777.575 173.167 777.734 173.539C777.894 173.91 778.324 174.082 778.697 173.923C781.006 172.93 783.467 172.815 786.009 173.581C788.509 174.334 790.817 174.796 792.869 174.954L792.884 174.955L792.903 174.955L792.913 174.956L792.926 174.956C793.305 174.956 793.626 174.664 793.655 174.279C793.686 173.876 793.385 173.524 792.981 173.493ZM757.131 159.389C757.112 159.391 757.093 159.391 757.074 159.391C756.695 159.391 756.374 159.099 756.345 158.715C756.314 158.312 756.616 157.96 757.019 157.929C758.966 157.779 761.17 157.337 763.568 156.614C766.45 155.746 769.247 155.88 771.882 157.012C772.254 157.172 772.426 157.603 772.266 157.975C772.106 158.346 771.675 158.518 771.304 158.358C768.994 157.365 766.534 157.25 763.991 158.017C761.492 158.77 759.184 159.232 757.131 159.389ZM757.074 162.504C757.093 162.504 757.112 162.504 757.131 162.502C759.183 162.345 761.491 161.883 763.991 161.129C766.534 160.363 768.994 160.478 771.304 161.471C771.675 161.631 772.106 161.459 772.266 161.087C772.426 160.716 772.254 160.285 771.882 160.125C769.247 158.992 766.45 158.859 763.568 159.727C761.169 160.45 758.966 160.892 757.019 161.042C756.616 161.072 756.314 161.424 756.345 161.828C756.374 162.212 756.695 162.504 757.074 162.504ZM757.131 178.066C757.112 178.068 757.093 178.069 757.074 178.069C756.695 178.069 756.374 177.776 756.345 177.392C756.314 176.989 756.616 176.637 757.019 176.606C758.967 176.456 761.17 176.014 763.568 175.291C766.45 174.423 769.247 174.557 771.882 175.689C772.254 175.849 772.426 176.28 772.266 176.652C772.106 177.023 771.675 177.195 771.304 177.035C768.994 176.042 766.534 175.927 763.991 176.694C761.492 177.447 759.184 177.909 757.131 178.066ZM757.074 181.181C757.093 181.181 757.112 181.181 757.131 181.179C759.184 181.022 761.492 180.56 763.991 179.806C766.534 179.04 768.994 179.155 771.304 180.148C771.675 180.308 772.106 180.136 772.266 179.764C772.426 179.393 772.254 178.962 771.882 178.802C769.247 177.669 766.45 177.535 763.568 178.404C761.17 179.127 758.966 179.569 757.019 179.719C756.616 179.749 756.314 180.102 756.345 180.505C756.374 180.889 756.695 181.181 757.074 181.181ZM757.131 165.615C757.112 165.616 757.093 165.617 757.074 165.617C756.695 165.617 756.374 165.325 756.345 164.941C756.314 164.537 756.616 164.185 757.019 164.154C758.967 164.005 761.17 163.562 763.568 162.84C766.45 161.971 769.247 162.105 771.882 163.238C772.254 163.398 772.426 163.828 772.266 164.2C772.106 164.572 771.675 164.744 771.304 164.584C768.994 163.591 766.534 163.476 763.991 164.242C761.492 164.995 759.184 165.457 757.131 165.615ZM757.074 171.843C757.093 171.843 757.112 171.842 757.131 171.841C759.183 171.683 761.491 171.221 763.991 170.468C766.534 169.702 768.994 169.817 771.304 170.81C771.675 170.969 772.106 170.797 772.266 170.426C772.426 170.054 772.254 169.623 771.882 169.464C769.247 168.331 766.45 168.197 763.568 169.065C761.169 169.788 758.966 170.231 757.019 170.38C756.616 170.411 756.314 170.763 756.345 171.166C756.374 171.551 756.695 171.843 757.074 171.843ZM757.131 168.728C757.112 168.729 757.093 168.73 757.074 168.73C756.695 168.73 756.374 168.438 756.345 168.054C756.314 167.65 756.616 167.298 757.019 167.267C758.966 167.118 761.17 166.675 763.568 165.953C766.45 165.084 769.247 165.218 771.882 166.351C772.254 166.511 772.426 166.941 772.266 167.313C772.106 167.685 771.675 167.856 771.304 167.697C768.994 166.704 766.533 166.589 763.991 167.355C761.492 168.109 759.184 168.57 757.131 168.728ZM757.074 174.956C757.093 174.956 757.112 174.955 757.131 174.954C759.184 174.796 761.491 174.334 763.991 173.581C766.534 172.814 768.994 172.93 771.304 173.923C771.675 174.082 772.106 173.91 772.266 173.539C772.426 173.167 772.254 172.736 771.882 172.577C769.247 171.444 766.45 171.31 763.568 172.178C761.17 172.901 758.966 173.344 757.019 173.493C756.616 173.524 756.314 173.876 756.345 174.279C756.374 174.664 756.695 174.956 757.074 174.956ZM797.065 155.165H798.211C799.197 155.165 800 155.967 800 156.953V169.347C800 169.751 799.672 170.079 799.268 170.079C798.863 170.079 798.535 169.751 798.535 169.347V156.953C798.535 156.775 798.39 156.63 798.211 156.63H797.065V184.678C797.065 185.01 796.841 185.301 796.52 185.386C796.38 185.423 793.026 186.265 786.009 184.151C781.6 182.822 778.308 184.481 776.738 185.588C775.667 186.344 774.267 186.297 773.262 185.588C770.662 183.755 767.386 183.128 763.991 184.151C756.975 186.265 753.62 185.423 753.481 185.386C753.159 185.301 752.936 185.01 752.936 184.678V156.63H751.789C751.61 156.63 751.465 156.775 751.465 156.953V186.655C751.465 186.834 751.61 186.979 751.789 186.979H770.766C771.614 186.979 772.392 187.465 772.748 188.218C773.646 190.119 776.357 190.112 777.252 188.218C777.608 187.465 778.386 186.979 779.234 186.979H798.211C798.39 186.979 798.535 186.834 798.535 186.655V172.765C798.535 172.36 798.863 172.032 799.267 172.032C799.672 172.032 800 172.36 800 172.765V186.655C800 187.641 799.197 188.444 798.211 188.444H779.234C778.949 188.444 778.692 188.601 778.577 188.844C777.15 191.862 772.845 191.851 771.423 188.844C771.308 188.601 771.05 188.444 770.766 188.444H751.789C750.803 188.444 750 187.641 750 186.655V156.953C750 155.967 750.802 155.165 751.789 155.165H752.936V154.496C752.936 153.562 753.733 152.818 754.67 152.894C755.99 152.999 758.902 152.967 763.568 151.561C767.916 150.251 772.084 151.373 774.998 153.9C776.269 152.791 779.709 150.356 784.694 151.159C785.093 151.224 785.365 151.6 785.3 151.999C785.236 152.398 784.86 152.671 784.461 152.606C779.713 151.842 776.524 154.471 775.732 155.213V184.49C775.817 184.444 775.935 184.369 776.084 184.275C777.376 183.456 781.051 181.127 786.432 182.748C789.119 183.558 792.825 184.352 795.6 184.053V154.496C795.6 154.413 795.53 154.348 795.447 154.354C794.017 154.469 791.532 154.407 787.815 153.465C787.423 153.366 787.186 152.967 787.285 152.575C787.385 152.183 787.783 151.946 788.175 152.045C791.883 152.985 794.249 152.98 795.33 152.894C796.266 152.819 797.065 153.56 797.065 154.496V155.165ZM754.553 154.354C754.467 154.348 754.4 154.414 754.4 154.496L754.4 184.053C756.827 184.315 759.964 183.731 762.323 183.102L762.337 183.098C762.739 182.991 763.173 182.867 763.568 182.748C769.184 181.055 773.103 183.707 774.07 184.361C774.164 184.425 774.23 184.47 774.268 184.49V155.214C771.745 152.852 767.957 151.769 763.991 152.964C759.094 154.439 755.976 154.468 754.553 154.354Z" fill="#8ACD84"/>
<path fill-rule="evenodd" clip-rule="evenodd" d="M112 339C131.33 339 147 323.33 147 304C147 284.67 131.33 269 112 269C92.67 269 77 284.67 77 304C77 323.33 92.67 339 112 339ZM123.432 289.614C125.83 290.337 128.034 290.779 129.981 290.929C130.385 290.96 130.686 291.312 130.655 291.715C130.626 292.099 130.305 292.391 129.926 292.391C129.907 292.391 129.888 292.391 129.869 292.389C127.817 292.232 125.509 291.77 123.009 291.017C120.467 290.25 118.006 290.365 115.697 291.358C115.324 291.518 114.894 291.346 114.734 290.975C114.575 290.603 114.746 290.172 115.118 290.012C117.753 288.88 120.55 288.746 123.432 289.614ZM129.981 294.042C128.034 293.892 125.831 293.45 123.432 292.727C120.55 291.858 117.753 291.993 115.118 293.125C114.746 293.285 114.575 293.716 114.734 294.087C114.894 294.459 115.324 294.631 115.697 294.471C118.006 293.478 120.467 293.363 123.009 294.13C125.509 294.883 127.817 295.345 129.869 295.502C129.888 295.504 129.907 295.504 129.926 295.504C130.305 295.504 130.626 295.212 130.655 294.828C130.686 294.425 130.385 294.073 129.981 294.042ZM123.432 308.291C125.83 309.014 128.034 309.456 129.981 309.606C130.385 309.637 130.686 309.989 130.655 310.392C130.626 310.776 130.305 311.069 129.926 311.069C129.907 311.069 129.888 311.068 129.869 311.066C127.817 310.909 125.509 310.447 123.009 309.694C120.467 308.928 118.006 309.042 115.697 310.035C115.324 310.195 114.894 310.023 114.734 309.652C114.575 309.28 114.746 308.849 115.118 308.689C117.754 307.557 120.551 307.423 123.432 308.291ZM129.981 312.719C128.034 312.569 125.83 312.127 123.432 311.404C120.55 310.536 117.753 310.67 115.118 311.802C114.746 311.962 114.575 312.393 114.734 312.764C114.894 313.136 115.324 313.308 115.697 313.148C118.006 312.155 120.467 312.04 123.009 312.807C125.509 313.56 127.817 314.022 129.869 314.179C129.888 314.181 129.907 314.181 129.926 314.181C130.305 314.181 130.626 313.889 130.655 313.505C130.686 313.102 130.385 312.75 129.981 312.719ZM123.432 295.84C125.83 296.563 128.034 297.005 129.981 297.155C130.385 297.186 130.686 297.538 130.655 297.941C130.626 298.325 130.305 298.617 129.926 298.617C129.918 298.617 129.91 298.617 129.903 298.617L129.883 298.616L129.869 298.615C127.817 298.457 125.509 297.996 123.009 297.242C120.467 296.476 118.006 296.591 115.697 297.584C115.324 297.744 114.894 297.572 114.734 297.2C114.575 296.829 114.746 296.398 115.118 296.238C117.754 295.105 120.551 294.971 123.432 295.84ZM129.981 303.38C128.034 303.231 125.831 302.788 123.432 302.065C120.551 301.197 117.753 301.331 115.118 302.464C114.746 302.623 114.575 303.054 114.734 303.426C114.894 303.798 115.324 303.969 115.697 303.81C118.006 302.817 120.467 302.702 123.009 303.468C125.509 304.221 127.817 304.683 129.869 304.841C129.888 304.842 129.907 304.843 129.926 304.843C130.305 304.843 130.626 304.551 130.655 304.166C130.686 303.763 130.385 303.411 129.981 303.38ZM123.432 298.953C125.83 299.675 128.034 300.118 129.981 300.267C130.385 300.298 130.686 300.65 130.655 301.054C130.626 301.438 130.305 301.73 129.926 301.73C129.907 301.73 129.888 301.729 129.869 301.728C127.817 301.57 125.509 301.109 123.009 300.355C120.467 299.589 118.007 299.704 115.697 300.697C115.324 300.857 114.894 300.685 114.734 300.313C114.575 299.941 114.746 299.511 115.118 299.351C117.753 298.218 120.551 298.084 123.432 298.953ZM129.981 306.493C128.034 306.344 125.831 305.901 123.432 305.178C120.551 304.31 117.754 304.444 115.118 305.577C114.746 305.736 114.575 306.167 114.734 306.539C114.894 306.91 115.324 307.082 115.697 306.923C118.006 305.93 120.467 305.815 123.009 306.581C125.509 307.334 127.817 307.796 129.869 307.954L129.884 307.955L129.903 307.955L129.913 307.956L129.926 307.956C130.305 307.956 130.626 307.664 130.655 307.279C130.686 306.876 130.385 306.524 129.981 306.493ZM94.1313 292.389C94.1122 292.391 94.0932 292.391 94.0744 292.391C93.6954 292.391 93.3744 292.099 93.345 291.715C93.314 291.312 93.6158 290.96 94.0192 290.929C95.9664 290.779 98.1698 290.337 100.568 289.614C103.45 288.746 106.247 288.88 108.882 290.012C109.254 290.172 109.426 290.603 109.266 290.975C109.106 291.346 108.675 291.518 108.304 291.358C105.994 290.365 103.534 290.25 100.991 291.017C98.4916 291.77 96.1837 292.232 94.1313 292.389ZM94.0744 295.504C94.0932 295.504 94.1122 295.504 94.1312 295.502C96.1831 295.345 98.4911 294.883 100.991 294.129C103.534 293.363 105.994 293.478 108.304 294.471C108.675 294.631 109.106 294.459 109.266 294.087C109.426 293.716 109.254 293.285 108.882 293.125C106.247 291.992 103.45 291.859 100.568 292.727C98.1694 293.45 95.9659 293.892 94.0193 294.042C93.6158 294.072 93.314 294.424 93.345 294.828C93.3744 295.212 93.6954 295.504 94.0744 295.504ZM94.1313 311.066C94.1122 311.068 94.0932 311.069 94.0744 311.069C93.6954 311.069 93.3744 310.776 93.345 310.392C93.314 309.989 93.6158 309.637 94.0192 309.606C95.9665 309.456 98.1699 309.014 100.568 308.291C103.45 307.423 106.247 307.557 108.882 308.689C109.254 308.849 109.426 309.28 109.266 309.652C109.106 310.023 108.675 310.195 108.304 310.035C105.994 309.042 103.534 308.927 100.991 309.694C98.4917 310.447 96.1838 310.909 94.1313 311.066ZM94.0744 314.181C94.0932 314.181 94.1122 314.181 94.1313 314.179C96.1837 314.022 98.4916 313.56 100.991 312.806C103.534 312.04 105.994 312.155 108.304 313.148C108.675 313.308 109.106 313.136 109.266 312.764C109.426 312.393 109.254 311.962 108.882 311.802C106.247 310.669 103.45 310.535 100.568 311.404C98.1698 312.127 95.9664 312.569 94.0192 312.719C93.6158 312.749 93.314 313.102 93.345 313.505C93.3744 313.889 93.6954 314.181 94.0744 314.181ZM94.1313 298.615C94.1122 298.616 94.0932 298.617 94.0744 298.617C93.6954 298.617 93.3744 298.325 93.345 297.941C93.314 297.537 93.6158 297.185 94.0192 297.154C95.9665 297.005 98.1699 296.562 100.568 295.84C103.45 294.971 106.247 295.105 108.882 296.238C109.254 296.398 109.426 296.828 109.266 297.2C109.106 297.572 108.675 297.744 108.304 297.584C105.994 296.591 103.534 296.476 100.991 297.242C98.4917 297.995 96.1838 298.457 94.1313 298.615ZM94.0744 304.843C94.0932 304.843 94.1122 304.842 94.1312 304.841C96.1831 304.683 98.4911 304.221 100.991 303.468C103.534 302.702 105.994 302.817 108.304 303.81C108.675 303.969 109.106 303.797 109.266 303.426C109.426 303.054 109.254 302.623 108.882 302.464C106.247 301.331 103.45 301.197 100.568 302.065C98.1694 302.788 95.9659 303.231 94.0193 303.38C93.6158 303.411 93.314 303.763 93.345 304.166C93.3744 304.551 93.6954 304.843 94.0744 304.843ZM94.1313 301.728C94.1122 301.729 94.0932 301.73 94.0744 301.73C93.6954 301.73 93.3744 301.438 93.345 301.054C93.314 300.65 93.6158 300.298 94.0192 300.267C95.9664 300.118 98.1698 299.675 100.568 298.953C103.45 298.084 106.247 298.218 108.882 299.351C109.254 299.511 109.426 299.941 109.266 300.313C109.106 300.685 108.675 300.856 108.304 300.697C105.994 299.704 103.533 299.589 100.991 300.355C98.4916 301.109 96.1837 301.57 94.1313 301.728ZM94.0744 307.956C94.0932 307.956 94.1122 307.955 94.1312 307.954C96.1835 307.796 98.4914 307.334 100.991 306.581C103.534 305.814 105.994 305.93 108.304 306.923C108.675 307.082 109.106 306.91 109.266 306.539C109.426 306.167 109.254 305.736 108.882 305.577C106.247 304.444 103.45 304.31 100.568 305.178C98.1698 305.901 95.9662 306.344 94.0193 306.493C93.6158 306.524 93.314 306.876 93.345 307.279C93.3744 307.664 93.6954 307.956 94.0744 307.956ZM134.065 288.165H135.211C136.197 288.165 137 288.967 137 289.953V302.347C137 302.751 136.672 303.079 136.268 303.079C135.863 303.079 135.535 302.751 135.535 302.347V289.953C135.535 289.775 135.39 289.63 135.211 289.63H134.065V317.678C134.065 318.01 133.841 318.301 133.52 318.386C133.38 318.423 130.026 319.265 123.009 317.151C118.6 315.822 115.308 317.481 113.738 318.588C112.667 319.344 111.267 319.297 110.262 318.588C107.662 316.755 104.386 316.128 100.991 317.151C93.9745 319.265 90.6198 318.423 90.4806 318.386C90.1593 318.301 89.9356 318.01 89.9356 317.678V289.63H88.7888C88.6102 289.63 88.4648 289.775 88.4648 289.953V319.655C88.4648 319.834 88.6102 319.979 88.7889 319.979H107.766C108.614 319.979 109.392 320.465 109.748 321.218C110.646 323.119 113.357 323.112 114.252 321.218C114.608 320.465 115.386 319.979 116.234 319.979H135.211C135.39 319.979 135.535 319.834 135.535 319.655V305.765C135.535 305.36 135.863 305.032 136.267 305.032C136.672 305.032 137 305.36 137 305.765V319.655C137 320.641 136.197 321.444 135.211 321.444H116.234C115.949 321.444 115.692 321.601 115.577 321.844C114.15 324.862 109.845 324.851 108.423 321.844C108.308 321.601 108.05 321.444 107.766 321.444H88.7889C87.8025 321.444 87 320.641 87 319.655V289.953C87 288.967 87.8024 288.165 88.7888 288.165H89.9356V287.496C89.9356 286.562 90.7331 285.818 91.67 285.894C92.9901 285.999 95.902 285.967 100.568 284.561C104.916 283.251 109.084 284.373 111.998 286.9C113.269 285.791 116.709 283.356 121.694 284.159C122.093 284.224 122.365 284.6 122.3 284.999C122.236 285.398 121.86 285.671 121.461 285.606C116.713 284.842 113.524 287.471 112.732 288.213V317.49C112.817 317.444 112.935 317.369 113.084 317.275C114.376 316.456 118.051 314.127 123.432 315.748C126.119 316.558 129.825 317.352 132.6 317.053V287.496C132.6 287.413 132.53 287.348 132.447 287.354C131.017 287.469 128.532 287.407 124.815 286.465C124.423 286.366 124.186 285.967 124.285 285.575C124.385 285.183 124.783 284.946 125.175 285.045C128.883 285.985 131.249 285.98 132.33 285.894C133.266 285.819 134.065 286.56 134.065 287.496V288.165ZM91.5529 287.354C91.4675 287.348 91.4004 287.414 91.4004 287.496L91.4003 317.053C93.8271 317.315 96.9644 316.731 99.3228 316.102L99.3374 316.098C99.7391 315.991 100.173 315.867 100.568 315.748C106.184 314.055 110.103 316.707 111.07 317.361C111.164 317.425 111.23 317.47 111.268 317.49V288.214C108.745 285.852 104.957 284.769 100.991 285.964C96.0945 287.439 92.9758 287.468 91.5529 287.354Z" fill="#8ACD84"/>
<path fill-rule="evenodd" clip-rule="evenodd" d="M436 71C455.33 71 471 55.33 471 36C471 16.67 455.33 1 436 1C416.67 1 401 16.67 401 36C401 55.33 416.67 71 436 71ZM436.176 18L436.247 18.0002C436.786 18.0016 437.221 18.4388 437.221 18.9771V18.9794C437.22 19.5179 436.783 19.9533 436.244 19.9533H436.242L436.171 19.9531C435.632 19.9517 435.197 19.5145 435.197 18.9763V18.9739C435.199 18.4354 435.636 18 436.174 18H436.176ZM459.964 24.0651C459.323 21.6271 457.431 19.7072 455.028 19.0544C452.55 18.3795 445.641 18.131 440.282 18.0414C439.746 18.0341 439.298 18.4623 439.289 19.0016C439.28 19.5408 439.71 19.9854 440.25 19.9943C447.667 20.1183 452.734 20.4538 454.516 20.9391C456.247 21.4094 457.611 22.7975 458.075 24.5625C459.035 28.2034 459.047 35.988 459.047 36.0661C459.047 36.1443 459.035 43.929 458.075 47.5704C457.611 49.3348 456.247 50.723 454.515 51.1935C450.936 52.1681 436.149 52.1795 436 52.1795C435.851 52.1795 421.064 52.168 417.484 51.1933C415.753 50.723 414.389 49.3348 413.925 47.5698C412.965 43.9289 412.953 36.1443 412.953 36.0662C412.953 35.988 412.965 28.2034 413.925 24.562C414.389 22.7977 415.753 21.4095 417.485 20.939C419.306 20.4431 424.522 20.1053 432.172 19.9876C432.712 19.9794 433.142 19.5355 433.134 18.9962C433.125 18.457 432.68 18.0301 432.142 18.0348C426.618 18.1196 419.502 18.3655 416.972 19.0543C414.569 19.7072 412.677 21.6273 412.036 24.0646C411.012 27.9502 411 35.7366 411 36.0662C411 36.3958 411.012 44.1823 412.036 48.0672C412.677 50.5052 414.569 52.4252 416.972 53.0779C420.801 54.1206 435.381 54.1326 436 54.1326C436.619 54.1326 451.199 54.1206 455.028 53.0781C457.431 52.4253 459.323 50.5052 459.964 48.0678C460.988 44.1823 461 36.3958 461 36.0662C461 35.7366 460.988 27.9502 459.964 24.0651ZM415.688 34.457C415.688 33.9177 416.125 33.4805 416.664 33.4805C417.203 33.4805 417.641 33.9177 417.641 34.457V42.416C417.641 42.9554 417.203 43.3926 416.664 43.3926C416.125 43.3926 415.688 42.9554 415.688 42.416V34.457ZM416.664 29.0371C416.125 29.0371 415.688 29.4743 415.688 30.0137V30.0252C415.688 30.5645 416.125 31.0018 416.664 31.0018C417.203 31.0018 417.641 30.5645 417.641 30.0252V30.0137C417.641 29.4743 417.203 29.0371 416.664 29.0371ZM431.811 28.3391L443.921 35.3703C444.221 35.5451 444.407 35.8668 444.407 36.2148C444.407 36.5629 444.222 36.8846 443.921 37.0594L431.811 44.0906C431.66 44.1787 431.49 44.2227 431.321 44.2227C431.152 44.2227 430.984 44.1793 430.833 44.0925C430.531 43.9182 430.344 43.5955 430.344 43.2461V29.1836C430.344 28.8343 430.531 28.5115 430.833 28.3372C431.136 28.1629 431.509 28.1636 431.811 28.3391ZM441.485 36.2148L432.297 30.8799V41.5498L441.485 36.2148Z" fill="#EE8A7C"/>
<path fill-rule="evenodd" clip-rule="evenodd" d="M120 206C139.33 206 155 190.33 155 171C155 151.67 139.33 136 120 136C100.67 136 85 151.67 85 171C85 190.33 100.67 206 120 206ZM120.176 153L120.247 153C120.786 153.002 121.221 153.439 121.221 153.977V153.979C121.22 154.518 120.783 154.953 120.244 154.953H120.242L120.171 154.953C119.632 154.952 119.197 154.515 119.197 153.976V153.974C119.199 153.435 119.636 153 120.174 153H120.176ZM143.964 159.065C143.323 156.627 141.431 154.707 139.028 154.054C136.55 153.38 129.642 153.131 124.282 153.041C123.746 153.034 123.298 153.462 123.289 154.002C123.28 154.541 123.71 154.985 124.25 154.994C131.667 155.118 136.734 155.454 138.516 155.939C140.247 156.409 141.611 157.798 142.075 159.563C143.035 163.203 143.047 170.988 143.047 171.066C143.047 171.144 143.035 178.929 142.075 182.57C141.611 184.335 140.247 185.723 138.515 186.193C134.936 187.168 120.149 187.18 120 187.18C119.851 187.18 105.064 187.168 101.484 186.193C99.7529 185.723 98.389 184.335 97.9248 182.57C96.9648 178.929 96.9531 171.144 96.9531 171.066C96.9531 170.988 96.9648 163.203 97.9249 159.562C98.389 157.798 99.7529 156.409 101.485 155.939C103.306 155.443 108.522 155.105 116.172 154.988C116.712 154.979 117.142 154.535 117.134 153.996C117.125 153.457 116.68 153.03 116.142 153.035C110.618 153.12 103.502 153.366 100.972 154.054C98.5688 154.707 96.6772 156.627 96.0362 159.065C95.0118 162.95 95 170.737 95 171.066C95 171.396 95.0118 179.182 96.036 183.067C96.6772 185.505 98.5688 187.425 100.972 188.078C104.801 189.121 119.381 189.133 120 189.133C120.619 189.133 135.199 189.121 139.028 188.078C141.431 187.425 143.323 185.505 143.964 183.068C144.988 179.182 145 171.396 145 171.066C145 170.737 144.988 162.95 143.964 159.065ZM99.6875 169.457C99.6875 168.918 100.125 168.48 100.664 168.48C101.203 168.48 101.641 168.918 101.641 169.457V177.416C101.641 177.955 101.203 178.393 100.664 178.393C100.125 178.393 99.6875 177.955 99.6875 177.416V169.457ZM100.664 164.037C100.125 164.037 99.6875 164.474 99.6875 165.014V165.025C99.6875 165.565 100.125 166.002 100.664 166.002C101.203 166.002 101.641 165.565 101.641 165.025V165.014C101.641 164.474 101.203 164.037 100.664 164.037ZM115.811 163.339L127.921 170.37C128.221 170.545 128.407 170.867 128.407 171.215C128.407 171.563 128.222 171.885 127.921 172.059L115.811 179.091C115.66 179.179 115.49 179.223 115.321 179.223C115.152 179.223 114.984 179.179 114.834 179.092C114.531 178.918 114.344 178.596 114.344 178.246V164.184C114.344 163.834 114.531 163.512 114.834 163.337C115.136 163.163 115.509 163.164 115.811 163.339ZM125.485 171.215L116.297 165.88V176.55L125.485 171.215Z" fill="#EE8A7C"/>
<path fill-rule="evenodd" clip-rule="evenodd" d="M760 70C779.33 70 795 54.33 795 35C795 15.67 779.33 0 760 0C740.67 0 725 15.67 725 35C725 54.33 740.67 70 760 70ZM760 31.5781C762.154 31.5781 763.906 33.3304 763.906 35.4844C763.906 37.6383 762.154 39.3906 760 39.3906C757.846 39.3906 756.094 37.6383 756.094 35.4844C756.094 33.3304 757.846 31.5781 760 31.5781ZM753.164 46.2266C753.164 42.4572 756.231 39.3906 760 39.3906C763.769 39.3906 766.836 42.4572 766.836 46.2266V49.1562H778.652V24.7422H772.695V26.6953C772.695 27.0555 772.497 27.3864 772.18 27.5563C771.862 27.726 771.477 27.7079 771.177 27.5078L763.906 22.6606V26.6953C763.906 27.2347 763.469 27.6719 762.93 27.6719H748.281C747.742 27.6719 747.305 27.2347 747.305 26.6953V24.7422H741.348V49.1562H753.164V46.2266ZM758.047 35.4844C758.047 36.5613 758.923 37.4375 760 37.4375C761.077 37.4375 761.953 36.5613 761.953 35.4844C761.953 34.4074 761.077 33.5312 760 33.5312C758.923 33.5312 758.047 34.4074 758.047 35.4844ZM741.836 56.9688H755.605C756.145 56.9688 756.582 56.5316 756.582 55.9922C756.582 55.4528 756.145 55.0156 755.605 55.0156H741.836C739.478 55.0156 737.505 53.3353 737.051 51.1084H782.949C782.495 53.3353 780.522 55.0156 778.164 55.0156H764.395C763.855 55.0156 763.418 55.4528 763.418 55.9922C763.418 56.5316 763.855 56.9688 764.395 56.9688H778.164C781.933 56.9688 785 53.9022 785 50.1328C785 49.5934 784.563 49.1562 784.023 49.1562H780.605V23.7656C780.605 23.2263 780.168 22.7891 779.629 22.7891H772.695V14.9766C772.695 14.6164 772.497 14.2855 772.18 14.1155C771.862 13.9456 771.477 13.9642 771.177 14.1641L763.906 19.0112V14.9766C763.906 14.4372 763.469 14 762.93 14H748.281C747.742 14 747.305 14.4372 747.305 14.9766V22.7891H740.371C739.832 22.7891 739.395 23.2263 739.395 23.7656V49.1562H735.977C735.437 49.1562 735 49.5934 735 50.1328C735 53.9022 738.067 56.9688 741.836 56.9688ZM755.117 49.1562V46.2266C755.117 43.5342 757.308 41.3438 760 41.3438C762.692 41.3438 764.883 43.5342 764.883 46.2266V49.1562H755.117ZM770.742 24.8706L764.69 20.8359L770.742 16.8013V24.8706ZM749.258 15.9531H761.953V25.7188H749.258V15.9531ZM760.977 55.9922C760.977 56.5316 760.539 56.9688 760 56.9688C759.461 56.9688 759.023 56.5316 759.023 55.9922C759.023 55.4528 759.461 55.0156 760 55.0156C760.539 55.0156 760.977 55.4528 760.977 55.9922Z" fill="#88B8CD"/>
<path fill-rule="evenodd" clip-rule="evenodd" d="M447 205C466.33 205 482 189.33 482 170C482 150.67 466.33 135 447 135C427.67 135 412 150.67 412 170C412 189.33 427.67 205 447 205ZM447 166.578C449.154 166.578 450.906 168.33 450.906 170.484C450.906 172.638 449.154 174.391 447 174.391C444.846 174.391 443.094 172.638 443.094 170.484C443.094 168.33 444.846 166.578 447 166.578ZM440.164 181.227C440.164 177.457 443.231 174.391 447 174.391C450.769 174.391 453.836 177.457 453.836 181.227V184.156H465.652V159.742H459.695V161.695C459.695 162.055 459.497 162.386 459.18 162.556C458.862 162.726 458.477 162.708 458.177 162.508L450.906 157.661V161.695C450.906 162.235 450.469 162.672 449.93 162.672H435.281C434.742 162.672 434.305 162.235 434.305 161.695V159.742H428.348V184.156H440.164V181.227ZM445.047 170.484C445.047 171.561 445.923 172.438 447 172.438C448.077 172.438 448.953 171.561 448.953 170.484C448.953 169.407 448.077 168.531 447 168.531C445.923 168.531 445.047 169.407 445.047 170.484ZM428.836 191.969H442.605C443.145 191.969 443.582 191.532 443.582 190.992C443.582 190.453 443.145 190.016 442.605 190.016H428.836C426.478 190.016 424.505 188.335 424.051 186.108H469.949C469.495 188.335 467.522 190.016 465.164 190.016H451.395C450.855 190.016 450.418 190.453 450.418 190.992C450.418 191.532 450.855 191.969 451.395 191.969H465.164C468.933 191.969 472 188.902 472 185.133C472 184.593 471.563 184.156 471.023 184.156H467.605V158.766C467.605 158.226 467.168 157.789 466.629 157.789H459.695V149.977C459.695 149.616 459.497 149.285 459.18 149.116C458.862 148.946 458.477 148.964 458.177 149.164L450.906 154.011V149.977C450.906 149.437 450.469 149 449.93 149H435.281C434.742 149 434.305 149.437 434.305 149.977V157.789H427.371C426.832 157.789 426.395 158.226 426.395 158.766V184.156H422.977C422.437 184.156 422 184.593 422 185.133C422 188.902 425.067 191.969 428.836 191.969ZM442.117 184.156V181.227C442.117 178.534 444.308 176.344 447 176.344C449.692 176.344 451.883 178.534 451.883 181.227V184.156H442.117ZM457.742 159.871L451.69 155.836L457.742 151.801V159.871ZM436.258 150.953H448.953V160.719H436.258V150.953ZM447.977 190.992C447.977 191.532 447.539 191.969 447 191.969C446.461 191.969 446.023 191.532 446.023 190.992C446.023 190.453 446.461 190.016 447 190.016C447.539 190.016 447.977 190.453 447.977 190.992Z" fill="#88B8CD"/>
<path fill-rule="evenodd" clip-rule="evenodd" d="M439 339C458.33 339 474 323.33 474 304C474 284.67 458.33 269 439 269C419.67 269 404 284.67 404 304C404 323.33 419.67 339 439 339ZM439 300.578C441.154 300.578 442.906 302.33 442.906 304.484C442.906 306.638 441.154 308.391 439 308.391C436.846 308.391 435.094 306.638 435.094 304.484C435.094 302.33 436.846 300.578 439 300.578ZM432.164 315.227C432.164 311.457 435.231 308.391 439 308.391C442.769 308.391 445.836 311.457 445.836 315.227V318.156H457.652V293.742H451.695V295.695C451.695 296.055 451.497 296.386 451.18 296.556C450.862 296.726 450.477 296.708 450.177 296.508L442.906 291.661V295.695C442.906 296.235 442.469 296.672 441.93 296.672H427.281C426.742 296.672 426.305 296.235 426.305 295.695V293.742H420.348V318.156H432.164V315.227ZM437.047 304.484C437.047 305.561 437.923 306.438 439 306.438C440.077 306.438 440.953 305.561 440.953 304.484C440.953 303.407 440.077 302.531 439 302.531C437.923 302.531 437.047 303.407 437.047 304.484ZM420.836 325.969H434.605C435.145 325.969 435.582 325.532 435.582 324.992C435.582 324.453 435.145 324.016 434.605 324.016H420.836C418.478 324.016 416.505 322.335 416.051 320.108H461.949C461.495 322.335 459.522 324.016 457.164 324.016H443.395C442.855 324.016 442.418 324.453 442.418 324.992C442.418 325.532 442.855 325.969 443.395 325.969H457.164C460.933 325.969 464 322.902 464 319.133C464 318.593 463.563 318.156 463.023 318.156H459.605V292.766C459.605 292.226 459.168 291.789 458.629 291.789H451.695V283.977C451.695 283.616 451.497 283.285 451.18 283.116C450.862 282.946 450.477 282.964 450.177 283.164L442.906 288.011V283.977C442.906 283.437 442.469 283 441.93 283H427.281C426.742 283 426.305 283.437 426.305 283.977V291.789H419.371C418.832 291.789 418.395 292.226 418.395 292.766V318.156H414.977C414.437 318.156 414 318.593 414 319.133C414 322.902 417.067 325.969 420.836 325.969ZM434.117 318.156V315.227C434.117 312.534 436.308 310.344 439 310.344C441.692 310.344 443.883 312.534 443.883 315.227V318.156H434.117ZM449.742 293.871L443.69 289.836L449.742 285.801V293.871ZM428.258 284.953H440.953V294.719H428.258V284.953ZM439.977 324.992C439.977 325.532 439.539 325.969 439 325.969C438.461 325.969 438.023 325.532 438.023 324.992C438.023 324.453 438.461 324.016 439 324.016C439.539 324.016 439.977 324.453 439.977 324.992Z" fill="#88B8CD"/>
<path fill-rule="evenodd" clip-rule="evenodd" d="M788.433 222.747C783.259 224.001 776.572 227.969 772.576 232.157C771.633 233.146 770.958 234.03 771.076 234.12C771.195 234.211 772.98 234.551 775.042 234.876C777.105 235.201 793.734 237.929 811.996 240.938L845.199 246.409L847.246 244.771C850.684 242.019 856.981 238.358 861.209 236.653C864.498 235.327 865.004 234.986 864.008 234.768C863.339 234.621 852.78 232.586 840.542 230.245C792.482 221.055 794.321 221.319 788.433 222.747ZM867.709 237.925C865.738 238.409 862.212 239.724 859.874 240.846C855.56 242.916 848.031 247.703 848.056 248.36C848.063 248.558 848.907 249.642 849.931 250.768C850.955 251.894 858.746 260.838 867.245 270.643C875.744 280.448 882.846 288.47 883.027 288.47C883.504 288.47 886.828 282.363 888.84 277.791C893.835 266.439 894.368 255.014 890.281 246.948C887.743 241.939 884.242 239.106 878.792 237.65C875.485 236.766 872.077 236.851 867.709 237.925ZM772.069 239.27C772.729 240.343 776.287 245.833 779.974 251.47C783.662 257.108 787.265 262.676 787.982 263.845C788.699 265.014 789.48 265.97 789.719 265.97C790.644 265.97 798.486 260.873 802.292 257.798C804.492 256.02 807.134 253.548 808.162 252.304C810.087 249.976 812.544 245.746 812.54 244.771C812.538 244.435 804.9 242.967 792.915 240.999C782.122 239.228 772.747 237.675 772.08 237.549L770.868 237.32L772.069 239.27ZM814.918 247.345C812.755 253.328 804.205 261.584 794.319 267.235C793.611 267.64 795.344 268.215 802.466 269.938L811.512 272.127L815.402 271.185C820.371 269.981 828.865 269.971 833.781 271.163C839.685 272.594 842.752 274.933 843.496 278.573L843.819 280.151L860.757 284.318C870.072 286.61 877.801 288.379 877.931 288.249C878.061 288.119 876.045 285.584 873.452 282.616C868.641 277.11 858.759 265.741 849.792 255.396L844.792 249.627L830.792 247.29C823.092 246.004 816.564 244.957 816.285 244.961C816.005 244.966 815.391 246.039 814.918 247.345ZM750.069 252.688C749.363 253.539 749.353 253.517 753.906 261.124C756.579 265.589 757.326 266.5 758.211 266.374C758.8 266.289 759.347 265.877 759.427 265.458C759.627 264.405 752.17 251.97 751.338 251.97C750.968 251.97 750.397 252.293 750.069 252.688ZM731.376 267.304C730.286 268.393 731.42 269.409 736.726 272.095C739.85 273.676 742.75 274.97 743.17 274.97C743.99 274.97 744.716 273.656 744.283 272.956C743.863 272.275 733.455 266.97 732.54 266.97C732.083 266.97 731.559 267.12 731.376 267.304ZM816.168 274.243C807.795 276.497 806.919 280.012 814.175 282.24C824.129 285.294 840.824 282.646 839.958 278.15C839.685 276.736 836.798 275.109 833.047 274.255C828.765 273.281 819.762 273.275 816.168 274.243ZM766.792 275.155C762.109 277.355 754.517 283.979 751.13 288.819C750.072 290.332 750.06 290.445 750.911 290.9C751.406 291.165 752.644 291.538 753.662 291.729C755.276 292.032 755.82 291.851 757.903 290.322C762.92 286.637 769.508 278.691 770.318 275.345C770.736 273.617 770.134 273.584 766.792 275.155ZM778.667 275.332C777.058 275.532 776.578 276.124 777.542 276.72C777.817 276.89 778.042 278.028 778.042 279.25V281.47H783.998C792.464 281.47 800.042 279.831 800.042 277.999C800.042 277.386 795.98 276.112 792.042 275.491C788.909 274.996 782.031 274.914 778.667 275.332ZM772.398 278.522C771.243 281.251 767.265 286.181 763.181 289.945L759.391 293.437L760.792 293.97C761.563 294.263 762.364 294.439 762.572 294.362C763.366 294.065 768.791 288.651 770.948 286.003C772.188 284.48 773.639 282.247 774.173 281.041C775.138 278.859 775.138 278.844 774.13 277.836L773.117 276.823L772.398 278.522ZM803.542 283.654C803.542 284.621 803.298 285.562 802.999 285.747C802.116 286.292 803.21 286.964 804.451 286.639C805.442 286.38 805.573 286.067 805.443 284.285C805.334 282.798 805.05 282.183 804.417 282.063C803.718 281.93 803.542 282.251 803.542 283.654ZM797.042 283.321C795.383 283.9 792.299 284.147 785.299 284.262C776.27 284.411 775.782 284.469 775.345 285.449C775.092 286.016 775.019 286.613 775.182 286.776C775.836 287.431 788.028 287.587 792.087 286.994C798.021 286.126 800.512 284.977 800.535 283.095C800.544 282.3 799.841 282.346 797.042 283.321ZM809.042 285.029C809.042 286.89 809.498 287.048 814.336 286.868L818.292 286.72L816.042 286.09C814.805 285.743 812.724 285.031 811.417 284.508L809.042 283.556V285.029ZM837.042 284.761C835.53 285.409 833.799 285.946 833.197 285.955C832.594 285.963 831.953 286.21 831.773 286.502C831.55 286.862 832.02 286.926 833.227 286.699C834.208 286.515 836.199 286.22 837.652 286.043C839.892 285.769 840.316 285.55 840.452 284.595C840.643 283.251 840.554 283.256 837.042 284.761ZM852.772 286.504C852.381 287.136 852.158 286.972 855.433 288.458C856.886 289.117 858.326 289.959 858.633 290.33C859.092 290.883 859.402 290.806 860.367 289.9C861.014 289.293 861.542 288.536 861.542 288.218C861.542 287.901 859.793 287.265 857.656 286.805C853.06 285.818 853.191 285.826 852.772 286.504ZM746.542 287.332C743.117 288.621 743.215 288.549 744.292 288.99C746.03 289.702 746.903 289.507 747.746 288.22C748.584 286.942 748.244 286.691 746.542 287.332ZM838.457 289.205C838.272 289.399 839.004 291.384 840.083 293.616C841.316 296.166 841.93 298.035 841.736 298.646C841.443 299.57 841.615 299.602 845.205 299.276C851.793 298.679 857.292 296.379 857.292 294.22C857.292 292.99 854.6 291.175 851.336 290.204C848.558 289.378 838.997 288.636 838.457 289.205ZM771.304 290.458C770.437 291.415 770.453 291.461 771.851 292.001C772.644 292.308 774.015 292.679 774.897 292.826L776.502 293.095L775.925 291.565C775.408 290.197 774.343 289.497 772.745 289.477C772.444 289.473 771.795 289.915 771.304 290.458ZM801.892 290.643C802.112 291.013 803.127 292.281 804.147 293.46L806.002 295.604L809.022 292.988C810.683 291.549 812.042 290.281 812.042 290.171C812.042 290.06 809.669 289.97 806.767 289.97C802.482 289.97 801.568 290.097 801.892 290.643ZM821.542 290.133C821.542 290.431 828.077 295.603 828.21 295.41C828.282 295.306 829.307 294.039 830.488 292.595L832.635 289.97H827.089C824.038 289.97 821.542 290.043 821.542 290.133ZM779.266 290.927C779.795 291.784 785.202 293.078 789.364 293.344C793.191 293.589 793.471 293.538 794.029 292.495C794.356 291.884 794.508 291.269 794.367 291.129C793.874 290.635 778.962 290.436 779.266 290.927ZM813.636 293.102C811.974 294.542 810.598 295.889 810.578 296.095C810.559 296.301 813.524 296.461 817.167 296.449L823.792 296.428L821.542 294.421C820.305 293.318 818.699 291.98 817.975 291.449L816.657 290.484L813.636 293.102ZM739.746 293.345C740.026 295.573 741.695 312.777 742.33 319.97C742.899 326.41 744.501 329.798 748.071 332.113C748.743 332.548 757.392 336.318 767.292 340.489C784.259 347.639 788.949 349.619 804.792 356.325C825.059 364.903 824.833 364.831 825.272 362.845C825.408 362.226 825.581 351.724 825.656 339.506L825.792 317.291L820.542 315.698C816.496 314.469 797.141 308.475 791.426 306.68C790.621 306.428 790.549 307.346 790.426 319.564C790.295 332.441 790.27 332.723 789.257 332.868C788.064 333.039 769.537 326.27 769.053 325.487C768.876 325.201 768.454 320.074 768.114 314.094C767.229 298.494 767.371 299.174 764.868 298.532C763.726 298.239 757.736 296.418 751.557 294.485C745.377 292.552 740.125 290.97 739.885 290.97C739.645 290.97 739.582 292.039 739.746 293.345ZM797.11 293.337C796.523 294.488 796.042 295.664 796.042 295.95C796.042 296.252 797.299 296.47 799.042 296.47C800.692 296.47 802.042 296.301 802.041 296.095C802.04 295.889 801.171 294.713 800.109 293.482L798.179 291.243L797.11 293.337ZM833.627 293.677C832.755 294.891 832.042 296.016 832.042 296.177C832.042 296.338 833.28 296.47 834.792 296.47C836.362 296.47 837.542 296.247 837.542 295.95C837.542 295.402 835.633 291.47 835.367 291.47C835.282 291.47 834.499 292.463 833.627 293.677ZM769.123 295.469C769.266 296.433 770.019 296.833 774.042 298.081C778.231 299.38 779.548 299.556 785.19 299.573C788.708 299.584 791.68 299.499 791.795 299.384C791.909 299.27 791.881 298.712 791.733 298.144C791.479 297.174 791.001 297.094 783.877 296.827C777.199 296.577 773.161 295.959 769.873 294.686C769.124 294.395 768.985 294.54 769.123 295.469ZM860.811 294.868C860.663 295.016 860.542 296.924 860.542 299.108C860.542 303.777 859.636 303.651 869.093 300.302L875.208 298.136L868.144 296.367C864.259 295.395 860.959 294.72 860.811 294.868ZM855.473 300.11C852.748 301.442 847.292 302.452 842.765 302.462C838.871 302.47 838.686 302.525 837.14 304.119C836.261 305.026 835.542 305.903 835.542 306.068C835.542 306.234 837.066 306.522 838.929 306.709C845.09 307.328 854.644 305.344 856.759 303.007C857.259 302.454 857.546 301.475 857.452 300.642L857.292 299.22L855.473 300.11ZM797.594 300.345C801.209 305.038 803.233 306.941 805.389 307.676C806.667 308.111 807.806 308.373 807.921 308.259C808.035 308.144 807.396 306.119 806.5 303.76L804.87 299.47H800.895C797.186 299.47 796.965 299.529 797.594 300.345ZM808.568 300.095C808.583 300.439 809.429 302.745 810.449 305.22L812.304 309.72L815.548 310.809C817.332 311.407 819.142 311.914 819.569 311.934C820.102 311.959 821.083 310.167 822.694 306.225C823.986 303.066 825.042 300.253 825.042 299.975C825.042 299.656 822.014 299.47 816.792 299.47C810.512 299.47 808.548 299.619 808.568 300.095ZM826.147 306.095C824.714 309.739 823.541 312.889 823.542 313.095C823.543 313.916 825.011 313.402 825.876 312.279C826.38 311.624 828.706 308.867 831.044 306.154C833.382 303.44 835.604 300.827 835.98 300.345C836.62 299.528 836.404 299.47 832.709 299.47H828.753L826.147 306.095ZM770.574 302.595C770.656 308.171 771.901 323.028 772.32 323.444C772.809 323.93 786.276 328.97 787.085 328.97C787.348 328.97 787.542 323.994 787.542 317.242V305.513L782.417 303.963C779.599 303.111 775.955 301.976 774.32 301.442C772.686 300.907 771.167 300.47 770.945 300.47C770.724 300.47 770.556 301.426 770.574 302.595ZM874.042 301.907C871.98 302.671 867.086 304.394 863.167 305.737C856.985 307.855 856.042 308.32 856.042 309.247C856.042 310.506 854.584 311.97 853.33 311.97C852.844 311.97 851.839 311.611 851.097 311.173C849.805 310.41 849.463 310.474 843.178 312.673C839.565 313.936 836.369 314.97 836.076 314.97C835.782 314.97 835.542 315.195 835.542 315.47C835.542 315.745 835.772 315.97 836.053 315.97C836.334 315.97 836.822 316.538 837.138 317.232C837.624 318.297 837.546 318.72 836.638 319.948L835.562 321.403L836.66 321.562C837.265 321.649 838.099 322.327 838.514 323.069C839.211 324.316 839.188 324.528 838.206 325.856C837.17 327.257 837.167 327.308 838.093 327.886C839.242 328.604 839.363 331.081 838.292 331.97C837.278 332.812 837.349 333.303 838.53 333.612C839.074 333.754 839.78 334.446 840.101 335.15C841.225 337.616 838.044 340.125 835.742 338.588C833.867 337.335 834.095 334.288 836.121 333.539C837.143 333.161 837.107 333.108 835.627 332.812C834.585 332.604 833.83 332.051 833.451 331.22C832.96 330.142 833.035 329.726 833.938 328.505C834.825 327.304 834.88 327.015 834.266 326.779C832.977 326.285 832.413 323.992 833.261 322.698C833.952 321.643 833.918 321.504 832.774 320.754C831.911 320.189 831.542 319.491 831.542 318.422C831.542 317.239 831.346 316.934 830.667 317.064C829.471 317.293 829.261 320.376 828.806 344.438L828.433 364.106L829.863 363.762C830.649 363.573 834.667 361.818 838.792 359.863C842.917 357.908 848.542 355.246 851.292 353.947C870.416 344.917 872.779 343.655 874.884 341.353C878.196 337.73 878.409 336.423 878.825 317.267C879.133 303.045 879.082 300.474 878.49 300.495C878.106 300.508 876.105 301.144 874.042 301.907ZM791.792 302.439L789.792 302.765L793.22 303.868C795.105 304.474 796.753 304.97 796.883 304.97C797.012 304.97 796.595 304.308 795.955 303.498C795.316 302.688 794.567 302.045 794.292 302.069C794.017 302.093 792.892 302.259 791.792 302.439ZM835.05 309.815C835.054 310.038 835.261 310.542 835.511 310.936C835.891 311.538 836.298 311.552 838.052 311.027C839.2 310.682 840.061 310.333 839.966 310.25C839.512 309.854 835.043 309.459 835.05 309.815ZM779.928 310.595C780.208 310.939 780.517 312.882 780.614 314.913C780.76 317.944 780.643 318.701 779.959 319.134C779.353 319.519 778.91 319.483 778.334 319.005C777.32 318.163 777.177 310.701 778.167 310.301C779.169 309.897 779.39 309.934 779.928 310.595ZM855.417 313.593C856.303 314.301 856.192 316.476 855.215 317.556C854.129 318.756 852.29 318.718 851.042 317.47C849.716 316.144 849.781 315.186 851.301 313.666C852.57 312.397 853.893 312.373 855.417 313.593ZM855.442 320.07C856.292 320.92 856.186 323.255 855.257 324.185C853.52 325.921 850.042 324.479 850.042 322.023C850.042 319.97 853.935 318.563 855.442 320.07ZM855.442 326.57C856.302 327.43 856.182 329.759 855.23 330.712C853.998 331.944 851.483 331.505 850.588 329.903C849.929 328.723 849.941 328.449 850.709 327.278C851.344 326.308 851.989 325.97 853.204 325.97C854.105 325.97 855.112 326.24 855.442 326.57ZM854.764 333.082C855.805 334.568 855.745 335.632 854.559 336.705C852.594 338.484 849.542 337.491 849.542 335.073C849.542 332.217 853.185 330.827 854.764 333.082ZM853.376 339.778C854.143 340.949 854.156 341.223 853.497 342.403C852.978 343.332 852.277 343.767 851.119 343.879C849.014 344.083 848.042 343.255 848.042 341.259C848.042 339.236 848.821 338.47 850.881 338.47C852.096 338.47 852.741 338.808 853.376 339.778ZM841.042 340.47C841.592 341.02 842.042 341.813 842.042 342.232C842.042 342.899 842.196 342.892 843.289 342.177C845.876 340.481 848.902 342.936 847.64 345.706C846.459 348.298 842.042 347.499 842.042 344.694V343.44L840.516 344.568C839.1 345.615 838.894 345.642 837.641 344.943C835.984 344.017 835.588 341.801 836.832 340.426C837.952 339.188 839.779 339.207 841.042 340.47ZM742.792 345.981C738.982 346.388 735.722 347.178 734.542 347.98C733.891 348.422 733.916 348.583 734.733 349.208C737.576 351.38 752.55 351.981 758.253 350.152C759.882 349.63 761.3 348.947 761.404 348.635C761.682 347.8 757.43 346.564 752.292 345.985C749.817 345.707 747.455 345.507 747.042 345.542C746.63 345.577 744.717 345.775 742.792 345.981ZM733.542 353.097C733.542 354.434 734.258 354.857 738.542 356.051C742.194 357.068 754.627 356.811 758.292 355.642C760.896 354.811 761.313 354.506 761.45 353.328C761.537 352.581 761.537 351.97 761.45 351.97C761.363 351.97 759.717 352.304 757.792 352.712C752.088 353.92 742.321 353.694 735.167 352.187C733.676 351.873 733.542 351.948 733.542 353.097ZM867.209 358.69C863.644 359.5 861.891 360.321 862.304 360.989C862.463 361.246 863.875 361.853 865.443 362.338C869.677 363.646 883.174 363.554 887.042 362.19C888.555 361.657 889.792 360.995 889.792 360.72C889.792 360.445 888.555 359.795 887.042 359.276C883.379 358.018 871.686 357.673 867.209 358.69ZM862.136 365.096C862.278 366.571 862.545 366.81 865.042 367.694C867.343 368.509 869.14 368.668 876.042 368.668C882.944 368.668 884.742 368.509 887.042 367.694C889.509 366.821 889.808 366.559 889.944 365.155L890.097 363.589L886.694 364.544C880.925 366.164 868.262 365.86 863.326 363.983C862.02 363.487 861.984 363.521 862.136 365.096Z" fill="#B56951"/>
</svg>
