<svg width="70" height="70" viewBox="0 0 70 70" fill="none" xmlns="http://www.w3.org/2000/svg">
<path fill-rule="evenodd" clip-rule="evenodd" d="M35 70C54.33 70 70 54.33 70 35C70 15.67 54.33 0 35 0C15.67 0 0 15.67 0 35C0 54.33 15.67 70 35 70ZM35 31.5781C37.1539 31.5781 38.9062 33.3305 38.9062 35.4844C38.9062 37.6383 37.1539 39.3906 35 39.3906C32.8461 39.3906 31.0938 37.6383 31.0938 35.4844C31.0938 33.3305 32.8461 31.5781 35 31.5781ZM28.1641 46.2266C28.1641 42.4572 31.2307 39.3906 35 39.3906C38.7693 39.3906 41.8359 42.4572 41.8359 46.2266V49.1562H53.6523V24.7422H47.6953V26.6953C47.6953 27.0555 47.4971 27.3864 47.1796 27.5563C46.8625 27.726 46.4771 27.7079 46.1771 27.5078L38.9062 22.6606V26.6953C38.9062 27.2347 38.4689 27.6719 37.9297 27.6719H23.2812C22.742 27.6719 22.3047 27.2347 22.3047 26.6953V24.7422H16.3477V49.1562H28.1641V46.2266ZM33.0469 35.4844C33.0469 36.5613 33.923 37.4375 35 37.4375C36.077 37.4375 36.9531 36.5613 36.9531 35.4844C36.9531 34.4074 36.077 33.5312 35 33.5312C33.923 33.5312 33.0469 34.4074 33.0469 35.4844ZM16.8359 56.9688H30.6055C31.1447 56.9688 31.582 56.5315 31.582 55.9922C31.582 55.4528 31.1447 55.0156 30.6055 55.0156H16.8359C14.4779 55.0156 12.5049 53.3354 12.0513 51.1084H57.9487C57.4951 53.3354 55.5221 55.0156 53.1641 55.0156H39.3945C38.8553 55.0156 38.418 55.4528 38.418 55.9922C38.418 56.5315 38.8553 56.9688 39.3945 56.9688H53.1641C56.9334 56.9688 60 53.9021 60 50.1328C60 49.5935 59.5627 49.1562 59.0234 49.1562H55.6055V23.7656C55.6055 23.2263 55.1682 22.7891 54.6289 22.7891H47.6953V14.9766C47.6953 14.6164 47.4971 14.2854 47.1796 14.1155C46.862 13.9456 46.4766 13.9643 46.1771 14.1641L38.9062 19.0112V14.9766C38.9062 14.4372 38.4689 14 37.9297 14H23.2812C22.742 14 22.3047 14.4372 22.3047 14.9766V22.7891H15.3711C14.8318 22.7891 14.3945 23.2263 14.3945 23.7656V49.1562H10.9766C10.4373 49.1562 10 49.5935 10 50.1328C10 53.9021 13.0666 56.9688 16.8359 56.9688ZM30.1172 49.1562V46.2266C30.1172 43.5342 32.3076 41.3438 35 41.3438C37.6924 41.3438 39.8828 43.5342 39.8828 46.2266V49.1562H30.1172ZM45.7422 24.8706L39.6901 20.8359L45.7422 16.8013V24.8706ZM24.2578 15.9531H36.9531V25.7188H24.2578V15.9531ZM35.9766 55.9922C35.9766 56.5315 35.5393 56.9688 35 56.9688C34.4607 56.9688 34.0234 56.5315 34.0234 55.9922C34.0234 55.4528 34.4607 55.0156 35 55.0156C35.5393 55.0156 35.9766 55.4528 35.9766 55.9922Z" fill="#88B8CD"/>
</svg>
