<svg width="860" height="181" viewBox="0 0 860 181" fill="none" xmlns="http://www.w3.org/2000/svg">
<g opacity="0.62">
<rect y="31" width="860" height="150" rx="23" fill="#E5E5E5"/>
<rect x="122" y="131" width="233" height="35" rx="17.5" fill="#C4C4C4"/>
<path d="M230.964 53.4851H228.255V61H227.149V53.4851H224.445V52.5703H230.964V53.4851ZM234.068 61.1158C233.218 61.1158 232.527 60.8379 231.995 60.2821C231.462 59.7224 231.196 58.9756 231.196 58.0415V57.8447C231.196 57.2232 231.314 56.6694 231.549 56.183C231.788 55.6928 232.12 55.3107 232.545 55.0367C232.973 54.7588 233.436 54.6198 233.934 54.6198C234.749 54.6198 235.382 54.8881 235.833 55.4246C236.285 55.9611 236.511 56.7292 236.511 57.7289V58.1747H232.267C232.282 58.7922 232.462 59.2921 232.805 59.6742C233.153 60.0524 233.593 60.2416 234.125 60.2416C234.504 60.2416 234.824 60.1644 235.086 60.01C235.349 59.8556 235.579 59.651 235.775 59.3963L236.43 59.9058C235.905 60.7124 235.117 61.1158 234.068 61.1158ZM233.934 55.4999C233.502 55.4999 233.139 55.6581 232.846 55.9746C232.553 56.2872 232.371 56.7273 232.302 57.2946H235.44V57.2136C235.409 56.6694 235.262 56.2487 235 55.9515C234.737 55.6504 234.382 55.4999 233.934 55.4999ZM240.268 60.2416C240.65 60.2416 240.984 60.1258 241.27 59.8942C241.555 59.6626 241.714 59.3731 241.745 59.0257H242.758C242.738 59.3847 242.615 59.7263 242.387 60.0505C242.159 60.3747 241.855 60.6333 241.472 60.8263C241.094 61.0193 240.693 61.1158 240.268 61.1158C239.415 61.1158 238.736 60.8321 238.23 60.2647C237.728 59.6935 237.478 58.9138 237.478 57.9257V57.7462C237.478 57.1364 237.59 56.5941 237.813 56.1194C238.037 55.6446 238.358 55.276 238.774 55.0135C239.195 54.7511 239.691 54.6198 240.262 54.6198C240.965 54.6198 241.548 54.8302 242.011 55.2509C242.478 55.6716 242.727 56.2178 242.758 56.8894H241.745C241.714 56.4841 241.559 56.1522 241.281 55.8936C241.007 55.6311 240.668 55.4999 240.262 55.4999C239.718 55.4999 239.296 55.6967 238.994 56.0904C238.697 56.4802 238.549 57.0457 238.549 57.7868V57.9894C238.549 58.7112 238.697 59.267 238.994 59.6568C239.292 60.0466 239.716 60.2416 240.268 60.2416ZM245.033 55.4941C245.508 54.9112 246.125 54.6198 246.886 54.6198C248.21 54.6198 248.877 55.3667 248.889 56.8604V61H247.818V56.8546C247.814 56.403 247.71 56.0692 247.505 55.853C247.305 55.6369 246.99 55.5288 246.562 55.5288C246.214 55.5288 245.909 55.6214 245.647 55.8067C245.384 55.992 245.18 56.2351 245.033 56.5362V61H243.962V52.1071H245.033V55.4941ZM254.713 57.6999V61H253.602V52.5703H256.711C257.633 52.5703 258.355 52.8058 258.876 53.2766C259.401 53.7475 259.663 54.3709 259.663 55.1467C259.663 55.965 259.407 56.596 258.893 57.0399C258.384 57.4799 257.653 57.6999 256.699 57.6999H254.713ZM254.713 56.7909H256.711C257.305 56.7909 257.761 56.652 258.077 56.3741C258.394 56.0923 258.552 55.6871 258.552 55.1583C258.552 54.6565 258.394 54.2551 258.077 53.954C257.761 53.653 257.326 53.4967 256.774 53.4851H254.713V56.7909ZM263.942 55.6967C263.78 55.6697 263.604 55.6562 263.415 55.6562C262.713 55.6562 262.236 55.9553 261.985 56.5536V61H260.914V54.7356H261.956L261.973 55.4593C262.325 54.8997 262.823 54.6198 263.467 54.6198C263.676 54.6198 263.834 54.6469 263.942 54.7009V55.6967ZM264.533 57.8099C264.533 57.1962 264.652 56.6443 264.891 56.1541C265.135 55.6639 265.47 55.2856 265.899 55.0193C266.331 54.753 266.823 54.6198 267.375 54.6198C268.228 54.6198 268.917 54.9151 269.442 55.5057C269.971 56.0962 270.235 56.8817 270.235 57.862V57.9373C270.235 58.5471 270.118 59.0952 269.882 59.5815C269.651 60.064 269.317 60.4403 268.881 60.7105C268.448 60.9807 267.95 61.1158 267.387 61.1158C266.538 61.1158 265.849 60.8205 265.32 60.23C264.795 59.6394 264.533 58.8578 264.533 57.8852V57.8099ZM265.609 57.9373C265.609 58.632 265.77 59.1898 266.09 59.6105C266.414 60.0312 266.846 60.2416 267.387 60.2416C267.931 60.2416 268.363 60.0293 268.684 59.6047C269.004 59.1763 269.164 58.578 269.164 57.8099C269.164 57.1229 269 56.5671 268.672 56.1425C268.348 55.7141 267.916 55.4999 267.375 55.4999C266.846 55.4999 266.42 55.7102 266.096 56.1309C265.771 56.5516 265.609 57.1538 265.609 57.9373ZM272.684 54.7356V61.7237C272.684 62.9279 272.138 63.5301 271.046 63.5301C270.81 63.5301 270.592 63.4953 270.392 63.4259V62.569C270.515 62.5999 270.677 62.6153 270.878 62.6153C271.117 62.6153 271.299 62.5497 271.422 62.4185C271.55 62.2911 271.613 62.0672 271.613 61.7469V54.7356H272.684ZM271.503 53.074C271.503 52.9042 271.555 52.7594 271.66 52.6398C271.768 52.5163 271.924 52.4545 272.128 52.4545C272.337 52.4545 272.495 52.5143 272.603 52.634C272.711 52.7537 272.765 52.9003 272.765 53.074C272.765 53.2477 272.711 53.3924 272.603 53.5082C272.495 53.624 272.337 53.6819 272.128 53.6819C271.92 53.6819 271.764 53.624 271.66 53.5082C271.555 53.3924 271.503 53.2477 271.503 53.074ZM277.015 61.1158C276.166 61.1158 275.475 60.8379 274.942 60.2821C274.41 59.7224 274.143 58.9756 274.143 58.0415V57.8447C274.143 57.2232 274.261 56.6694 274.496 56.183C274.736 55.6928 275.068 55.3107 275.492 55.0367C275.921 54.7588 276.384 54.6198 276.882 54.6198C277.696 54.6198 278.329 54.8881 278.781 55.4246C279.232 55.9611 279.458 56.7292 279.458 57.7289V58.1747H275.214C275.23 58.7922 275.409 59.2921 275.753 59.6742C276.1 60.0524 276.54 60.2416 277.073 60.2416C277.451 60.2416 277.771 60.1644 278.034 60.01C278.296 59.8556 278.526 59.651 278.723 59.3963L279.377 59.9058C278.852 60.7124 278.065 61.1158 277.015 61.1158ZM276.882 55.4999C276.449 55.4999 276.087 55.6581 275.793 55.9746C275.5 56.2872 275.319 56.7273 275.249 57.2946H278.387V57.2136C278.356 56.6694 278.21 56.2487 277.947 55.9515C277.685 55.6504 277.329 55.4999 276.882 55.4999ZM283.216 60.2416C283.598 60.2416 283.932 60.1258 284.217 59.8942C284.503 59.6626 284.661 59.3731 284.692 59.0257H285.705C285.686 59.3847 285.562 59.7263 285.335 60.0505C285.107 60.3747 284.802 60.6333 284.42 60.8263C284.042 61.0193 283.64 61.1158 283.216 61.1158C282.363 61.1158 281.683 60.8321 281.178 60.2647C280.676 59.6935 280.425 58.9138 280.425 57.9257V57.7462C280.425 57.1364 280.537 56.5941 280.761 56.1194C280.985 55.6446 281.305 55.276 281.722 55.0135C282.143 54.7511 282.639 54.6198 283.21 54.6198C283.912 54.6198 284.495 54.8302 284.958 55.2509C285.425 55.6716 285.674 56.2178 285.705 56.8894H284.692C284.661 56.4841 284.507 56.1522 284.229 55.8936C283.955 55.6311 283.615 55.4999 283.21 55.4999C282.666 55.4999 282.243 55.6967 281.942 56.0904C281.645 56.4802 281.496 57.0457 281.496 57.7868V57.9894C281.496 58.7112 281.645 59.267 281.942 59.6568C282.239 60.0466 282.664 60.2416 283.216 60.2416ZM288.363 53.2188V54.7356H289.532V55.5635H288.363V59.4484C288.363 59.6993 288.415 59.8884 288.519 60.0158C288.623 60.1393 288.801 60.201 289.052 60.201C289.175 60.201 289.345 60.1779 289.561 60.1316V61C289.279 61.0772 289.005 61.1158 288.739 61.1158C288.26 61.1158 287.899 60.9711 287.656 60.6816C287.413 60.3921 287.292 59.981 287.292 59.4484V55.5635H286.151V54.7356H287.292V53.2188H288.363ZM293.897 61V52.5703H296.277C297.01 52.5703 297.659 52.7324 298.222 53.0566C298.786 53.3809 299.22 53.8421 299.525 54.4404C299.834 55.0386 299.99 55.7257 299.994 56.5015V57.0399C299.994 57.835 299.84 58.5317 299.531 59.13C299.226 59.7282 298.788 60.1875 298.217 60.5079C297.649 60.8282 296.987 60.9923 296.231 61H293.897ZM295.009 53.4851V60.091H296.179C297.035 60.091 297.701 59.8247 298.176 59.2921C298.655 58.7594 298.894 58.001 298.894 57.0167V56.5246C298.894 55.5674 298.668 54.8244 298.217 54.2956C297.769 53.763 297.132 53.4928 296.306 53.4851H295.009ZM304.11 61.1158C303.261 61.1158 302.57 60.8379 302.038 60.2821C301.505 59.7224 301.239 58.9756 301.239 58.0415V57.8447C301.239 57.2232 301.356 56.6694 301.592 56.183C301.831 55.6928 302.163 55.3107 302.588 55.0367C303.016 54.7588 303.479 54.6198 303.977 54.6198C304.792 54.6198 305.425 54.8881 305.876 55.4246C306.328 55.9611 306.554 56.7292 306.554 57.7289V58.1747H302.31C302.325 58.7922 302.505 59.2921 302.848 59.6742C303.196 60.0524 303.636 60.2416 304.168 60.2416C304.547 60.2416 304.867 60.1644 305.129 60.01C305.392 59.8556 305.621 59.651 305.818 59.3963L306.473 59.9058C305.948 60.7124 305.16 61.1158 304.11 61.1158ZM303.977 55.4999C303.545 55.4999 303.182 55.6581 302.889 55.9746C302.595 56.2872 302.414 56.7273 302.345 57.2946H305.482V57.2136C305.452 56.6694 305.305 56.2487 305.042 55.9515C304.78 55.6504 304.425 55.4999 303.977 55.4999ZM309.784 59.5468L311.336 54.7356H312.43L310.184 61H309.367L307.098 54.7356H308.192L309.784 59.5468ZM315.979 61.1158C315.13 61.1158 314.439 60.8379 313.906 60.2821C313.374 59.7224 313.107 58.9756 313.107 58.0415V57.8447C313.107 57.2232 313.225 56.6694 313.461 56.183C313.7 55.6928 314.032 55.3107 314.456 55.0367C314.885 54.7588 315.348 54.6198 315.846 54.6198C316.66 54.6198 317.293 54.8881 317.745 55.4246C318.196 55.9611 318.422 56.7292 318.422 57.7289V58.1747H314.178C314.194 58.7922 314.373 59.2921 314.717 59.6742C315.064 60.0524 315.504 60.2416 316.037 60.2416C316.415 60.2416 316.736 60.1644 316.998 60.01C317.261 59.8556 317.49 59.651 317.687 59.3963L318.341 59.9058C317.816 60.7124 317.029 61.1158 315.979 61.1158ZM315.846 55.4999C315.414 55.4999 315.051 55.6581 314.757 55.9746C314.464 56.2872 314.283 56.7273 314.213 57.2946H317.351V57.2136C317.32 56.6694 317.174 56.2487 316.911 55.9515C316.649 55.6504 316.294 55.4999 315.846 55.4999ZM320.831 61H319.76V52.1071H320.831V61ZM322.267 57.8099C322.267 57.1962 322.386 56.6443 322.626 56.1541C322.869 55.6639 323.205 55.2856 323.633 55.0193C324.065 54.753 324.557 54.6198 325.109 54.6198C325.962 54.6198 326.651 54.9151 327.176 55.5057C327.705 56.0962 327.969 56.8817 327.969 57.862V57.9373C327.969 58.5471 327.852 59.0952 327.616 59.5815C327.385 60.064 327.051 60.4403 326.615 60.7105C326.182 60.9807 325.684 61.1158 325.121 61.1158C324.272 61.1158 323.583 60.8205 323.054 60.23C322.529 59.6394 322.267 58.8578 322.267 57.8852V57.8099ZM323.343 57.9373C323.343 58.632 323.504 59.1898 323.824 59.6105C324.148 60.0312 324.581 60.2416 325.121 60.2416C325.665 60.2416 326.097 60.0293 326.418 59.6047C326.738 59.1763 326.898 58.578 326.898 57.8099C326.898 57.1229 326.734 56.5671 326.406 56.1425C326.082 55.7141 325.65 55.4999 325.109 55.4999C324.581 55.4999 324.154 55.7102 323.83 56.1309C323.506 56.5516 323.343 57.1538 323.343 57.9373ZM334.604 57.9373C334.604 58.8906 334.386 59.6587 333.95 60.2416C333.514 60.8244 332.923 61.1158 332.178 61.1158C331.418 61.1158 330.82 60.8746 330.384 60.3921V63.4085H329.313V54.7356H330.291L330.343 55.4304C330.779 54.89 331.385 54.6198 332.161 54.6198C332.914 54.6198 333.508 54.9035 333.944 55.4709C334.384 56.0383 334.604 56.8276 334.604 57.8389V57.9373ZM333.533 57.8157C333.533 57.1094 333.383 56.5516 333.082 56.1425C332.781 55.7334 332.368 55.5288 331.843 55.5288C331.194 55.5288 330.708 55.8164 330.384 56.3915V59.3847C330.704 59.9559 331.194 60.2416 331.854 60.2416C332.368 60.2416 332.775 60.0389 333.076 59.6336C333.381 59.2245 333.533 58.6185 333.533 57.8157ZM336.978 54.7356L337.007 55.4304C337.466 54.89 338.086 54.6198 338.865 54.6198C339.742 54.6198 340.338 54.9556 340.654 55.6272C340.863 55.3262 341.133 55.083 341.465 54.8977C341.801 54.7125 342.196 54.6198 342.652 54.6198C344.026 54.6198 344.725 55.3474 344.748 56.8025V61H343.677V56.8662C343.677 56.4185 343.574 56.0846 343.37 55.8646C343.165 55.6407 342.822 55.5288 342.339 55.5288C341.942 55.5288 341.612 55.6485 341.349 55.8878C341.087 56.1232 340.934 56.4416 340.892 56.8431V61H339.815V56.8952C339.815 55.9843 339.369 55.5288 338.478 55.5288C337.775 55.5288 337.295 55.8279 337.036 56.4262V61H335.965V54.7356H336.978ZM348.968 61.1158C348.119 61.1158 347.428 60.8379 346.896 60.2821C346.363 59.7224 346.097 58.9756 346.097 58.0415V57.8447C346.097 57.2232 346.214 56.6694 346.45 56.183C346.689 55.6928 347.021 55.3107 347.446 55.0367C347.874 54.7588 348.337 54.6198 348.835 54.6198C349.65 54.6198 350.283 54.8881 350.734 55.4246C351.186 55.9611 351.412 56.7292 351.412 57.7289V58.1747H347.168C347.183 58.7922 347.363 59.2921 347.706 59.6742C348.054 60.0524 348.494 60.2416 349.026 60.2416C349.404 60.2416 349.725 60.1644 349.987 60.01C350.25 59.8556 350.479 59.651 350.676 59.3963L351.33 59.9058C350.806 60.7124 350.018 61.1158 348.968 61.1158ZM348.835 55.4999C348.403 55.4999 348.04 55.6581 347.747 55.9746C347.453 56.2872 347.272 56.7273 347.202 57.2946H350.34V57.2136C350.31 56.6694 350.163 56.2487 349.9 55.9515C349.638 55.6504 349.283 55.4999 348.835 55.4999ZM353.67 54.7356L353.704 55.523C354.183 54.9209 354.808 54.6198 355.58 54.6198C356.904 54.6198 357.572 55.3667 357.583 56.8604V61H356.512V56.8546C356.508 56.403 356.404 56.0692 356.2 55.853C355.999 55.6369 355.684 55.5288 355.256 55.5288C354.908 55.5288 354.604 55.6214 354.341 55.8067C354.079 55.992 353.874 56.2351 353.727 56.5362V61H352.656V54.7356H353.67ZM360.652 53.2188V54.7356H361.821V55.5635H360.652V59.4484C360.652 59.6993 360.704 59.8884 360.808 60.0158C360.912 60.1393 361.09 60.201 361.341 60.201C361.464 60.201 361.634 60.1779 361.85 60.1316V61C361.568 61.0772 361.294 61.1158 361.028 61.1158C360.55 61.1158 360.189 60.9711 359.945 60.6816C359.702 60.3921 359.581 59.981 359.581 59.4484V55.5635H358.44V54.7356H359.581V53.2188H360.652ZM368.67 57.2425C367.717 56.9685 367.022 56.6327 366.586 56.2351C366.154 55.8337 365.938 55.3397 365.938 54.753C365.938 54.0891 366.202 53.541 366.731 53.1087C367.264 52.6726 367.954 52.4545 368.804 52.4545C369.383 52.4545 369.898 52.5665 370.349 52.7903C370.805 53.0142 371.156 53.323 371.403 53.7167C371.654 54.1104 371.779 54.5407 371.779 55.0077H370.662C370.662 54.4983 370.5 54.0988 370.176 53.8093C369.851 53.516 369.394 53.3693 368.804 53.3693C368.255 53.3693 367.827 53.4909 367.518 53.734C367.213 53.9733 367.061 54.3072 367.061 54.7356C367.061 55.0791 367.206 55.3706 367.495 55.6099C367.788 55.8453 368.284 56.0615 368.983 56.2583C369.686 56.4551 370.234 56.6732 370.627 56.9125C371.025 57.148 371.318 57.4239 371.507 57.7404C371.7 58.0569 371.797 58.4294 371.797 58.8578C371.797 59.541 371.53 60.0891 370.998 60.5021C370.465 60.9112 369.753 61.1158 368.861 61.1158C368.282 61.1158 367.742 61.0058 367.24 60.7858C366.739 60.5619 366.351 60.257 366.077 59.871C365.806 59.485 365.671 59.047 365.671 58.5568H366.789C366.789 59.0663 366.976 59.4696 367.35 59.7668C367.729 60.0602 368.232 60.2068 368.861 60.2068C369.448 60.2068 369.898 60.0872 370.21 59.8479C370.523 59.6086 370.679 59.2824 370.679 58.8694C370.679 58.4564 370.535 58.138 370.245 57.9141C369.956 57.6864 369.431 57.4625 368.67 57.2425ZM375.658 61.1158C374.809 61.1158 374.118 60.8379 373.586 60.2821C373.053 59.7224 372.787 58.9756 372.787 58.0415V57.8447C372.787 57.2232 372.905 56.6694 373.14 56.183C373.379 55.6928 373.711 55.3107 374.136 55.0367C374.564 54.7588 375.027 54.6198 375.525 54.6198C376.34 54.6198 376.973 54.8881 377.424 55.4246C377.876 55.9611 378.102 56.7292 378.102 57.7289V58.1747H373.858C373.873 58.7922 374.053 59.2921 374.396 59.6742C374.744 60.0524 375.184 60.2416 375.716 60.2416C376.095 60.2416 376.415 60.1644 376.677 60.01C376.94 59.8556 377.17 59.651 377.366 59.3963L378.021 59.9058C377.496 60.7124 376.708 61.1158 375.658 61.1158ZM375.525 55.4999C375.093 55.4999 374.73 55.6581 374.437 55.9746C374.144 56.2872 373.962 56.7273 373.893 57.2946H377.031V57.2136C377 56.6694 376.853 56.2487 376.591 55.9515C376.328 55.6504 375.973 55.4999 375.525 55.4999ZM382.374 55.6967C382.212 55.6697 382.037 55.6562 381.848 55.6562C381.145 55.6562 380.668 55.9553 380.418 56.5536V61H379.346V54.7356H380.389L380.406 55.4593C380.757 54.8997 381.255 54.6198 381.9 54.6198C382.108 54.6198 382.266 54.6469 382.374 54.7009V55.6967ZM384.528 61H383.457V54.7356H384.528V61ZM383.37 53.074C383.37 52.9003 383.422 52.7537 383.527 52.634C383.635 52.5143 383.793 52.4545 384.001 52.4545C384.21 52.4545 384.368 52.5143 384.476 52.634C384.584 52.7537 384.638 52.9003 384.638 53.074C384.638 53.2477 384.584 53.3924 384.476 53.5082C384.368 53.624 384.21 53.6819 384.001 53.6819C383.793 53.6819 383.635 53.624 383.527 53.5082C383.422 53.3924 383.37 53.2477 383.37 53.074ZM388.847 61.1158C387.998 61.1158 387.307 60.8379 386.775 60.2821C386.242 59.7224 385.976 58.9756 385.976 58.0415V57.8447C385.976 57.2232 386.093 56.6694 386.329 56.183C386.568 55.6928 386.9 55.3107 387.325 55.0367C387.753 54.7588 388.216 54.6198 388.714 54.6198C389.528 54.6198 390.161 54.8881 390.613 55.4246C391.065 55.9611 391.29 56.7292 391.29 57.7289V58.1747H387.047C387.062 58.7922 387.242 59.2921 387.585 59.6742C387.932 60.0524 388.372 60.2416 388.905 60.2416C389.283 60.2416 389.604 60.1644 389.866 60.01C390.129 59.8556 390.358 59.651 390.555 59.3963L391.209 59.9058C390.684 60.7124 389.897 61.1158 388.847 61.1158ZM388.714 55.4999C388.282 55.4999 387.919 55.6581 387.626 55.9746C387.332 56.2872 387.151 56.7273 387.081 57.2946H390.219V57.2136C390.188 56.6694 390.042 56.2487 389.779 55.9515C389.517 55.6504 389.162 55.4999 388.714 55.4999ZM396.183 59.3384C396.183 59.0489 396.073 58.825 395.853 58.6668C395.637 58.5047 395.256 58.3657 394.712 58.2499C394.172 58.1341 393.741 57.9952 393.421 57.8331C393.105 57.671 392.869 57.478 392.715 57.2541C392.564 57.0303 392.489 56.7639 392.489 56.4551C392.489 55.9418 392.705 55.5076 393.137 55.1525C393.573 54.7974 394.129 54.6198 394.805 54.6198C395.515 54.6198 396.09 54.8032 396.53 55.1699C396.974 55.5365 397.196 56.0055 397.196 56.5767H396.119C396.119 56.2834 395.994 56.0306 395.743 55.8183C395.496 55.606 395.183 55.4999 394.805 55.4999C394.415 55.4999 394.11 55.5848 393.89 55.7546C393.67 55.9244 393.56 56.1464 393.56 56.4204C393.56 56.679 393.662 56.8739 393.867 57.0052C394.071 57.1364 394.44 57.2618 394.973 57.3815C395.509 57.5011 395.943 57.644 396.275 57.8099C396.607 57.9759 396.852 58.1766 397.011 58.412C397.173 58.6436 397.254 58.9273 397.254 59.2631C397.254 59.8228 397.03 60.2724 396.582 60.6121C396.134 60.9479 395.554 61.1158 394.839 61.1158C394.338 61.1158 393.894 61.027 393.508 60.8495C393.122 60.6719 392.819 60.4249 392.599 60.1084C392.383 59.788 392.275 59.4426 392.275 59.0721H393.346C393.365 59.431 393.508 59.7166 393.774 59.9289C394.044 60.1373 394.399 60.2416 394.839 60.2416C395.245 60.2416 395.569 60.1605 395.812 59.9984C396.059 59.8324 396.183 59.6124 396.183 59.3384Z" fill="black"/>
<path d="M699.875 58.8157C699.875 57.8546 700.102 57.0827 700.558 56.4999C701.013 55.9132 701.61 55.6198 702.347 55.6198C703.08 55.6198 703.661 55.8707 704.089 56.3725V53.1071H705.161V62H704.176L704.124 61.3284C703.696 61.8533 703.099 62.1158 702.335 62.1158C701.61 62.1158 701.017 61.8186 700.558 61.2242C700.102 60.6298 699.875 59.854 699.875 58.8968V58.8157ZM700.946 58.9373C700.946 59.6475 701.092 60.2033 701.386 60.6047C701.679 61.0061 702.084 61.2068 702.602 61.2068C703.281 61.2068 703.777 60.9019 704.089 60.2921V57.4146C703.769 56.8241 703.277 56.5288 702.613 56.5288C702.088 56.5288 701.679 56.7314 701.386 57.1367C701.092 57.542 700.946 58.1422 700.946 58.9373ZM710.695 61.3805C710.279 61.8707 709.667 62.1158 708.86 62.1158C708.192 62.1158 707.683 61.9228 707.332 61.5368C706.984 61.147 706.809 60.5719 706.805 59.8115V55.7356H707.876V59.7826C707.876 60.7321 708.262 61.2068 709.034 61.2068C709.852 61.2068 710.396 60.9019 710.667 60.2921V55.7356H711.738V62H710.719L710.695 61.3805ZM716.398 56.6967C716.236 56.6697 716.061 56.6562 715.871 56.6562C715.169 56.6562 714.692 56.9553 714.441 57.5536V62H713.37V55.7356H714.412L714.43 56.4593C714.781 55.8997 715.279 55.6198 715.923 55.6198C716.132 55.6198 716.29 55.6469 716.398 55.7009V56.6967ZM721.024 62C720.962 61.8765 720.912 61.6565 720.874 61.34C720.376 61.8572 719.781 62.1158 719.09 62.1158C718.473 62.1158 717.965 61.9421 717.568 61.5947C717.174 61.2435 716.977 60.7996 716.977 60.2631C716.977 59.6108 717.224 59.1052 717.718 58.7462C718.216 58.3834 718.915 58.202 719.814 58.202H720.856V57.7099C720.856 57.3355 720.744 57.0383 720.52 56.8183C720.297 56.5944 719.967 56.4825 719.53 56.4825C719.148 56.4825 718.828 56.579 718.569 56.772C718.311 56.965 718.181 57.1985 718.181 57.4725H717.105C717.105 57.1599 717.215 56.8588 717.435 56.5693C717.658 56.276 717.959 56.0444 718.338 55.8746C718.72 55.7048 719.139 55.6198 719.594 55.6198C720.316 55.6198 720.881 55.8012 721.29 56.1641C721.7 56.523 721.912 57.019 721.927 57.652V60.5352C721.927 61.1103 722.001 61.5677 722.147 61.9074V62H721.024ZM719.247 61.1837C719.583 61.1837 719.901 61.0968 720.202 60.9231C720.503 60.7494 720.721 60.5236 720.856 60.2457V58.9604H720.017C718.704 58.9604 718.048 59.3445 718.048 60.1126C718.048 60.4484 718.16 60.7108 718.384 60.9C718.608 61.0891 718.895 61.1837 719.247 61.1837ZM725.06 54.2188V55.7356H726.229V56.5635H725.06V60.4484C725.06 60.6993 725.112 60.8884 725.216 61.0158C725.32 61.1393 725.498 61.201 725.748 61.201C725.872 61.201 726.042 61.1779 726.258 61.1316V62C725.976 62.0772 725.702 62.1158 725.436 62.1158C724.957 62.1158 724.596 61.9711 724.353 61.6816C724.11 61.3921 723.988 60.981 723.988 60.4484V56.5635H722.848V55.7356H723.988V54.2188H725.06ZM728.649 62H727.578V55.7356H728.649V62ZM727.491 54.074C727.491 53.9003 727.543 53.7537 727.647 53.634C727.756 53.5143 727.914 53.4545 728.122 53.4545C728.331 53.4545 728.489 53.5143 728.597 53.634C728.705 53.7537 728.759 53.9003 728.759 54.074C728.759 54.2477 728.705 54.3924 728.597 54.5082C728.489 54.624 728.331 54.6819 728.122 54.6819C727.914 54.6819 727.756 54.624 727.647 54.5082C727.543 54.3924 727.491 54.2477 727.491 54.074ZM730.085 58.8099C730.085 58.1962 730.205 57.6443 730.444 57.1541C730.687 56.6639 731.023 56.2856 731.451 56.0193C731.884 55.753 732.376 55.6198 732.928 55.6198C733.781 55.6198 734.47 55.9151 734.994 56.5057C735.523 57.0962 735.788 57.8817 735.788 58.862V58.9373C735.788 59.5471 735.67 60.0952 735.435 60.5815C735.203 61.064 734.869 61.4403 734.433 61.7105C734.001 61.9807 733.503 62.1158 732.939 62.1158C732.09 62.1158 731.401 61.8205 730.872 61.23C730.347 60.6394 730.085 59.8578 730.085 58.8852V58.8099ZM731.162 58.9373C731.162 59.632 731.322 60.1898 731.642 60.6105C731.967 61.0312 732.399 61.2416 732.939 61.2416C733.483 61.2416 733.916 61.0293 734.236 60.6047C734.556 60.1763 734.717 59.578 734.717 58.8099C734.717 58.1229 734.553 57.5671 734.224 57.1425C733.9 56.7141 733.468 56.4999 732.928 56.4999C732.399 56.4999 731.972 56.7102 731.648 57.1309C731.324 57.5516 731.162 58.1538 731.162 58.9373ZM738.144 55.7356L738.179 56.523C738.657 55.9209 739.283 55.6198 740.055 55.6198C741.379 55.6198 742.046 56.3667 742.058 57.8604V62H740.987V57.8546C740.983 57.403 740.879 57.0692 740.674 56.853C740.473 56.6369 740.159 56.5288 739.73 56.5288C739.383 56.5288 739.078 56.6214 738.816 56.8067C738.553 56.992 738.349 57.2351 738.202 57.5362V62H737.131V55.7356H738.144ZM746.58 61.4384C746.58 61.2531 746.634 61.0987 746.742 60.9752C746.854 60.8517 747.02 60.79 747.24 60.79C747.46 60.79 747.626 60.8517 747.737 60.9752C747.853 61.0987 747.911 61.2531 747.911 61.4384C747.911 61.616 747.853 61.7646 747.737 61.8842C747.626 62.0039 747.46 62.0637 747.24 62.0637C747.02 62.0637 746.854 62.0039 746.742 61.8842C746.634 61.7646 746.58 61.616 746.58 61.4384ZM746.585 56.3262C746.585 56.1409 746.639 55.9865 746.747 55.863C746.859 55.7395 747.025 55.6777 747.245 55.6777C747.465 55.6777 747.631 55.7395 747.743 55.863C747.859 55.9865 747.917 56.1409 747.917 56.3262C747.917 56.5037 747.859 56.6523 747.743 56.772C747.631 56.8916 747.465 56.9515 747.245 56.9515C747.025 56.9515 746.859 56.8916 746.747 56.772C746.639 56.6523 746.585 56.5037 746.585 56.3262Z" fill="black"/>
<path d="M499.463 57.0573C499.463 57.8833 499.324 58.605 499.046 59.2226C498.768 59.8363 498.374 60.3052 497.865 60.6295C497.355 60.9537 496.761 61.1158 496.082 61.1158C495.418 61.1158 494.829 60.9537 494.316 60.6295C493.803 60.3014 493.403 59.8363 493.117 59.2342C492.836 58.6282 492.691 57.9276 492.683 57.1325V56.5246C492.683 55.7141 492.824 54.9981 493.106 54.3767C493.388 53.7553 493.785 53.2805 494.298 52.9524C494.816 52.6205 495.406 52.4545 496.07 52.4545C496.746 52.4545 497.34 52.6186 497.853 52.9466C498.371 53.2709 498.768 53.7437 499.046 54.3651C499.324 54.9827 499.463 55.7025 499.463 56.5246V57.0573ZM498.357 56.513C498.357 55.5134 498.156 54.7472 497.755 54.2146C497.353 53.6781 496.792 53.4098 496.07 53.4098C495.368 53.4098 494.814 53.6781 494.408 54.2146C494.007 54.7472 493.801 55.4883 493.789 56.4378V57.0573C493.789 58.0261 493.992 58.7884 494.397 59.3442C494.806 59.8961 495.368 60.1721 496.082 60.1721C496.8 60.1721 497.355 59.9116 497.749 59.3905C498.143 58.8656 498.345 58.1148 498.357 57.1383V56.513ZM503.99 55.6967C503.828 55.6697 503.653 55.6562 503.463 55.6562C502.761 55.6562 502.284 55.9553 502.033 56.5536V61H500.962V54.7356H502.004L502.022 55.4593C502.373 54.8997 502.871 54.6198 503.516 54.6198C503.724 54.6198 503.882 54.6469 503.99 54.7009V55.6967ZM504.61 57.8157C504.61 56.8392 504.836 56.0634 505.287 55.4883C505.739 54.9093 506.337 54.6198 507.082 54.6198C507.846 54.6198 508.443 54.89 508.871 55.4304L508.923 54.7356H509.902V60.8495C509.902 61.66 509.66 62.2988 509.178 62.7658C508.699 63.2329 508.055 63.4664 507.244 63.4664C506.792 63.4664 506.351 63.3699 505.918 63.1769C505.486 62.9839 505.156 62.7195 504.928 62.3837L505.484 61.7411C505.943 62.3085 506.505 62.5921 507.169 62.5921C507.69 62.5921 508.095 62.4455 508.385 62.1521C508.678 61.8588 508.825 61.4458 508.825 60.9132V60.3747C508.396 60.8688 507.811 61.1158 507.07 61.1158C506.337 61.1158 505.743 60.8205 505.287 60.23C504.836 59.6394 504.61 58.8347 504.61 57.8157ZM505.687 57.9373C505.687 58.6436 505.831 59.1994 506.121 59.6047C506.41 60.0061 506.816 60.2068 507.337 60.2068C508.012 60.2068 508.508 59.9 508.825 59.2863V56.4262C508.497 55.8279 508.004 55.5288 507.348 55.5288C506.827 55.5288 506.42 55.7314 506.127 56.1367C505.833 56.542 505.687 57.1422 505.687 57.9373ZM515.39 61C515.328 60.8765 515.278 60.6565 515.24 60.34C514.742 60.8572 514.147 61.1158 513.456 61.1158C512.839 61.1158 512.331 60.9421 511.934 60.5947C511.54 60.2435 511.343 59.7996 511.343 59.2631C511.343 58.6108 511.59 58.1052 512.084 57.7462C512.582 57.3834 513.281 57.202 514.18 57.202H515.222V56.7099C515.222 56.3355 515.11 56.0383 514.886 55.8183C514.663 55.5944 514.332 55.4825 513.896 55.4825C513.514 55.4825 513.194 55.579 512.935 55.772C512.677 55.965 512.547 56.1985 512.547 56.4725H511.47C511.47 56.1599 511.58 55.8588 511.801 55.5693C512.024 55.276 512.325 55.0444 512.704 54.8746C513.086 54.7048 513.505 54.6198 513.96 54.6198C514.682 54.6198 515.247 54.8012 515.656 55.1641C516.066 55.523 516.278 56.019 516.293 56.652V59.5352C516.293 60.1103 516.367 60.5677 516.513 60.9074V61H515.39ZM513.613 60.1837C513.948 60.1837 514.267 60.0968 514.568 59.9231C514.869 59.7494 515.087 59.5236 515.222 59.2457V57.9604H514.383C513.07 57.9604 512.414 58.3445 512.414 59.1126C512.414 59.4484 512.526 59.7108 512.75 59.9C512.974 60.0891 513.261 60.1837 513.613 60.1837ZM518.985 54.7356L519.02 55.523C519.499 54.9209 520.124 54.6198 520.896 54.6198C522.22 54.6198 522.888 55.3667 522.899 56.8604V61H521.828V56.8546C521.824 56.403 521.72 56.0692 521.515 55.853C521.315 55.6369 521 55.5288 520.572 55.5288C520.224 55.5288 519.919 55.6214 519.657 55.8067C519.395 55.992 519.19 56.2351 519.043 56.5362V61H517.972V54.7356H518.985ZM525.678 61H524.607V54.7356H525.678V61ZM524.52 53.074C524.52 52.9003 524.572 52.7537 524.677 52.634C524.785 52.5143 524.943 52.4545 525.151 52.4545C525.36 52.4545 525.518 52.5143 525.626 52.634C525.734 52.7537 525.788 52.9003 525.788 53.074C525.788 53.2477 525.734 53.3924 525.626 53.5082C525.518 53.624 525.36 53.6819 525.151 53.6819C524.943 53.6819 524.785 53.624 524.677 53.5082C524.572 53.3924 524.52 53.2477 524.52 53.074ZM528.405 60.1258H532.07V61H527.097V60.2126L530.553 55.6214H527.149V54.7356H531.896V55.4941L528.405 60.1258ZM537.147 61C537.086 60.8765 537.036 60.6565 536.997 60.34C536.499 60.8572 535.905 61.1158 535.214 61.1158C534.596 61.1158 534.089 60.9421 533.691 60.5947C533.297 60.2435 533.101 59.7996 533.101 59.2631C533.101 58.6108 533.348 58.1052 533.842 57.7462C534.339 57.3834 535.038 57.202 535.937 57.202H536.98V56.7099C536.98 56.3355 536.868 56.0383 536.644 55.8183C536.42 55.5944 536.09 55.4825 535.654 55.4825C535.272 55.4825 534.951 55.579 534.693 55.772C534.434 55.965 534.305 56.1985 534.305 56.4725H533.228C533.228 56.1599 533.338 55.8588 533.558 55.5693C533.782 55.276 534.083 55.0444 534.461 54.8746C534.843 54.7048 535.262 54.6198 535.717 54.6198C536.439 54.6198 537.005 54.8012 537.414 55.1641C537.823 55.523 538.035 56.019 538.051 56.652V59.5352C538.051 60.1103 538.124 60.5677 538.271 60.9074V61H537.147ZM535.37 60.1837C535.706 60.1837 536.024 60.0968 536.325 59.9231C536.626 59.7494 536.844 59.5236 536.98 59.2457V57.9604H536.14C534.828 57.9604 534.172 58.3445 534.172 59.1126C534.172 59.4484 534.284 59.7108 534.507 59.9C534.731 60.0891 535.019 60.1837 535.37 60.1837ZM541.183 53.2188V54.7356H542.352V55.5635H541.183V59.4484C541.183 59.6993 541.235 59.8884 541.339 60.0158C541.443 60.1393 541.621 60.201 541.872 60.201C541.995 60.201 542.165 60.1779 542.381 60.1316V61C542.1 61.0772 541.825 61.1158 541.559 61.1158C541.081 61.1158 540.72 60.9711 540.476 60.6816C540.233 60.3921 540.112 59.981 540.112 59.4484V55.5635H538.971V54.7356H540.112V53.2188H541.183ZM544.772 61H543.701V54.7356H544.772V61ZM543.614 53.074C543.614 52.9003 543.667 52.7537 543.771 52.634C543.879 52.5143 544.037 52.4545 544.246 52.4545C544.454 52.4545 544.612 52.5143 544.72 52.634C544.828 52.7537 544.882 52.9003 544.882 53.074C544.882 53.2477 544.828 53.3924 544.72 53.5082C544.612 53.624 544.454 53.6819 544.246 53.6819C544.037 53.6819 543.879 53.624 543.771 53.5082C543.667 53.3924 543.614 53.2477 543.614 53.074ZM546.208 57.8099C546.208 57.1962 546.328 56.6443 546.567 56.1541C546.81 55.6639 547.146 55.2856 547.575 55.0193C548.007 54.753 548.499 54.6198 549.051 54.6198C549.904 54.6198 550.593 54.9151 551.118 55.5057C551.647 56.0962 551.911 56.8817 551.911 57.862V57.9373C551.911 58.5471 551.793 59.0952 551.558 59.5815C551.326 60.064 550.992 60.4403 550.556 60.7105C550.124 60.9807 549.626 61.1158 549.062 61.1158C548.213 61.1158 547.524 60.8205 546.996 60.23C546.471 59.6394 546.208 58.8578 546.208 57.8852V57.8099ZM547.285 57.9373C547.285 58.632 547.445 59.1898 547.766 59.6105C548.09 60.0312 548.522 60.2416 549.062 60.2416C549.607 60.2416 550.039 60.0293 550.359 59.6047C550.68 59.1763 550.84 58.578 550.84 57.8099C550.84 57.1229 550.676 56.5671 550.348 56.1425C550.024 55.7141 549.591 55.4999 549.051 55.4999C548.522 55.4999 548.096 55.7102 547.771 56.1309C547.447 56.5516 547.285 57.1538 547.285 57.9373ZM554.267 54.7356L554.302 55.523C554.781 54.9209 555.406 54.6198 556.178 54.6198C557.502 54.6198 558.17 55.3667 558.181 56.8604V61H557.11V56.8546C557.106 56.403 557.002 56.0692 556.797 55.853C556.597 55.6369 556.282 55.5288 555.854 55.5288C555.506 55.5288 555.201 55.6214 554.939 55.8067C554.677 55.992 554.472 56.2351 554.325 56.5362V61H553.254V54.7356H554.267ZM562.703 60.4384C562.703 60.2531 562.757 60.0987 562.865 59.9752C562.977 59.8517 563.143 59.79 563.363 59.79C563.583 59.79 563.749 59.8517 563.861 59.9752C563.977 60.0987 564.034 60.2531 564.034 60.4384C564.034 60.616 563.977 60.7646 563.861 60.8842C563.749 61.0039 563.583 61.0637 563.363 61.0637C563.143 61.0637 562.977 61.0039 562.865 60.8842C562.757 60.7646 562.703 60.616 562.703 60.4384ZM562.709 55.3262C562.709 55.1409 562.763 54.9865 562.871 54.863C562.983 54.7395 563.149 54.6777 563.369 54.6777C563.589 54.6777 563.755 54.7395 563.867 54.863C563.982 54.9865 564.04 55.1409 564.04 55.3262C564.04 55.5037 563.982 55.6523 563.867 55.772C563.755 55.8916 563.589 55.9515 563.369 55.9515C563.149 55.9515 562.983 55.8916 562.871 55.772C562.763 55.6523 562.709 55.5037 562.709 55.3262Z" fill="black"/>
<path d="M68.6285 143.654H64.1771V156H62.3604V143.654H57.9185V142.151H68.6285V143.654ZM75.6765 156C75.575 155.797 75.4926 155.436 75.4292 154.916C74.6112 155.765 73.6347 156.19 72.4997 156.19C71.4851 156.19 70.6512 155.905 69.9981 155.334C69.3513 154.757 69.0279 154.028 69.0279 153.147C69.0279 152.075 69.4338 151.244 70.2454 150.655C71.0634 150.058 72.2111 149.76 73.6886 149.76H75.4007V148.952C75.4007 148.337 75.2168 147.849 74.849 147.487C74.4812 147.119 73.9391 146.936 73.2225 146.936C72.5948 146.936 72.0685 147.094 71.6436 147.411C71.2188 147.728 71.0063 148.112 71.0063 148.562H69.2372C69.2372 148.048 69.4179 147.554 69.7794 147.078C70.1471 146.596 70.6417 146.216 71.2632 145.937C71.8909 145.658 72.5789 145.518 73.3272 145.518C74.5129 145.518 75.4419 145.816 76.114 146.412C76.7862 147.002 77.1349 147.817 77.1603 148.857V153.594C77.1603 154.538 77.2808 155.29 77.5217 155.848V156H75.6765ZM72.7565 154.659C73.3081 154.659 73.8313 154.516 74.3259 154.231C74.8205 153.946 75.1787 153.575 75.4007 153.118V151.006H74.0215C71.8656 151.006 70.7876 151.637 70.7876 152.899C70.7876 153.451 70.9715 153.882 71.3392 154.193C71.707 154.504 72.1794 154.659 72.7565 154.659ZM79.5001 150.769C79.5001 149.164 79.8711 147.89 80.613 146.945C81.3549 145.994 82.3377 145.518 83.5615 145.518C84.8171 145.518 85.7968 145.962 86.5006 146.85L86.5862 145.709H88.1937V155.753C88.1937 157.084 87.7973 158.134 87.0047 158.901C86.2184 159.668 85.1595 160.052 83.8279 160.052C83.086 160.052 82.3599 159.893 81.6497 159.576C80.9395 159.259 80.3974 158.825 80.0233 158.273L80.9364 157.217C81.691 158.15 82.6136 158.616 83.7042 158.616C84.5603 158.616 85.2261 158.375 85.7016 157.893C86.1836 157.411 86.4245 156.732 86.4245 155.857V154.973C85.7207 155.784 84.76 156.19 83.5425 156.19C82.3377 156.19 81.3612 155.705 80.613 154.735C79.8711 153.765 79.5001 152.443 79.5001 150.769ZM81.2693 150.968C81.2693 152.129 81.5071 153.042 81.9826 153.708C82.4582 154.367 83.124 154.697 83.9801 154.697C85.0897 154.697 85.9046 154.193 86.4245 153.185V148.486C85.8855 147.503 85.0771 147.012 83.9991 147.012C83.143 147.012 82.4741 147.345 81.9921 148.01C81.5102 148.676 81.2693 149.662 81.2693 150.968ZM96.8491 153.27C96.8491 152.795 96.6684 152.427 96.307 152.167C95.9519 151.901 95.3273 151.672 94.4332 151.482C93.5455 151.292 92.8384 151.064 92.3121 150.797C91.7922 150.531 91.4054 150.214 91.1517 149.846C90.9044 149.478 90.7808 149.041 90.7808 148.533C90.7808 147.69 91.1359 146.977 91.8461 146.393C92.5626 145.81 93.4757 145.518 94.5854 145.518C95.7521 145.518 96.697 145.82 97.4198 146.422C98.149 147.024 98.5137 147.795 98.5137 148.733H96.7445C96.7445 148.251 96.5384 147.836 96.1263 147.487C95.7204 147.138 95.2068 146.964 94.5854 146.964C93.945 146.964 93.444 147.104 93.0826 147.383C92.7211 147.662 92.5404 148.026 92.5404 148.476C92.5404 148.901 92.7085 149.221 93.0445 149.437C93.3806 149.653 93.9862 149.859 94.8612 150.055C95.7426 150.252 96.456 150.486 97.0013 150.759C97.5466 151.032 97.9493 151.362 98.2093 151.748C98.4756 152.129 98.6088 152.595 98.6088 153.147C98.6088 154.066 98.241 154.805 97.5054 155.363C96.7699 155.914 95.8156 156.19 94.6425 156.19C93.8181 156.19 93.0889 156.044 92.4548 155.753C91.8207 155.461 91.3229 155.055 90.9615 154.535C90.6064 154.009 90.4289 153.441 90.4289 152.833H92.1885C92.2202 153.422 92.4548 153.892 92.8923 154.24C93.3362 154.583 93.9196 154.754 94.6425 154.754C95.3083 154.754 95.8409 154.621 96.2404 154.355C96.6462 154.082 96.8491 153.72 96.8491 153.27ZM105.676 155.077C105.676 154.773 105.765 154.519 105.942 154.316C106.126 154.114 106.399 154.012 106.76 154.012C107.122 154.012 107.394 154.114 107.578 154.316C107.768 154.519 107.863 154.773 107.863 155.077C107.863 155.369 107.768 155.613 107.578 155.81C107.394 156.006 107.122 156.105 106.76 156.105C106.399 156.105 106.126 156.006 105.942 155.81C105.765 155.613 105.676 155.369 105.676 155.077ZM105.685 146.679C105.685 146.374 105.774 146.121 105.952 145.918C106.136 145.715 106.408 145.613 106.77 145.613C107.131 145.613 107.404 145.715 107.588 145.918C107.778 146.121 107.873 146.374 107.873 146.679C107.873 146.97 107.778 147.215 107.588 147.411C107.404 147.608 107.131 147.706 106.77 147.706C106.408 147.706 106.136 147.608 105.952 147.411C105.774 147.215 105.685 146.97 105.685 146.679Z" fill="black"/>
<path d="M30.0345 108V94.1512H33.9437C35.1485 94.1512 36.2138 94.4176 37.1396 94.9502C38.0654 95.4828 38.7787 96.2406 39.2797 97.2234C39.7869 98.2063 40.0437 99.335 40.0501 100.61V101.494C40.0501 102.8 39.7964 103.945 39.2892 104.928C38.7882 105.911 38.0685 106.665 37.1301 107.192C36.1979 107.718 35.1104 107.987 33.8676 108H30.0345ZM31.8607 95.654V106.507H33.782C35.1897 106.507 36.2835 106.069 37.0635 105.194C37.8498 104.319 38.2429 103.073 38.2429 101.456V100.648C38.2429 99.075 37.872 97.8544 37.1301 96.9857C36.3945 96.1106 35.3482 95.6667 33.9913 95.654H31.8607ZM46.8128 108.19C45.4178 108.19 44.2827 107.734 43.4077 106.821C42.5326 105.901 42.0951 104.674 42.0951 103.14V102.816C42.0951 101.795 42.2885 100.885 42.6753 100.086C43.0684 99.2811 43.6137 98.6533 44.3113 98.2031C45.0151 97.7466 45.776 97.5183 46.594 97.5183C47.932 97.5183 48.9719 97.959 49.7138 98.8404C50.4557 99.7218 50.8266 100.984 50.8266 102.626V103.358H43.8547C43.8801 104.373 44.1749 105.194 44.7393 105.822C45.31 106.443 46.0328 106.754 46.9079 106.754C47.5293 106.754 48.0556 106.627 48.4868 106.374C48.918 106.12 49.2953 105.784 49.6187 105.365L50.6935 106.202C49.8311 107.528 48.5375 108.19 46.8128 108.19ZM46.594 98.9641C45.8838 98.9641 45.2878 99.224 44.8058 99.744C44.3239 100.258 44.0259 100.98 43.9118 101.913H49.067V101.779C49.0163 100.885 48.7753 100.194 48.3441 99.706C47.9129 99.2114 47.3296 98.9641 46.594 98.9641ZM58.8639 105.27C58.8639 104.795 58.6832 104.427 58.3217 104.167C57.9666 103.901 57.342 103.672 56.4479 103.482C55.5602 103.292 54.8532 103.064 54.3269 102.797C53.8069 102.531 53.4201 102.214 53.1665 101.846C52.9192 101.478 52.7955 101.041 52.7955 100.533C52.7955 99.6901 53.1506 98.9767 53.8608 98.3934C54.5773 97.81 55.4905 97.5183 56.6001 97.5183C57.7669 97.5183 58.7117 97.8195 59.4346 98.4219C60.1638 99.0243 60.5284 99.7947 60.5284 100.733H58.7592C58.7592 100.251 58.5532 99.8359 58.141 99.4872C57.7352 99.1384 57.2216 98.9641 56.6001 98.9641C55.9597 98.9641 55.4588 99.1036 55.0973 99.3826C54.7359 99.6616 54.5552 100.026 54.5552 100.476C54.5552 100.901 54.7232 101.221 55.0593 101.437C55.3953 101.653 56.0009 101.859 56.876 102.055C57.7574 102.252 58.4707 102.486 59.0161 102.759C59.5614 103.032 59.964 103.362 60.224 103.748C60.4903 104.129 60.6235 104.595 60.6235 105.147C60.6235 106.066 60.2557 106.805 59.5202 107.363C58.7846 107.914 57.8303 108.19 56.6572 108.19C55.8329 108.19 55.1037 108.044 54.4696 107.753C53.8355 107.461 53.3377 107.055 52.9762 106.535C52.6211 106.009 52.4436 105.441 52.4436 104.833H54.2032C54.2349 105.422 54.4696 105.892 54.9071 106.24C55.351 106.583 55.9343 106.754 56.6572 106.754C57.323 106.754 57.8557 106.621 58.2551 106.355C58.661 106.082 58.8639 105.72 58.8639 105.27ZM67.0438 106.754C67.6715 106.754 68.22 106.564 68.6893 106.183C69.1585 105.803 69.4185 105.327 69.4692 104.757H71.1337C71.102 105.346 70.8991 105.907 70.525 106.44C70.1509 106.973 69.6499 107.398 69.0222 107.715C68.4008 108.032 67.7413 108.19 67.0438 108.19C65.6424 108.19 64.5264 107.724 63.6957 106.792C62.8714 105.854 62.4592 104.573 62.4592 102.949V102.655C62.4592 101.653 62.6431 100.762 63.0109 99.9818C63.3787 99.2018 63.905 98.5963 64.5898 98.1651C65.281 97.7339 66.0958 97.5183 67.0343 97.5183C68.1883 97.5183 69.1458 97.8639 69.9068 98.5551C70.674 99.2462 71.083 100.143 71.1337 101.247H69.4692C69.4185 100.581 69.1649 100.036 68.7083 99.6108C68.2581 99.1797 67.7001 98.9641 67.0343 98.9641C66.1402 98.9641 65.4458 99.2874 64.9512 99.9342C64.463 100.575 64.2189 101.504 64.2189 102.721V103.054C64.2189 104.24 64.463 105.153 64.9512 105.793C65.4395 106.434 66.137 106.754 67.0438 106.754ZM78.0867 99.2874C77.8203 99.2431 77.5318 99.2209 77.2211 99.2209C76.067 99.2209 75.2839 99.7123 74.8718 100.695V108H73.1121V97.7085H74.8242L74.8527 98.8975C75.4298 97.978 76.2478 97.5183 77.3067 97.5183C77.6491 97.5183 77.9091 97.5627 78.0867 97.6515V99.2874ZM81.6249 108H79.8653V97.7085H81.6249V108ZM79.7226 94.9787C79.7226 94.6934 79.8082 94.4524 79.9794 94.2559C80.157 94.0593 80.417 93.961 80.7594 93.961C81.1018 93.961 81.3618 94.0593 81.5393 94.2559C81.7169 94.4524 81.8057 94.6934 81.8057 94.9787C81.8057 95.2641 81.7169 95.5019 81.5393 95.6921C81.3618 95.8823 81.1018 95.9774 80.7594 95.9774C80.417 95.9774 80.157 95.8823 79.9794 95.6921C79.8082 95.5019 79.7226 95.2641 79.7226 94.9787ZM93.1434 102.968C93.1434 104.535 92.7851 105.796 92.0686 106.754C91.3521 107.711 90.3819 108.19 89.1581 108.19C87.9089 108.19 86.926 107.794 86.2095 107.001V111.957H84.4499V97.7085H86.0573L86.1429 98.8499C86.8594 97.9622 87.855 97.5183 89.1295 97.5183C90.366 97.5183 91.3425 97.9844 92.0591 98.9165C92.782 99.8486 93.1434 101.145 93.1434 102.807V102.968ZM91.3838 102.769C91.3838 101.608 91.1365 100.692 90.6419 100.02C90.1473 99.3477 89.4688 99.0116 88.6064 99.0116C87.5411 99.0116 86.7421 99.484 86.2095 100.429V105.346C86.7358 106.285 87.5411 106.754 88.6254 106.754C89.4688 106.754 90.1377 106.421 90.6323 105.755C91.1333 105.083 91.3838 104.088 91.3838 102.769ZM97.7755 95.2165V97.7085H99.6968V99.0687H97.7755V105.451C97.7755 105.863 97.8611 106.174 98.0323 106.383C98.2035 106.586 98.4952 106.687 98.9074 106.687C99.1103 106.687 99.3893 106.649 99.7444 106.573V108C99.2815 108.127 98.8313 108.19 98.3937 108.19C97.6075 108.19 97.0146 107.952 96.6151 107.477C96.2156 107.001 96.0159 106.326 96.0159 105.451V99.0687H94.1421V97.7085H96.0159V95.2165H97.7755ZM103.673 108H101.913V97.7085H103.673V108ZM101.77 94.9787C101.77 94.6934 101.856 94.4524 102.027 94.2559C102.205 94.0593 102.465 93.961 102.807 93.961C103.15 93.961 103.409 94.0593 103.587 94.2559C103.765 94.4524 103.853 94.6934 103.853 94.9787C103.853 95.2641 103.765 95.5019 103.587 95.6921C103.409 95.8823 103.15 95.9774 102.807 95.9774C102.465 95.9774 102.205 95.8823 102.027 95.6921C101.856 95.5019 101.77 95.2641 101.77 94.9787ZM106.032 102.759C106.032 101.751 106.228 100.844 106.621 100.039C107.021 99.2335 107.572 98.6121 108.276 98.1746C108.986 97.7371 109.795 97.5183 110.702 97.5183C112.103 97.5183 113.235 98.0034 114.097 98.9736C114.966 99.9437 115.4 101.234 115.4 102.845V102.968C115.4 103.97 115.207 104.871 114.82 105.67C114.44 106.462 113.891 107.081 113.175 107.524C112.464 107.968 111.646 108.19 110.721 108.19C109.326 108.19 108.194 107.705 107.325 106.735C106.463 105.765 106.032 104.481 106.032 102.883V102.759ZM107.801 102.968C107.801 104.11 108.064 105.026 108.59 105.717C109.123 106.408 109.833 106.754 110.721 106.754C111.615 106.754 112.325 106.405 112.851 105.708C113.378 105.004 113.641 104.021 113.641 102.759C113.641 101.63 113.371 100.717 112.832 100.02C112.3 99.316 111.589 98.9641 110.702 98.9641C109.833 98.9641 109.132 99.3096 108.6 100.001C108.067 100.692 107.801 101.681 107.801 102.968ZM119.272 97.7085L119.329 99.0021C120.115 98.0129 121.142 97.5183 122.41 97.5183C124.585 97.5183 125.682 98.7453 125.701 101.199V108H123.942V101.19C123.935 100.448 123.764 99.8994 123.428 99.5443C123.098 99.1892 122.582 99.0116 121.878 99.0116C121.307 99.0116 120.806 99.1638 120.375 99.4682C119.944 99.7725 119.608 100.172 119.367 100.667V108H117.607V97.7085H119.272ZM133.13 107.077C133.13 106.773 133.219 106.519 133.396 106.316C133.58 106.114 133.853 106.012 134.214 106.012C134.576 106.012 134.848 106.114 135.032 106.316C135.222 106.519 135.317 106.773 135.317 107.077C135.317 107.369 135.222 107.613 135.032 107.81C134.848 108.006 134.576 108.105 134.214 108.105C133.853 108.105 133.58 108.006 133.396 107.81C133.219 107.613 133.13 107.369 133.13 107.077ZM133.139 98.6787C133.139 98.3743 133.228 98.1207 133.406 97.9178C133.59 97.7149 133.862 97.6134 134.224 97.6134C134.585 97.6134 134.858 97.7149 135.042 97.9178C135.232 98.1207 135.327 98.3743 135.327 98.6787C135.327 98.9704 135.232 99.2145 135.042 99.4111C134.858 99.6077 134.585 99.706 134.224 99.706C133.862 99.706 133.59 99.6077 133.406 99.4111C133.228 99.2145 133.139 98.9704 133.139 98.6787Z" fill="black"/>
<rect x="218" y="42" width="200" height="30" rx="7" fill="#D6938E"/>
<path d="M184.954 49.7678C182.987 46.6346 181.822 43.0655 181.561 39.3753C181.822 35.681 182.987 32.1075 184.954 28.9695C187.813 24.5481 192.221 21.6761 194.104 16.4666C194.585 15.1308 196.442 12.6596 192.768 7.59695C192.314 6.96913 186.089 5.47305 180.666 10.4823L179.223 9.25333C177.888 8.73237 176.271 8.1847 174.562 7.63702C173.993 7.42232 173.414 7.23948 172.825 7.08935C161.673 3.69666 150.039 2.15785 138.388 2.53432C123.19 2.93488 108.274 6.73229 94.7349 13.6481C88.9509 16.7204 80.7626 21.075 74.0836 26.4983C73.4179 26.2187 72.7236 26.0127 72.0131 25.8839V25.8171C71.5055 25.5499 70.9312 25.2561 70.29 24.9488L49.6254 11.7913C48.2896 11.2704 42.9464 9.30676 38.2712 11.8848C35.3458 13.5011 33.6493 16.4933 32.0597 19.2984C31.1475 20.8439 30.4041 22.483 29.8423 24.1874C27.8787 30.7061 29.2546 40.2169 34.9584 45.7203C38.3379 49.0197 42.1984 49.9548 42.1316 52.5328C42.1316 53.5347 41.4236 54.6167 39.7405 55.7922C39.7405 55.7922 26.9437 64.9957 33.5959 78.9814C33.5959 78.9814 42.2919 93.1274 52.0164 87.5038C59.3232 83.2693 68.0459 73.7585 71.9731 69.297C73.2554 67.841 74.0836 66.9326 74.0836 66.9326V66.4517C74.4844 66.1979 74.845 65.9441 75.1522 65.7171C77.3705 67.3907 79.6903 68.9254 82.0983 70.3122L82.2052 70.2053C82.4056 70.4324 82.6193 70.6461 82.8464 70.8598C80.6958 73.5314 81.3369 74.7737 81.4037 75.1611C82.2186 79.1684 90.7542 80.1436 91.1817 80.197C94.6678 80.1645 98.1314 79.6337 101.467 78.6208C108.479 80.8001 115.717 82.1671 123.04 82.6949C148.741 84.3246 168.457 72.9837 176.405 67.7608L176.525 66.5319L176.231 66.1312C176.793 65.7758 177.337 65.3923 177.861 64.9824C183.551 73.852 192.154 71.875 192.688 71.1404C196.388 66.0777 194.532 63.6065 194.024 62.2707C192.167 57.0612 187.759 54.1892 184.954 49.7678Z" fill="#9F8B56" stroke="#281B0E" stroke-opacity="0.49" stroke-width="2.5" stroke-miterlimit="10"/>
<path d="M146.657 37.198C152.404 37.198 157.063 32.5392 157.063 26.7923C157.063 21.0453 152.404 16.3865 146.657 16.3865C140.91 16.3865 136.251 21.0453 136.251 26.7923C136.251 32.5392 140.91 37.198 146.657 37.198Z" stroke="#231F20" stroke-opacity="0.49" stroke-width="3" stroke-miterlimit="10"/>
<path d="M146.657 31.7347C149.386 31.7347 151.599 29.5219 151.599 26.7923C151.599 24.0626 149.386 21.8499 146.657 21.8499C143.927 21.8499 141.714 24.0626 141.714 26.7923C141.714 29.5219 143.927 31.7347 146.657 31.7347Z" fill="#231F20" fill-opacity="0.49"/>
<path d="M139.897 2.72144C139.897 2.72144 124.897 20.0867 125.751 41.4593C126.606 62.8319 134.661 72.7434 140.605 80.9986L130.347 82.0271C130.347 82.0271 115.493 63.4196 116.708 43.9706C117.632 29.1976 122.524 14.9473 130.868 2.72144H139.897Z" stroke="#231F20" stroke-opacity="0.49" stroke-width="2.98" stroke-miterlimit="10"/>
<path d="M103.471 8.90601C99.8912 9.82488 96.4501 11.2175 93.2389 13.0469C91.5866 13.9916 90.0832 15.1755 88.7773 16.5601C87.3353 18.0074 86.3984 19.8812 86.1058 21.9032C86.0523 22.4183 86.0523 22.9376 86.1058 23.4527V23.9336C86.0857 24.2004 86.0857 24.4683 86.1058 24.7351C86.1505 25.7876 86.424 26.8178 86.9072 27.754C87.4192 28.6666 88.1207 29.4591 88.9643 30.0782C89.3823 30.3772 89.8299 30.6324 90.3001 30.8396C90.7269 31.0608 91.1743 31.2397 91.6359 31.3739C93.4432 31.8958 95.3119 32.1743 97.1928 32.2021L99.8644 32.3224C100.319 32.3224 100.759 32.3224 101.2 32.3224H101.414H101.588H101.748L101.948 32.2155C101.948 32.2155 101.948 32.2155 102.122 32.0418C102.247 31.8676 102.304 31.6539 102.282 31.4407C102.277 31.3343 102.239 31.232 102.175 31.1469C102.178 31.0518 102.164 30.957 102.135 30.8664C102.095 30.8218 102.05 30.7815 102.002 30.7461L101.855 30.666H101.708H101.494L100.786 30.5324C100.786 30.5324 100.639 30.8396 101.067 31.3339C101.16 31.4541 101.32 31.601 101.441 31.748C101.441 31.748 101.547 31.561 101.547 31.5476C101.547 31.5342 101.547 31.5476 101.547 31.4541C101.535 31.415 101.535 31.373 101.547 31.3339V31.227C101.547 31.227 101.467 31.227 101.414 31.1602L100.88 30.8664C100.006 30.5758 99.1136 30.3481 98.208 30.1851C97.0058 29.9447 95.4028 29.7977 93.7064 29.4237C92.7219 29.3073 91.7775 28.966 90.9459 28.4264C90.1144 27.8867 89.4181 27.163 88.9109 26.3113C88.6646 25.7569 88.5111 25.1657 88.4567 24.5614V23.9737C88.4567 23.8802 88.4567 23.8 88.4567 23.6665V23.5329V23.2791C88.4004 22.9213 88.3781 22.5591 88.39 22.1971C88.4807 20.4783 89.1223 18.8343 90.22 17.5085C92.7313 14.4762 96.8989 11.8982 101.855 9.68076" fill="#231F20" fill-opacity="0.49"/>
<path d="M118.392 2C114.806 2.9153 111.36 4.30807 108.146 6.14094C106.497 7.09088 104.991 8.26912 103.671 9.6407C102.238 11.0941 101.302 12.9649 101 14.9839C100.946 15.4945 100.946 16.0093 101 16.52V17.0142C100.98 17.281 100.98 17.5489 101 17.8157C101.038 18.8692 101.312 19.9007 101.801 20.8346C102.309 21.75 103.011 22.5432 103.858 23.1589C104.276 23.4579 104.724 23.713 105.194 23.9203C105.621 24.1414 106.068 24.3204 106.53 24.4546C108.323 24.9492 110.173 25.2052 112.033 25.216L114.705 25.3228C115.159 25.3228 115.6 25.3228 116.041 25.3228H116.254H116.428C116.481 25.3324 116.535 25.3324 116.588 25.3228L116.789 25.216C116.789 25.216 116.789 25.216 116.962 25.0423C117.087 24.8681 117.144 24.6544 117.123 24.4412C117.11 24.3363 117.074 24.2357 117.016 24.1474C116.979 24.084 116.934 24.0256 116.882 23.9737C116.876 23.9086 116.858 23.8451 116.829 23.7867L116.682 23.7199H116.535H116.321L115.613 23.5863C115.613 23.5863 115.466 23.8936 115.88 24.3878C115.987 24.508 116.148 24.655 116.268 24.8019C116.268 24.8019 116.375 24.6149 116.375 24.6015C116.375 24.5882 116.375 24.6015 116.375 24.4947C116.361 24.4603 116.361 24.4222 116.375 24.3878V24.2809C116.375 24.2809 116.294 24.2809 116.241 24.2809L115.827 24.1206C114.953 23.8317 114.061 23.6041 113.155 23.4394C111.953 23.1989 110.35 23.0387 108.64 22.678C107.657 22.5572 106.715 22.2126 105.886 21.6707C105.057 21.1288 104.363 20.4041 103.858 19.5522C103.604 19.0053 103.45 18.4171 103.404 17.8157V17.2146C103.404 17.1345 103.404 17.0543 103.404 16.9207V16.7872V16.5334C103.377 16.1732 103.377 15.8115 103.404 15.4514C103.537 13.7324 104.221 12.1023 105.354 10.8028C107.866 7.7706 112.033 5.19253 116.989 2.97512" fill="#231F20" fill-opacity="0.49"/>
<path d="M116.321 23.1189C112.758 24.0375 109.335 25.4303 106.143 27.2598C104.486 28.1985 102.978 29.378 101.668 30.7596C100.226 32.2069 99.2887 34.0807 98.9961 36.1027C98.9427 36.6179 98.9427 37.1371 98.9961 37.6523V38.1331C98.9961 38.3869 98.9961 38.6808 98.9961 38.9346C99.0282 39.9891 99.3024 41.022 99.7975 41.9535C100.303 42.8476 100.996 43.6221 101.828 44.2243C102.248 44.5204 102.695 44.7753 103.164 44.9857C103.589 45.2094 104.037 45.3885 104.5 45.5201C106.292 46.0156 108.143 46.2716 110.003 46.2814L112.675 46.4017H114.291H114.451H114.625L114.812 46.2948C114.812 46.2948 114.812 46.2948 114.999 46.1212C115.062 46.0357 115.107 45.9385 115.133 45.8354C115.158 45.7322 115.162 45.625 115.146 45.5201C115.135 45.4167 115.103 45.3167 115.052 45.2262C115.011 45.1658 114.966 45.1079 114.919 45.0525L114.772 44.9323L114.625 44.8655H114.478H114.277L113.556 44.7319C113.556 44.7319 113.409 45.0392 113.837 45.5334C113.93 45.667 114.104 45.8006 114.224 45.9609C114.344 46.1212 114.224 45.9609 114.224 45.9609L114.344 45.7605C114.424 45.7605 114.344 45.7605 114.344 45.667C114.338 45.6272 114.338 45.5866 114.344 45.5468V45.4399C114.344 45.4399 114.344 45.4399 114.224 45.4399L113.81 45.293C112.939 44.9922 112.046 44.76 111.138 44.5984C109.936 44.3579 108.32 44.211 106.623 43.8503C105.641 43.7285 104.699 43.3835 103.87 42.8418C103.041 42.3 102.347 41.5758 101.841 40.7246C101.583 40.1737 101.424 39.5811 101.374 38.9747V38.3869C101.38 38.2846 101.38 38.182 101.374 38.0797V37.9595V37.6923C101.333 37.3328 101.333 36.9699 101.374 36.6103C101.5 34.8938 102.185 33.2658 103.324 31.9752C105.822 28.9296 110.003 26.3515 114.959 24.1341" fill="#231F20" fill-opacity="0.49"/>
<path d="M86.8804 19.4722C83.9803 20.1968 81.1608 21.2127 78.465 22.5044C75.6416 23.8001 73.1855 25.7788 71.3185 28.2616C70.3803 29.5903 69.7756 31.1251 69.5553 32.7365C69.341 34.3748 69.6201 36.0398 70.3567 37.5187C71.1233 38.9255 72.2357 40.1138 73.5889 40.9715C74.9421 41.8293 76.4915 42.3281 78.091 42.421C78.091 42.421 78.2112 42.1138 77.8505 41.6329C77.0363 40.8612 76.1405 40.1804 75.1789 39.6025C74.3427 38.9433 73.6128 38.1594 73.015 37.2782C72.6137 36.6822 72.3156 36.0229 72.1333 35.328C71.8775 34.4616 71.8137 33.5499 71.9463 32.6564C72.4024 30.0908 73.7624 27.7735 75.78 26.1244C78.6972 23.6214 82.0048 21.6134 85.5714 20.1801" fill="#231F20" fill-opacity="0.49"/>
<path d="M95.8571 51.1303C92.5108 50.3947 89.2799 49.2084 86.2528 47.6039C84.7818 46.8343 83.4316 45.8532 82.2454 44.6919C81.1095 43.6254 80.3501 42.2192 80.0814 40.6845C80.0481 40.3112 80.0481 39.9357 80.0814 39.5624V39.0281C80.0881 38.9258 80.0881 38.8232 80.0814 38.7209C80.0615 38.5433 80.0615 38.3641 80.0814 38.1866C80.0788 37.4556 80.2433 36.7337 80.5623 36.076C81.3113 34.7307 82.5584 33.733 84.0354 33.2976C85.6637 32.8123 87.3467 32.5341 89.0446 32.4694L91.7161 32.269H92.9718H93.1054V32.0553C93.1054 31.7614 93.2256 31.5477 93.2656 31.5477C93.1423 31.4059 93.0552 31.2363 93.0118 31.0535L92.8916 30.8665H92.7848C92.6111 30.8665 92.384 30.96 92.1837 31C91.9833 31.0401 92.1837 31.3473 92.6913 31.6546C92.8768 31.7549 93.0819 31.8142 93.2924 31.8282H93.3591C93.3591 31.8282 93.3591 31.8282 93.5194 31.7214V31.6546C93.5398 31.5757 93.5398 31.493 93.5194 31.4141C93.3992 31.2004 93.3992 31.2672 93.3725 31.2271L93.2389 31.1603L92.9985 31.0535C92.8421 30.9854 92.6814 30.9274 92.5176 30.8798C91.5974 30.6286 90.6521 30.4808 89.6991 30.439C88.0401 30.3129 86.372 30.3846 84.73 30.6527C83.4857 30.8895 82.2923 31.3415 81.2035 31.9885C79.7782 32.8343 78.6883 34.1459 78.1178 35.702C77.8305 36.5621 77.7037 37.4677 77.7438 38.3736V38.7476V38.9346V39.4689C77.7418 39.9574 77.7866 40.445 77.8774 40.9249C78.3362 42.9403 79.4667 44.7397 81.0833 46.0276C84.3559 48.6992 88.8976 50.1686 94.0671 50.9968" fill="#231F20" fill-opacity="0.49"/>
<path d="M122.386 80.6244C117.835 79.9096 113.497 78.1992 109.683 75.6152C109.514 75.8028 109.39 76.0268 109.322 76.2698C109.243 76.5798 109.237 76.9041 109.304 77.2169C109.371 77.5298 109.51 77.8229 109.709 78.0731C110.637 79.1602 111.878 79.9345 113.263 80.2905C116.023 81.0853 118.926 81.2496 121.758 80.7714" fill="#231F20" fill-opacity="0.49"/>
<path d="M84.6763 65.3298C81.3386 64.5798 78.1139 63.3942 75.0854 61.8033C73.6149 61.033 72.2649 60.0519 71.078 58.8913C69.9523 57.8189 69.1988 56.4148 68.9274 54.8839C68.8871 54.5154 68.8871 54.1437 68.9274 53.7752V52.9337C68.9147 52.7558 68.9147 52.5772 68.9274 52.3994C68.9292 51.6631 69.0982 50.9369 69.4216 50.2755C70.1677 48.9304 71.4167 47.9361 72.8947 47.5104C74.5201 47.0123 76.2047 46.7338 77.9039 46.6822L80.5755 46.4818C81.0163 46.4818 81.4571 46.4818 81.8445 46.4818H81.978V46.2681C81.9992 46.0843 82.0584 45.9069 82.1517 45.7471C82.1517 45.7471 81.978 45.52 81.8845 45.2663L81.8044 45.0525H81.6975L81.0964 45.1727C81.0964 45.1727 81.0964 45.5334 81.604 45.8406C81.7878 45.9453 81.9938 46.0048 82.2051 46.0143H82.2719C82.2719 46.0143 82.2719 46.0143 82.4322 45.9208V45.8406C82.4492 45.8028 82.4579 45.7619 82.4579 45.7204C82.4579 45.679 82.4492 45.638 82.4322 45.6002C82.3253 45.3998 82.3253 45.4666 82.2986 45.4265L82.1651 45.3464L81.9246 45.2395L81.4437 45.0792C80.5189 44.8283 79.5692 44.6804 78.6119 44.6384C76.9573 44.5124 75.2936 44.5841 73.6561 44.8522C72.4118 45.0889 71.2184 45.5409 70.1296 46.1879C68.7014 47.0303 67.6105 48.3431 67.0439 49.9014C66.7515 50.7605 66.6202 51.6662 66.6566 52.573V52.9337V53.134V53.6684C66.6552 54.1524 66.6999 54.6355 66.7901 55.111C67.2544 57.1551 68.4163 58.9736 70.0762 60.2538C73.3489 62.9254 77.8905 64.4081 83.06 65.2229" fill="#231F20" fill-opacity="0.49"/>
<path d="M105.087 44.2241C101.25 45.199 97.5769 46.7338 94.1869 48.7792C92.4405 49.8546 90.9131 51.2505 89.6853 52.8934C88.4131 54.6296 87.8322 56.777 88.0557 58.9178C88.3235 58.9131 88.5821 58.819 88.7904 58.6506C89.0459 58.4615 89.2634 58.2259 89.4315 57.956C89.6185 57.6488 89.8991 57.248 90.1662 56.7404C91.0264 55.0748 92.1445 53.5555 93.479 52.2388C96.6958 49.2595 100.321 46.7541 104.245 44.7985" fill="#231F20" fill-opacity="0.49"/>
<path d="M182.923 49.4071C180.984 46.2667 179.847 42.6979 179.611 39.0147C179.867 35.3214 181.028 31.7479 182.99 28.6089C185.862 24.2008 190.257 21.3155 192.154 16.1059C192.635 14.7701 194.478 12.3123 190.818 7.23627C190.284 6.50159 181.614 4.5647 175.937 13.4878C171.77 20.0732 169.258 23.4794 167.669 27.7406C166.437 31.1716 165.778 34.7819 165.719 38.4269V38.4269V39.5757C165.778 43.2207 166.437 46.831 167.669 50.262C169.245 54.5098 171.77 57.9294 175.937 64.5015C181.614 73.4913 190.284 71.4876 190.818 70.753C194.518 65.6903 192.675 63.2191 192.154 61.8967C190.19 56.7005 185.795 53.8285 182.923 49.4071Z" stroke="#231F20" stroke-opacity="0.49" stroke-width="3" stroke-miterlimit="10"/>
<path d="M97.4329 57.1414L113.462 53.5615C113.462 53.5615 120.796 50.8899 119.607 57.1414C118.133 63.8387 114.2 69.7396 108.587 73.6784C102.877 77.6921 96.0637 79.8387 89.0842 79.8231C88.6034 79.8231 80.1211 78.7945 79.3196 74.7871C79.2261 74.3463 78.3979 72.7568 81.9111 69.2036C90.794 60.2538 88.256 59.105 97.4329 57.1414Z" stroke="#231F20" stroke-opacity="0.49" stroke-width="3" stroke-miterlimit="10"/>
<path d="M109.081 59.0649C108.32 60.8816 107.465 62.725 106.543 64.4882C105.694 66.2393 104.616 67.8698 103.337 69.3371C103.487 69.5313 103.673 69.6946 103.885 69.818C104.148 69.9642 104.445 70.0409 104.746 70.0409C105.048 70.0409 105.344 69.9642 105.608 69.818C107.077 69.0967 108.988 66.345 109.188 59.6794" fill="#231F20" fill-opacity="0.49"/>
<path d="M102.322 60.4275C101.226 62.6583 100.024 64.9024 98.7416 67.0396C98.1004 68.1216 97.4058 69.1635 96.7112 70.1654C96.0332 71.1356 95.2541 72.0312 94.387 72.837C94.5597 73.0972 94.7878 73.3161 95.0549 73.4781C95.3752 73.6779 95.7422 73.7905 96.1195 73.8045C96.4968 73.8186 96.8712 73.7337 97.2055 73.5583C99.1023 72.7568 101.694 69.4307 102.402 61.1087" fill="#231F20" fill-opacity="0.49"/>
<path d="M95.2693 60.1602C93.9335 62.6581 92.3439 65.1694 90.7143 67.5471C89.8861 68.7493 89.0312 69.9114 88.1362 71.0067C87.2804 72.0934 86.3084 73.0833 85.2375 73.9588C85.4278 74.2751 85.6773 74.5518 85.9722 74.7737C86.3309 75.033 86.75 75.1962 87.1896 75.2477C87.6292 75.2991 88.0747 75.2371 88.4835 75.0675C90.7544 74.3195 94.0537 70.6461 95.3227 61.0151" fill="#231F20" fill-opacity="0.49"/>
<path d="M164.383 34.7135C164.677 32.9941 165.124 31.3043 165.719 29.6642C167.308 25.5099 169.819 22.1971 173.987 15.7854C175.299 13.6926 177.101 11.9505 179.237 10.7094L177.113 8.8927C164.092 4.03523 150.248 1.76648 136.358 2.21376C121.189 2.61792 106.302 6.40586 92.7846 13.3008C81.2968 19.392 60.325 30.5325 60.2181 45.1593C60.138 54.3629 68.3397 63.1791 80.0278 69.9382C88.7772 61.2556 86.306 60.1736 95.4562 58.2768L111.486 54.7904C111.486 54.7904 118.806 52.1188 117.617 58.2768C116.104 64.822 112.166 70.5502 106.597 74.3062C104.316 75.8994 101.837 77.1882 99.2231 78.1399C106.314 80.3588 113.639 81.744 121.05 82.2675C146.764 83.9105 166.467 72.5563 174.481 67.3334L174.588 66.1045C174.428 65.864 174.241 65.6503 174.081 65.3965C169.913 58.9981 167.402 55.672 165.812 51.531C165.22 49.8903 164.773 48.2007 164.476 46.4818C164.141 44.7195 163.953 42.9322 163.915 41.1386V41.1386C163.915 40.9382 163.915 40.7646 163.915 40.5776C163.915 40.3906 163.915 40.2036 163.915 40.0165C163.923 38.2389 164.08 36.4651 164.383 34.7135V34.7135Z" stroke="#231F20" stroke-opacity="0.49" stroke-width="2.96" stroke-miterlimit="10"/>
<path d="M74.2039 63.9138C73.0818 63.0233 72.0266 62.1016 71.0381 61.1487C68.9409 63.5932 62.7295 70.4992 57.6802 73.5315C51.4154 77.1514 45.8184 68.0414 45.8184 68.0414C41.5305 59.0382 49.8258 53.1073 49.8258 53.1073C50.9078 52.3459 51.3486 51.6513 51.3619 50.9967C51.3619 49.3537 48.9308 48.7526 46.7535 46.6287C45.0507 44.8053 43.8445 42.5753 43.2504 40.1522C42.6564 37.7292 42.6943 35.1942 43.3606 32.7899C43.7237 31.6786 44.2028 30.6085 44.7899 29.5974C45.6562 27.6661 47.0439 26.0146 48.7972 24.8286C51.776 23.1723 55.2357 24.4279 56.104 24.7619L66.6567 31.4408C67.986 29.7106 69.4511 28.0892 71.0381 26.5919L70.8644 24.4947L50.0395 11.2704C48.7037 10.7494 43.3606 8.78584 38.6853 11.3639C35.7199 13.0203 34.01 15.9724 32.4739 18.8443C31.5525 20.4038 30.8088 22.0616 30.2565 23.7867C28.2795 30.1852 29.6687 39.6559 35.3458 45.1994C38.7254 48.4988 42.5724 49.4339 42.5057 52.0119C42.5057 53.0138 41.7977 54.0957 40.1146 55.2712C40.1146 55.2712 27.3311 64.4748 33.9833 78.4605C33.9833 78.4605 42.6793 92.6065 52.3905 86.9828C62.1017 81.3592 74.4176 66.3983 74.4176 66.3983L74.2039 63.9138Z" stroke="#231F20" stroke-opacity="0.49" stroke-width="2" stroke-miterlimit="10"/>
<path d="M82.6617 53H79.7024L73.9416 43.5499V53H70.9822V38.6374H73.9416L79.7123 48.1072V38.6374H82.6617V53ZM89.9713 53.1973C88.4061 53.1973 87.1303 52.7172 86.1439 51.7571C85.164 50.7969 84.6741 49.5178 84.6741 47.9198V47.6436C84.6741 46.5717 84.8812 45.6148 85.2955 44.773C85.7099 43.9247 86.2951 43.2737 87.0514 42.8199C87.8143 42.3595 88.6823 42.1294 89.6556 42.1294C91.1156 42.1294 92.2631 42.5897 93.0983 43.5104C93.9401 44.4311 94.361 45.7365 94.361 47.4266V48.5906H87.5644C87.6564 49.2877 87.9326 49.8467 88.393 50.2675C88.8599 50.6884 89.4485 50.8989 90.1587 50.8989C91.257 50.8989 92.1152 50.501 92.7333 49.7053L94.1341 51.2737C93.7066 51.8787 93.1279 52.3522 92.3979 52.6942C91.668 53.0296 90.8591 53.1973 89.9713 53.1973ZM89.6458 44.4377C89.0802 44.4377 88.6199 44.6284 88.2647 45.0098C87.9162 45.3912 87.6926 45.9371 87.594 46.6473H91.5595V46.4204C91.5463 45.7891 91.3753 45.3024 91.0465 44.9605C90.7177 44.6119 90.2508 44.4377 89.6458 44.4377ZM105.271 49.1233L106.672 42.3267H109.424L106.701 53H104.314L102.292 46.2823L100.27 53H97.8924L95.1699 42.3267H97.922L99.3129 49.1134L101.266 42.3267H103.328L105.271 49.1233ZM126.282 41.0344H121.883V53H118.923V41.0344H114.583V38.6374H126.282V41.0344ZM133.138 44.9999C132.75 44.9473 132.408 44.921 132.112 44.921C131.034 44.921 130.327 45.286 129.991 46.016V53H127.141V42.3267H129.834L129.912 43.5992C130.485 42.6193 131.277 42.1294 132.29 42.1294C132.605 42.1294 132.901 42.1721 133.178 42.2576L133.138 44.9999ZM140.408 53C140.277 52.7435 140.181 52.4246 140.122 52.0431C139.432 52.8126 138.534 53.1973 137.429 53.1973C136.384 53.1973 135.515 52.8948 134.825 52.2898C134.141 51.6847 133.799 50.9219 133.799 50.0012C133.799 48.8701 134.217 48.002 135.052 47.397C135.894 46.792 137.107 46.4862 138.692 46.4796H140.004V45.868C140.004 45.3748 139.876 44.9802 139.619 44.6843C139.369 44.3883 138.971 44.2404 138.425 44.2404C137.945 44.2404 137.567 44.3555 137.291 44.5856C137.021 44.8158 136.887 45.1315 136.887 45.5326H134.036C134.036 44.9144 134.227 44.3423 134.608 43.8162C134.989 43.2901 135.529 42.8791 136.226 42.5831C136.923 42.2806 137.705 42.1294 138.573 42.1294C139.889 42.1294 140.931 42.4615 141.7 43.1257C142.476 43.7833 142.864 44.7106 142.864 45.9075V50.5339C142.871 51.5466 143.012 52.3128 143.289 52.8323V53H140.408ZM138.051 51.0172C138.472 51.0172 138.86 50.9252 139.215 50.741C139.57 50.5503 139.833 50.2971 140.004 49.9815V48.1467H138.938C137.511 48.1467 136.752 48.6399 136.66 49.6264L136.65 49.7941C136.65 50.1492 136.775 50.4418 137.025 50.672C137.275 50.9022 137.617 51.0172 138.051 51.0172ZM149.493 50.8989C150.019 50.8989 150.447 50.7542 150.776 50.4648C151.105 50.1755 151.276 49.7908 151.289 49.3107H153.962C153.955 50.0341 153.758 50.6983 153.37 51.3033C152.982 51.9018 152.449 52.3687 151.772 52.7041C151.101 53.0329 150.358 53.1973 149.543 53.1973C148.017 53.1973 146.814 52.7139 145.932 51.7472C145.051 50.7739 144.61 49.4324 144.61 47.7225V47.5351C144.61 45.891 145.048 44.579 145.922 43.5992C146.797 42.6193 147.997 42.1294 149.523 42.1294C150.858 42.1294 151.927 42.5108 152.729 43.2737C153.538 44.0299 153.949 45.0394 153.962 46.302H151.289C151.276 45.7496 151.105 45.3024 150.776 44.9605C150.447 44.6119 150.013 44.4377 149.474 44.4377C148.809 44.4377 148.306 44.681 147.964 45.1676C147.629 45.6477 147.461 46.4303 147.461 47.5154V47.8113C147.461 48.9095 147.629 49.6987 147.964 50.1788C148.3 50.6588 148.809 50.8989 149.493 50.8989ZM159.466 48.7188L158.44 49.7447V53H155.59V37.8482H158.44V46.2429L158.993 45.5326L161.725 42.3267H165.148L161.291 46.7755L165.484 53H162.209L159.466 48.7188Z" fill="#C9C9C9"/>
</g>
</svg>
