<svg width="70" height="70" viewBox="0 0 70 70" fill="none" xmlns="http://www.w3.org/2000/svg">
<path fill-rule="evenodd" clip-rule="evenodd" d="M35 70C54.33 70 70 54.33 70 35C70 15.67 54.33 0 35 0C15.67 0 0 15.67 0 35C0 54.33 15.67 70 35 70ZM35.1764 17L35.2471 17.0002C35.7856 17.0017 36.2212 17.4388 36.221 17.9771V17.9794C36.2195 18.5179 35.7825 18.9533 35.2444 18.9533H35.2418L35.171 18.9531C34.6324 18.9517 34.1969 18.5146 34.1971 17.9763V17.9739C34.1985 17.4354 34.6356 17 35.1736 17H35.1764ZM58.964 23.0652C58.3228 20.6272 56.4313 18.7071 54.0282 18.0544C51.5502 17.3795 44.6415 17.131 39.2821 17.0414C38.746 17.0341 38.2983 17.4623 38.2894 18.0016C38.2804 18.5408 38.7103 18.9854 39.2495 18.9944C46.6675 19.1184 51.7337 19.4538 53.5156 19.9391C55.2471 20.4094 56.611 21.7976 57.0752 23.5625C58.0352 27.2034 58.0469 34.988 58.0469 35.0661C58.0469 35.1444 58.0352 42.9289 57.0751 46.5704C56.611 48.3348 55.2471 49.723 53.515 50.1935C49.9361 51.1681 35.1489 51.1795 35 51.1795C34.8511 51.1795 20.0639 51.168 16.4844 50.1933C14.7529 49.723 13.389 48.3348 12.9248 46.5698C11.9648 42.9289 11.9531 35.1444 11.9531 35.0662C11.9531 34.988 11.9648 27.2034 12.9249 23.562C13.389 21.7977 14.7529 20.4095 16.485 19.939C18.306 19.4431 23.522 19.1053 31.1724 18.9876C31.7116 18.9794 32.142 18.5355 32.1338 17.9962C32.1255 17.457 31.6802 17.0301 31.1423 17.0348C25.618 17.1196 18.5018 17.3655 15.9724 18.0543C13.5688 18.7071 11.6772 20.6273 11.0362 23.0647C10.0118 26.9502 10 34.7366 10 35.0662C10 35.3958 10.0118 43.1822 11.036 47.0672C11.6772 49.5052 13.5688 51.4252 15.9718 52.0779C19.8007 53.1206 34.3812 53.1326 35 53.1326C35.6188 53.1326 50.1993 53.1206 54.0276 52.0781C56.4312 51.4253 58.3228 49.5052 58.9638 47.0678C59.9882 43.1822 60 35.3958 60 35.0662C60 34.7366 59.9882 26.9502 58.964 23.0652ZM14.6875 33.457C14.6875 32.9177 15.1247 32.4804 15.6641 32.4804C16.2034 32.4804 16.6406 32.9177 16.6406 33.457V41.416C16.6406 41.9554 16.2034 42.3926 15.6641 42.3926C15.1247 42.3926 14.6875 41.9554 14.6875 41.416V33.457ZM15.6641 28.0371C15.1247 28.0371 14.6875 28.4743 14.6875 29.0137V29.0252C14.6875 29.5645 15.1247 30.0017 15.6641 30.0017C16.2034 30.0017 16.6406 29.5645 16.6406 29.0252V29.0137C16.6406 28.4743 16.2034 28.0371 15.6641 28.0371ZM30.8111 27.3391L42.9205 34.3703C43.2215 34.5451 43.4067 34.8668 43.4067 35.2148C43.4067 35.5629 43.2216 35.8846 42.9205 36.0594L30.8111 43.0906C30.6596 43.1787 30.4902 43.2227 30.3207 43.2227C30.1525 43.2227 29.9843 43.1793 29.8335 43.0925C29.5308 42.9182 29.3442 42.5955 29.3442 42.2461V28.1836C29.3442 27.8343 29.5308 27.5115 29.8335 27.3372C30.1362 27.1629 30.509 27.1636 30.8111 27.3391ZM40.4853 35.2148L31.2973 29.8799V40.5498L40.4853 35.2148Z" fill="#EE8A7C"/>
</svg>
